999
Inkscape export via OpenSCAD DXF Export
  0
SECTION
  2
HEADER
  9
$ACADVER
  1
AC1014
  9
$HANDSEED
  5
FFFF
  9
$MEASUREMENT
 70
     1
  0
ENDSEC
  0
SECTION
  2
TABLES
  0
TABLE
  2
VPORT
  5
8
330
0
100
AcDbSymbolTable
 70
     4
  0
VPORT
  5
2E
330
8
100
AcDbSymbolTableRecord
100
AcDbViewportTableRecord
  2
*ACTIVE
 70
     0
 10
0.0
 20
0.0
 11
1.0
 21
1.0
 12
210.0
 22
148.5
 13
0.0
 23
0.0
 14
10.0
 24
10.0
 15
10.0
 25
10.0
 16
0.0
 26
0.0
 36
1.0
 17
0.0
 27
0.0
 37
0.0
 40
341.0
 41
1.24
 42
50.0
 43
0.0
 44
0.0
 50
0.0
 51
0.0
 71
     0
 72
   100
 73
     1
 74
     3
 75
     0
 76
     0
 77
     0
 78
     0
  0
ENDTAB
  0
TABLE
  2
LTYPE
  5
5
330
0
100
AcDbSymbolTable
 70
     1
  0
LTYPE
  5
14
330
5
100
AcDbSymbolTableRecord
100
AcDbLinetypeTableRecord
  2
BYBLOCK
 70
     0
  3

 72
    65
 73
     0
 40
0.0
  0
LTYPE
  5
15
330
5
100
AcDbSymbolTableRecord
100
AcDbLinetypeTableRecord
  2
BYLAYER
 70
     0
  3

 72
    65
 73
     0
 40
0.0
  0
LTYPE
  5
16
330
5
100
AcDbSymbolTableRecord
100
AcDbLinetypeTableRecord
  2
CONTINUOUS
 70
     0
  3
Solid line
 72
    65
 73
     0
 40
0.0
  0
ENDTAB
  0
TABLE
0
TABLE
2
LAYER
5
2
330
0
100
AcDbSymbolTable
70
1
0
LAYER
5
10
330
2
100
AcDbSymbolTableRecord
100
AcDbLayerTableRecord
2
Layer_1
70
0
62
7
6
CONTINUOUS
0
ENDTAB
0
ENDSEC
  0
ENDTAB
  0
TABLE
  2
STYLE
  5
3
330
0
100
AcDbSymbolTable
 70
     1
  0
STYLE
  5
11
330
3
100
AcDbSymbolTableRecord
100
AcDbTextStyleTableRecord
  2
STANDARD
 70
     0
 40
0.0
 41
1.0
 50
0.0
 71
     0
 42
2.5
  3
txt
  4

  0
ENDTAB
  0
TABLE
  2
VIEW
  5
6
330
0
100
AcDbSymbolTable
 70
     0
  0
ENDTAB
  0
TABLE
  2
UCS
  5
7
330
0
100
AcDbSymbolTable
 70
     0
  0
ENDTAB
  0
TABLE
  2
APPID
  5
9
330
0
100
AcDbSymbolTable
 70
     2
  0
APPID
  5
12
330
9
100
AcDbSymbolTableRecord
100
AcDbRegAppTableRecord
  2
ACAD
 70
     0
  0
ENDTAB
  0
TABLE
  2
DIMSTYLE
  5
A
330
0
100
AcDbSymbolTable
 70
     1
  0
DIMSTYLE
105
27
330
A
100
AcDbSymbolTableRecord
100
AcDbDimStyleTableRecord
  2
ISO-25
 70
     0
  3

  4

  5

  6

  7

 40
1.0
 41
2.5
 42
0.625
 43
3.75
 44
1.25
 45
0.0
 46
0.0
 47
0.0
 48
0.0
140
2.5
141
2.5
142
0.0
143
0.03937007874016
144
1.0
145
0.0
146
1.0
147
0.625
 71
     0
 72
     0
 73
     0
 74
     0
 75
     0
 76
     0
 77
     1
 78
     8
170
     0
171
     3
172
     1
173
     0
174
     0
175
     0
176
     0
177
     0
178
     0
270
     2
271
     2
272
     2
273
     2
274
     3
340
11
275
     0
280
     0
281
     0
282
     0
283
     0
284
     8
285
     0
286
     0
287
     3
288
     0
  0
ENDTAB
  0
TABLE
  2
BLOCK_RECORD
  5
1
330
0
100
AcDbSymbolTable
 70
     1
  0
BLOCK_RECORD
  5
1F
330
1
100
AcDbSymbolTableRecord
100
AcDbBlockTableRecord
  2
*MODEL_SPACE
  0
BLOCK_RECORD
  5
1B
330
1
100
AcDbSymbolTableRecord
100
AcDbBlockTableRecord
  2
*PAPER_SPACE
  0
ENDTAB
  0
ENDSEC
  0
SECTION
  2
BLOCKS
  0
BLOCK
  5
20
330
1F
100
AcDbEntity
  8
0
100
AcDbBlockBegin
  2
*MODEL_SPACE
 70
     0
 10
0.0
 20
0.0
 30
0.0
  3
*MODEL_SPACE
  1

  0
ENDBLK
  5
21
330
1F
100
AcDbEntity
  8
0
100
AcDbBlockEnd
  0
BLOCK
  5
1C
330
1B
100
AcDbEntity
 67
     1
  8
0
100
AcDbBlockBegin
  2
*PAPER_SPACE
  1

  0
ENDBLK
  5
1D
330
1B
100
AcDbEntity
 67
     1
  8
0
100
AcDbBlockEnd
  0
ENDSEC
  0
SECTION
  2
ENTITIES
0
DIMENSION
5
83
100
AcDbEntity
62
256
370
-1
6
ByLayer
1
total_width
3
Standard
70
0
71
5
72
1
41
1.0
100
AcDbAlignedDimension
13
-66.947232
23
0.000000
33
0.0
14
66.840298
24
0.000000
34
0.0
50
0.000000
100
AcDbRotatedDimension
0
DIMENSION
5
83
100
AcDbEntity
62
256
370
-1
6
ByLayer
1
total_minx
3
Standard
70
0
71
5
72
1
41
1.0
100
AcDbAlignedDimension
13
-66.947232
23
0.000000
33
0.0
14
0.000000
24
0.000000
34
0.0
50
0.000000
100
AcDbRotatedDimension
0
DIMENSION
5
83
100
AcDbEntity
62
256
370
-1
6
ByLayer
1
total_maxx
3
Standard
70
0
71
5
72
1
41
1.0
100
AcDbAlignedDimension
13
0.000000
23
0.000000
33
0.0
14
66.840298
24
0.000000
34
0.0
50
0.000000
100
AcDbRotatedDimension
0
DIMENSION
5
83
100
AcDbEntity
62
256
370
-1
6
ByLayer
1
total_height
3
Standard
70
0
71
5
72
1
41
1.0
100
AcDbAlignedDimension
13
0.000000
23
67.979318
33
0.0
14
0.000000
24
201.355283
34
0.0
50
90.000000
100
AcDbRotatedDimension
0
DIMENSION
5
83
100
AcDbEntity
62
256
370
-1
6
ByLayer
1
total_miny
3
Standard
70
0
71
5
72
1
41
1.0
100
AcDbAlignedDimension
13
67.979318
23
0.000000
33
0.0
14
0.000000
24
0.000000
34
0.0
50
0.000000
100
AcDbRotatedDimension
0
DIMENSION
5
83
100
AcDbEntity
62
256
370
-1
6
ByLayer
1
total_maxy
3
Standard
70
0
71
5
72
1
41
1.0
100
AcDbAlignedDimension
13
0.000000
23
0.000000
33
0.0
14
201.355283
24
0.000000
34
0.0
50
0.000000
100
AcDbRotatedDimension
0
DIMENSION
8
Layer_1
5
83
100
AcDbEntity
62
256
370
-1
6
ByLayer
1
Layer_1_width
3
Standard
70
0
71
5
72
1
41
1.0
100
AcDbAlignedDimension
13
-66.947232
23
0.000000
33
0.0
14
66.840298
24
0.000000
34
0.0
50
0.000000
100
AcDbRotatedDimension
0
DIMENSION
8
Layer_1
5
83
100
AcDbEntity
62
256
370
-1
6
ByLayer
1
Layer_1_minx
3
Standard
70
0
71
5
72
1
41
1.0
100
AcDbAlignedDimension
13
-66.947232
23
0.000000
33
0.0
14
0.000000
24
0.000000
34
0.0
50
0.000000
100
AcDbRotatedDimension
0
DIMENSION
8
Layer_1
5
83
100
AcDbEntity
62
256
370
-1
6
ByLayer
1
Layer_1_maxx
3
Standard
70
0
71
5
72
1
41
1.0
100
AcDbAlignedDimension
13
0.000000
23
0.000000
33
0.0
14
66.840298
24
0.000000
34
0.0
50
0.000000
100
AcDbRotatedDimension
0
DIMENSION
8
Layer_1
5
83
100
AcDbEntity
62
256
370
-1
6
ByLayer
1
Layer_1_height
3
Standard
70
0
71
5
72
1
41
1.0
100
AcDbAlignedDimension
13
0.000000
23
67.979318
33
0.0
14
0.000000
24
201.355283
34
0.0
50
90.000000
100
AcDbRotatedDimension
0
DIMENSION
8
Layer_1
5
83
100
AcDbEntity
62
256
370
-1
6
ByLayer
1
Layer_1_miny
3
Standard
70
0
71
5
72
1
41
1.0
100
AcDbAlignedDimension
13
67.979318
23
0.000000
33
0.0
14
0.000000
24
0.000000
34
0.0
50
0.000000
100
AcDbRotatedDimension
0
DIMENSION
8
Layer_1
5
83
100
AcDbEntity
62
256
370
-1
6
ByLayer
1
Layer_1_maxy
3
Standard
70
0
71
5
72
1
41
1.0
100
AcDbAlignedDimension
13
0.000000
23
0.000000
33
0.0
14
201.355283
24
0.000000
34
0.0
50
0.000000
100
AcDbRotatedDimension
62
255
0
LWPOLYLINE
100
AcDbPolyline
8
Layer_1
90
1123
70
0
10
56.396100
20
134.338794
30
0.0
10
56.451867
20
134.341531
30
0.0
10
56.531284
20
134.347063
30
0.0
10
56.634211
20
134.356320
30
0.0
10
56.760562
20
134.370290
30
0.0
10
56.910139
20
134.389932
30
0.0
10
57.082803
20
134.416236
30
0.0
10
57.278270
20
134.450130
30
0.0
10
57.496343
20
134.492548
30
0.0
10
57.736712
20
134.544477
30
0.0
10
57.999094
20
134.606792
30
0.0
10
58.283122
20
134.680452
30
0.0
10
58.588458
20
134.766360
30
0.0
10
58.914707
20
134.865392
30
0.0
10
59.261446
20
134.978507
30
0.0
10
59.628222
20
135.106523
30
0.0
10
60.014556
20
135.250343
30
0.0
10
60.419968
20
135.410787
30
0.0
10
60.843894
20
135.588728
30
0.0
10
61.285797
20
135.784985
30
0.0
10
61.745086
20
136.000349
30
0.0
10
62.221138
20
136.235609
30
0.0
10
62.713362
20
136.491557
30
0.0
10
63.221080
20
136.768981
30
0.0
10
63.743614
20
137.068560
30
0.0
10
64.280232
20
137.391055
30
0.0
10
64.830226
20
137.737144
30
0.0
10
65.392864
20
138.107505
30
0.0
10
65.967356
20
138.502813
30
0.0
10
66.552882
20
138.923720
30
0.0
10
66.840298
20
139.347674
30
0.0
10
66.410953
20
143.410150
30
0.0
10
66.041298
20
143.764677
30
0.0
10
65.380701
20
144.053899
30
0.0
10
64.736274
20
144.320373
30
0.0
10
64.108669
20
144.564975
30
0.0
10
63.498448
20
144.788438
30
0.0
10
62.906289
20
144.991638
30
0.0
10
62.332672
20
145.175365
30
0.0
10
61.778190
20
145.340522
30
0.0
10
61.243351
20
145.487954
30
0.0
10
60.728606
20
145.618510
30
0.0
10
60.234435
20
145.733093
30
0.0
10
59.761289
20
145.832661
30
0.0
10
59.309536
20
145.918033
30
0.0
10
58.879542
20
145.990225
30
0.0
10
58.471675
20
146.050085
30
0.0
10
58.086244
20
146.098627
30
0.0
10
57.723532
20
146.136727
30
0.0
10
57.383793
20
146.165401
30
0.0
10
57.067252
20
146.185580
30
0.0
10
56.774080
20
146.198251
30
0.0
10
56.504473
20
146.204347
30
0.0
10
56.258545
20
146.204855
30
0.0
10
56.036436
20
146.200763
30
0.0
10
55.838203
20
146.193058
30
0.0
10
55.663874
20
146.182673
30
0.0
10
55.513478
20
146.170622
30
0.0
10
55.386986
20
146.157894
30
0.0
10
55.284398
20
146.145419
30
0.0
10
55.205602
20
146.134215
30
0.0
10
55.150484
20
146.125240
30
0.0
10
55.118931
20
146.119455
30
0.0
10
50.712737
20
145.177708
30
0.0
10
48.356464
20
153.071181
30
0.0
10
52.557878
20
154.698898
30
0.0
10
52.587426
20
154.711372
30
0.0
10
52.638452
20
154.734062
30
0.0
10
52.710503
20
154.767873
30
0.0
10
52.803129
20
154.813706
30
0.0
10
52.915905
20
154.872380
30
0.0
10
53.048295
20
154.944741
30
0.0
10
53.199764
20
155.031638
30
0.0
10
53.369803
20
155.133830
30
0.0
10
53.557819
20
155.252194
30
0.0
10
53.763220
20
155.387407
30
0.0
10
53.985358
20
155.540315
30
0.0
10
54.223610
20
155.711596
30
0.0
10
54.477299
20
155.902011
30
0.0
10
54.745749
20
156.112238
30
0.0
10
55.028197
20
156.342955
30
0.0
10
55.323966
20
156.594810
30
0.0
10
55.632265
20
156.868481
30
0.0
10
55.952334
20
157.164532
30
0.0
10
56.283352
20
157.483612
30
0.0
10
56.624502
20
157.826230
30
0.0
10
56.974966
20
158.192950
30
0.0
10
57.333924
20
158.584336
30
0.0
10
57.700446
20
159.000811
30
0.0
10
58.073657
20
159.442884
30
0.0
10
58.452681
20
159.911006
30
0.0
10
58.836560
20
160.405572
30
0.0
10
59.224418
20
160.926978
30
0.0
10
59.615239
20
161.475561
30
0.0
10
60.008149
20
162.051718
30
0.0
10
60.402103
20
162.655702
30
0.0
10
60.516911
20
163.154868
30
0.0
10
58.649052
20
166.787915
30
0.0
10
58.176273
20
166.984962
30
0.0
10
57.455816
20
167.016007
30
0.0
10
56.758642
20
167.031726
30
0.0
10
56.085063
20
167.033138
30
0.0
10
55.435331
20
167.021115
30
0.0
10
54.809729
20
166.996646
30
0.0
10
54.208482
20
166.960776
30
0.0
10
53.631790
20
166.914463
30
0.0
10
53.079819
20
166.858724
30
0.0
10
52.552656
20
166.794519
30
0.0
10
52.050470
20
166.722891
30
0.0
10
51.573317
20
166.644772
30
0.0
10
51.121225
20
166.561206
30
0.0
10
50.694195
20
166.473180
30
0.0
10
50.292254
20
166.381684
30
0.0
10
49.915318
20
166.287704
30
0.0
10
49.563330
20
166.192200
30
0.0
10
49.236150
20
166.096216
30
0.0
10
48.933693
20
166.000684
30
0.0
10
48.655760
20
165.906591
30
0.0
10
48.402155
20
165.814869
30
0.0
10
48.172652
20
165.726533
30
0.0
10
47.967025
20
165.642459
30
0.0
10
47.784935
20
165.563663
30
0.0
10
47.626129
20
165.491019
30
0.0
10
47.490239
20
165.425459
30
0.0
10
47.376927
20
165.367885
30
0.0
10
47.285741
20
165.319202
30
0.0
10
47.216314
20
165.280284
30
0.0
10
47.168167
20
165.252005
30
0.0
10
47.140848
20
165.235184
30
0.0
10
43.372391
20
162.765345
30
0.0
10
38.323774
20
169.274603
30
0.0
10
41.653460
20
172.310129
30
0.0
10
41.676518
20
172.332424
30
0.0
10
41.715888
20
172.372020
30
0.0
10
41.770864
20
172.429593
30
0.0
10
41.840714
20
172.505793
30
0.0
10
41.924647
20
172.601241
30
0.0
10
42.021958
20
172.716529
30
0.0
10
42.131827
20
172.852278
30
0.0
10
42.253464
20
173.009024
30
0.0
10
42.386024
20
173.187275
30
0.0
10
42.528688
20
173.387568
30
0.0
10
42.680608
20
173.610411
30
0.0
10
42.840910
20
173.856198
30
0.0
10
43.008663
20
174.125382
30
0.0
10
43.183048
20
174.418385
30
0.0
10
43.363078
20
174.735546
30
0.0
10
43.547905
20
175.077261
30
0.0
10
43.736514
20
175.443811
30
0.0
10
43.928002
20
175.835479
30
0.0
10
44.121409
20
176.252576
30
0.0
10
44.315775
20
176.695326
30
0.0
10
44.510113
20
177.163899
30
0.0
10
44.703407
20
177.658494
30
0.0
10
44.894726
20
178.179250
30
0.0
10
45.083053
20
178.726310
30
0.0
10
45.267372
20
179.299729
30
0.0
10
45.446696
20
179.899564
30
0.0
10
45.619980
20
180.525872
30
0.0
10
45.786266
20
181.178623
30
0.0
10
45.944480
20
181.857791
30
0.0
10
46.093662
20
182.563290
30
0.0
10
46.020426
20
183.070246
30
0.0
10
42.966273
20
185.783192
30
0.0
10
42.454237
20
185.796146
30
0.0
10
41.771231
20
185.564836
30
0.0
10
41.115460
20
185.327657
30
0.0
10
40.486866
20
185.085567
30
0.0
10
39.885366
20
184.839638
30
0.0
10
39.310846
20
184.590831
30
0.0
10
38.763166
20
184.340190
30
0.0
10
38.242127
20
184.088701
30
0.0
10
37.747561
20
183.837298
30
0.0
10
37.279213
20
183.587023
30
0.0
10
36.836802
20
183.338780
30
0.0
10
36.420072
20
183.093586
30
0.0
10
36.028686
20
182.852342
30
0.0
10
35.662306
20
182.616009
30
0.0
10
35.320563
20
182.385490
30
0.0
10
35.003034
20
182.161688
30
0.0
10
34.709298
20
181.945506
30
0.0
10
34.438900
20
181.737790
30
0.0
10
34.191392
20
181.539444
30
0.0
10
33.966206
20
181.351315
30
0.0
10
33.762865
20
181.174164
30
0.0
10
33.580776
20
181.008895
30
0.0
10
33.419373
20
180.856213
30
0.0
10
33.278064
20
180.716964
30
0.0
10
33.156229
20
180.591855
30
0.0
10
33.053218
20
180.481619
30
0.0
10
32.968325
20
180.387018
30
0.0
10
32.900902
20
180.308673
30
0.0
10
32.850215
20
180.247318
30
0.0
10
32.815530
20
180.203546
30
0.0
10
32.796141
20
180.178004
30
0.0
10
30.174353
20
176.513631
30
0.0
10
23.115242
20
180.759552
30
0.0
10
25.123535
20
184.792930
30
0.0
10
25.136997
20
184.822028
30
0.0
10
25.159406
20
184.873194
30
0.0
10
25.189857
20
184.946713
30
0.0
10
25.227449
20
185.042979
30
0.0
10
25.271250
20
185.162331
30
0.0
10
25.320329
20
185.304994
30
0.0
10
25.373753
20
185.471252
30
0.0
10
25.430536
20
185.661356
30
0.0
10
25.489775
20
185.875478
30
0.0
10
25.550453
20
186.113787
30
0.0
10
25.611610
20
186.376423
30
0.0
10
25.672288
20
186.663528
30
0.0
10
25.731498
20
186.975129
30
0.0
10
25.788225
20
187.311340
30
0.0
10
25.841565
20
187.672133
30
0.0
10
25.890446
20
188.057536
30
0.0
10
25.933908
20
188.467464
30
0.0
10
25.970964
20
188.901888
30
0.0
10
26.000654
20
189.360669
30
0.0
10
26.021961
20
189.843720
30
0.0
10
26.033871
20
190.350846
30
0.0
10
26.035480
20
190.881875
30
0.0
10
26.025743
20
191.436583
30
0.0
10
26.003758
20
192.014715
30
0.0
10
25.968480
20
192.616018
30
0.0
10
25.919007
20
193.240124
30
0.0
10
25.854350
20
193.886723
30
0.0
10
25.773578
20
194.555477
30
0.0
10
25.675788
20
195.245934
30
0.0
10
25.560020
20
195.957698
30
0.0
10
25.308588
20
196.403948
30
0.0
10
21.480639
20
197.830412
30
0.0
10
20.998519
20
197.657522
30
0.0
10
20.445194
20
197.195101
30
0.0
10
19.919386
20
196.737026
30
0.0
10
19.420671
20
196.284229
30
0.0
10
18.948654
20
195.837612
30
0.0
10
18.502799
20
195.398080
30
0.0
10
18.082627
20
194.966505
30
0.0
10
17.687657
20
194.543765
30
0.0
10
17.317297
20
194.130704
30
0.0
10
16.970982
20
193.728142
30
0.0
10
16.648120
20
193.336870
30
0.0
10
16.348117
20
192.957676
30
0.0
10
16.070298
20
192.591351
30
0.0
10
15.814040
20
192.238602
30
0.0
10
15.578638
20
191.900189
30
0.0
10
15.363388
20
191.576791
30
0.0
10
15.167610
20
191.269112
30
0.0
10
14.990487
20
190.977746
30
0.0
10
14.831342
20
190.703398
30
0.0
10
14.689328
20
190.446604
30
0.0
10
14.563683
20
190.207985
30
0.0
10
14.453616
20
189.988077
30
0.0
10
14.358281
20
189.787417
30
0.0
10
14.276832
20
189.606513
30
0.0
10
14.208393
20
189.445844
30
0.0
10
14.152146
20
189.305833
30
0.0
10
14.107188
20
189.186933
30
0.0
10
14.072588
20
189.089538
30
0.0
10
14.047498
20
189.014015
30
0.0
10
14.030988
20
188.960675
30
0.0
10
14.022098
20
188.929857
30
0.0
10
12.901112
20
184.565826
30
0.0
10
4.784880
20
185.974990
30
0.0
10
5.200509
20
190.461477
30
0.0
10
5.202541
20
190.493481
30
0.0
10
5.204968
20
190.549276
30
0.0
10
5.206802
20
190.628834
30
0.0
10
5.207085
20
190.732184
30
0.0
10
5.204827
20
190.859297
30
0.0
10
5.199070
20
191.010060
30
0.0
10
5.188797
20
191.184389
30
0.0
10
5.173105
20
191.382170
30
0.0
10
5.150979
20
191.603207
30
0.0
10
5.121458
20
191.847357
30
0.0
10
5.083612
20
192.114368
30
0.0
10
5.036481
20
192.403984
30
0.0
10
4.979106
20
192.715952
30
0.0
10
4.910582
20
193.049934
30
0.0
10
4.829979
20
193.405647
30
0.0
10
4.736338
20
193.782668
30
0.0
10
4.628783
20
194.180629
30
0.0
10
4.506412
20
194.599080
30
0.0
10
4.368348
20
195.037625
30
0.0
10
4.213719
20
195.495757
30
0.0
10
4.041648
20
195.972938
30
0.0
10
3.851317
20
196.468690
30
0.0
10
3.641852
20
196.982419
30
0.0
10
3.412490
20
197.513561
30
0.0
10
3.162385
20
198.061524
30
0.0
10
2.890802
20
198.625601
30
0.0
10
2.596924
20
199.205201
30
0.0
10
2.280045
20
199.799617
30
0.0
10
1.939431
20
200.408117
30
0.0
10
1.574348
20
201.029993
30
0.0
10
1.178701
20
201.355283
30
0.0
10
-2.906042
20
201.302620
30
0.0
10
-3.293166
20
200.967227
30
0.0
10
-3.642078
20
200.336150
30
0.0
10
-3.966916
20
199.719071
30
0.0
10
-4.268357
20
199.116696
30
0.0
10
-4.547193
20
198.529702
30
0.0
10
-4.804156
20
197.958795
30
0.0
10
-5.040037
20
197.404595
30
0.0
10
-5.255627
20
196.867724
30
0.0
10
-5.451771
20
196.348745
30
0.0
10
-5.629289
20
195.848252
30
0.0
10
-5.788970
20
195.366781
30
0.0
10
-5.931747
20
194.904840
30
0.0
10
-6.058464
20
194.462880
30
0.0
10
-6.169999
20
194.041409
30
0.0
10
-6.267252
20
193.640795
30
0.0
10
-6.351157
20
193.261488
30
0.0
10
-6.422559
20
192.903828
30
0.0
10
-6.482475
20
192.568181
30
0.0
10
-6.531779
20
192.254830
30
0.0
10
-6.571432
20
191.964084
30
0.0
10
-6.602363
20
191.696199
30
0.0
10
-6.625590
20
191.451399
30
0.0
10
-6.641987
20
191.229827
30
0.0
10
-6.652599
20
191.031735
30
0.0
10
-6.658356
20
190.857180
30
0.0
10
-6.660247
20
190.706333
30
0.0
10
-6.659231
20
190.579220
30
0.0
10
-6.656268
20
190.475898
30
0.0
10
-6.652401
20
190.396396
30
0.0
10
-6.648535
20
190.340686
30
0.0
10
-6.645684
20
190.308738
30
0.0
10
-6.114514
20
185.834472
30
0.0
10
-14.191714
20
184.216548
30
0.0
10
-15.424856
20
188.550211
30
0.0
10
-15.434508
20
188.580804
30
0.0
10
-15.452400
20
188.633693
30
0.0
10
-15.479437
20
188.708566
30
0.0
10
-15.516521
20
188.805030
30
0.0
10
-15.564527
20
188.922716
30
0.0
10
-15.624387
20
189.061231
30
0.0
10
-15.696918
20
189.220094
30
0.0
10
-15.782996
20
189.398825
30
0.0
10
-15.883495
20
189.596945
30
0.0
10
-15.999206
20
189.813946
30
0.0
10
-16.130947
20
190.049263
30
0.0
10
-16.279509
20
190.302303
30
0.0
10
-16.445710
20
190.572475
30
0.0
10
-16.630255
20
190.859156
30
0.0
10
-16.833935
20
191.161698
30
0.0
10
-17.057426
20
191.479452
30
0.0
10
-17.301492
20
191.811684
30
0.0
10
-17.566753
20
192.157689
30
0.0
10
-17.853914
20
192.516732
30
0.0
10
-18.163596
20
192.888052
30
0.0
10
-18.496421
20
193.270886
30
0.0
10
-18.853009
20
193.664388
30
0.0
10
-19.233896
20
194.067769
30
0.0
10
-19.639647
20
194.480180
30
0.0
10
-20.070798
20
194.900776
30
0.0
10
-20.527828
20
195.328681
30
0.0
10
-21.011219
20
195.762965
30
0.0
10
-21.521420
20
196.202780
30
0.0
10
-22.058856
20
196.647139
30
0.0
10
-22.623921
20
197.095138
30
0.0
10
-23.110359
20
197.255525
30
0.0
10
-26.900265
20
195.730848
30
0.0
10
-27.140098
20
195.278276
30
0.0
10
-27.237492
20
194.563746
30
0.0
10
-27.317446
20
193.871003
30
0.0
10
-27.380946
20
193.200415
30
0.0
10
-27.428896
20
192.552348
30
0.0
10
-27.462282
20
191.927170
30
0.0
10
-27.482038
20
191.325161
30
0.0
10
-27.489122
20
190.746662
30
0.0
10
-27.484550
20
190.191898
30
0.0
10
-27.469253
20
189.661066
30
0.0
10
-27.444248
20
189.154421
30
0.0
10
-27.410523
20
188.672075
30
0.0
10
-27.369008
20
188.214198
30
0.0
10
-27.320776
20
187.780874
30
0.0
10
-27.266731
20
187.372216
30
0.0
10
-27.207944
20
186.988196
30
0.0
10
-27.145347
20
186.628899
30
0.0
10
-27.079928
20
186.294268
30
0.0
10
-27.012731
20
185.984275
30
0.0
10
-26.944659
20
185.698864
30
0.0
10
-26.876756
20
185.437865
30
0.0
10
-26.809954
20
185.201193
30
0.0
10
-26.745240
20
184.988680
30
0.0
10
-26.683547
20
184.800127
30
0.0
10
-26.625860
20
184.635281
30
0.0
10
-26.573113
20
184.493916
30
0.0
10
-26.526264
20
184.375778
30
0.0
10
-26.486189
20
184.280500
30
0.0
10
-26.453846
20
184.207771
30
0.0
10
-26.430139
20
184.157225
30
0.0
10
-26.415915
20
184.128466
30
0.0
10
-24.304329
20
180.148202
30
0.0
10
-31.251624
20
175.721716
30
0.0
10
-33.966997
20
179.317283
30
0.0
10
-33.987063
20
179.342288
30
0.0
10
-34.022848
20
179.385158
30
0.0
10
-34.075116
20
179.445214
30
0.0
10
-34.144543
20
179.521781
30
0.0
10
-34.231834
20
179.614181
30
0.0
10
-34.337667
20
179.721708
30
0.0
10
-34.462692
20
179.843628
30
0.0
10
-34.607528
20
179.979207
30
0.0
10
-34.772798
20
180.127656
30
0.0
10
-34.959092
20
180.288184
30
0.0
10
-35.166949
20
180.460029
30
0.0
10
-35.396876
20
180.642288
30
0.0
10
-35.649436
20
180.834199
30
0.0
10
-35.925111
20
181.034859
30
0.0
10
-36.224323
20
181.243393
30
0.0
10
-36.547496
20
181.458955
30
0.0
10
-36.895080
20
181.680584
30
0.0
10
-37.267444
20
181.907406
30
0.0
10
-37.664926
20
182.138461
30
0.0
10
-38.087836
20
182.372847
30
0.0
10
-38.536457
20
182.609575
30
0.0
10
-39.011126
20
182.847714
30
0.0
10
-39.512014
20
183.086248
30
0.0
10
-40.039346
20
183.324246
30
0.0
10
-40.593320
20
183.560692
30
0.0
10
-41.174049
20
183.794598
30
0.0
10
-41.781702
20
184.024947
30
0.0
10
-42.416307
20
184.250725
30
0.0
10
-43.077977
20
184.470943
30
0.0
10
-43.766740
20
184.684557
30
0.0
10
-44.278268
20
184.658423
30
0.0
10
-47.261441
20
181.867612
30
0.0
10
-47.321611
20
181.358963
30
0.0
10
-47.154310
20
180.657528
30
0.0
10
-46.978626
20
179.982650
30
0.0
10
-46.795577
20
179.334414
30
0.0
10
-46.606178
20
178.712791
30
0.0
10
-46.411473
20
178.117782
30
0.0
10
-46.212421
20
177.549302
30
0.0
10
-46.010068
20
177.007294
30
0.0
10
-45.805372
20
176.491618
30
0.0
10
-45.599378
20
176.002188
30
0.0
10
-45.393017
20
175.538779
30
0.0
10
-45.187334
20
175.101194
30
0.0
10
-44.983231
20
174.689234
30
0.0
10
-44.781696
20
174.302589
30
0.0
10
-44.583689
20
173.941034
30
0.0
10
-44.390141
20
173.604202
30
0.0
10
-44.201983
20
173.291782
30
0.0
10
-44.020119
20
173.003379
30
0.0
10
-43.845452
20
172.738598
30
0.0
10
-43.678884
20
172.497016
30
0.0
10
-43.521263
20
172.278209
30
0.0
10
-43.373492
20
172.081642
30
0.0
10
-43.236360
20
171.906861
30
0.0
10
-43.110743
20
171.753304
30
0.0
10
-42.997402
20
171.620434
30
0.0
10
-42.897157
20
171.507686
30
0.0
10
-42.810769
20
171.414440
30
0.0
10
-42.739000
20
171.340074
30
0.0
10
-42.682555
20
171.283940
30
0.0
10
-42.642197
20
171.245361
30
0.0
10
-42.618547
20
171.223686
30
0.0
10
-39.211702
20
168.274972
30
0.0
10
-44.090844
20
161.637754
30
0.0
10
-47.921728
20
164.009606
30
0.0
10
-47.949471
20
164.025721
30
0.0
10
-47.998324
20
164.052730
30
0.0
10
-48.068738
20
164.089870
30
0.0
10
-48.161138
20
164.136183
30
0.0
10
-48.275917
20
164.190793
30
0.0
10
-48.413444
20
164.252854
30
0.0
10
-48.574085
20
164.321377
30
0.0
10
-48.758122
20
164.395460
30
0.0
10
-48.965866
20
164.474172
30
0.0
10
-49.197542
20
164.556581
30
0.0
10
-49.453433
20
164.641728
30
0.0
10
-49.733708
20
164.728624
30
0.0
10
-50.038536
20
164.816338
30
0.0
10
-50.368059
20
164.903856
30
0.0
10
-50.722389
20
164.990244
30
0.0
10
-51.101639
20
165.074487
30
0.0
10
-51.505810
20
165.155598
30
0.0
10
-51.934957
20
165.232588
30
0.0
10
-52.389052
20
165.304470
30
0.0
10
-52.868068
20
165.370228
30
0.0
10
-53.371948
20
165.428930
30
0.0
10
-53.900550
20
165.479504
30
0.0
10
-54.453790
20
165.520991
30
0.0
10
-55.031499
20
165.552430
30
0.0
10
-55.633479
20
165.572779
30
0.0
10
-56.259504
20
165.581104
30
0.0
10
-56.909321
20
165.576391
30
0.0
10
-57.582647
20
165.557680
30
0.0
10
-58.279171
20
165.524011
30
0.0
10
-58.998584
20
165.474396
30
0.0
10
-59.466141
20
165.265241
30
0.0
10
-61.239710
20
161.585233
30
0.0
10
-61.112061
20
161.089199
30
0.0
10
-60.702670
20
160.495573
30
0.0
10
-60.295056
20
159.929745
30
0.0
10
-59.890208
20
159.391378
30
0.0
10
-59.489058
20
158.880161
30
0.0
10
-59.092536
20
158.395670
30
0.0
10
-58.701573
20
157.937482
30
0.0
10
-58.317074
20
157.505174
30
0.0
10
-57.939940
20
157.098266
30
0.0
10
-57.571047
20
156.716278
30
0.0
10
-57.211214
20
156.358703
30
0.0
10
-56.861343
20
156.025003
30
0.0
10
-56.522197
20
155.714559
30
0.0
10
-56.194621
20
155.426862
30
0.0
10
-55.879379
20
155.161234
30
0.0
10
-55.577204
20
154.917055
30
0.0
10
-55.288886
20
154.693705
30
0.0
10
-55.015130
20
154.490476
30
0.0
10
-54.756614
20
154.306693
30
0.0
10
-54.514016
20
154.141593
30
0.0
10
-54.288013
20
153.994471
30
0.0
10
-54.079196
20
153.864564
30
0.0
10
-53.888188
20
153.751139
30
0.0
10
-53.715581
20
153.653321
30
0.0
10
-53.561911
20
153.570376
30
0.0
10
-53.427715
20
153.501457
30
0.0
10
-53.313471
20
153.445690
30
0.0
10
-53.219660
20
153.402284
30
0.0
10
-53.146762
20
153.370336
30
0.0
10
-53.095172
20
153.348944
30
0.0
10
-53.065313
20
153.337260
30
0.0
10
-48.823344
20
151.818396
30
0.0
10
-50.975345
20
143.866814
30
0.0
10
-55.404343
20
144.694628
30
0.0
10
-55.436036
20
144.699595
30
0.0
10
-55.491352
20
144.707158
30
0.0
10
-55.570430
20
144.716331
30
0.0
10
-55.673300
20
144.726152
30
0.0
10
-55.800075
20
144.735635
30
0.0
10
-55.950725
20
144.743791
30
0.0
10
-56.125279
20
144.749661
30
0.0
10
-56.323653
20
144.752286
30
0.0
10
-56.545790
20
144.750649
30
0.0
10
-56.791606
20
144.743791
30
0.0
10
-57.060987
20
144.730724
30
0.0
10
-57.353708
20
144.710517
30
0.0
10
-57.669628
20
144.682182
30
0.0
10
-58.008548
20
144.644759
30
0.0
10
-58.370160
20
144.597318
30
0.0
10
-58.754208
20
144.538869
30
0.0
10
-59.160382
20
144.468483
30
0.0
10
-59.588372
20
144.385256
30
0.0
10
-60.037754
20
144.288256
30
0.0
10
-60.508190
20
144.176552
30
0.0
10
-60.999229
20
144.049242
30
0.0
10
-61.510446
20
143.905450
30
0.0
10
-62.041306
20
143.744301
30
0.0
10
-62.591357
20
143.564920
30
0.0
10
-63.160035
20
143.366434
30
0.0
10
-63.746775
20
143.148050
30
0.0
10
-64.351013
20
142.908923
30
0.0
10
-64.972128
20
142.648234
30
0.0
10
-65.609470
20
142.365194
30
0.0
10
-66.262363
20
142.059067
30
0.0
10
-66.622761
20
141.695142
30
0.0
10
-66.947232
20
137.622929
30
0.0
10
-66.649007
20
137.206510
30
0.0
10
-66.052813
20
136.800872
30
0.0
10
-65.468331
20
136.420493
30
0.0
10
-64.896323
20
136.064752
30
0.0
10
-64.337579
20
135.732943
30
0.0
10
-63.792806
20
135.424418
30
0.0
10
-63.262736
20
135.138386
30
0.0
10
-62.748047
20
134.874169
30
0.0
10
-62.249389
20
134.630978
30
0.0
10
-61.767410
20
134.408051
30
0.0
10
-61.302731
20
134.204625
30
0.0
10
-60.855916
20
134.019826
30
0.0
10
-60.427531
20
133.852864
30
0.0
10
-60.018140
20
133.702919
30
0.0
10
-59.628222
20
133.569117
30
0.0
10
-59.258285
20
133.450584
30
0.0
10
-58.908752
20
133.346472
30
0.0
10
-58.580048
20
133.255851
30
0.0
10
-58.272595
20
133.177873
30
0.0
10
-57.986732
20
133.111550
30
0.0
10
-57.722855
20
133.056009
30
0.0
10
-57.481216
20
133.010317
30
0.0
10
-57.262127
20
132.973516
30
0.0
10
-57.065841
20
132.944701
30
0.0
10
-56.892585
20
132.922857
30
0.0
10
-56.742528
20
132.907052
30
0.0
10
-56.615866
20
132.896356
30
0.0
10
-56.512714
20
132.889752
30
0.0
10
-56.433212
20
132.886281
30
0.0
10
-56.377388
20
132.884982
30
0.0
10
-56.345300
20
132.884870
30
0.0
10
-51.841090
20
133.000948
30
0.0
10
-50.975345
20
124.808911
30
0.0
10
-55.404314
20
123.980900
30
0.0
10
-55.435669
20
123.974098
30
0.0
10
-55.489969
20
123.961172
30
0.0
10
-55.567016
20
123.941163
30
0.0
10
-55.666499
20
123.913138
30
0.0
10
-55.788137
20
123.876167
30
0.0
10
-55.931562
20
123.829374
30
0.0
10
-56.096436
20
123.771801
30
0.0
10
-56.282364
20
123.702572
30
0.0
10
-56.488923
20
123.620784
30
0.0
10
-56.715660
20
123.525590
30
0.0
10
-56.962125
20
123.416116
30
0.0
10
-57.227780
20
123.291544
30
0.0
10
-57.512148
20
123.150997
30
0.0
10
-57.814633
20
122.993658
30
0.0
10
-58.134673
20
122.818793
30
0.0
10
-58.471675
20
122.625556
30
0.0
10
-58.825017
20
122.413183
30
0.0
10
-59.194023
20
122.180971
30
0.0
10
-59.578042
20
121.928184
30
0.0
10
-59.976343
20
121.654062
30
0.0
10
-60.388246
20
121.357983
30
0.0
10
-60.812990
20
121.039241
30
0.0
10
-61.249786
20
120.697188
30
0.0
10
-61.697898
20
120.331230
30
0.0
10
-62.156481
20
119.940719
30
0.0
10
-62.624716
20
119.525119
30
0.0
10
-63.101756
20
119.083864
30
0.0
10
-63.586755
20
118.616420
30
0.0
10
-64.078810
20
118.122277
30
0.0
10
-64.577045
20
117.600956
30
0.0
10
-64.781628
20
117.131394
30
0.0
10
-63.613143
20
113.216972
30
0.0
10
-63.184617
20
112.936415
30
0.0
10
-62.482137
20
112.773516
30
0.0
10
-61.799724
20
112.629978
30
0.0
10
-61.137856
20
112.504869
30
0.0
10
-60.496986
20
112.397314
30
0.0
10
-59.877537
20
112.306410
30
0.0
10
-59.279931
20
112.231198
30
0.0
10
-58.704536
20
112.170746
30
0.0
10
-58.151720
20
112.124123
30
0.0
10
-57.621763
20
112.090369
30
0.0
10
-57.114948
20
112.068525
30
0.0
10
-56.631558
20
112.057603
30
0.0
10
-56.171818
20
112.056672
30
0.0
10
-55.735897
20
112.064744
30
0.0
10
-55.323966
20
112.080830
30
0.0
10
-54.936192
20
112.103944
30
0.0
10
-54.572634
20
112.133126
30
0.0
10
-54.233403
20
112.167388
30
0.0
10
-53.918527
20
112.205714
30
0.0
10
-53.628036
20
112.247144
30
0.0
10
-53.361900
20
112.290691
30
0.0
10
-53.120064
20
112.335366
30
0.0
10
-52.902499
20
112.380183
30
0.0
10
-52.709036
20
112.424210
30
0.0
10
-52.539590
20
112.466430
30
0.0
10
-52.393963
20
112.505913
30
0.0
10
-52.271986
20
112.541671
30
0.0
10
-52.173434
20
112.572772
30
0.0
10
-52.098025
20
112.598285
30
0.0
10
-52.045503
20
112.617222
30
0.0
10
-52.015559
20
112.628736
30
0.0
10
-47.857438
20
114.364064
30
0.0
10
-44.090844
20
107.037971
30
0.0
10
-47.921616
20
104.665949
30
0.0
10
-47.948398
20
104.648254
30
0.0
10
-47.994372
20
104.616589
30
0.0
10
-48.058973
20
104.570107
30
0.0
10
-48.141608
20
104.508046
30
0.0
10
-48.241684
20
104.429645
30
0.0
10
-48.358524
20
104.334169
30
0.0
10
-48.491450
20
104.220941
30
0.0
10
-48.639815
20
104.089200
30
0.0
10
-48.802883
20
103.938352
30
0.0
10
-48.979921
20
103.767664
30
0.0
10
-49.170195
20
103.576572
30
0.0
10
-49.372915
20
103.364397
30
0.0
10
-49.587319
20
103.130632
30
0.0
10
-49.812533
20
102.874657
30
0.0
10
-50.047793
20
102.595962
30
0.0
10
-50.292254
20
102.294041
30
0.0
10
-50.545012
20
101.968385
30
0.0
10
-50.805221
20
101.618570
30
0.0
10
-51.071978
20
101.244118
30
0.0
10
-51.344378
20
100.844632
30
0.0
10
-51.621492
20
100.419747
30
0.0
10
-51.902416
20
99.969094
30
0.0
10
-52.186163
20
99.492336
30
0.0
10
-52.471800
20
98.989219
30
0.0
10
-52.758340
20
98.459431
30
0.0
10
-53.044824
20
97.902748
30
0.0
10
-53.330263
20
97.318943
30
0.0
10
-53.613643
20
96.707875
30
0.0
10
-53.893974
20
96.069348
30
0.0
10
-54.170213
20
95.403247
30
0.0
10
-54.191380
20
94.891465
30
0.0
10
-51.687730
20
91.663520
30
0.0
10
-51.186814
20
91.556699
30
0.0
10
-50.472933
20
91.658553
30
0.0
10
-49.784734
20
91.771216
30
0.0
10
-49.122358
20
91.893672
30
0.0
10
-48.485919
20
92.024906
30
0.0
10
-47.875472
20
92.163872
30
0.0
10
-47.291046
20
92.309611
30
0.0
10
-46.732670
20
92.461108
30
0.0
10
-46.200342
20
92.617346
30
0.0
10
-45.693951
20
92.777310
30
0.0
10
-45.213496
20
92.940011
30
0.0
10
-44.758808
20
93.104462
30
0.0
10
-44.329745
20
93.269675
30
0.0
10
-43.926196
20
93.434662
30
0.0
10
-43.547905
20
93.598464
30
0.0
10
-43.194647
20
93.760121
30
0.0
10
-42.866197
20
93.918645
30
0.0
10
-42.562244
20
94.073133
30
0.0
10
-42.282477
20
94.222626
30
0.0
10
-42.026558
20
94.366193
30
0.0
10
-41.794120
20
94.502930
30
0.0
10
-41.584767
20
94.631962
30
0.0
10
-41.398077
20
94.752358
30
0.0
10
-41.233598
20
94.863271
30
0.0
10
-41.090850
20
94.963883
30
0.0
10
-40.969297
20
95.053291
30
0.0
10
-40.868487
20
95.130705
30
0.0
10
-40.787800
20
95.195305
30
0.0
10
-40.726727
20
95.246331
30
0.0
10
-40.684591
20
95.282964
30
0.0
10
-40.660828
20
95.304497
30
0.0
10
-37.410362
20
98.424746
30
0.0
10
-31.251624
20
92.954009
30
0.0
10
-33.966856
20
89.358329
30
0.0
10
-33.985426
20
89.332195
30
0.0
10
-34.016837
20
89.286024
30
0.0
10
-34.060299
20
89.219334
30
0.0
10
-34.114938
20
89.131620
30
0.0
10
-34.179933
20
89.022372
30
0.0
10
-34.254384
20
88.891138
30
0.0
10
-34.337442
20
88.737525
30
0.0
10
-34.428204
20
88.561108
30
0.0
10
-34.525768
20
88.361520
30
0.0
10
-34.629203
20
88.138423
30
0.0
10
-34.737576
20
87.891479
30
0.0
10
-34.849985
20
87.620433
30
0.0
10
-34.965442
20
87.324974
30
0.0
10
-35.082988
20
87.004934
30
0.0
10
-35.201691
20
86.660087
30
0.0
10
-35.320563
20
86.290235
30
0.0
10
-35.438616
20
85.895265
30
0.0
10
-35.554892
20
85.475064
30
0.0
10
-35.668345
20
85.029520
30
0.0
10
-35.778045
20
84.558632
30
0.0
10
-35.882975
20
84.062316
30
0.0
10
-35.982120
20
83.540628
30
0.0
10
-36.074491
20
82.993569
30
0.0
10
-36.159073
20
82.421222
30
0.0
10
-36.234906
20
81.823701
30
0.0
10
-36.300946
20
81.201119
30
0.0
10
-36.356205
20
80.553645
30
0.0
10
-36.399696
20
79.881448
30
0.0
10
-36.430430
20
79.184782
30
0.0
10
-36.447420
20
78.463874
30
0.0
10
-36.282291
20
77.979016
30
0.0
10
-32.781635
20
75.873441
30
0.0
10
-32.275921
20
75.954805
30
0.0
10
-31.647045
20
76.307668
30
0.0
10
-31.046025
20
76.661320
30
0.0
10
-30.472634
20
77.014804
30
0.0
10
-29.926562
20
77.367074
30
0.0
10
-29.407527
20
77.717198
30
0.0
10
-28.915247
20
78.064191
30
0.0
10
-28.449298
20
78.407175
30
0.0
10
-28.009342
20
78.745136
30
0.0
10
-27.594955
20
79.077227
30
0.0
10
-27.205686
20
79.402517
30
0.0
10
-26.841111
20
79.720130
30
0.0
10
-26.500723
20
80.029163
30
0.0
10
-26.184013
20
80.328798
30
0.0
10
-25.890446
20
80.618189
30
0.0
10
-25.619428
20
80.896545
30
0.0
10
-25.370423
20
81.163019
30
0.0
10
-25.142811
20
81.416878
30
0.0
10
-24.935942
20
81.657331
30
0.0
10
-24.749167
20
81.883645
30
0.0
10
-24.581838
20
82.095114
30
0.0
10
-24.433220
20
82.291061
30
0.0
10
-24.302635
20
82.470780
30
0.0
10
-24.189323
20
82.633622
30
0.0
10
-24.092549
20
82.778995
30
0.0
10
-24.011523
20
82.906277
30
0.0
10
-23.945483
20
83.014876
30
0.0
10
-23.893582
20
83.104256
30
0.0
10
-23.855031
20
83.173909
30
0.0
10
-23.829010
20
83.223298
30
0.0
10
-23.814617
20
83.251971
30
0.0
10
-21.910802
20
87.335699
30
0.0
10
-14.191714
20
84.459177
30
0.0
10
-15.424658
20
80.125457
30
0.0
10
-15.432532
20
80.094356
30
0.0
10
-15.445176
20
80.039972
30
0.0
10
-15.461601
20
79.962107
30
0.0
10
-15.480848
20
79.860563
30
0.0
10
-15.501987
20
79.735200
30
0.0
10
-15.524028
20
79.585933
30
0.0
10
-15.545985
20
79.412705
30
0.0
10
-15.566870
20
79.215403
30
0.0
10
-15.585750
20
78.994056
30
0.0
10
-15.601611
20
78.748636
30
0.0
10
-15.613465
20
78.479227
30
0.0
10
-15.620351
20
78.185885
30
0.0
10
-15.621282
20
77.868695
30
0.0
10
-15.615299
20
77.527771
30
0.0
10
-15.601414
20
77.163337
30
0.0
10
-15.578638
20
76.775536
30
0.0
10
-15.546042
20
76.364592
30
0.0
10
-15.502664
20
75.930760
30
0.0
10
-15.447518
20
75.474322
30
0.0
10
-15.379700
20
74.995588
30
0.0
10
-15.298251
20
74.494898
30
0.0
10
-15.202239
20
73.972618
30
0.0
10
-15.090761
20
73.429114
30
0.0
10
-14.962886
20
72.864867
30
0.0
10
-14.817739
20
72.280328
30
0.0
10
-14.654417
20
71.675921
30
0.0
10
-14.472045
20
71.052210
30
0.0
10
-14.269776
20
70.409675
30
0.0
10
-14.046764
20
69.748964
30
0.0
10
-13.802191
20
69.070587
30
0.0
10
-13.473063
20
68.678129
30
0.0
10
-9.448179
20
67.979318
30
0.0
10
-9.006022
20
68.237862
30
0.0
10
-8.547072
20
68.794094
30
0.0
10
-8.114397
20
69.340984
30
0.0
10
-7.707404
20
69.877714
30
0.0
10
-7.325473
20
70.403466
30
0.0
10
-6.967954
20
70.917421
30
0.0
10
-6.634254
20
71.418845
30
0.0
10
-6.323669
20
71.906977
30
0.0
10
-6.035520
20
72.381054
30
0.0
10
-5.769074
20
72.840427
30
0.0
10
-5.523625
20
73.284362
30
0.0
10
-5.298384
20
73.712211
30
0.0
10
-5.092615
20
74.123352
30
0.0
10
-4.905530
20
74.517165
30
0.0
10
-4.736338
20
74.893057
30
0.0
10
-4.584192
20
75.250492
30
0.0
10
-4.448246
20
75.588932
30
0.0
10
-4.327708
20
75.907872
30
0.0
10
-4.221649
20
76.206830
30
0.0
10
-4.129250
20
76.485327
30
0.0
10
-4.049607
20
76.742967
30
0.0
10
-3.981817
20
76.979357
30
0.0
10
-3.924977
20
77.194128
30
0.0
10
-3.878128
20
77.386914
30
0.0
10
-3.840424
20
77.557404
30
0.0
10
-3.810847
20
77.705373
30
0.0
10
-3.788495
20
77.830511
30
0.0
10
-3.772380
20
77.932590
30
0.0
10
-3.761599
20
78.011472
30
0.0
10
-3.755164
20
78.066928
30
0.0
10
-3.752116
20
78.098848
30
0.0
10
-3.452086
20
82.594563
30
0.0
10
4.784880
20
82.700735
30
0.0
10
5.200706
20
78.214276
30
0.0
10
5.204601
20
78.182442
30
0.0
10
5.212475
20
78.127154
30
0.0
10
5.225288
20
78.048584
30
0.0
10
5.243999
20
77.946956
30
0.0
10
5.269569
20
77.822439
30
0.0
10
5.302956
20
77.675288
30
0.0
10
5.345063
20
77.505814
30
0.0
10
5.396851
20
77.314298
30
0.0
10
5.459222
20
77.101079
30
0.0
10
5.533080
20
76.866524
30
0.0
10
5.619355
20
76.611000
30
0.0
10
5.718895
20
76.334987
30
0.0
10
5.832602
20
76.038851
30
0.0
10
5.961352
20
75.723157
30
0.0
10
6.105934
20
75.388329
30
0.0
10
6.267252
20
75.034930
30
0.0
10
6.446097
20
74.663498
30
0.0
10
6.643285
20
74.274652
30
0.0
10
6.859580
20
73.868957
30
0.0
10
7.095772
20
73.447035
30
0.0
10
7.352594
20
73.009591
30
0.0
10
7.630781
20
72.557245
30
0.0
10
7.931065
20
72.090760
30
0.0
10
8.254125
20
71.610784
30
0.0
10
8.600638
20
71.118137
30
0.0
10
8.971280
20
70.613552
30
0.0
10
9.366645
20
70.097819
30
0.0
10
9.787326
20
69.571785
30
0.0
10
10.233970
20
69.036212
30
0.0
10
10.707088
20
68.492003
30
0.0
10
11.155793
20
68.244974
30
0.0
10
15.161316
20
69.047304
30
0.0
10
15.480228
20
69.448116
30
0.0
10
15.707219
20
70.132561
30
0.0
10
15.913128
20
70.798803
30
0.0
10
16.098774
20
71.446334
30
0.0
10
16.264975
20
72.074532
30
0.0
10
16.412662
20
72.682947
30
0.0
10
16.542710
20
73.271070
30
0.0
10
16.655994
20
73.838421
30
0.0
10
16.753417
20
74.384577
30
0.0
10
16.835938
20
74.909172
30
0.0
10
16.904462
20
75.411810
30
0.0
10
16.959919
20
75.892124
30
0.0
10
17.003268
20
76.349832
30
0.0
10
17.035441
20
76.784623
30
0.0
10
17.057426
20
77.196273
30
0.0
10
17.070183
20
77.584554
30
0.0
10
17.074698
20
77.949242
30
0.0
10
17.071876
20
78.290166
30
0.0
10
17.062760
20
78.607243
30
0.0
10
17.048311
20
78.900330
30
0.0
10
17.029515
20
79.169345
30
0.0
10
17.007332
20
79.414257
30
0.0
10
16.982779
20
79.635040
30
0.0
10
16.956786
20
79.831720
30
0.0
10
16.930398
20
80.004356
30
0.0
10
16.904518
20
80.153002
30
0.0
10
16.880163
20
80.277772
30
0.0
10
16.858290
20
80.378780
30
0.0
10
16.839861
20
80.456193
30
0.0
10
16.825807
20
80.510239
30
0.0
10
16.817142
20
80.541142
30
0.0
10
15.472890
20
84.841644
30
0.0
10
23.115242
20
87.916173
30
0.0
10
25.123704
20
83.882879
30
0.0
10
25.138832
20
83.854600
30
0.0
10
25.166122
20
83.805889
30
0.0
10
25.206452
20
83.737281
30
0.0
10
25.260639
20
83.649256
30
0.0
10
25.329473
20
83.542378
30
0.0
10
25.413744
20
83.417241
30
0.0
10
25.514215
20
83.274408
30
0.0
10
25.631704
20
83.114529
30
0.0
10
25.766889
20
82.938253
30
0.0
10
25.920502
20
82.746201
30
0.0
10
26.093222
20
82.539106
30
0.0
10
26.285783
20
82.317675
30
0.0
10
26.498776
20
82.082640
30
0.0
10
26.732851
20
81.834764
30
0.0
10
26.988657
20
81.574781
30
0.0
10
27.266731
20
81.303509
30
0.0
10
27.567692
20
81.021795
30
0.0
10
27.892022
20
80.730400
30
0.0
10
28.240256
20
80.430257
30
0.0
10
28.612902
20
80.122155
30
0.0
10
29.010412
20
79.806998
30
0.0
10
29.433210
20
79.485716
30
0.0
10
29.881745
20
79.159185
30
0.0
10
30.356387
20
78.828336
30
0.0
10
30.857472
20
78.494128
30
0.0
10
31.385341
20
78.157522
30
0.0
10
31.940302
20
77.819448
30
0.0
10
32.522640
20
77.480866
30
0.0
10
33.132578
20
77.142820
30
0.0
10
33.770344
20
76.806298
30
0.0
10
34.277977
20
76.738000
30
0.0
10
37.723177
20
78.933125
30
0.0
10
37.875746
20
79.422075
30
0.0
10
37.840186
20
80.142306
30
0.0
10
37.791503
20
80.837955
30
0.0
10
37.730684
20
81.508798
30
0.0
10
37.658746
20
82.154635
30
0.0
10
37.576675
20
82.775298
30
0.0
10
37.485489
20
83.370674
30
0.0
10
37.386175
20
83.940650
30
0.0
10
37.279721
20
84.485141
30
0.0
10
37.167171
20
85.004092
30
0.0
10
37.049484
20
85.497529
30
0.0
10
36.927677
20
85.965453
30
0.0
10
36.802766
20
86.407921
30
0.0
10
36.675709
20
86.824989
30
0.0
10
36.547496
20
87.216770
30
0.0
10
36.419141
20
87.583433
30
0.0
10
36.291605
20
87.925120
30
0.0
10
36.165818
20
88.242027
30
0.0
10
36.042798
20
88.534381
30
0.0
10
35.923446
20
88.802464
30
0.0
10
35.808722
20
89.046530
30
0.0
10
35.699587
20
89.266889
30
0.0
10
35.596915
20
89.463880
30
0.0
10
35.501636
20
89.637898
30
0.0
10
35.414627
20
89.789339
30
0.0
10
35.336819
20
89.918596
30
0.0
10
35.269029
20
90.026123
30
0.0
10
35.212161
20
90.112427
30
0.0
10
35.167006
20
90.177959
30
0.0
10
35.134381
20
90.223284
30
0.0
10
35.115133
20
90.248966
30
0.0
10
32.308123
20
93.773442
30
0.0
10
38.323774
20
99.401122
30
0.0
10
41.653601
20
96.365737
30
0.0
10
41.677900
20
96.344825
30
0.0
10
41.720968
20
96.309265
30
0.0
10
41.783367
20
96.259848
30
0.0
10
41.865663
20
96.197335
30
0.0
10
41.968448
20
96.122546
30
0.0
10
42.092259
20
96.036299
30
0.0
10
42.237547
20
95.939412
30
0.0
10
42.404848
20
95.832761
30
0.0
10
42.594586
20
95.717219
30
0.0
10
42.807184
20
95.593634
30
0.0
10
43.043066
20
95.462937
30
0.0
10
43.302597
20
95.326002
30
0.0
10
43.586118
20
95.183791
30
0.0
10
43.893966
20
95.037204
30
0.0
10
44.226395
20
94.887175
30
0.0
10
44.583689
20
94.734690
30
0.0
10
44.966072
20
94.580710
30
0.0
10
45.373770
20
94.426165
30
0.0
10
45.806924
20
94.272072
30
0.0
10
46.265705
20
94.119390
30
0.0
10
46.750224
20
93.969134
30
0.0
10
47.260538
20
93.822266
30
0.0
10
47.796732
20
93.679800
30
0.0
10
48.358834
20
93.542781
30
0.0
10
48.946816
20
93.412141
30
0.0
10
49.560649
20
93.288951
30
0.0
10
50.200250
20
93.174171
30
0.0
10
50.865560
20
93.068846
30
0.0
10
51.556440
20
92.973962
30
0.0
10
52.272692
20
92.890509
30
0.0
10
52.770730
20
93.010228
30
0.0
10
55.190305
20
96.301645
30
0.0
10
55.155959
20
96.812693
30
0.0
10
54.862617
20
97.471456
30
0.0
10
54.565917
20
98.102561
30
0.0
10
54.266874
20
98.706122
30
0.0
10
53.966505
20
99.282363
30
0.0
10
53.665769
20
99.831483
30
0.0
10
53.365654
20
100.353707
30
0.0
10
53.067148
20
100.849289
30
0.0
10
52.771181
20
101.318568
30
0.0
10
52.478742
20
101.761826
30
0.0
10
52.190763
20
102.179430
30
0.0
10
51.908174
20
102.571748
30
0.0
10
51.631850
20
102.939201
30
0.0
10
51.362723
20
103.282214
30
0.0
10
51.101639
20
103.601238
30
0.0
10
50.849502
20
103.896781
30
0.0
10
50.607129
20
104.169295
30
0.0
10
50.375368
20
104.419372
30
0.0
10
50.155009
20
104.647548
30
0.0
10
49.946899
20
104.854417
30
0.0
10
49.751770
20
105.040543
30
0.0
10
49.570386
20
105.206602
30
0.0
10
49.403480
20
105.353217
30
0.0
10
49.251757
20
105.481064
30
0.0
10
49.115952
20
105.590848
30
0.0
10
48.996685
20
105.683276
30
0.0
10
48.894633
20
105.759052
30
0.0
10
48.810418
20
105.818968
30
0.0
10
48.744632
20
105.863757
30
0.0
10
48.697868
20
105.894265
30
0.0
10
48.670633
20
105.911227
30
0.0
10
44.780002
20
108.183708
30
0.0
10
48.356464
20
115.604459
30
0.0
10
52.557934
20
113.976912
30
0.0
10
52.588160
20
113.966188
30
0.0
10
52.641161
20
113.948605
30
0.0
10
52.717192
20
113.925068
30
0.0
10
52.816534
20
113.896507
30
0.0
10
52.939386
20
113.863910
30
0.0
10
53.085972
20
113.828181
30
0.0
10
53.256462
20
113.790335
30
0.0
10
53.450998
20
113.751332
30
0.0
10
53.669664
20
113.712131
30
0.0
10
53.912544
20
113.673692
30
0.0
10
54.179724
20
113.637032
30
0.0
10
54.471175
20
113.603109
30
0.0
10
54.786925
20
113.572883
30
0.0
10
55.126946
20
113.547398
30
0.0
10
55.491126
20
113.527614
30
0.0
10
55.879379
20
113.514491
30
0.0
10
56.291565
20
113.509044
30
0.0
10
56.727542
20
113.512205
30
0.0
10
57.187140
20
113.524990
30
0.0
10
57.670079
20
113.548358
30
0.0
10
58.176160
20
113.583268
30
0.0
10
58.705073
20
113.630682
30
0.0
10
59.256507
20
113.691529
30
0.0
10
59.830152
20
113.766798
30
0.0
10
60.425612
20
113.857391
30
0.0
10
61.042494
20
113.964240
30
0.0
10
61.680372
20
114.088277
30
0.0
10
62.338825
20
114.230404
30
0.0
10
63.017315
20
114.391496
30
0.0
10
63.715364
20
114.572429
30
0.0
10
64.136496
20
114.863965
30
0.0
10
65.203691
20
118.807202
30
0.0
10
64.987057
20
119.271316
30
0.0
10
64.475558
20
119.779627
30
0.0
10
63.970916
20
120.260928
30
0.0
10
63.474036
20
120.715701
30
0.0
10
62.985763
20
121.144538
30
0.0
10
62.506973
20
121.547918
30
0.0
10
62.038484
20
121.926463
30
0.0
10
61.581086
20
122.280765
30
0.0
10
61.135627
20
122.611444
30
0.0
10
60.702811
20
122.919123
30
0.0
10
60.283400
20
123.204506
30
0.0
10
59.878158
20
123.468243
30
0.0
10
59.487760
20
123.711067
30
0.0
10
59.112884
20
123.933684
30
0.0
10
58.754208
20
124.136856
30
0.0
10
58.412324
20
124.321344
30
0.0
10
58.087881
20
124.487912
30
0.0
10
57.781416
20
124.637377
30
0.0
10
57.493549
20
124.770557
30
0.0
10
57.224732
20
124.888244
30
0.0
10
56.975558
20
124.991340
30
0.0
10
56.746422
20
125.080663
30
0.0
10
56.537832
20
125.157089
30
0.0
10
56.350182
20
125.221492
30
0.0
10
56.183869
20
125.274804
30
0.0
10
56.039286
20
125.317899
30
0.0
10
55.916745
20
125.351709
30
0.0
10
55.816585
20
125.377138
30
0.0
10
55.739058
20
125.395143
30
0.0
10
55.684420
20
125.406686
30
0.0
10
55.652896
20
125.412669
30
0.0
10
51.204058
20
126.126155
30
0.0
10
51.858333
20
134.337778
30
0.0
10
56.364039
20
134.337891
30
0.0
10
56.396100
20
134.338794
30
0.0
62
0
0
LWPOLYLINE
100
AcDbPolyline
8
Layer_1
90
18
70
0
10
62.409409
20
140.640675
30
0.0
10
62.198608
20
139.580907
30
0.0
10
61.598298
20
138.682480
30
0.0
10
60.699870
20
138.082170
30
0.0
10
59.640103
20
137.871369
30
0.0
10
58.580336
20
138.082170
30
0.0
10
57.681908
20
138.682480
30
0.0
10
57.081598
20
139.580907
30
0.0
10
56.870798
20
140.640675
30
0.0
10
57.081598
20
141.700442
30
0.0
10
57.681908
20
142.598869
30
0.0
10
58.580336
20
143.199179
30
0.0
10
59.640103
20
143.409980
30
0.0
10
60.699870
20
143.199179
30
0.0
10
61.598298
20
142.598869
30
0.0
10
62.198608
20
141.700442
30
0.0
10
62.409409
20
140.640675
30
0.0
10
62.409409
20
140.640675
30
0.0
62
0
0
LWPOLYLINE
100
AcDbPolyline
8
Layer_1
90
66
70
0
10
40.273227
20
134.664252
30
0.0
10
40.065027
20
130.541132
30
0.0
10
39.453941
20
126.537117
30
0.0
10
38.460240
20
122.672475
30
0.0
10
37.104193
20
118.967476
30
0.0
10
35.406071
20
115.442392
30
0.0
10
33.386144
20
112.117492
30
0.0
10
31.064682
20
109.013046
30
0.0
10
28.461955
20
106.149325
30
0.0
10
25.598234
20
103.546598
30
0.0
10
22.493788
20
101.225136
30
0.0
10
19.168888
20
99.205210
30
0.0
10
15.643803
20
97.507088
30
0.0
10
11.938805
20
96.151041
30
0.0
10
8.074163
20
95.157340
30
0.0
10
4.070147
20
94.546255
30
0.0
10
-0.052972
20
94.338055
30
0.0
10
-4.176092
20
94.546255
30
0.0
10
-8.180108
20
95.157340
30
0.0
10
-12.044750
20
96.151041
30
0.0
10
-15.749749
20
97.507087
30
0.0
10
-19.274833
20
99.205209
30
0.0
10
-22.599734
20
101.225136
30
0.0
10
-25.704180
20
103.546598
30
0.0
10
-28.567901
20
106.149324
30
0.0
10
-31.170628
20
109.013046
30
0.0
10
-33.492090
20
112.117492
30
0.0
10
-35.512017
20
115.442392
30
0.0
10
-37.210139
20
118.967476
30
0.0
10
-38.566186
20
122.672475
30
0.0
10
-39.559887
20
126.537117
30
0.0
10
-40.170973
20
130.541133
30
0.0
10
-40.379173
20
134.664252
30
0.0
10
-40.181843
20
138.650002
30
0.0
10
-39.597157
20
142.568242
30
0.0
10
-38.636066
20
146.392529
30
0.0
10
-37.309524
20
150.096421
30
0.0
10
-35.628483
20
153.653475
30
0.0
10
-33.603898
20
157.037249
30
0.0
10
-31.246720
20
160.221299
30
0.0
10
-28.567902
20
163.179182
30
0.0
10
-25.610019
20
165.857999
30
0.0
10
-22.425969
20
168.215177
30
0.0
10
-19.042195
20
170.239763
30
0.0
10
-15.485141
20
171.920803
30
0.0
10
-11.781249
20
173.247345
30
0.0
10
-7.956962
20
174.208436
30
0.0
10
-4.038722
20
174.793123
30
0.0
10
-0.052972
20
174.990452
30
0.0
10
4.070147
20
174.782253
30
0.0
10
8.074163
20
174.171167
30
0.0
10
11.938806
20
173.177466
30
0.0
10
15.643804
20
171.821419
30
0.0
10
19.168889
20
170.123297
30
0.0
10
22.493789
20
168.103370
30
0.0
10
25.598235
20
165.781908
30
0.0
10
28.461957
20
163.179181
30
0.0
10
31.064684
20
160.315460
30
0.0
10
33.386146
20
157.211014
30
0.0
10
35.406073
20
153.886113
30
0.0
10
37.104194
20
150.361029
30
0.0
10
38.460241
20
146.656030
30
0.0
10
39.453942
20
142.791388
30
0.0
10
40.065027
20
138.787372
30
0.0
10
40.273227
20
134.664252
30
0.0
10
40.273227
20
134.664252
30
0.0
62
0
0
LWPOLYLINE
100
AcDbPolyline
8
Layer_1
90
2
70
0
10
-0.052973
20
121.644339
30
0.0
10
-0.052973
20
94.338055
30
0.0
  0
ENDSEC
  0
SECTION
  2
OBJECTS
  0
DICTIONARY
  5
C
330
0
100
AcDbDictionary
  3
ACAD_GROUP
350
D
  3
ACAD_MLINESTYLE
350
17
  0
DICTIONARY
  5
D
330
C
100
AcDbDictionary
  0
DICTIONARY
  5
1A
330
C
100
AcDbDictionary
  0
DICTIONARY
  5
17
330
C
100
AcDbDictionary
  3
STANDARD
350
18
  0
DICTIONARY
  5
19
330
C
100
AcDbDictionary
  0
ENDSEC
  0
EOF
