<?xml version="1.0" encoding="UTF-8"?>
<!DOCTYPE svg PUBLIC "-//W3C//DTD SVG 1.0//EN" "http://www.w3.org/TR/2001/REC-SVG-20010904/DTD/svg10.dtd">
<!-- Creator: CorelDRAW X7 -->
<svg xmlns="http://www.w3.org/2000/svg" xml:space="preserve" width="30in" height="15in" version="1.0" style="shape-rendering:geometricPrecision; text-rendering:geometricPrecision; image-rendering:optimizeQuality; fill-rule:evenodd; clip-rule:evenodd"
viewBox="0 0 30000 15000"
 xmlns:xlink="http://www.w3.org/1999/xlink">
 <defs>
  <style type="text/css">
   <![CDATA[
    .str0 {stroke:aqua;stroke-width:3.75}
    .fil0 {fill:none}
   ]]>
  </style>
 </defs>
 <g id="Layer_x0020_1">
  <metadata id="CorelCorpID_0Corel-Layer"/>
  <path class="fil0 str0" d="M11875 11625l0 -562 250 0 0 -813 -250 0 0 -500 250 0 0 -500 -250 0 0 -500 250 0 0 -500 -250 0 0 -500 250 0 0 -500 -250 0 0 -500 250 0 0 -500 -250 0 0 -500 250 0 0 -500 -250 0 0 -500 250 0 0 -500 -250 0 0 -500 250 0 0 -500 -250 0 0 -500 250 0 0 -500 -250 0 0 -500 250 0 0 -812 -250 0 0 -563 625 0 0 -250 625 0 0 250 500 0 0 -250 500 0 0 250 500 0 0 -250 500 0 0 250 500 0 0 -250 500 0 0 250 500 0 0 -250 500 0 0 250 500 0 0 -250 500 0 0 250 500 0 0 -250 625 0 0 250 625 0c0,4150 0,7100 0,11250l-625 0 0 250 -625 0 0 -250 -500 0 0 250 -500 0 0 -250 -500 0 0 625 -500 0 0 -625 -500 0 0 625 -500 0 0 -625 -500 0 0 625 -500 0 0 -625 -500 0 0 250 -500 0 0 -250 -500 0 0 250 -625 0 0 -250 -625 0z"/>
  <g id="_949828512">
   <polygon class="fil0 str0" points="8125,375 8563,375 8563,125 9250,125 9250,375 9750,375 9750,125 10250,125 10250,375 10750,375 10750,125 11438,125 11438,375 11875,375 11875,938 12125,938 12125,1750 11875,1750 11875,2250 12125,2250 12125,2750 11875,2750 11875,3250 12125,3250 12125,3750 11875,3750 11875,4250 12125,4250 12125,4750 11875,4750 11875,5250 12125,5250 12125,5750 11875,5750 11875,6250 12125,6250 12125,6750 11875,6750 11875,7250 12125,7250 12125,7750 11875,7750 11875,8250 12125,8250 12125,8750 11875,8750 11875,9250 12125,9250 12125,9750 11875,9750 11875,10250 12125,10250 12125,11063 11875,11063 11875,11625 11438,11625 11438,11875 10750,11875 10750,11625 10250,11625 10250,11875 9750,11875 9750,11625 9250,11625 9250,11875 8563,11875 8563,11625 8125,11625 8125,11063 7875,11063 7875,10250 8125,10250 8125,9750 7875,9750 7875,9250 8125,9250 8125,8750 7875,8750 7875,8250 8125,8250 8125,7750 7875,7750 7875,7250 8125,7250 8125,6750 7875,6750 7875,6250 8125,6250 8125,5750 7875,5750 7875,5250 8125,5250 8125,4750 7875,4750 7875,4250 8125,4250 8125,3750 7875,3750 7875,3250 8125,3250 8125,2750 7875,2750 7875,2250 8125,2250 8125,1750 7875,1750 7875,938 8125,938 "/>
  </g>
  <path class="fil0 str0" d="M375 12250c4153,0 7597,0 11750,0l250 0c0,899 0,851 0,1750l-250 0 -234 0 0 -250 -485 0 0 250 -312 0 0 -250 -313 0 0 250 -312 0 0 -250 -313 0 0 250 -312 0 0 -250 -313 0 0 250 -312 0 0 -250 -313 0 0 250 -312 0 0 -250 -313 0 0 250 -312 0 0 -250 -313 0 0 250 -312 0 0 -250 -313 0 0 250 -312 0 0 -250 -313 0 0 250 -312 0 0 -250 -313 0 0 250 -312 0 0 -250 -313 0 0 250 -312 0 0 -250 -313 0 0 250 -312 0 0 -250 -313 0 0 250 -312 0 0 -250 -313 0 0 250 -312 0 0 -250 -313 0 0 250 -312 0 0 -250 -313 0 0 250 -312 0 0 -250 -313 0 0 250 -312 0 0 -250 -485 0 0 250 -234 0 -250 0c0,-899 0,-851 0,-1750l250 0z"/>
  <path class="fil0 str0" d="M12625 12625l234 0 0 250 485 0 0 -250 312 0 0 250 313 0 0 -250 312 0 0 250 313 0 0 -250 312 0 0 250 313 0 0 -250 312 0 0 250 313 0 0 -250 312 0 0 250 313 0 0 -250 312 0 0 250 313 0 0 -250 312 0 0 250 313 0 0 -250 312 0 0 250 313 0 0 -250 312 0 0 250 313 0 0 -250 312 0 0 250 313 0 0 -250 312 0 0 250 313 0 0 -250 312 0 0 250 313 0 0 -250 312 0 0 250 313 0 0 -250 312 0 0 250 313 0 0 -250 312 0 0 250 313 0 0 -250 312 0 0 250 313 0 0 -250 312 0 0 250 485 0 0 -250 234 0 250 0c0,899 0,851 0,1750l-250 0c-4153,0 -7597,0 -11750,0l-250 0c0,-899 0,-851 0,-1750l250 0z"/>
  <path class="fil0 str0" d="M8125 11625l0 -562 -250 0 0 -813 250 0 0 -500 -250 0 0 -500 250 0 0 -500 -250 0 0 -500 250 0 0 -500 -250 0 0 -500 250 0 0 -500 -250 0 0 -500 250 0 0 -500 -250 0 0 -500 250 0 0 -500 -250 0 0 -500 250 0 0 -500 -250 0 0 -500 250 0 0 -500 -250 0 0 -500 250 0 0 -500 -250 0 0 -812 250 0 0 -563 -625 0 0 -250 -625 0 0 250 -500 0 0 -250 -500 0 0 250 -500 0 0 -250 -500 0 0 250 -500 0 0 -250 -500 0 0 250 -500 0 0 -250 -500 0 0 250 -500 0 0 -250 -500 0 0 250 -500 0 0 -250 -625 0 0 250 -625 0c0,4150 0,7100 0,11250l625 0 0 250 625 0 0 -250 500 0 0 250 500 0 0 -250 500 0 0 625 500 0 0 -625 500 0 0 625 500 0 0 -625 500 0 0 625 500 0 0 -625 500 0 0 250 500 0 0 -250 500 0 0 250 625 0 0 -250 625 0z"/>
  <g id="_948664704">
   <g>
    <rect class="fil0 str0" x="27594" y="522" width="625" height="313"/>
    <rect class="fil0 str0" x="25406" y="522" width="625" height="313"/>
    <rect class="fil0 str0" x="26500" y="522" width="625" height="313"/>
   </g>
   <polyline class="fil0 str0" points="28938,6757 28938,6053 28688,6053 28688,5553 28938,5553 28938,5053 28688,5053 28688,4553 28938,4553 28938,4053 28688,4053 28688,3553 28688,125 "/>
   <polyline class="fil0 str0" points="24688,6757 24688,6053 24938,6053 24938,5553 24688,5553 24688,5053 24938,5053 24938,4553 24688,4553 24688,4053 24938,4053 24938,3553 24938,125 "/>
   <line class="fil0 str0" x1="28938" y1="6757" x2="24688" y2= "6757" />
   <line class="fil0 str0" x1="28688" y1="125" x2="24938" y2= "125" />
  </g>
  <polygon class="fil0 str0" points="24439,12125 23688,12125 23688,12625 23063,12625 23063,12125 22594,12125 22594,12625 21969,12625 21969,12125 21500,12125 21500,12625 20875,12625 20875,12125 20125,12125 20125,12015 19875,12015 19875,11531 20125,11531 20125,11218 19875,11218 19875,10906 20125,10906 20125,10593 19875,10593 19875,10281 20125,10281 20125,9968 19875,9968 19875,9656 20125,9656 20125,9343 19875,9343 19875,9031 20125,9031 20125,8718 19875,8718 19875,8406 20125,8406 20125,8093 19875,8093 19875,7781 20125,7781 20125,7468 19875,7468 19875,7156 20125,7156 20125,6843 19875,6843 19875,6531 20125,6531 20125,6218 19875,6218 19875,5906 20125,5906 20125,5593 19875,5593 19875,5281 20125,5281 20125,4968 19875,4968 19875,4656 20125,4656 20125,4343 19875,4343 19875,4031 20125,4031 20125,3718 19875,3718 19875,3406 20125,3406 20125,3093 19875,3093 19875,2781 20125,2781 20125,2468 19875,2468 19875,2156 20125,2156 20125,1843 19875,1843 19875,1531 20125,1531 20125,1218 19875,1218 19875,734 20125,734 20125,625 20875,625 20875,125 21500,125 21500,625 21969,625 21969,125 22594,125 22594,625 23063,625 23063,125 23688,125 23688,625 24438,626 24438,734 24688,734 24688,1218 24438,1218 24438,1531 24688,1531 24688,1843 24438,1843 24438,2156 24688,2156 24688,2468 24438,2468 24438,2781 24688,2781 24688,3093 24438,3093 24438,3406 24688,3406 24688,3718 24438,3718 24438,4031 24688,4031 24688,4343 24438,4343 24438,4656 24688,4656 24688,4968 24438,4968 24438,5281 24688,5281 24688,5593 24438,5593 24438,5906 24688,5906 24688,6218 24438,6218 24438,6531 24688,6531 24688,6843 24438,6843 24438,7156 24688,7156 24688,7468 24438,7468 24438,7781 24688,7781 24688,8093 24438,8093 24438,8406 24688,8406 24688,8718 24438,8718 24438,9031 24688,9031 24688,9343 24438,9343 24438,9656 24688,9656 24688,9968 24438,9968 24438,10281 24688,10281 24688,10593 24438,10593 24438,10906 24688,10906 24688,11218 24438,11218 24438,11531 24688,11531 24688,12015 24438,12015 "/>
  <path class="fil0 str0" d="M24688 6757c1718,0 2531,0 4250,0l0 625 -250 0 0 625 250 0 0 500 -250 0 0 500 250 0 0 500 -250 0 0 500 250 0 0 500 -250 0 0 500 250 0 0 500 -250 0 0 500 250 0 0 500 -250 0 0 500 250 0 0 500 -250 0 0 625 250 0 0 625 -688 0 0 -250 -687 0 0 250 -500 0 0 -250 -500 0 0 250 -500 0 0 -250 -688 0 0 250 -687 0 0 -625 250 0 0 -625 -250 0 0 -500 250 0 0 -500 -250 0 0 -500 250 0 0 -500 -250 0 0 -500 250 0 0 -500 -250 0 0 -500 250 0 0 -500 -250 0 0 -500 250 0 0 -500 -250 0 0 -500 250 0 0 -625 -250 0 0 -625z"/>
  <g id="_948663456">
   <path class="fil0 str0" d="M33188 8750l-688 0 0 -250 -687 0 0 250 -500 0 0 -250 -500 0 0 250 -500 0 0 -250 -688 0 0 250 -687 0 0 -625 250 0 0 -625 -250 0 0 -500 250 0 0 -500 -250 0 0 -500 250 0 0 -500 -250 0 0 -500 250 0 0 -500 -250 0 0 -500 250 0 0 -500 -250 0 0 -500 250 0 0 -500 -250 0 0 -500 250 0 0 -625 -250 0 0 -1250c1326,0 2696,0 4250,0l0 1250 -250 0 0 625 250 0 0 500 -250 0 0 500 250 0 0 500 -250 0 0 500 250 0 0 500 -250 0 0 500 250 0 0 500 -250 0 0 500 250 0 0 500 -250 0 0 500 250 0 0 500 -250 0 0 625 250 0 0 625z"/>
   <rect class="fil0 str0" x="31844" y="469" width="625" height="500"/>
   <rect class="fil0 str0" x="29656" y="469" width="625" height="500"/>
   <rect class="fil0 str0" x="30750" y="469" width="625" height="500"/>
  </g>
 </g>
</svg>
