solid OpenSCAD_Model
  facet normal 0 0 -1
    outer loop
      vertex -20 0 0
      vertex -19.8904 2.09057 0
      vertex -19.8904 -2.09057 0
    endloop
  endfacet
  facet normal 0 0 -1
    outer loop
      vertex -19.8904 -2.09057 0
      vertex -19.8904 2.09057 0
      vertex -19.563 4.15823 0
    endloop
  endfacet
  facet normal 0 0 -1
    outer loop
      vertex -19.8904 -2.09057 0
      vertex -19.563 4.15823 0
      vertex -19.0211 6.18034 0
    endloop
  endfacet
  facet normal 0 0 -1
    outer loop
      vertex -19.8904 -2.09057 0
      vertex -19.0211 6.18034 0
      vertex -18.2709 8.13473 0
    endloop
  endfacet
  facet normal 0 0 -1
    outer loop
      vertex -19.8904 -2.09057 0
      vertex -18.2709 8.13473 0
      vertex -17.3205 10 0
    endloop
  endfacet
  facet normal 0 0 -1
    outer loop
      vertex -19.8904 -2.09057 0
      vertex -17.3205 10 0
      vertex -16.1803 11.7557 0
    endloop
  endfacet
  facet normal 0 0 -1
    outer loop
      vertex -19.8904 -2.09057 0
      vertex -16.1803 11.7557 0
      vertex -14.8629 13.3826 0
    endloop
  endfacet
  facet normal 0 0 -1
    outer loop
      vertex -16.4438 7.32126 0
      vertex -14.8629 13.3826 0
      vertex -13.3826 14.8629 0
    endloop
  endfacet
  facet normal 0 0 -1
    outer loop
      vertex -14.5623 10.5801 0
      vertex -13.3826 14.8629 0
      vertex -11.7557 16.1803 0
    endloop
  endfacet
  facet normal 0 0 -1
    outer loop
      vertex -12.0444 13.3766 0
      vertex -11.7557 16.1803 0
      vertex -10 17.3205 0
    endloop
  endfacet
  facet normal 0 0 -1
    outer loop
      vertex -10.5801 14.5623 0
      vertex -10 17.3205 0
      vertex -8.13473 18.2709 0
    endloop
  endfacet
  facet normal 0 0 -1
    outer loop
      vertex -9 15.5885 0
      vertex -8.13473 18.2709 0
      vertex -6.18034 19.0211 0
    endloop
  endfacet
  facet normal 0 0 -1
    outer loop
      vertex -7.32126 16.4438 0
      vertex -6.18034 19.0211 0
      vertex -4.15823 19.563 0
    endloop
  endfacet
  facet normal 0 0 -1
    outer loop
      vertex -5 17.2697 0
      vertex -4.15823 19.563 0
      vertex -2.09057 19.8904 0
    endloop
  endfacet
  facet normal 0 0 -1
    outer loop
      vertex -4.94427 15.2169 0
      vertex -2.09057 19.8904 0
      vertex 0 20 0
    endloop
  endfacet
  facet normal 0 0 -1
    outer loop
      vertex -3.32659 15.6504 0
      vertex 0 20 0
      vertex 2.09057 19.8904 0
    endloop
  endfacet
  facet normal 0 0 -1
    outer loop
      vertex 0 16 0
      vertex 2.09057 19.8904 0
      vertex 4.15823 19.563 0
    endloop
  endfacet
  facet normal 0 0 -1
    outer loop
      vertex 1.67246 15.9123 0
      vertex 4.15823 19.563 0
      vertex 6.18034 19.0211 0
    endloop
  endfacet
  facet normal 0 0 -1
    outer loop
      vertex 5.56231 17.119 0
      vertex 6.18034 19.0211 0
      vertex 8.13473 18.2709 0
    endloop
  endfacet
  facet normal 0 0 -1
    outer loop
      vertex 7.32126 16.4438 0
      vertex 8.13473 18.2709 0
      vertex 10 17.3205 0
    endloop
  endfacet
  facet normal 0 0 -1
    outer loop
      vertex 9 15.5885 0
      vertex 10 17.3205 0
      vertex 11.7557 16.1803 0
    endloop
  endfacet
  facet normal 0 0 -1
    outer loop
      vertex 10.5801 14.5623 0
      vertex 11.7557 16.1803 0
      vertex 13.3826 14.8629 0
    endloop
  endfacet
  facet normal 0 0 -1
    outer loop
      vertex 12.0444 13.3766 0
      vertex 13.3826 14.8629 0
      vertex 14.8629 13.3826 0
    endloop
  endfacet
  facet normal 0 0 -1
    outer loop
      vertex 13.3766 12.0444 0
      vertex 14.8629 13.3826 0
      vertex 16.1803 11.7557 0
    endloop
  endfacet
  facet normal 0 0 -1
    outer loop
      vertex 14.5623 10.5801 0
      vertex 16.1803 11.7557 0
      vertex 17.3205 10 0
    endloop
  endfacet
  facet normal 0 0 -1
    outer loop
      vertex 15.5885 9 0
      vertex 17.3205 10 0
      vertex 18.2709 8.13473 0
    endloop
  endfacet
  facet normal 0 0 -1
    outer loop
      vertex 16.4438 7.32126 0
      vertex 18.2709 8.13473 0
      vertex 19.0211 6.18034 0
    endloop
  endfacet
  facet normal 0 0 -1
    outer loop
      vertex 17.119 5.56231 0
      vertex 19.0211 6.18034 0
      vertex 19.563 4.15823 0
    endloop
  endfacet
  facet normal 0 0 -1
    outer loop
      vertex 17.6067 3.74241 0
      vertex 19.563 4.15823 0
      vertex 19.8904 2.09057 0
    endloop
  endfacet
  facet normal 0 0 -1
    outer loop
      vertex 18 0 0
      vertex 19.8904 2.09057 0
      vertex 20 0 0
    endloop
  endfacet
  facet normal 0 0 -1
    outer loop
      vertex 17.9014 -1.88151 0
      vertex 20 0 0
      vertex 19.8904 -2.09057 0
    endloop
  endfacet
  facet normal 0 0 -1
    outer loop
      vertex 17.6067 -3.74241 0
      vertex 19.8904 -2.09057 0
      vertex 19.563 -4.15823 0
    endloop
  endfacet
  facet normal 0 0 -1
    outer loop
      vertex 17.119 -5.56231 0
      vertex 19.563 -4.15823 0
      vertex 19.0211 -6.18034 0
    endloop
  endfacet
  facet normal 0 0 -1
    outer loop
      vertex 16.4438 -7.32126 0
      vertex 19.0211 -6.18034 0
      vertex 18.2709 -8.13473 0
    endloop
  endfacet
  facet normal 0 0 -1
    outer loop
      vertex 15.5885 -9 0
      vertex 18.2709 -8.13473 0
      vertex 17.3205 -10 0
    endloop
  endfacet
  facet normal 0 0 -1
    outer loop
      vertex 14.5623 -10.5801 0
      vertex 17.3205 -10 0
      vertex 16.1803 -11.7557 0
    endloop
  endfacet
  facet normal 0 0 -1
    outer loop
      vertex 13.3766 -12.0444 0
      vertex 16.1803 -11.7557 0
      vertex 14.8629 -13.3826 0
    endloop
  endfacet
  facet normal 0 0 -1
    outer loop
      vertex 12.0444 -13.3766 0
      vertex 14.8629 -13.3826 0
      vertex 13.3826 -14.8629 0
    endloop
  endfacet
  facet normal 0 0 -1
    outer loop
      vertex 10.5801 -14.5623 0
      vertex 13.3826 -14.8629 0
      vertex 11.7557 -16.1803 0
    endloop
  endfacet
  facet normal 0 0 -1
    outer loop
      vertex 9 -15.5885 0
      vertex 11.7557 -16.1803 0
      vertex 10 -17.3205 0
    endloop
  endfacet
  facet normal 0 0 -1
    outer loop
      vertex 7.32126 -16.4438 0
      vertex 10 -17.3205 0
      vertex 8.13473 -18.2709 0
    endloop
  endfacet
  facet normal 0 0 -1
    outer loop
      vertex 3.25 -17.6846 0
      vertex 6.18034 -19.0211 0
      vertex 4.15823 -19.563 0
    endloop
  endfacet
  facet normal 0 0 -1
    outer loop
      vertex -1.67246 -15.9123 0
      vertex 4.15823 -19.563 0
      vertex 2.09057 -19.8904 0
    endloop
  endfacet
  facet normal 0 0 -1
    outer loop
      vertex -3.75 -15.5369 0
      vertex 2.09057 -19.8904 0
      vertex 0 -20 0
    endloop
  endfacet
  facet normal 0 0 -1
    outer loop
      vertex -3.75 -17.6046 0
      vertex 0 -20 0
      vertex -2.09057 -19.8904 0
    endloop
  endfacet
  facet normal 0 0 -1
    outer loop
      vertex -5.56231 -17.119 0
      vertex -2.09057 -19.8904 0
      vertex -4.15823 -19.563 0
    endloop
  endfacet
  facet normal 0 0 -1
    outer loop
      vertex -7.32126 -16.4438 0
      vertex -4.15823 -19.563 0
      vertex -6.18034 -19.0211 0
    endloop
  endfacet
  facet normal 0 0 -1
    outer loop
      vertex -10.5801 -14.5623 0
      vertex -6.18034 -19.0211 0
      vertex -8.13473 -18.2709 0
    endloop
  endfacet
  facet normal 0 0 -1
    outer loop
      vertex -13.3766 -12.0444 0
      vertex -8.13473 -18.2709 0
      vertex -10 -17.3205 0
    endloop
  endfacet
  facet normal 0 0 -1
    outer loop
      vertex -14.5623 -10.5801 0
      vertex -10 -17.3205 0
      vertex -11.7557 -16.1803 0
    endloop
  endfacet
  facet normal 0 0 -1
    outer loop
      vertex -19.8904 -2.09057 0
      vertex -11.7557 -16.1803 0
      vertex -13.3826 -14.8629 0
    endloop
  endfacet
  facet normal 0 0 -1
    outer loop
      vertex -19.8904 -2.09057 0
      vertex -13.3826 -14.8629 0
      vertex -14.8629 -13.3826 0
    endloop
  endfacet
  facet normal 0 0 -1
    outer loop
      vertex -19.8904 -2.09057 0
      vertex -14.8629 -13.3826 0
      vertex -16.1803 -11.7557 0
    endloop
  endfacet
  facet normal 0 0 -1
    outer loop
      vertex -19.8904 -2.09057 0
      vertex -16.1803 -11.7557 0
      vertex -17.3205 -10 0
    endloop
  endfacet
  facet normal 0 0 -1
    outer loop
      vertex -19.8904 -2.09057 0
      vertex -17.3205 -10 0
      vertex -18.2709 -8.13473 0
    endloop
  endfacet
  facet normal 0 0 -1
    outer loop
      vertex -19.8904 -2.09057 0
      vertex -18.2709 -8.13473 0
      vertex -19.0211 -6.18034 0
    endloop
  endfacet
  facet normal 0 0 -1
    outer loop
      vertex -19.8904 -2.09057 0
      vertex -19.0211 -6.18034 0
      vertex -19.563 -4.15823 0
    endloop
  endfacet
  facet normal 0 0 -1
    outer loop
      vertex -17.9014 -1.88151 0
      vertex -19.8904 -2.09057 0
      vertex -18 0 0
    endloop
  endfacet
  facet normal 0 0 -1
    outer loop
      vertex -17.6067 -3.74241 0
      vertex -19.8904 -2.09057 0
      vertex -17.9014 -1.88151 0
    endloop
  endfacet
  facet normal 0 0 -1
    outer loop
      vertex -17.119 -5.56231 0
      vertex -19.8904 -2.09057 0
      vertex -17.6067 -3.74241 0
    endloop
  endfacet
  facet normal 0 0 -1
    outer loop
      vertex -16.4438 -7.32126 0
      vertex -19.8904 -2.09057 0
      vertex -17.119 -5.56231 0
    endloop
  endfacet
  facet normal 0 0 -1
    outer loop
      vertex -15.5885 -9 0
      vertex -19.8904 -2.09057 0
      vertex -16.4438 -7.32126 0
    endloop
  endfacet
  facet normal 0 0 -1
    outer loop
      vertex -13.3766 -12.0444 0
      vertex -10 -17.3205 0
      vertex -14.5623 -10.5801 0
    endloop
  endfacet
  facet normal 0 0 -1
    outer loop
      vertex -19.8904 -2.09057 0
      vertex -15.5885 -9 0
      vertex -11.7557 -16.1803 0
    endloop
  endfacet
  facet normal 0 0 -1
    outer loop
      vertex -15.5885 -9 0
      vertex -14.5623 -10.5801 0
      vertex -11.7557 -16.1803 0
    endloop
  endfacet
  facet normal 0 0 -1
    outer loop
      vertex -12.0444 -13.3766 0
      vertex -8.13473 -18.2709 0
      vertex -13.3766 -12.0444 0
    endloop
  endfacet
  facet normal 0 0 -1
    outer loop
      vertex -10.5801 -14.5623 0
      vertex -8.13473 -18.2709 0
      vertex -12.0444 -13.3766 0
    endloop
  endfacet
  facet normal 0 0 -1
    outer loop
      vertex -9 -15.5885 0
      vertex -6.18034 -19.0211 0
      vertex -10.5801 -14.5623 0
    endloop
  endfacet
  facet normal 0 0 -1
    outer loop
      vertex -7.32126 -16.4438 0
      vertex -6.18034 -19.0211 0
      vertex -9 -15.5885 0
    endloop
  endfacet
  facet normal 0 0 -1
    outer loop
      vertex 7.32126 -16.4438 0
      vertex 8.13473 -18.2709 0
      vertex 5.56231 -17.119 0
    endloop
  endfacet
  facet normal 0 0 -1
    outer loop
      vertex 3.74241 -17.6067 0
      vertex 6.18034 -19.0211 0
      vertex 3.25 -17.6846 0
    endloop
  endfacet
  facet normal 0 0 -1
    outer loop
      vertex -3.32659 -15.6504 0
      vertex 2.09057 -19.8904 0
      vertex -3.75 -15.5369 0
    endloop
  endfacet
  facet normal 0 0 -1
    outer loop
      vertex 1.67246 15.9123 0
      vertex 5 17.2697 0
      vertex 3.32659 15.6504 0
    endloop
  endfacet
  facet normal 0 0 -1
    outer loop
      vertex 0 -16 0
      vertex 4.15823 -19.563 0
      vertex -1.67246 -15.9123 0
    endloop
  endfacet
  facet normal 0 0 -1
    outer loop
      vertex 5.56231 -17.119 0
      vertex 6.18034 -19.0211 0
      vertex 3.74241 -17.6067 0
    endloop
  endfacet
  facet normal 0 0 -1
    outer loop
      vertex 0 -16 0
      vertex 3.25 -17.6846 0
      vertex 4.15823 -19.563 0
    endloop
  endfacet
  facet normal 0 0 -1
    outer loop
      vertex 3.25 -17.6846 0
      vertex 1.67246 -15.9123 0
      vertex 3.25 -15.6625 0
    endloop
  endfacet
  facet normal 0 0 -1
    outer loop
      vertex 5.56231 -17.119 0
      vertex 8.13473 -18.2709 0
      vertex 6.18034 -19.0211 0
    endloop
  endfacet
  facet normal 0 0 -1
    outer loop
      vertex -1.67246 -15.9123 0
      vertex 2.09057 -19.8904 0
      vertex -3.32659 -15.6504 0
    endloop
  endfacet
  facet normal 0 0 -1
    outer loop
      vertex -3.75 -15.5369 0
      vertex 0 -20 0
      vertex -3.75 -17.6046 0
    endloop
  endfacet
  facet normal 0 0 -1
    outer loop
      vertex -3.75 -17.6046 0
      vertex -2.09057 -19.8904 0
      vertex -5.56231 -17.119 0
    endloop
  endfacet
  facet normal 0 0 -1
    outer loop
      vertex -5.56231 -17.119 0
      vertex -4.15823 -19.563 0
      vertex -7.32126 -16.4438 0
    endloop
  endfacet
  facet normal 0 0 -1
    outer loop
      vertex 17.9014 1.88151 0
      vertex 19.8904 2.09057 0
      vertex 18 0 0
    endloop
  endfacet
  facet normal 0 0 -1
    outer loop
      vertex 17.119 5.56231 0
      vertex 19.563 4.15823 0
      vertex 17.6067 3.74241 0
    endloop
  endfacet
  facet normal 0 0 -1
    outer loop
      vertex 17.6067 3.74241 0
      vertex 19.8904 2.09057 0
      vertex 17.9014 1.88151 0
    endloop
  endfacet
  facet normal 0 0 -1
    outer loop
      vertex 18 0 0
      vertex 20 0 0
      vertex 17.9014 -1.88151 0
    endloop
  endfacet
  facet normal 0 0 -1
    outer loop
      vertex 17.9014 -1.88151 0
      vertex 19.8904 -2.09057 0
      vertex 17.6067 -3.74241 0
    endloop
  endfacet
  facet normal 0 0 -1
    outer loop
      vertex 17.6067 -3.74241 0
      vertex 19.563 -4.15823 0
      vertex 17.119 -5.56231 0
    endloop
  endfacet
  facet normal 0 0 -1
    outer loop
      vertex 17.119 -5.56231 0
      vertex 19.0211 -6.18034 0
      vertex 16.4438 -7.32126 0
    endloop
  endfacet
  facet normal 0 0 -1
    outer loop
      vertex 16.4438 -7.32126 0
      vertex 18.2709 -8.13473 0
      vertex 15.5885 -9 0
    endloop
  endfacet
  facet normal 0 0 -1
    outer loop
      vertex 15.5885 -9 0
      vertex 17.3205 -10 0
      vertex 14.5623 -10.5801 0
    endloop
  endfacet
  facet normal 0 0 -1
    outer loop
      vertex 14.5623 -10.5801 0
      vertex 16.1803 -11.7557 0
      vertex 13.3766 -12.0444 0
    endloop
  endfacet
  facet normal 0 0 -1
    outer loop
      vertex 5 17.2697 0
      vertex 6.18034 19.0211 0
      vertex 5.56231 17.119 0
    endloop
  endfacet
  facet normal 0 0 -1
    outer loop
      vertex 12.0444 -13.3766 0
      vertex 13.3826 -14.8629 0
      vertex 10.5801 -14.5623 0
    endloop
  endfacet
  facet normal 0 0 -1
    outer loop
      vertex 5 15.1955 0
      vertex 4.94427 15.2169 0
      vertex 5 17.2697 0
    endloop
  endfacet
  facet normal 0 0 -1
    outer loop
      vertex 13.3766 -12.0444 0
      vertex 14.8629 -13.3826 0
      vertex 12.0444 -13.3766 0
    endloop
  endfacet
  facet normal 0 0 -1
    outer loop
      vertex 10.5801 -14.5623 0
      vertex 11.7557 -16.1803 0
      vertex 9 -15.5885 0
    endloop
  endfacet
  facet normal 0 0 -1
    outer loop
      vertex 9 -15.5885 0
      vertex 10 -17.3205 0
      vertex 7.32126 -16.4438 0
    endloop
  endfacet
  facet normal 0 0 -1
    outer loop
      vertex -1.67246 15.9123 0
      vertex 2.09057 19.8904 0
      vertex 0 16 0
    endloop
  endfacet
  facet normal 0 0 -1
    outer loop
      vertex 3.25 -17.6846 0
      vertex 0 -16 0
      vertex 1.67246 -15.9123 0
    endloop
  endfacet
  facet normal 0 0 -1
    outer loop
      vertex -4.94427 15.2169 0
      vertex 0 20 0
      vertex -3.32659 15.6504 0
    endloop
  endfacet
  facet normal 0 0 -1
    outer loop
      vertex -5 15.1955 0
      vertex -2.09057 19.8904 0
      vertex -4.94427 15.2169 0
    endloop
  endfacet
  facet normal 0 0 -1
    outer loop
      vertex -3.32659 15.6504 0
      vertex 2.09057 19.8904 0
      vertex -1.67246 15.9123 0
    endloop
  endfacet
  facet normal 0 0 -1
    outer loop
      vertex -5.56231 17.119 0
      vertex -4.15823 19.563 0
      vertex -5 17.2697 0
    endloop
  endfacet
  facet normal 0 0 -1
    outer loop
      vertex 0 16 0
      vertex 4.15823 19.563 0
      vertex 1.67246 15.9123 0
    endloop
  endfacet
  facet normal 0 0 -1
    outer loop
      vertex 4.94427 15.2169 0
      vertex 3.32659 15.6504 0
      vertex 5 17.2697 0
    endloop
  endfacet
  facet normal 0 0 -1
    outer loop
      vertex -13.3766 12.0444 0
      vertex -11.7557 16.1803 0
      vertex -12.0444 13.3766 0
    endloop
  endfacet
  facet normal 0 0 -1
    outer loop
      vertex 5.56231 17.119 0
      vertex 8.13473 18.2709 0
      vertex 7.32126 16.4438 0
    endloop
  endfacet
  facet normal 0 0 -1
    outer loop
      vertex -15.5885 9 0
      vertex -13.3826 14.8629 0
      vertex -14.5623 10.5801 0
    endloop
  endfacet
  facet normal 0 0 -1
    outer loop
      vertex -16.4438 7.32126 0
      vertex -13.3826 14.8629 0
      vertex -15.5885 9 0
    endloop
  endfacet
  facet normal 0 0 -1
    outer loop
      vertex -17.119 5.56231 0
      vertex -14.8629 13.3826 0
      vertex -16.4438 7.32126 0
    endloop
  endfacet
  facet normal 0 0 -1
    outer loop
      vertex -17.6067 3.74241 0
      vertex -19.8904 -2.09057 0
      vertex -17.119 5.56231 0
    endloop
  endfacet
  facet normal 0 0 -1
    outer loop
      vertex -19.8904 -2.09057 0
      vertex -14.8629 13.3826 0
      vertex -17.119 5.56231 0
    endloop
  endfacet
  facet normal 0 0 -1
    outer loop
      vertex -17.9014 1.88151 0
      vertex -19.8904 -2.09057 0
      vertex -17.6067 3.74241 0
    endloop
  endfacet
  facet normal 0 0 -1
    outer loop
      vertex 1.67246 15.9123 0
      vertex 6.18034 19.0211 0
      vertex 5 17.2697 0
    endloop
  endfacet
  facet normal 0 0 -1
    outer loop
      vertex -18 0 0
      vertex -19.8904 -2.09057 0
      vertex -17.9014 1.88151 0
    endloop
  endfacet
  facet normal 0 0 -1
    outer loop
      vertex -14.5623 10.5801 0
      vertex -11.7557 16.1803 0
      vertex -13.3766 12.0444 0
    endloop
  endfacet
  facet normal 0 0 -1
    outer loop
      vertex -12.0444 13.3766 0
      vertex -10 17.3205 0
      vertex -10.5801 14.5623 0
    endloop
  endfacet
  facet normal 0 0 -1
    outer loop
      vertex -10.5801 14.5623 0
      vertex -8.13473 18.2709 0
      vertex -9 15.5885 0
    endloop
  endfacet
  facet normal 0 0 -1
    outer loop
      vertex -9 15.5885 0
      vertex -6.18034 19.0211 0
      vertex -7.32126 16.4438 0
    endloop
  endfacet
  facet normal 0 0 -1
    outer loop
      vertex -7.32126 16.4438 0
      vertex -4.15823 19.563 0
      vertex -5.56231 17.119 0
    endloop
  endfacet
  facet normal 0 0 -1
    outer loop
      vertex -5 17.2697 0
      vertex -2.09057 19.8904 0
      vertex -5 15.1955 0
    endloop
  endfacet
  facet normal 0 0 -1
    outer loop
      vertex 7.32126 16.4438 0
      vertex 10 17.3205 0
      vertex 9 15.5885 0
    endloop
  endfacet
  facet normal 0 0 -1
    outer loop
      vertex 9 15.5885 0
      vertex 11.7557 16.1803 0
      vertex 10.5801 14.5623 0
    endloop
  endfacet
  facet normal 0 0 -1
    outer loop
      vertex 10.5801 14.5623 0
      vertex 13.3826 14.8629 0
      vertex 12.0444 13.3766 0
    endloop
  endfacet
  facet normal 0 0 -1
    outer loop
      vertex 12.0444 13.3766 0
      vertex 14.8629 13.3826 0
      vertex 13.3766 12.0444 0
    endloop
  endfacet
  facet normal 0 0 -1
    outer loop
      vertex 13.3766 12.0444 0
      vertex 16.1803 11.7557 0
      vertex 14.5623 10.5801 0
    endloop
  endfacet
  facet normal 0 0 -1
    outer loop
      vertex 14.5623 10.5801 0
      vertex 17.3205 10 0
      vertex 15.5885 9 0
    endloop
  endfacet
  facet normal 0 0 -1
    outer loop
      vertex 15.5885 9 0
      vertex 18.2709 8.13473 0
      vertex 16.4438 7.32126 0
    endloop
  endfacet
  facet normal 0 0 -1
    outer loop
      vertex 16.4438 7.32126 0
      vertex 19.0211 6.18034 0
      vertex 17.119 5.56231 0
    endloop
  endfacet
  facet normal -0.99863 0.0523359 0
    outer loop
      vertex -20 0 0
      vertex -20 0 8
      vertex -19.8904 2.09057 0
    endloop
  endfacet
  facet normal -0.99863 0.0523359 0
    outer loop
      vertex -19.8904 2.09057 0
      vertex -20 0 8
      vertex -19.8904 2.09057 8
    endloop
  endfacet
  facet normal -0.99863 -0.0523359 0
    outer loop
      vertex -20 0 0
      vertex -19.8904 -2.09057 0
      vertex -20 0 8
    endloop
  endfacet
  facet normal -0.99863 -0.0523359 0
    outer loop
      vertex -20 0 8
      vertex -19.8904 -2.09057 0
      vertex -19.8904 -2.09057 8
    endloop
  endfacet
  facet normal -0.987688 -0.156434 0
    outer loop
      vertex -19.8904 -2.09057 0
      vertex -19.563 -4.15823 0
      vertex -19.8904 -2.09057 8
    endloop
  endfacet
  facet normal -0.987688 -0.156434 0
    outer loop
      vertex -19.8904 -2.09057 8
      vertex -19.563 -4.15823 0
      vertex -19.563 -4.15823 8
    endloop
  endfacet
  facet normal -0.965926 -0.258819 0
    outer loop
      vertex -19.563 -4.15823 0
      vertex -19.0211 -6.18034 0
      vertex -19.563 -4.15823 8
    endloop
  endfacet
  facet normal -0.965926 -0.258819 0
    outer loop
      vertex -19.563 -4.15823 8
      vertex -19.0211 -6.18034 0
      vertex -19.0211 -6.18034 8
    endloop
  endfacet
  facet normal -0.93358 -0.358368 0
    outer loop
      vertex -19.0211 -6.18034 0
      vertex -18.2709 -8.13473 0
      vertex -19.0211 -6.18034 8
    endloop
  endfacet
  facet normal -0.93358 -0.358368 0
    outer loop
      vertex -19.0211 -6.18034 8
      vertex -18.2709 -8.13473 0
      vertex -18.2709 -8.13473 8
    endloop
  endfacet
  facet normal -0.891007 -0.45399 0
    outer loop
      vertex -18.2709 -8.13473 0
      vertex -17.3205 -10 0
      vertex -18.2709 -8.13473 8
    endloop
  endfacet
  facet normal -0.891007 -0.45399 0
    outer loop
      vertex -18.2709 -8.13473 8
      vertex -17.3205 -10 0
      vertex -17.3205 -10 8
    endloop
  endfacet
  facet normal -0.838671 -0.544639 0
    outer loop
      vertex -17.3205 -10 0
      vertex -16.1803 -11.7557 0
      vertex -17.3205 -10 8
    endloop
  endfacet
  facet normal -0.838671 -0.544639 0
    outer loop
      vertex -17.3205 -10 8
      vertex -16.1803 -11.7557 0
      vertex -16.1803 -11.7557 8
    endloop
  endfacet
  facet normal -0.777146 -0.62932 0
    outer loop
      vertex -16.1803 -11.7557 0
      vertex -14.8629 -13.3826 0
      vertex -16.1803 -11.7557 8
    endloop
  endfacet
  facet normal -0.777146 -0.62932 0
    outer loop
      vertex -16.1803 -11.7557 8
      vertex -14.8629 -13.3826 0
      vertex -14.8629 -13.3826 8
    endloop
  endfacet
  facet normal -0.707107 -0.707107 0
    outer loop
      vertex -14.8629 -13.3826 8
      vertex -14.8629 -13.3826 0
      vertex -13.3826 -14.8629 0
    endloop
  endfacet
  facet normal -0.707107 -0.707107 0
    outer loop
      vertex -13.3826 -14.8629 8
      vertex -14.8629 -13.3826 8
      vertex -13.3826 -14.8629 0
    endloop
  endfacet
  facet normal -0.62932 -0.777146 0
    outer loop
      vertex -13.3826 -14.8629 8
      vertex -13.3826 -14.8629 0
      vertex -11.7557 -16.1803 0
    endloop
  endfacet
  facet normal -0.62932 -0.777146 0
    outer loop
      vertex -11.7557 -16.1803 8
      vertex -13.3826 -14.8629 8
      vertex -11.7557 -16.1803 0
    endloop
  endfacet
  facet normal -0.544639 -0.838671 0
    outer loop
      vertex -11.7557 -16.1803 8
      vertex -11.7557 -16.1803 0
      vertex -10 -17.3205 0
    endloop
  endfacet
  facet normal -0.544639 -0.838671 0
    outer loop
      vertex -10 -17.3205 8
      vertex -11.7557 -16.1803 8
      vertex -10 -17.3205 0
    endloop
  endfacet
  facet normal -0.45399 -0.891007 0
    outer loop
      vertex -10 -17.3205 8
      vertex -10 -17.3205 0
      vertex -8.13473 -18.2709 0
    endloop
  endfacet
  facet normal -0.45399 -0.891007 0
    outer loop
      vertex -8.13473 -18.2709 8
      vertex -10 -17.3205 8
      vertex -8.13473 -18.2709 0
    endloop
  endfacet
  facet normal -0.358368 -0.93358 0
    outer loop
      vertex -8.13473 -18.2709 8
      vertex -8.13473 -18.2709 0
      vertex -6.18034 -19.0211 0
    endloop
  endfacet
  facet normal -0.358368 -0.93358 0
    outer loop
      vertex -6.18034 -19.0211 8
      vertex -8.13473 -18.2709 8
      vertex -6.18034 -19.0211 0
    endloop
  endfacet
  facet normal -0.258819 -0.965926 0
    outer loop
      vertex -6.18034 -19.0211 8
      vertex -6.18034 -19.0211 0
      vertex -4.15823 -19.563 0
    endloop
  endfacet
  facet normal -0.258819 -0.965926 0
    outer loop
      vertex -4.15823 -19.563 8
      vertex -6.18034 -19.0211 8
      vertex -4.15823 -19.563 0
    endloop
  endfacet
  facet normal -0.156434 -0.987688 0
    outer loop
      vertex -4.15823 -19.563 8
      vertex -4.15823 -19.563 0
      vertex -2.09057 -19.8904 0
    endloop
  endfacet
  facet normal -0.156434 -0.987688 0
    outer loop
      vertex -2.09057 -19.8904 8
      vertex -4.15823 -19.563 8
      vertex -2.09057 -19.8904 0
    endloop
  endfacet
  facet normal -0.0523359 -0.99863 0
    outer loop
      vertex -2.09057 -19.8904 8
      vertex -2.09057 -19.8904 0
      vertex 0 -20 0
    endloop
  endfacet
  facet normal -0.0523359 -0.99863 0
    outer loop
      vertex 0 -20 8
      vertex -2.09057 -19.8904 8
      vertex 0 -20 0
    endloop
  endfacet
  facet normal 0.0523359 -0.99863 0
    outer loop
      vertex 0 -20 8
      vertex 0 -20 0
      vertex 2.09057 -19.8904 0
    endloop
  endfacet
  facet normal 0.0523359 -0.99863 0
    outer loop
      vertex 2.09057 -19.8904 8
      vertex 0 -20 8
      vertex 2.09057 -19.8904 0
    endloop
  endfacet
  facet normal 0.156434 -0.987688 0
    outer loop
      vertex 2.09057 -19.8904 8
      vertex 2.09057 -19.8904 0
      vertex 4.15823 -19.563 0
    endloop
  endfacet
  facet normal 0.156434 -0.987688 0
    outer loop
      vertex 4.15823 -19.563 8
      vertex 2.09057 -19.8904 8
      vertex 4.15823 -19.563 0
    endloop
  endfacet
  facet normal 0.258819 -0.965926 0
    outer loop
      vertex 4.15823 -19.563 8
      vertex 4.15823 -19.563 0
      vertex 6.18034 -19.0211 0
    endloop
  endfacet
  facet normal 0.258819 -0.965926 0
    outer loop
      vertex 6.18034 -19.0211 8
      vertex 4.15823 -19.563 8
      vertex 6.18034 -19.0211 0
    endloop
  endfacet
  facet normal 0.358368 -0.93358 0
    outer loop
      vertex 6.18034 -19.0211 8
      vertex 6.18034 -19.0211 0
      vertex 8.13473 -18.2709 0
    endloop
  endfacet
  facet normal 0.358368 -0.93358 0
    outer loop
      vertex 8.13473 -18.2709 8
      vertex 6.18034 -19.0211 8
      vertex 8.13473 -18.2709 0
    endloop
  endfacet
  facet normal 0.45399 -0.891007 0
    outer loop
      vertex 8.13473 -18.2709 8
      vertex 8.13473 -18.2709 0
      vertex 10 -17.3205 0
    endloop
  endfacet
  facet normal 0.45399 -0.891007 0
    outer loop
      vertex 10 -17.3205 8
      vertex 8.13473 -18.2709 8
      vertex 10 -17.3205 0
    endloop
  endfacet
  facet normal 0.544639 -0.838671 0
    outer loop
      vertex 10 -17.3205 8
      vertex 10 -17.3205 0
      vertex 11.7557 -16.1803 0
    endloop
  endfacet
  facet normal 0.544639 -0.838671 0
    outer loop
      vertex 11.7557 -16.1803 8
      vertex 10 -17.3205 8
      vertex 11.7557 -16.1803 0
    endloop
  endfacet
  facet normal 0.62932 -0.777146 0
    outer loop
      vertex 11.7557 -16.1803 8
      vertex 11.7557 -16.1803 0
      vertex 13.3826 -14.8629 0
    endloop
  endfacet
  facet normal 0.62932 -0.777146 0
    outer loop
      vertex 13.3826 -14.8629 8
      vertex 11.7557 -16.1803 8
      vertex 13.3826 -14.8629 0
    endloop
  endfacet
  facet normal 0.707107 -0.707107 0
    outer loop
      vertex 13.3826 -14.8629 8
      vertex 13.3826 -14.8629 0
      vertex 14.8629 -13.3826 0
    endloop
  endfacet
  facet normal 0.707107 -0.707107 0
    outer loop
      vertex 14.8629 -13.3826 8
      vertex 13.3826 -14.8629 8
      vertex 14.8629 -13.3826 0
    endloop
  endfacet
  facet normal 0.777146 -0.62932 0
    outer loop
      vertex 14.8629 -13.3826 8
      vertex 14.8629 -13.3826 0
      vertex 16.1803 -11.7557 0
    endloop
  endfacet
  facet normal 0.777146 -0.62932 0
    outer loop
      vertex 16.1803 -11.7557 8
      vertex 14.8629 -13.3826 8
      vertex 16.1803 -11.7557 0
    endloop
  endfacet
  facet normal 0.838671 -0.544639 0
    outer loop
      vertex 16.1803 -11.7557 8
      vertex 16.1803 -11.7557 0
      vertex 17.3205 -10 0
    endloop
  endfacet
  facet normal 0.838671 -0.544639 0
    outer loop
      vertex 17.3205 -10 8
      vertex 16.1803 -11.7557 8
      vertex 17.3205 -10 0
    endloop
  endfacet
  facet normal 0.891007 -0.45399 0
    outer loop
      vertex 17.3205 -10 8
      vertex 17.3205 -10 0
      vertex 18.2709 -8.13473 0
    endloop
  endfacet
  facet normal 0.891007 -0.45399 0
    outer loop
      vertex 18.2709 -8.13473 8
      vertex 17.3205 -10 8
      vertex 18.2709 -8.13473 0
    endloop
  endfacet
  facet normal 0.93358 -0.358368 0
    outer loop
      vertex 18.2709 -8.13473 8
      vertex 18.2709 -8.13473 0
      vertex 19.0211 -6.18034 0
    endloop
  endfacet
  facet normal 0.93358 -0.358368 0
    outer loop
      vertex 19.0211 -6.18034 8
      vertex 18.2709 -8.13473 8
      vertex 19.0211 -6.18034 0
    endloop
  endfacet
  facet normal 0.965926 -0.258819 0
    outer loop
      vertex 19.0211 -6.18034 8
      vertex 19.0211 -6.18034 0
      vertex 19.563 -4.15823 0
    endloop
  endfacet
  facet normal 0.965926 -0.258819 0
    outer loop
      vertex 19.563 -4.15823 8
      vertex 19.0211 -6.18034 8
      vertex 19.563 -4.15823 0
    endloop
  endfacet
  facet normal 0.987688 -0.156434 0
    outer loop
      vertex 19.563 -4.15823 8
      vertex 19.563 -4.15823 0
      vertex 19.8904 -2.09057 0
    endloop
  endfacet
  facet normal 0.987688 -0.156434 0
    outer loop
      vertex 19.8904 -2.09057 8
      vertex 19.563 -4.15823 8
      vertex 19.8904 -2.09057 0
    endloop
  endfacet
  facet normal 0.99863 -0.0523359 0
    outer loop
      vertex 19.8904 -2.09057 8
      vertex 19.8904 -2.09057 0
      vertex 20 0 0
    endloop
  endfacet
  facet normal 0.99863 -0.0523359 0
    outer loop
      vertex 20 0 8
      vertex 19.8904 -2.09057 8
      vertex 20 0 0
    endloop
  endfacet
  facet normal 0.99863 0.0523359 0
    outer loop
      vertex 20 0 0
      vertex 19.8904 2.09057 0
      vertex 19.8904 2.09057 8
    endloop
  endfacet
  facet normal 0.99863 0.0523359 0
    outer loop
      vertex 20 0 8
      vertex 20 0 0
      vertex 19.8904 2.09057 8
    endloop
  endfacet
  facet normal 0.987688 0.156434 0
    outer loop
      vertex 19.8904 2.09057 0
      vertex 19.563 4.15823 0
      vertex 19.563 4.15823 8
    endloop
  endfacet
  facet normal 0.987688 0.156434 0
    outer loop
      vertex 19.8904 2.09057 8
      vertex 19.8904 2.09057 0
      vertex 19.563 4.15823 8
    endloop
  endfacet
  facet normal 0.965926 0.258819 0
    outer loop
      vertex 19.563 4.15823 0
      vertex 19.0211 6.18034 0
      vertex 19.0211 6.18034 8
    endloop
  endfacet
  facet normal 0.965926 0.258819 0
    outer loop
      vertex 19.563 4.15823 8
      vertex 19.563 4.15823 0
      vertex 19.0211 6.18034 8
    endloop
  endfacet
  facet normal 0.93358 0.358368 0
    outer loop
      vertex 19.0211 6.18034 0
      vertex 18.2709 8.13473 0
      vertex 18.2709 8.13473 8
    endloop
  endfacet
  facet normal 0.93358 0.358368 0
    outer loop
      vertex 19.0211 6.18034 8
      vertex 19.0211 6.18034 0
      vertex 18.2709 8.13473 8
    endloop
  endfacet
  facet normal 0.891007 0.45399 0
    outer loop
      vertex 18.2709 8.13473 0
      vertex 17.3205 10 0
      vertex 17.3205 10 8
    endloop
  endfacet
  facet normal 0.891007 0.45399 0
    outer loop
      vertex 18.2709 8.13473 8
      vertex 18.2709 8.13473 0
      vertex 17.3205 10 8
    endloop
  endfacet
  facet normal 0.838671 0.544639 0
    outer loop
      vertex 17.3205 10 0
      vertex 16.1803 11.7557 0
      vertex 16.1803 11.7557 8
    endloop
  endfacet
  facet normal 0.838671 0.544639 0
    outer loop
      vertex 17.3205 10 8
      vertex 17.3205 10 0
      vertex 16.1803 11.7557 8
    endloop
  endfacet
  facet normal 0.777146 0.62932 0
    outer loop
      vertex 16.1803 11.7557 0
      vertex 14.8629 13.3826 0
      vertex 14.8629 13.3826 8
    endloop
  endfacet
  facet normal 0.777146 0.62932 0
    outer loop
      vertex 16.1803 11.7557 8
      vertex 16.1803 11.7557 0
      vertex 14.8629 13.3826 8
    endloop
  endfacet
  facet normal 0.707107 0.707107 0
    outer loop
      vertex 13.3826 14.8629 0
      vertex 13.3826 14.8629 8
      vertex 14.8629 13.3826 0
    endloop
  endfacet
  facet normal 0.707107 0.707107 0
    outer loop
      vertex 14.8629 13.3826 0
      vertex 13.3826 14.8629 8
      vertex 14.8629 13.3826 8
    endloop
  endfacet
  facet normal 0.62932 0.777146 0
    outer loop
      vertex 11.7557 16.1803 0
      vertex 11.7557 16.1803 8
      vertex 13.3826 14.8629 0
    endloop
  endfacet
  facet normal 0.62932 0.777146 0
    outer loop
      vertex 13.3826 14.8629 0
      vertex 11.7557 16.1803 8
      vertex 13.3826 14.8629 8
    endloop
  endfacet
  facet normal 0.544639 0.838671 0
    outer loop
      vertex 10 17.3205 0
      vertex 10 17.3205 8
      vertex 11.7557 16.1803 0
    endloop
  endfacet
  facet normal 0.544639 0.838671 0
    outer loop
      vertex 11.7557 16.1803 0
      vertex 10 17.3205 8
      vertex 11.7557 16.1803 8
    endloop
  endfacet
  facet normal 0.45399 0.891007 0
    outer loop
      vertex 8.13473 18.2709 0
      vertex 8.13473 18.2709 8
      vertex 10 17.3205 0
    endloop
  endfacet
  facet normal 0.45399 0.891007 0
    outer loop
      vertex 10 17.3205 0
      vertex 8.13473 18.2709 8
      vertex 10 17.3205 8
    endloop
  endfacet
  facet normal 0.358368 0.93358 0
    outer loop
      vertex 6.18034 19.0211 0
      vertex 6.18034 19.0211 8
      vertex 8.13473 18.2709 0
    endloop
  endfacet
  facet normal 0.358368 0.93358 0
    outer loop
      vertex 8.13473 18.2709 0
      vertex 6.18034 19.0211 8
      vertex 8.13473 18.2709 8
    endloop
  endfacet
  facet normal 0.258819 0.965926 0
    outer loop
      vertex 4.15823 19.563 0
      vertex 4.15823 19.563 8
      vertex 6.18034 19.0211 0
    endloop
  endfacet
  facet normal 0.258819 0.965926 0
    outer loop
      vertex 6.18034 19.0211 0
      vertex 4.15823 19.563 8
      vertex 6.18034 19.0211 8
    endloop
  endfacet
  facet normal 0.156434 0.987688 0
    outer loop
      vertex 2.09057 19.8904 0
      vertex 2.09057 19.8904 8
      vertex 4.15823 19.563 0
    endloop
  endfacet
  facet normal 0.156434 0.987688 0
    outer loop
      vertex 4.15823 19.563 0
      vertex 2.09057 19.8904 8
      vertex 4.15823 19.563 8
    endloop
  endfacet
  facet normal 0.0523359 0.99863 0
    outer loop
      vertex 0 20 0
      vertex 0 20 8
      vertex 2.09057 19.8904 0
    endloop
  endfacet
  facet normal 0.0523359 0.99863 0
    outer loop
      vertex 2.09057 19.8904 0
      vertex 0 20 8
      vertex 2.09057 19.8904 8
    endloop
  endfacet
  facet normal -0.0523359 0.99863 0
    outer loop
      vertex -2.09057 19.8904 0
      vertex -2.09057 19.8904 8
      vertex 0 20 0
    endloop
  endfacet
  facet normal -0.0523359 0.99863 0
    outer loop
      vertex 0 20 0
      vertex -2.09057 19.8904 8
      vertex 0 20 8
    endloop
  endfacet
  facet normal -0.156434 0.987688 0
    outer loop
      vertex -4.15823 19.563 0
      vertex -4.15823 19.563 8
      vertex -2.09057 19.8904 0
    endloop
  endfacet
  facet normal -0.156434 0.987688 0
    outer loop
      vertex -2.09057 19.8904 0
      vertex -4.15823 19.563 8
      vertex -2.09057 19.8904 8
    endloop
  endfacet
  facet normal -0.258819 0.965926 0
    outer loop
      vertex -6.18034 19.0211 0
      vertex -6.18034 19.0211 8
      vertex -4.15823 19.563 0
    endloop
  endfacet
  facet normal -0.258819 0.965926 0
    outer loop
      vertex -4.15823 19.563 0
      vertex -6.18034 19.0211 8
      vertex -4.15823 19.563 8
    endloop
  endfacet
  facet normal -0.358368 0.93358 0
    outer loop
      vertex -8.13473 18.2709 0
      vertex -8.13473 18.2709 8
      vertex -6.18034 19.0211 0
    endloop
  endfacet
  facet normal -0.358368 0.93358 0
    outer loop
      vertex -6.18034 19.0211 0
      vertex -8.13473 18.2709 8
      vertex -6.18034 19.0211 8
    endloop
  endfacet
  facet normal -0.45399 0.891007 0
    outer loop
      vertex -10 17.3205 0
      vertex -10 17.3205 8
      vertex -8.13473 18.2709 0
    endloop
  endfacet
  facet normal -0.45399 0.891007 0
    outer loop
      vertex -8.13473 18.2709 0
      vertex -10 17.3205 8
      vertex -8.13473 18.2709 8
    endloop
  endfacet
  facet normal -0.544639 0.838671 0
    outer loop
      vertex -11.7557 16.1803 0
      vertex -11.7557 16.1803 8
      vertex -10 17.3205 0
    endloop
  endfacet
  facet normal -0.544639 0.838671 0
    outer loop
      vertex -10 17.3205 0
      vertex -11.7557 16.1803 8
      vertex -10 17.3205 8
    endloop
  endfacet
  facet normal -0.62932 0.777146 0
    outer loop
      vertex -13.3826 14.8629 0
      vertex -13.3826 14.8629 8
      vertex -11.7557 16.1803 0
    endloop
  endfacet
  facet normal -0.62932 0.777146 0
    outer loop
      vertex -11.7557 16.1803 0
      vertex -13.3826 14.8629 8
      vertex -11.7557 16.1803 8
    endloop
  endfacet
  facet normal -0.707107 0.707107 0
    outer loop
      vertex -14.8629 13.3826 0
      vertex -14.8629 13.3826 8
      vertex -13.3826 14.8629 0
    endloop
  endfacet
  facet normal -0.707107 0.707107 0
    outer loop
      vertex -13.3826 14.8629 0
      vertex -14.8629 13.3826 8
      vertex -13.3826 14.8629 8
    endloop
  endfacet
  facet normal -0.777146 0.62932 0
    outer loop
      vertex -16.1803 11.7557 0
      vertex -16.1803 11.7557 8
      vertex -14.8629 13.3826 0
    endloop
  endfacet
  facet normal -0.777146 0.62932 0
    outer loop
      vertex -14.8629 13.3826 0
      vertex -16.1803 11.7557 8
      vertex -14.8629 13.3826 8
    endloop
  endfacet
  facet normal -0.838671 0.544639 0
    outer loop
      vertex -17.3205 10 0
      vertex -17.3205 10 8
      vertex -16.1803 11.7557 0
    endloop
  endfacet
  facet normal -0.838671 0.544639 0
    outer loop
      vertex -16.1803 11.7557 0
      vertex -17.3205 10 8
      vertex -16.1803 11.7557 8
    endloop
  endfacet
  facet normal -0.891007 0.45399 0
    outer loop
      vertex -18.2709 8.13473 0
      vertex -18.2709 8.13473 8
      vertex -17.3205 10 0
    endloop
  endfacet
  facet normal -0.891007 0.45399 0
    outer loop
      vertex -17.3205 10 0
      vertex -18.2709 8.13473 8
      vertex -17.3205 10 8
    endloop
  endfacet
  facet normal -0.93358 0.358368 0
    outer loop
      vertex -19.0211 6.18034 0
      vertex -19.0211 6.18034 8
      vertex -18.2709 8.13473 0
    endloop
  endfacet
  facet normal -0.93358 0.358368 0
    outer loop
      vertex -18.2709 8.13473 0
      vertex -19.0211 6.18034 8
      vertex -18.2709 8.13473 8
    endloop
  endfacet
  facet normal -0.965926 0.258819 0
    outer loop
      vertex -19.563 4.15823 0
      vertex -19.563 4.15823 8
      vertex -19.0211 6.18034 0
    endloop
  endfacet
  facet normal -0.965926 0.258819 0
    outer loop
      vertex -19.0211 6.18034 0
      vertex -19.563 4.15823 8
      vertex -19.0211 6.18034 8
    endloop
  endfacet
  facet normal -0.987688 0.156434 0
    outer loop
      vertex -19.8904 2.09057 0
      vertex -19.8904 2.09057 8
      vertex -19.563 4.15823 0
    endloop
  endfacet
  facet normal -0.987688 0.156434 0
    outer loop
      vertex -19.563 4.15823 0
      vertex -19.8904 2.09057 8
      vertex -19.563 4.15823 8
    endloop
  endfacet
  facet normal 0.99863 -0.052336 0
    outer loop
      vertex -17.9014 1.88151 0
      vertex -17.9014 1.88151 8
      vertex -18 0 8
    endloop
  endfacet
  facet normal 0.99863 -0.052336 0
    outer loop
      vertex -18 0 0
      vertex -17.9014 1.88151 0
      vertex -18 0 8
    endloop
  endfacet
  facet normal 0.99863 0.052336 0
    outer loop
      vertex -18 0 8
      vertex -17.9014 -1.88151 8
      vertex -17.9014 -1.88151 0
    endloop
  endfacet
  facet normal 0.99863 0.052336 0
    outer loop
      vertex -18 0 0
      vertex -18 0 8
      vertex -17.9014 -1.88151 0
    endloop
  endfacet
  facet normal 0.987688 -0.156434 0
    outer loop
      vertex -17.6067 3.74241 0
      vertex -17.6067 3.74241 8
      vertex -17.9014 1.88151 8
    endloop
  endfacet
  facet normal 0.987688 -0.156434 0
    outer loop
      vertex -17.9014 1.88151 0
      vertex -17.6067 3.74241 0
      vertex -17.9014 1.88151 8
    endloop
  endfacet
  facet normal 0.965926 -0.258819 0
    outer loop
      vertex -17.119 5.56231 0
      vertex -17.119 5.56231 8
      vertex -17.6067 3.74241 8
    endloop
  endfacet
  facet normal 0.965926 -0.258819 0
    outer loop
      vertex -17.6067 3.74241 0
      vertex -17.119 5.56231 0
      vertex -17.6067 3.74241 8
    endloop
  endfacet
  facet normal 0.93358 -0.358368 0
    outer loop
      vertex -16.4438 7.32126 0
      vertex -16.4438 7.32126 8
      vertex -17.119 5.56231 8
    endloop
  endfacet
  facet normal 0.93358 -0.358368 0
    outer loop
      vertex -17.119 5.56231 0
      vertex -16.4438 7.32126 0
      vertex -17.119 5.56231 8
    endloop
  endfacet
  facet normal 0.891006 -0.453991 0
    outer loop
      vertex -15.5885 9 0
      vertex -15.5885 9 8
      vertex -16.4438 7.32126 8
    endloop
  endfacet
  facet normal 0.891006 -0.453991 0
    outer loop
      vertex -16.4438 7.32126 0
      vertex -15.5885 9 0
      vertex -16.4438 7.32126 8
    endloop
  endfacet
  facet normal 0.838671 -0.544639 0
    outer loop
      vertex -14.5623 10.5801 0
      vertex -14.5623 10.5801 8
      vertex -15.5885 9 8
    endloop
  endfacet
  facet normal 0.838671 -0.544639 0
    outer loop
      vertex -15.5885 9 0
      vertex -14.5623 10.5801 0
      vertex -15.5885 9 8
    endloop
  endfacet
  facet normal 0.777146 -0.62932 0
    outer loop
      vertex -13.3766 12.0444 0
      vertex -13.3766 12.0444 8
      vertex -14.5623 10.5801 8
    endloop
  endfacet
  facet normal 0.777146 -0.62932 0
    outer loop
      vertex -14.5623 10.5801 0
      vertex -13.3766 12.0444 0
      vertex -14.5623 10.5801 8
    endloop
  endfacet
  facet normal 0.707107 -0.707107 0
    outer loop
      vertex -12.0444 13.3766 0
      vertex -12.0444 13.3766 8
      vertex -13.3766 12.0444 8
    endloop
  endfacet
  facet normal 0.707107 -0.707107 0
    outer loop
      vertex -13.3766 12.0444 0
      vertex -12.0444 13.3766 0
      vertex -13.3766 12.0444 8
    endloop
  endfacet
  facet normal 0.62932 -0.777146 0
    outer loop
      vertex -10.5801 14.5623 0
      vertex -10.5801 14.5623 8
      vertex -12.0444 13.3766 8
    endloop
  endfacet
  facet normal 0.62932 -0.777146 0
    outer loop
      vertex -12.0444 13.3766 0
      vertex -10.5801 14.5623 0
      vertex -12.0444 13.3766 8
    endloop
  endfacet
  facet normal 0.544639 -0.838671 0
    outer loop
      vertex -9 15.5885 0
      vertex -9 15.5885 8
      vertex -10.5801 14.5623 8
    endloop
  endfacet
  facet normal 0.544639 -0.838671 0
    outer loop
      vertex -10.5801 14.5623 0
      vertex -9 15.5885 0
      vertex -10.5801 14.5623 8
    endloop
  endfacet
  facet normal 0.453991 -0.891006 0
    outer loop
      vertex -7.32126 16.4438 0
      vertex -7.32126 16.4438 8
      vertex -9 15.5885 8
    endloop
  endfacet
  facet normal 0.453991 -0.891006 0
    outer loop
      vertex -9 15.5885 0
      vertex -7.32126 16.4438 0
      vertex -9 15.5885 8
    endloop
  endfacet
  facet normal 0.358368 -0.93358 0
    outer loop
      vertex -5.56231 17.119 0
      vertex -5.56231 17.119 8
      vertex -7.32126 16.4438 8
    endloop
  endfacet
  facet normal 0.358368 -0.93358 0
    outer loop
      vertex -7.32126 16.4438 0
      vertex -5.56231 17.119 0
      vertex -7.32126 16.4438 8
    endloop
  endfacet
  facet normal 0.258819 -0.965926 0
    outer loop
      vertex -3.74241 17.6067 8
      vertex -5 17.2697 7
      vertex -3.74241 17.6067 7
    endloop
  endfacet
  facet normal 0.258819 -0.965926 0
    outer loop
      vertex -5.56231 17.119 8
      vertex -5 17.2697 7
      vertex -3.74241 17.6067 8
    endloop
  endfacet
  facet normal 0.258819 -0.965926 0
    outer loop
      vertex -5 17.2697 0
      vertex -5 17.2697 7
      vertex -5.56231 17.119 8
    endloop
  endfacet
  facet normal 0.258819 -0.965926 0
    outer loop
      vertex -5.56231 17.119 0
      vertex -5 17.2697 0
      vertex -5.56231 17.119 8
    endloop
  endfacet
  facet normal -1 0 0
    outer loop
      vertex -5 15.1955 0
      vertex -5 15.1955 7
      vertex -5 17.2697 0
    endloop
  endfacet
  facet normal -1 0 0
    outer loop
      vertex -5 17.2697 0
      vertex -5 15.1955 7
      vertex -5 17.2697 7
    endloop
  endfacet
  facet normal 0.358368 -0.93358 0
    outer loop
      vertex -4.94427 15.2169 0
      vertex -4.94427 15.2169 7
      vertex -5 15.1955 7
    endloop
  endfacet
  facet normal 0.358368 -0.93358 0
    outer loop
      vertex -5 15.1955 0
      vertex -4.94427 15.2169 0
      vertex -5 15.1955 7
    endloop
  endfacet
  facet normal 0.258819 -0.965926 0
    outer loop
      vertex -3.32659 15.6504 0
      vertex -3.32659 15.6504 7
      vertex -4.94427 15.2169 7
    endloop
  endfacet
  facet normal 0.258819 -0.965926 0
    outer loop
      vertex -4.94427 15.2169 0
      vertex -3.32659 15.6504 0
      vertex -4.94427 15.2169 7
    endloop
  endfacet
  facet normal 0.156434 -0.987688 0
    outer loop
      vertex -1.67246 15.9123 0
      vertex -1.67246 15.9123 7
      vertex -3.32659 15.6504 7
    endloop
  endfacet
  facet normal 0.156434 -0.987688 0
    outer loop
      vertex -3.32659 15.6504 0
      vertex -1.67246 15.9123 0
      vertex -3.32659 15.6504 7
    endloop
  endfacet
  facet normal 0.0523362 -0.99863 0
    outer loop
      vertex 0 16 0
      vertex 0 16 7
      vertex -1.67246 15.9123 7
    endloop
  endfacet
  facet normal 0.0523362 -0.99863 0
    outer loop
      vertex -1.67246 15.9123 0
      vertex 0 16 0
      vertex -1.67246 15.9123 7
    endloop
  endfacet
  facet normal -0.0523362 -0.99863 0
    outer loop
      vertex 1.67246 15.9123 0
      vertex 1.67246 15.9123 7
      vertex 0 16 7
    endloop
  endfacet
  facet normal -0.0523362 -0.99863 0
    outer loop
      vertex 0 16 0
      vertex 1.67246 15.9123 0
      vertex 0 16 7
    endloop
  endfacet
  facet normal -0.156434 -0.987688 0
    outer loop
      vertex 3.32659 15.6504 0
      vertex 3.32659 15.6504 7
      vertex 1.67246 15.9123 7
    endloop
  endfacet
  facet normal -0.156434 -0.987688 0
    outer loop
      vertex 1.67246 15.9123 0
      vertex 3.32659 15.6504 0
      vertex 1.67246 15.9123 7
    endloop
  endfacet
  facet normal -0.258819 -0.965926 0
    outer loop
      vertex 4.94427 15.2169 0
      vertex 4.94427 15.2169 7
      vertex 3.32659 15.6504 7
    endloop
  endfacet
  facet normal -0.258819 -0.965926 0
    outer loop
      vertex 3.32659 15.6504 0
      vertex 4.94427 15.2169 0
      vertex 3.32659 15.6504 7
    endloop
  endfacet
  facet normal -0.358368 -0.93358 0
    outer loop
      vertex 5 15.1955 0
      vertex 5 15.1955 7
      vertex 4.94427 15.2169 7
    endloop
  endfacet
  facet normal -0.358368 -0.93358 0
    outer loop
      vertex 4.94427 15.2169 0
      vertex 5 15.1955 0
      vertex 4.94427 15.2169 7
    endloop
  endfacet
  facet normal 1 0 0
    outer loop
      vertex 5 15.1955 7
      vertex 5 15.1955 0
      vertex 5 17.2697 0
    endloop
  endfacet
  facet normal 1 0 0
    outer loop
      vertex 5 17.2697 7
      vertex 5 15.1955 7
      vertex 5 17.2697 0
    endloop
  endfacet
  facet normal -0.258819 -0.965926 0
    outer loop
      vertex 5 17.2697 7
      vertex 5 17.2697 0
      vertex 5.56231 17.119 0
    endloop
  endfacet
  facet normal -0.258819 -0.965926 0
    outer loop
      vertex 3.74241 17.6067 8
      vertex 5 17.2697 7
      vertex 5.56231 17.119 8
    endloop
  endfacet
  facet normal -0.258819 -0.965926 0
    outer loop
      vertex 5.56231 17.119 8
      vertex 5 17.2697 7
      vertex 5.56231 17.119 0
    endloop
  endfacet
  facet normal -0.258819 -0.965926 0
    outer loop
      vertex 3.74241 17.6067 7
      vertex 5 17.2697 7
      vertex 3.74241 17.6067 8
    endloop
  endfacet
  facet normal -0.358368 -0.93358 0
    outer loop
      vertex 7.32126 16.4438 0
      vertex 7.32126 16.4438 8
      vertex 5.56231 17.119 8
    endloop
  endfacet
  facet normal -0.358368 -0.93358 0
    outer loop
      vertex 5.56231 17.119 0
      vertex 7.32126 16.4438 0
      vertex 5.56231 17.119 8
    endloop
  endfacet
  facet normal -0.453991 -0.891006 0
    outer loop
      vertex 9 15.5885 0
      vertex 9 15.5885 8
      vertex 7.32126 16.4438 8
    endloop
  endfacet
  facet normal -0.453991 -0.891006 0
    outer loop
      vertex 7.32126 16.4438 0
      vertex 9 15.5885 0
      vertex 7.32126 16.4438 8
    endloop
  endfacet
  facet normal -0.544639 -0.838671 0
    outer loop
      vertex 10.5801 14.5623 0
      vertex 10.5801 14.5623 8
      vertex 9 15.5885 8
    endloop
  endfacet
  facet normal -0.544639 -0.838671 0
    outer loop
      vertex 9 15.5885 0
      vertex 10.5801 14.5623 0
      vertex 9 15.5885 8
    endloop
  endfacet
  facet normal -0.62932 -0.777146 0
    outer loop
      vertex 12.0444 13.3766 0
      vertex 12.0444 13.3766 8
      vertex 10.5801 14.5623 8
    endloop
  endfacet
  facet normal -0.62932 -0.777146 0
    outer loop
      vertex 10.5801 14.5623 0
      vertex 12.0444 13.3766 0
      vertex 10.5801 14.5623 8
    endloop
  endfacet
  facet normal -0.707107 -0.707107 0
    outer loop
      vertex 13.3766 12.0444 0
      vertex 13.3766 12.0444 8
      vertex 12.0444 13.3766 8
    endloop
  endfacet
  facet normal -0.707107 -0.707107 0
    outer loop
      vertex 12.0444 13.3766 0
      vertex 13.3766 12.0444 0
      vertex 12.0444 13.3766 8
    endloop
  endfacet
  facet normal -0.777146 -0.62932 0
    outer loop
      vertex 14.5623 10.5801 8
      vertex 13.3766 12.0444 8
      vertex 14.5623 10.5801 0
    endloop
  endfacet
  facet normal -0.777146 -0.62932 0
    outer loop
      vertex 14.5623 10.5801 0
      vertex 13.3766 12.0444 8
      vertex 13.3766 12.0444 0
    endloop
  endfacet
  facet normal -0.838671 -0.544639 0
    outer loop
      vertex 15.5885 9 8
      vertex 14.5623 10.5801 8
      vertex 15.5885 9 0
    endloop
  endfacet
  facet normal -0.838671 -0.544639 0
    outer loop
      vertex 15.5885 9 0
      vertex 14.5623 10.5801 8
      vertex 14.5623 10.5801 0
    endloop
  endfacet
  facet normal -0.891006 -0.453991 0
    outer loop
      vertex 16.4438 7.32126 8
      vertex 15.5885 9 8
      vertex 16.4438 7.32126 0
    endloop
  endfacet
  facet normal -0.891006 -0.453991 0
    outer loop
      vertex 16.4438 7.32126 0
      vertex 15.5885 9 8
      vertex 15.5885 9 0
    endloop
  endfacet
  facet normal -0.93358 -0.358368 0
    outer loop
      vertex 17.119 5.56231 8
      vertex 16.4438 7.32126 8
      vertex 17.119 5.56231 0
    endloop
  endfacet
  facet normal -0.93358 -0.358368 0
    outer loop
      vertex 17.119 5.56231 0
      vertex 16.4438 7.32126 8
      vertex 16.4438 7.32126 0
    endloop
  endfacet
  facet normal -0.965926 -0.258819 0
    outer loop
      vertex 17.6067 3.74241 8
      vertex 17.119 5.56231 8
      vertex 17.6067 3.74241 0
    endloop
  endfacet
  facet normal -0.965926 -0.258819 0
    outer loop
      vertex 17.6067 3.74241 0
      vertex 17.119 5.56231 8
      vertex 17.119 5.56231 0
    endloop
  endfacet
  facet normal -0.987688 -0.156434 0
    outer loop
      vertex 17.9014 1.88151 8
      vertex 17.6067 3.74241 8
      vertex 17.9014 1.88151 0
    endloop
  endfacet
  facet normal -0.987688 -0.156434 0
    outer loop
      vertex 17.9014 1.88151 0
      vertex 17.6067 3.74241 8
      vertex 17.6067 3.74241 0
    endloop
  endfacet
  facet normal -0.99863 -0.052336 0
    outer loop
      vertex 18 0 8
      vertex 17.9014 1.88151 8
      vertex 18 0 0
    endloop
  endfacet
  facet normal -0.99863 -0.052336 0
    outer loop
      vertex 18 0 0
      vertex 17.9014 1.88151 8
      vertex 17.9014 1.88151 0
    endloop
  endfacet
  facet normal -0.99863 0.052336 0
    outer loop
      vertex 18 0 8
      vertex 18 0 0
      vertex 17.9014 -1.88151 8
    endloop
  endfacet
  facet normal -0.99863 0.052336 0
    outer loop
      vertex 17.9014 -1.88151 8
      vertex 18 0 0
      vertex 17.9014 -1.88151 0
    endloop
  endfacet
  facet normal -0.987688 0.156434 0
    outer loop
      vertex 17.9014 -1.88151 8
      vertex 17.9014 -1.88151 0
      vertex 17.6067 -3.74241 8
    endloop
  endfacet
  facet normal -0.987688 0.156434 0
    outer loop
      vertex 17.6067 -3.74241 8
      vertex 17.9014 -1.88151 0
      vertex 17.6067 -3.74241 0
    endloop
  endfacet
  facet normal -0.965926 0.258819 0
    outer loop
      vertex 17.6067 -3.74241 8
      vertex 17.6067 -3.74241 0
      vertex 17.119 -5.56231 8
    endloop
  endfacet
  facet normal -0.965926 0.258819 0
    outer loop
      vertex 17.119 -5.56231 8
      vertex 17.6067 -3.74241 0
      vertex 17.119 -5.56231 0
    endloop
  endfacet
  facet normal -0.93358 0.358368 0
    outer loop
      vertex 17.119 -5.56231 8
      vertex 17.119 -5.56231 0
      vertex 16.4438 -7.32126 8
    endloop
  endfacet
  facet normal -0.93358 0.358368 0
    outer loop
      vertex 16.4438 -7.32126 8
      vertex 17.119 -5.56231 0
      vertex 16.4438 -7.32126 0
    endloop
  endfacet
  facet normal -0.891006 0.453991 0
    outer loop
      vertex 16.4438 -7.32126 8
      vertex 16.4438 -7.32126 0
      vertex 15.5885 -9 8
    endloop
  endfacet
  facet normal -0.891006 0.453991 0
    outer loop
      vertex 15.5885 -9 8
      vertex 16.4438 -7.32126 0
      vertex 15.5885 -9 0
    endloop
  endfacet
  facet normal -0.838671 0.544639 0
    outer loop
      vertex 15.5885 -9 8
      vertex 15.5885 -9 0
      vertex 14.5623 -10.5801 8
    endloop
  endfacet
  facet normal -0.838671 0.544639 0
    outer loop
      vertex 14.5623 -10.5801 8
      vertex 15.5885 -9 0
      vertex 14.5623 -10.5801 0
    endloop
  endfacet
  facet normal -0.777146 0.62932 0
    outer loop
      vertex 14.5623 -10.5801 8
      vertex 14.5623 -10.5801 0
      vertex 13.3766 -12.0444 8
    endloop
  endfacet
  facet normal -0.777146 0.62932 0
    outer loop
      vertex 13.3766 -12.0444 8
      vertex 14.5623 -10.5801 0
      vertex 13.3766 -12.0444 0
    endloop
  endfacet
  facet normal -0.707107 0.707107 0
    outer loop
      vertex 13.3766 -12.0444 8
      vertex 13.3766 -12.0444 0
      vertex 12.0444 -13.3766 8
    endloop
  endfacet
  facet normal -0.707107 0.707107 0
    outer loop
      vertex 12.0444 -13.3766 8
      vertex 13.3766 -12.0444 0
      vertex 12.0444 -13.3766 0
    endloop
  endfacet
  facet normal -0.62932 0.777146 0
    outer loop
      vertex 12.0444 -13.3766 8
      vertex 12.0444 -13.3766 0
      vertex 10.5801 -14.5623 8
    endloop
  endfacet
  facet normal -0.62932 0.777146 0
    outer loop
      vertex 10.5801 -14.5623 8
      vertex 12.0444 -13.3766 0
      vertex 10.5801 -14.5623 0
    endloop
  endfacet
  facet normal -0.544639 0.838671 0
    outer loop
      vertex 10.5801 -14.5623 8
      vertex 10.5801 -14.5623 0
      vertex 9 -15.5885 8
    endloop
  endfacet
  facet normal -0.544639 0.838671 0
    outer loop
      vertex 9 -15.5885 8
      vertex 10.5801 -14.5623 0
      vertex 9 -15.5885 0
    endloop
  endfacet
  facet normal -0.453991 0.891006 0
    outer loop
      vertex 9 -15.5885 8
      vertex 9 -15.5885 0
      vertex 7.32126 -16.4438 8
    endloop
  endfacet
  facet normal -0.453991 0.891006 0
    outer loop
      vertex 7.32126 -16.4438 8
      vertex 9 -15.5885 0
      vertex 7.32126 -16.4438 0
    endloop
  endfacet
  facet normal -0.358368 0.93358 0
    outer loop
      vertex 7.32126 -16.4438 8
      vertex 7.32126 -16.4438 0
      vertex 5.56231 -17.119 8
    endloop
  endfacet
  facet normal -0.358368 0.93358 0
    outer loop
      vertex 5.56231 -17.119 8
      vertex 7.32126 -16.4438 0
      vertex 5.56231 -17.119 0
    endloop
  endfacet
  facet normal -0.258819 0.965926 0
    outer loop
      vertex 5.56231 -17.119 8
      vertex 5.56231 -17.119 0
      vertex 3.74241 -17.6067 8
    endloop
  endfacet
  facet normal -0.258819 0.965926 0
    outer loop
      vertex 3.74241 -17.6067 8
      vertex 5.56231 -17.119 0
      vertex 3.74241 -17.6067 0
    endloop
  endfacet
  facet normal -0.156434 0.987688 0
    outer loop
      vertex 1.88151 -17.9014 7
      vertex 1.88151 -17.9014 8
      vertex 3.25 -17.6846 7
    endloop
  endfacet
  facet normal -0.156434 0.987688 0
    outer loop
      vertex 3.74241 -17.6067 8
      vertex 3.74241 -17.6067 0
      vertex 3.25 -17.6846 7
    endloop
  endfacet
  facet normal -0.156434 0.987688 0
    outer loop
      vertex 3.74241 -17.6067 8
      vertex 3.25 -17.6846 7
      vertex 1.88151 -17.9014 8
    endloop
  endfacet
  facet normal -0.156434 0.987688 0
    outer loop
      vertex 3.25 -17.6846 7
      vertex 3.74241 -17.6067 0
      vertex 3.25 -17.6846 0
    endloop
  endfacet
  facet normal 1 0 0
    outer loop
      vertex 3.25 -17.6846 7
      vertex 3.25 -17.6846 0
      vertex 3.25 -15.6625 0
    endloop
  endfacet
  facet normal 1 0 0
    outer loop
      vertex 3.25 -15.6625 7
      vertex 3.25 -17.6846 7
      vertex 3.25 -15.6625 0
    endloop
  endfacet
  facet normal -0.156434 0.987688 0
    outer loop
      vertex 3.25 -15.6625 7
      vertex 3.25 -15.6625 0
      vertex 1.67246 -15.9123 7
    endloop
  endfacet
  facet normal -0.156434 0.987688 0
    outer loop
      vertex 1.67246 -15.9123 7
      vertex 3.25 -15.6625 0
      vertex 1.67246 -15.9123 0
    endloop
  endfacet
  facet normal -0.0523362 0.99863 0
    outer loop
      vertex 1.67246 -15.9123 7
      vertex 1.67246 -15.9123 0
      vertex 0 -16 7
    endloop
  endfacet
  facet normal -0.0523362 0.99863 0
    outer loop
      vertex 0 -16 7
      vertex 1.67246 -15.9123 0
      vertex 0 -16 0
    endloop
  endfacet
  facet normal 0.0523362 0.99863 0
    outer loop
      vertex 0 -16 7
      vertex 0 -16 0
      vertex -1.67246 -15.9123 7
    endloop
  endfacet
  facet normal 0.0523362 0.99863 0
    outer loop
      vertex -1.67246 -15.9123 7
      vertex 0 -16 0
      vertex -1.67246 -15.9123 0
    endloop
  endfacet
  facet normal 0.156434 0.987688 0
    outer loop
      vertex -1.67246 -15.9123 7
      vertex -1.67246 -15.9123 0
      vertex -3.32659 -15.6504 7
    endloop
  endfacet
  facet normal 0.156434 0.987688 0
    outer loop
      vertex -3.32659 -15.6504 7
      vertex -1.67246 -15.9123 0
      vertex -3.32659 -15.6504 0
    endloop
  endfacet
  facet normal 0.258819 0.965926 0
    outer loop
      vertex -3.32659 -15.6504 7
      vertex -3.32659 -15.6504 0
      vertex -3.75 -15.5369 7
    endloop
  endfacet
  facet normal 0.258819 0.965926 0
    outer loop
      vertex -3.75 -15.5369 7
      vertex -3.32659 -15.6504 0
      vertex -3.75 -15.5369 0
    endloop
  endfacet
  facet normal -1 0 0
    outer loop
      vertex -3.75 -17.6046 0
      vertex -3.75 -17.6046 7
      vertex -3.75 -15.5369 0
    endloop
  endfacet
  facet normal -1 0 0
    outer loop
      vertex -3.75 -15.5369 0
      vertex -3.75 -17.6046 7
      vertex -3.75 -15.5369 7
    endloop
  endfacet
  facet normal 0.258819 0.965926 0
    outer loop
      vertex -3.74241 -17.6067 8
      vertex -3.74241 -17.6067 7
      vertex -5.56231 -17.119 8
    endloop
  endfacet
  facet normal 0.258819 0.965926 0
    outer loop
      vertex -5.56231 -17.119 8
      vertex -3.74241 -17.6067 7
      vertex -3.75 -17.6046 7
    endloop
  endfacet
  facet normal 0.258819 0.965926 0
    outer loop
      vertex -5.56231 -17.119 8
      vertex -3.75 -17.6046 7
      vertex -3.75 -17.6046 0
    endloop
  endfacet
  facet normal 0.258819 0.965926 0
    outer loop
      vertex -5.56231 -17.119 8
      vertex -3.75 -17.6046 0
      vertex -5.56231 -17.119 0
    endloop
  endfacet
  facet normal 0.358368 0.93358 0
    outer loop
      vertex -5.56231 -17.119 8
      vertex -5.56231 -17.119 0
      vertex -7.32126 -16.4438 8
    endloop
  endfacet
  facet normal 0.358368 0.93358 0
    outer loop
      vertex -7.32126 -16.4438 8
      vertex -5.56231 -17.119 0
      vertex -7.32126 -16.4438 0
    endloop
  endfacet
  facet normal 0.453991 0.891006 0
    outer loop
      vertex -7.32126 -16.4438 8
      vertex -7.32126 -16.4438 0
      vertex -9 -15.5885 8
    endloop
  endfacet
  facet normal 0.453991 0.891006 0
    outer loop
      vertex -9 -15.5885 8
      vertex -7.32126 -16.4438 0
      vertex -9 -15.5885 0
    endloop
  endfacet
  facet normal 0.544639 0.838671 0
    outer loop
      vertex -9 -15.5885 8
      vertex -9 -15.5885 0
      vertex -10.5801 -14.5623 8
    endloop
  endfacet
  facet normal 0.544639 0.838671 0
    outer loop
      vertex -10.5801 -14.5623 8
      vertex -9 -15.5885 0
      vertex -10.5801 -14.5623 0
    endloop
  endfacet
  facet normal 0.62932 0.777146 0
    outer loop
      vertex -10.5801 -14.5623 8
      vertex -10.5801 -14.5623 0
      vertex -12.0444 -13.3766 8
    endloop
  endfacet
  facet normal 0.62932 0.777146 0
    outer loop
      vertex -12.0444 -13.3766 8
      vertex -10.5801 -14.5623 0
      vertex -12.0444 -13.3766 0
    endloop
  endfacet
  facet normal 0.707107 0.707107 0
    outer loop
      vertex -12.0444 -13.3766 8
      vertex -12.0444 -13.3766 0
      vertex -13.3766 -12.0444 8
    endloop
  endfacet
  facet normal 0.707107 0.707107 0
    outer loop
      vertex -13.3766 -12.0444 8
      vertex -12.0444 -13.3766 0
      vertex -13.3766 -12.0444 0
    endloop
  endfacet
  facet normal 0.777146 0.62932 0
    outer loop
      vertex -14.5623 -10.5801 8
      vertex -13.3766 -12.0444 8
      vertex -13.3766 -12.0444 0
    endloop
  endfacet
  facet normal 0.777146 0.62932 0
    outer loop
      vertex -14.5623 -10.5801 0
      vertex -14.5623 -10.5801 8
      vertex -13.3766 -12.0444 0
    endloop
  endfacet
  facet normal 0.838671 0.544639 0
    outer loop
      vertex -15.5885 -9 8
      vertex -14.5623 -10.5801 8
      vertex -14.5623 -10.5801 0
    endloop
  endfacet
  facet normal 0.838671 0.544639 0
    outer loop
      vertex -15.5885 -9 0
      vertex -15.5885 -9 8
      vertex -14.5623 -10.5801 0
    endloop
  endfacet
  facet normal 0.891006 0.453991 0
    outer loop
      vertex -16.4438 -7.32126 8
      vertex -15.5885 -9 8
      vertex -15.5885 -9 0
    endloop
  endfacet
  facet normal 0.891006 0.453991 0
    outer loop
      vertex -16.4438 -7.32126 0
      vertex -16.4438 -7.32126 8
      vertex -15.5885 -9 0
    endloop
  endfacet
  facet normal 0.93358 0.358368 0
    outer loop
      vertex -17.119 -5.56231 8
      vertex -16.4438 -7.32126 8
      vertex -16.4438 -7.32126 0
    endloop
  endfacet
  facet normal 0.93358 0.358368 0
    outer loop
      vertex -17.119 -5.56231 0
      vertex -17.119 -5.56231 8
      vertex -16.4438 -7.32126 0
    endloop
  endfacet
  facet normal 0.965926 0.258819 0
    outer loop
      vertex -17.6067 -3.74241 8
      vertex -17.119 -5.56231 8
      vertex -17.119 -5.56231 0
    endloop
  endfacet
  facet normal 0.965926 0.258819 0
    outer loop
      vertex -17.6067 -3.74241 0
      vertex -17.6067 -3.74241 8
      vertex -17.119 -5.56231 0
    endloop
  endfacet
  facet normal 0.987688 0.156434 0
    outer loop
      vertex -17.9014 -1.88151 8
      vertex -17.6067 -3.74241 8
      vertex -17.6067 -3.74241 0
    endloop
  endfacet
  facet normal 0.987688 0.156434 0
    outer loop
      vertex -17.9014 -1.88151 0
      vertex -17.9014 -1.88151 8
      vertex -17.6067 -3.74241 0
    endloop
  endfacet
  facet normal 0 0 1
    outer loop
      vertex -19.8904 -2.09057 8
      vertex -19.563 -4.15823 8
      vertex -19.0211 -6.18034 8
    endloop
  endfacet
  facet normal 0 0 1
    outer loop
      vertex -17.3205 -10 8
      vertex -19.8904 -2.09057 8
      vertex -18.2709 -8.13473 8
    endloop
  endfacet
  facet normal 0 0 1
    outer loop
      vertex -18.2709 -8.13473 8
      vertex -19.8904 -2.09057 8
      vertex -19.0211 -6.18034 8
    endloop
  endfacet
  facet normal 0 0 1
    outer loop
      vertex -16.1803 -11.7557 8
      vertex -19.8904 -2.09057 8
      vertex -17.3205 -10 8
    endloop
  endfacet
  facet normal 0 0 1
    outer loop
      vertex -14.8629 -13.3826 8
      vertex -19.8904 -2.09057 8
      vertex -16.1803 -11.7557 8
    endloop
  endfacet
  facet normal 0 0 1
    outer loop
      vertex -13.3826 -14.8629 8
      vertex -19.8904 -2.09057 8
      vertex -14.8629 -13.3826 8
    endloop
  endfacet
  facet normal 0 0 1
    outer loop
      vertex -11.7557 -16.1803 8
      vertex -19.8904 -2.09057 8
      vertex -13.3826 -14.8629 8
    endloop
  endfacet
  facet normal 0 0 1
    outer loop
      vertex -15.5885 -9 8
      vertex -19.8904 -2.09057 8
      vertex -11.7557 -16.1803 8
    endloop
  endfacet
  facet normal 0 0 1
    outer loop
      vertex -13.3766 -12.0444 8
      vertex -14.5623 -10.5801 8
      vertex -10 -17.3205 8
    endloop
  endfacet
  facet normal 0 0 1
    outer loop
      vertex -10.5801 -14.5623 8
      vertex -12.0444 -13.3766 8
      vertex -8.13473 -18.2709 8
    endloop
  endfacet
  facet normal 0 0 1
    outer loop
      vertex -7.32126 -16.4438 8
      vertex -9 -15.5885 8
      vertex -6.18034 -19.0211 8
    endloop
  endfacet
  facet normal 0 0 1
    outer loop
      vertex -5.56231 -17.119 8
      vertex -7.32126 -16.4438 8
      vertex -4.15823 -19.563 8
    endloop
  endfacet
  facet normal 0 0 1
    outer loop
      vertex -3.74241 -17.6067 8
      vertex -5.56231 -17.119 8
      vertex -2.09057 -19.8904 8
    endloop
  endfacet
  facet normal 0 0 1
    outer loop
      vertex -1.88151 -17.9014 8
      vertex -3.74241 -17.6067 8
      vertex 0 -20 8
    endloop
  endfacet
  facet normal 0 0 1
    outer loop
      vertex 0 -18 8
      vertex -1.88151 -17.9014 8
      vertex 2.09057 -19.8904 8
    endloop
  endfacet
  facet normal 0 0 1
    outer loop
      vertex 1.88151 -17.9014 8
      vertex 0 -18 8
      vertex 4.15823 -19.563 8
    endloop
  endfacet
  facet normal 0 0 1
    outer loop
      vertex 5.56231 -17.119 8
      vertex 3.74241 -17.6067 8
      vertex 6.18034 -19.0211 8
    endloop
  endfacet
  facet normal 0 0 1
    outer loop
      vertex 7.32126 -16.4438 8
      vertex 5.56231 -17.119 8
      vertex 8.13473 -18.2709 8
    endloop
  endfacet
  facet normal 0 0 1
    outer loop
      vertex 9 -15.5885 8
      vertex 7.32126 -16.4438 8
      vertex 10 -17.3205 8
    endloop
  endfacet
  facet normal 0 0 1
    outer loop
      vertex 10.5801 -14.5623 8
      vertex 9 -15.5885 8
      vertex 11.7557 -16.1803 8
    endloop
  endfacet
  facet normal 0 0 1
    outer loop
      vertex 12.0444 -13.3766 8
      vertex 10.5801 -14.5623 8
      vertex 13.3826 -14.8629 8
    endloop
  endfacet
  facet normal 0 0 1
    outer loop
      vertex 13.3766 -12.0444 8
      vertex 12.0444 -13.3766 8
      vertex 14.8629 -13.3826 8
    endloop
  endfacet
  facet normal 0 0 1
    outer loop
      vertex 14.5623 -10.5801 8
      vertex 13.3766 -12.0444 8
      vertex 16.1803 -11.7557 8
    endloop
  endfacet
  facet normal 0 0 1
    outer loop
      vertex 15.5885 -9 8
      vertex 14.5623 -10.5801 8
      vertex 17.3205 -10 8
    endloop
  endfacet
  facet normal 0 0 1
    outer loop
      vertex 16.4438 -7.32126 8
      vertex 15.5885 -9 8
      vertex 18.2709 -8.13473 8
    endloop
  endfacet
  facet normal 0 0 1
    outer loop
      vertex 17.119 -5.56231 8
      vertex 16.4438 -7.32126 8
      vertex 19.0211 -6.18034 8
    endloop
  endfacet
  facet normal 0 0 1
    outer loop
      vertex 17.6067 -3.74241 8
      vertex 17.119 -5.56231 8
      vertex 19.563 -4.15823 8
    endloop
  endfacet
  facet normal 0 0 1
    outer loop
      vertex 17.9014 -1.88151 8
      vertex 17.6067 -3.74241 8
      vertex 19.8904 -2.09057 8
    endloop
  endfacet
  facet normal 0 0 1
    outer loop
      vertex 18 0 8
      vertex 17.9014 -1.88151 8
      vertex 20 0 8
    endloop
  endfacet
  facet normal 0 0 1
    outer loop
      vertex 0 18 8
      vertex 1.88151 17.9014 8
      vertex 2.09057 19.8904 8
    endloop
  endfacet
  facet normal 0 0 1
    outer loop
      vertex -16.4438 7.32126 8
      vertex -15.5885 9 8
      vertex -13.3826 14.8629 8
    endloop
  endfacet
  facet normal 0 0 1
    outer loop
      vertex -12.0444 13.3766 8
      vertex -10.5801 14.5623 8
      vertex -10 17.3205 8
    endloop
  endfacet
  facet normal 0 0 1
    outer loop
      vertex -16.1803 11.7557 8
      vertex -19.8904 -2.09057 8
      vertex -14.8629 13.3826 8
    endloop
  endfacet
  facet normal 0 0 1
    outer loop
      vertex -17.3205 10 8
      vertex -19.8904 -2.09057 8
      vertex -16.1803 11.7557 8
    endloop
  endfacet
  facet normal 0 0 1
    outer loop
      vertex -18.2709 8.13473 8
      vertex -19.8904 -2.09057 8
      vertex -17.3205 10 8
    endloop
  endfacet
  facet normal 0 0 1
    outer loop
      vertex -19.0211 6.18034 8
      vertex -19.8904 -2.09057 8
      vertex -18.2709 8.13473 8
    endloop
  endfacet
  facet normal 0 0 1
    outer loop
      vertex -19.563 4.15823 8
      vertex -19.8904 -2.09057 8
      vertex -19.0211 6.18034 8
    endloop
  endfacet
  facet normal 0 0 1
    outer loop
      vertex -19.8904 2.09057 8
      vertex -19.8904 -2.09057 8
      vertex -19.563 4.15823 8
    endloop
  endfacet
  facet normal 0 0 1
    outer loop
      vertex -20 0 8
      vertex -19.8904 -2.09057 8
      vertex -19.8904 2.09057 8
    endloop
  endfacet
  facet normal 0 0 1
    outer loop
      vertex 1.88151 17.9014 8
      vertex 3.74241 17.6067 8
      vertex 4.15823 19.563 8
    endloop
  endfacet
  facet normal 0 0 1
    outer loop
      vertex -10.5801 14.5623 8
      vertex -9 15.5885 8
      vertex -8.13473 18.2709 8
    endloop
  endfacet
  facet normal 0 0 1
    outer loop
      vertex -17.6067 3.74241 8
      vertex -17.119 5.56231 8
      vertex -19.8904 -2.09057 8
    endloop
  endfacet
  facet normal 0 0 1
    outer loop
      vertex -3.74241 17.6067 8
      vertex -1.88151 17.9014 8
      vertex 0 20 8
    endloop
  endfacet
  facet normal 0 0 1
    outer loop
      vertex -14.5623 10.5801 8
      vertex -13.3766 12.0444 8
      vertex -11.7557 16.1803 8
    endloop
  endfacet
  facet normal 0 0 1
    outer loop
      vertex -14.8629 13.3826 8
      vertex -19.8904 -2.09057 8
      vertex -17.119 5.56231 8
    endloop
  endfacet
  facet normal 0 0 1
    outer loop
      vertex -14.8629 13.3826 8
      vertex -16.4438 7.32126 8
      vertex -13.3826 14.8629 8
    endloop
  endfacet
  facet normal 0 0 1
    outer loop
      vertex -14.8629 13.3826 8
      vertex -17.119 5.56231 8
      vertex -16.4438 7.32126 8
    endloop
  endfacet
  facet normal 0 0 1
    outer loop
      vertex -13.3826 14.8629 8
      vertex -15.5885 9 8
      vertex -11.7557 16.1803 8
    endloop
  endfacet
  facet normal 0 0 1
    outer loop
      vertex -15.5885 9 8
      vertex -14.5623 10.5801 8
      vertex -11.7557 16.1803 8
    endloop
  endfacet
  facet normal 0 0 1
    outer loop
      vertex -11.7557 16.1803 8
      vertex -13.3766 12.0444 8
      vertex -10 17.3205 8
    endloop
  endfacet
  facet normal 0 0 1
    outer loop
      vertex -13.3766 12.0444 8
      vertex -12.0444 13.3766 8
      vertex -10 17.3205 8
    endloop
  endfacet
  facet normal 0 0 1
    outer loop
      vertex -10 17.3205 8
      vertex -10.5801 14.5623 8
      vertex -8.13473 18.2709 8
    endloop
  endfacet
  facet normal 0 0 1
    outer loop
      vertex -17.9014 1.88151 8
      vertex -17.6067 3.74241 8
      vertex -19.8904 -2.09057 8
    endloop
  endfacet
  facet normal 0 0 1
    outer loop
      vertex -8.13473 18.2709 8
      vertex -9 15.5885 8
      vertex -6.18034 19.0211 8
    endloop
  endfacet
  facet normal 0 0 1
    outer loop
      vertex -6.18034 19.0211 8
      vertex -7.32126 16.4438 8
      vertex -4.15823 19.563 8
    endloop
  endfacet
  facet normal 0 0 1
    outer loop
      vertex -4.15823 19.563 8
      vertex -5.56231 17.119 8
      vertex -2.09057 19.8904 8
    endloop
  endfacet
  facet normal 0 0 1
    outer loop
      vertex -17.119 -5.56231 8
      vertex -17.6067 -3.74241 8
      vertex -19.8904 -2.09057 8
    endloop
  endfacet
  facet normal 0 0 1
    outer loop
      vertex -2.09057 19.8904 8
      vertex -3.74241 17.6067 8
      vertex 0 20 8
    endloop
  endfacet
  facet normal 0 0 1
    outer loop
      vertex 0 20 8
      vertex -1.88151 17.9014 8
      vertex 2.09057 19.8904 8
    endloop
  endfacet
  facet normal 0 0 1
    outer loop
      vertex -1.88151 17.9014 8
      vertex 0 18 8
      vertex 2.09057 19.8904 8
    endloop
  endfacet
  facet normal 0 0 1
    outer loop
      vertex 2.09057 19.8904 8
      vertex 1.88151 17.9014 8
      vertex 4.15823 19.563 8
    endloop
  endfacet
  facet normal 0 0 1
    outer loop
      vertex -9 15.5885 8
      vertex -7.32126 16.4438 8
      vertex -6.18034 19.0211 8
    endloop
  endfacet
  facet normal 0 0 1
    outer loop
      vertex 4.15823 19.563 8
      vertex 3.74241 17.6067 8
      vertex 6.18034 19.0211 8
    endloop
  endfacet
  facet normal 0 0 1
    outer loop
      vertex -7.32126 16.4438 8
      vertex -5.56231 17.119 8
      vertex -4.15823 19.563 8
    endloop
  endfacet
  facet normal 0 0 1
    outer loop
      vertex 6.18034 19.0211 8
      vertex 5.56231 17.119 8
      vertex 8.13473 18.2709 8
    endloop
  endfacet
  facet normal 0 0 1
    outer loop
      vertex -5.56231 17.119 8
      vertex -3.74241 17.6067 8
      vertex -2.09057 19.8904 8
    endloop
  endfacet
  facet normal 0 0 1
    outer loop
      vertex 8.13473 18.2709 8
      vertex 7.32126 16.4438 8
      vertex 10 17.3205 8
    endloop
  endfacet
  facet normal 0 0 1
    outer loop
      vertex 10 17.3205 8
      vertex 9 15.5885 8
      vertex 11.7557 16.1803 8
    endloop
  endfacet
  facet normal 0 0 1
    outer loop
      vertex 17.6067 3.74241 8
      vertex 17.9014 1.88151 8
      vertex 19.8904 2.09057 8
    endloop
  endfacet
  facet normal 0 0 1
    outer loop
      vertex 11.7557 16.1803 8
      vertex 10.5801 14.5623 8
      vertex 13.3826 14.8629 8
    endloop
  endfacet
  facet normal 0 0 1
    outer loop
      vertex -18 0 8
      vertex -17.9014 1.88151 8
      vertex -19.8904 -2.09057 8
    endloop
  endfacet
  facet normal 0 0 1
    outer loop
      vertex 13.3826 14.8629 8
      vertex 12.0444 13.3766 8
      vertex 14.8629 13.3826 8
    endloop
  endfacet
  facet normal 0 0 1
    outer loop
      vertex 14.8629 13.3826 8
      vertex 13.3766 12.0444 8
      vertex 16.1803 11.7557 8
    endloop
  endfacet
  facet normal 0 0 1
    outer loop
      vertex -17.6067 -3.74241 8
      vertex -17.9014 -1.88151 8
      vertex -19.8904 -2.09057 8
    endloop
  endfacet
  facet normal 0 0 1
    outer loop
      vertex 16.1803 11.7557 8
      vertex 14.5623 10.5801 8
      vertex 17.3205 10 8
    endloop
  endfacet
  facet normal 0 0 1
    outer loop
      vertex 17.3205 10 8
      vertex 15.5885 9 8
      vertex 18.2709 8.13473 8
    endloop
  endfacet
  facet normal 0 0 1
    outer loop
      vertex 18.2709 8.13473 8
      vertex 16.4438 7.32126 8
      vertex 19.0211 6.18034 8
    endloop
  endfacet
  facet normal 0 0 1
    outer loop
      vertex 19.0211 6.18034 8
      vertex 17.119 5.56231 8
      vertex 19.563 4.15823 8
    endloop
  endfacet
  facet normal 0 0 1
    outer loop
      vertex 19.563 4.15823 8
      vertex 17.6067 3.74241 8
      vertex 19.8904 2.09057 8
    endloop
  endfacet
  facet normal 0 0 1
    outer loop
      vertex 19.8904 2.09057 8
      vertex 17.9014 1.88151 8
      vertex 20 0 8
    endloop
  endfacet
  facet normal 0 0 1
    outer loop
      vertex 17.9014 1.88151 8
      vertex 18 0 8
      vertex 20 0 8
    endloop
  endfacet
  facet normal 0 0 1
    outer loop
      vertex 20 0 8
      vertex 17.9014 -1.88151 8
      vertex 19.8904 -2.09057 8
    endloop
  endfacet
  facet normal 0 0 1
    outer loop
      vertex 19.8904 -2.09057 8
      vertex 17.6067 -3.74241 8
      vertex 19.563 -4.15823 8
    endloop
  endfacet
  facet normal 0 0 1
    outer loop
      vertex 19.563 -4.15823 8
      vertex 17.119 -5.56231 8
      vertex 19.0211 -6.18034 8
    endloop
  endfacet
  facet normal 0 0 1
    outer loop
      vertex 19.0211 -6.18034 8
      vertex 16.4438 -7.32126 8
      vertex 18.2709 -8.13473 8
    endloop
  endfacet
  facet normal 0 0 1
    outer loop
      vertex 18.2709 -8.13473 8
      vertex 15.5885 -9 8
      vertex 17.3205 -10 8
    endloop
  endfacet
  facet normal 0 0 1
    outer loop
      vertex 17.3205 -10 8
      vertex 14.5623 -10.5801 8
      vertex 16.1803 -11.7557 8
    endloop
  endfacet
  facet normal 0 0 1
    outer loop
      vertex 16.1803 -11.7557 8
      vertex 13.3766 -12.0444 8
      vertex 14.8629 -13.3826 8
    endloop
  endfacet
  facet normal 0 0 1
    outer loop
      vertex 14.8629 -13.3826 8
      vertex 12.0444 -13.3766 8
      vertex 13.3826 -14.8629 8
    endloop
  endfacet
  facet normal 0 0 1
    outer loop
      vertex 13.3826 -14.8629 8
      vertex 10.5801 -14.5623 8
      vertex 11.7557 -16.1803 8
    endloop
  endfacet
  facet normal 0 0 1
    outer loop
      vertex 11.7557 -16.1803 8
      vertex 9 -15.5885 8
      vertex 10 -17.3205 8
    endloop
  endfacet
  facet normal 0 0 1
    outer loop
      vertex 10 -17.3205 8
      vertex 7.32126 -16.4438 8
      vertex 8.13473 -18.2709 8
    endloop
  endfacet
  facet normal 0 0 1
    outer loop
      vertex 8.13473 -18.2709 8
      vertex 5.56231 -17.119 8
      vertex 6.18034 -19.0211 8
    endloop
  endfacet
  facet normal 0 0 1
    outer loop
      vertex 6.18034 -19.0211 8
      vertex 3.74241 -17.6067 8
      vertex 4.15823 -19.563 8
    endloop
  endfacet
  facet normal 0 0 1
    outer loop
      vertex 3.74241 -17.6067 8
      vertex 1.88151 -17.9014 8
      vertex 4.15823 -19.563 8
    endloop
  endfacet
  facet normal 0 0 1
    outer loop
      vertex 4.15823 -19.563 8
      vertex 0 -18 8
      vertex 2.09057 -19.8904 8
    endloop
  endfacet
  facet normal 0 0 1
    outer loop
      vertex 2.09057 -19.8904 8
      vertex -1.88151 -17.9014 8
      vertex 0 -20 8
    endloop
  endfacet
  facet normal 0 0 1
    outer loop
      vertex 0 -20 8
      vertex -3.74241 -17.6067 8
      vertex -2.09057 -19.8904 8
    endloop
  endfacet
  facet normal 0 0 1
    outer loop
      vertex -2.09057 -19.8904 8
      vertex -5.56231 -17.119 8
      vertex -4.15823 -19.563 8
    endloop
  endfacet
  facet normal 0 0 1
    outer loop
      vertex -4.15823 -19.563 8
      vertex -7.32126 -16.4438 8
      vertex -6.18034 -19.0211 8
    endloop
  endfacet
  facet normal 0 0 1
    outer loop
      vertex -6.18034 -19.0211 8
      vertex -9 -15.5885 8
      vertex -8.13473 -18.2709 8
    endloop
  endfacet
  facet normal 0 0 1
    outer loop
      vertex -9 -15.5885 8
      vertex -10.5801 -14.5623 8
      vertex -8.13473 -18.2709 8
    endloop
  endfacet
  facet normal 0 0 1
    outer loop
      vertex -8.13473 -18.2709 8
      vertex -12.0444 -13.3766 8
      vertex -10 -17.3205 8
    endloop
  endfacet
  facet normal 0 0 1
    outer loop
      vertex -12.0444 -13.3766 8
      vertex -13.3766 -12.0444 8
      vertex -10 -17.3205 8
    endloop
  endfacet
  facet normal 0 0 1
    outer loop
      vertex -10 -17.3205 8
      vertex -14.5623 -10.5801 8
      vertex -11.7557 -16.1803 8
    endloop
  endfacet
  facet normal 0 0 1
    outer loop
      vertex -14.5623 -10.5801 8
      vertex -15.5885 -9 8
      vertex -11.7557 -16.1803 8
    endloop
  endfacet
  facet normal 0 0 1
    outer loop
      vertex -16.4438 -7.32126 8
      vertex -17.119 -5.56231 8
      vertex -19.8904 -2.09057 8
    endloop
  endfacet
  facet normal 0 0 1
    outer loop
      vertex -15.5885 -9 8
      vertex -16.4438 -7.32126 8
      vertex -19.8904 -2.09057 8
    endloop
  endfacet
  facet normal 0 0 1
    outer loop
      vertex 3.74241 17.6067 8
      vertex 5.56231 17.119 8
      vertex 6.18034 19.0211 8
    endloop
  endfacet
  facet normal 0 0 1
    outer loop
      vertex 5.56231 17.119 8
      vertex 7.32126 16.4438 8
      vertex 8.13473 18.2709 8
    endloop
  endfacet
  facet normal 0 0 1
    outer loop
      vertex 7.32126 16.4438 8
      vertex 9 15.5885 8
      vertex 10 17.3205 8
    endloop
  endfacet
  facet normal 0 0 1
    outer loop
      vertex 9 15.5885 8
      vertex 10.5801 14.5623 8
      vertex 11.7557 16.1803 8
    endloop
  endfacet
  facet normal 0 0 1
    outer loop
      vertex 10.5801 14.5623 8
      vertex 12.0444 13.3766 8
      vertex 13.3826 14.8629 8
    endloop
  endfacet
  facet normal 0 0 1
    outer loop
      vertex 12.0444 13.3766 8
      vertex 13.3766 12.0444 8
      vertex 14.8629 13.3826 8
    endloop
  endfacet
  facet normal 0 0 1
    outer loop
      vertex 13.3766 12.0444 8
      vertex 14.5623 10.5801 8
      vertex 16.1803 11.7557 8
    endloop
  endfacet
  facet normal 0 0 1
    outer loop
      vertex 14.5623 10.5801 8
      vertex 15.5885 9 8
      vertex 17.3205 10 8
    endloop
  endfacet
  facet normal 0 0 1
    outer loop
      vertex 15.5885 9 8
      vertex 16.4438 7.32126 8
      vertex 18.2709 8.13473 8
    endloop
  endfacet
  facet normal 0 0 1
    outer loop
      vertex 16.4438 7.32126 8
      vertex 17.119 5.56231 8
      vertex 19.0211 6.18034 8
    endloop
  endfacet
  facet normal 0 0 1
    outer loop
      vertex 17.119 5.56231 8
      vertex 17.6067 3.74241 8
      vertex 19.563 4.15823 8
    endloop
  endfacet
  facet normal 0 0 1
    outer loop
      vertex -17.9014 -1.88151 8
      vertex -18 0 8
      vertex -19.8904 -2.09057 8
    endloop
  endfacet
  facet normal 0.156434 -0.987688 0
    outer loop
      vertex -1.88151 17.9014 7
      vertex -1.88151 17.9014 8
      vertex -3.74241 17.6067 8
    endloop
  endfacet
  facet normal 0.156434 -0.987688 0
    outer loop
      vertex -3.74241 17.6067 7
      vertex -1.88151 17.9014 7
      vertex -3.74241 17.6067 8
    endloop
  endfacet
  facet normal 0 0 1
    outer loop
      vertex -1.67246 15.9123 7
      vertex 0 16 7
      vertex -5 17.2697 7
    endloop
  endfacet
  facet normal 0 0 1
    outer loop
      vertex -5 17.2697 7
      vertex -5 15.1955 7
      vertex -4.94427 15.2169 7
    endloop
  endfacet
  facet normal 0 0 1
    outer loop
      vertex 0 16 7
      vertex 1.67246 15.9123 7
      vertex -5 17.2697 7
    endloop
  endfacet
  facet normal 0 0 1
    outer loop
      vertex -3.32659 15.6504 7
      vertex -5 17.2697 7
      vertex -4.94427 15.2169 7
    endloop
  endfacet
  facet normal 0 0 1
    outer loop
      vertex -3.32659 15.6504 7
      vertex -1.67246 15.9123 7
      vertex -5 17.2697 7
    endloop
  endfacet
  facet normal 0 0 1
    outer loop
      vertex 1.67246 15.9123 7
      vertex 3.32659 15.6504 7
      vertex -5 17.2697 7
    endloop
  endfacet
  facet normal 0 0 1
    outer loop
      vertex 3.32659 15.6504 7
      vertex 5 17.2697 7
      vertex -5 17.2697 7
    endloop
  endfacet
  facet normal 0 0 1
    outer loop
      vertex 4.94427 15.2169 7
      vertex 5 17.2697 7
      vertex 3.32659 15.6504 7
    endloop
  endfacet
  facet normal 0 0 1
    outer loop
      vertex 5 15.1955 7
      vertex 5 17.2697 7
      vertex 4.94427 15.2169 7
    endloop
  endfacet
  facet normal 0 0 1
    outer loop
      vertex 5 17.2697 7
      vertex 3.74241 17.6067 7
      vertex -5 17.2697 7
    endloop
  endfacet
  facet normal 0 0 1
    outer loop
      vertex 3.74241 17.6067 7
      vertex 1.88151 17.9014 7
      vertex -5 17.2697 7
    endloop
  endfacet
  facet normal 0 0 1
    outer loop
      vertex 1.88151 17.9014 7
      vertex 0 18 7
      vertex -5 17.2697 7
    endloop
  endfacet
  facet normal 0 0 1
    outer loop
      vertex 0 18 7
      vertex -1.88151 17.9014 7
      vertex -5 17.2697 7
    endloop
  endfacet
  facet normal 0 0 1
    outer loop
      vertex -1.88151 17.9014 7
      vertex -3.74241 17.6067 7
      vertex -5 17.2697 7
    endloop
  endfacet
  facet normal -0.156434 -0.987688 0
    outer loop
      vertex 3.74241 17.6067 7
      vertex 3.74241 17.6067 8
      vertex 1.88151 17.9014 8
    endloop
  endfacet
  facet normal -0.156434 -0.987688 0
    outer loop
      vertex 1.88151 17.9014 7
      vertex 3.74241 17.6067 7
      vertex 1.88151 17.9014 8
    endloop
  endfacet
  facet normal -0.052336 0.99863 0
    outer loop
      vertex 1.88151 -17.9014 8
      vertex 1.88151 -17.9014 7
      vertex 0 -18 8
    endloop
  endfacet
  facet normal -0.052336 0.99863 0
    outer loop
      vertex 0 -18 8
      vertex 1.88151 -17.9014 7
      vertex 0 -18 7
    endloop
  endfacet
  facet normal 0 0 1
    outer loop
      vertex -3.75 -15.5369 7
      vertex -3.75 -17.6046 7
      vertex -3.74241 -17.6067 7
    endloop
  endfacet
  facet normal 0 0 1
    outer loop
      vertex 0 -18 7
      vertex -3.75 -15.5369 7
      vertex -1.88151 -17.9014 7
    endloop
  endfacet
  facet normal 0 0 1
    outer loop
      vertex -1.88151 -17.9014 7
      vertex -3.75 -15.5369 7
      vertex -3.74241 -17.6067 7
    endloop
  endfacet
  facet normal 0 0 1
    outer loop
      vertex 1.88151 -17.9014 7
      vertex -3.75 -15.5369 7
      vertex 0 -18 7
    endloop
  endfacet
  facet normal 0 0 1
    outer loop
      vertex 3.25 -17.6846 7
      vertex -3.75 -15.5369 7
      vertex 1.88151 -17.9014 7
    endloop
  endfacet
  facet normal 0 0 1
    outer loop
      vertex -3.32659 -15.6504 7
      vertex -3.75 -15.5369 7
      vertex 3.25 -17.6846 7
    endloop
  endfacet
  facet normal 0 0 1
    outer loop
      vertex 3.25 -15.6625 7
      vertex 1.67246 -15.9123 7
      vertex 3.25 -17.6846 7
    endloop
  endfacet
  facet normal 0 0 1
    outer loop
      vertex 1.67246 -15.9123 7
      vertex 0 -16 7
      vertex 3.25 -17.6846 7
    endloop
  endfacet
  facet normal 0 0 1
    outer loop
      vertex 0 -16 7
      vertex -1.67246 -15.9123 7
      vertex 3.25 -17.6846 7
    endloop
  endfacet
  facet normal 0 0 1
    outer loop
      vertex -1.67246 -15.9123 7
      vertex -3.32659 -15.6504 7
      vertex 3.25 -17.6846 7
    endloop
  endfacet
  facet normal 0.156434 0.987688 0
    outer loop
      vertex -1.88151 -17.9014 8
      vertex -1.88151 -17.9014 7
      vertex -3.74241 -17.6067 8
    endloop
  endfacet
  facet normal 0.156434 0.987688 0
    outer loop
      vertex -3.74241 -17.6067 8
      vertex -1.88151 -17.9014 7
      vertex -3.74241 -17.6067 7
    endloop
  endfacet
  facet normal 0.052336 0.99863 0
    outer loop
      vertex 0 -18 8
      vertex 0 -18 7
      vertex -1.88151 -17.9014 8
    endloop
  endfacet
  facet normal 0.052336 0.99863 0
    outer loop
      vertex -1.88151 -17.9014 8
      vertex 0 -18 7
      vertex -1.88151 -17.9014 7
    endloop
  endfacet
  facet normal -0.052336 -0.99863 0
    outer loop
      vertex 1.88151 17.9014 7
      vertex 1.88151 17.9014 8
      vertex 0 18 8
    endloop
  endfacet
  facet normal -0.052336 -0.99863 0
    outer loop
      vertex 0 18 7
      vertex 1.88151 17.9014 7
      vertex 0 18 8
    endloop
  endfacet
  facet normal 0.052336 -0.99863 0
    outer loop
      vertex 0 18 7
      vertex 0 18 8
      vertex -1.88151 17.9014 8
    endloop
  endfacet
  facet normal 0.052336 -0.99863 0
    outer loop
      vertex -1.88151 17.9014 7
      vertex 0 18 7
      vertex -1.88151 17.9014 8
    endloop
  endfacet
endsolid OpenSCAD_Model
