solid OpenSCAD_Model
  facet normal -0.999473 -0.0324649 0
    outer loop
      vertex 0.2 30.3107 1.0126
      vertex 0.705333 14.7533 1.02468
      vertex 0.2 30.3107 1.86069
    endloop
  endfacet
  facet normal -0.999473 -0.0324649 0
    outer loop
      vertex 0.2 30.3107 1.86069
      vertex 0.705333 14.7533 1.02468
      vertex 0.705333 14.7533 3.06625
    endloop
  endfacet
  facet normal -0.999473 -0.0324649 0
    outer loop
      vertex 0.2 30.3107 1.86069
      vertex 0.705333 14.7533 3.06625
      vertex 0.350995 25.6621 2.45868
    endloop
  endfacet
  facet normal -2.22045e-16 -0.000776297 -1
    outer loop
      vertex 0.2 30.3107 1.0126
      vertex 0.208585 31.0827 1.012
      vertex 0.705333 14.7533 1.02468
    endloop
  endfacet
  facet normal -2.22045e-16 -0.000776297 -1
    outer loop
      vertex 0.705333 14.7533 1.02468
      vertex 0.208585 31.0827 1.012
      vertex 5 31.0827 1.012
    endloop
  endfacet
  facet normal -2.22045e-16 -0.000776297 -1
    outer loop
      vertex 0.705333 14.7533 1.02468
      vertex 5 31.0827 1.012
      vertex 5 4 1.03302
    endloop
  endfacet
  facet normal -2.22045e-16 -0.000776297 -1
    outer loop
      vertex 5 4 1.03302
      vertex 13.0277 4 1.03302
      vertex 13.5658 0.166667 1.036
    endloop
  endfacet
  facet normal -2.22045e-16 -0.000776297 -1
    outer loop
      vertex 5 4 1.03302
      vertex 13.5658 0.166667 1.036
      vertex 11.1754 0.166667 1.036
    endloop
  endfacet
  facet normal -2.22045e-16 -0.000776297 -1
    outer loop
      vertex 5 4 1.03302
      vertex 11.1754 0.166667 1.036
      vertex 5.03333 0.948 1.03539
    endloop
  endfacet
  facet normal -2.22045e-16 -0.000776297 -1
    outer loop
      vertex 5 4 1.03302
      vertex 5.03333 0.948 1.03539
      vertex 0.705333 14.7533 1.02468
    endloop
  endfacet
  facet normal -2.22045e-16 -0.000776297 -1
    outer loop
      vertex 0.705333 14.7533 1.02468
      vertex 5.03333 0.948 1.03539
      vertex 4.128 1.28933 1.03513
    endloop
  endfacet
  facet normal -2.22045e-16 -0.000776297 -1
    outer loop
      vertex 0.705333 14.7533 1.02468
      vertex 4.128 1.28933 1.03513
      vertex 3.18667 1.88933 1.03466
    endloop
  endfacet
  facet normal -2.22045e-16 -0.000776297 -1
    outer loop
      vertex 0.705333 14.7533 1.02468
      vertex 3.18667 1.88933 1.03466
      vertex 2.516 2.99467 1.0338
    endloop
  endfacet
  facet normal -2.22045e-16 -0.000776297 -1
    outer loop
      vertex 0.705333 14.7533 1.02468
      vertex 2.516 2.99467 1.0338
      vertex 1.84667 4.58133 1.03257
    endloop
  endfacet
  facet normal -2.22045e-16 -0.000776297 -1
    outer loop
      vertex 0.705333 14.7533 1.02468
      vertex 1.84667 4.58133 1.03257
      vertex 1.44667 7.428 1.03036
    endloop
  endfacet
  facet normal -0.999938 0.0111199 0
    outer loop
      vertex 0.2 30.3107 1.0126
      vertex 0.2 30.3107 1.86069
      vertex 0.208585 31.0827 1.012
    endloop
  endfacet
  facet normal -0.999938 0.0111199 0
    outer loop
      vertex 0.208585 31.0827 1.012
      vertex 0.2 30.3107 1.86069
      vertex 0.234667 33.428 1.99798
    endloop
  endfacet
  facet normal -0.999938 0.0111199 0
    outer loop
      vertex 0.223887 32.4587 1.024
      vertex 0.234667 33.428 1.99798
      vertex 0.234667 33.428 1.00113
    endloop
  endfacet
  facet normal -0.999938 0.0111199 0
    outer loop
      vertex 0.208585 31.0827 1.012
      vertex 0.234667 33.428 1.99798
      vertex 0.223887 32.4587 1.024
    endloop
  endfacet
  facet normal -0.999938 0.0111199 0
    outer loop
      vertex 0.223887 32.4587 1.024
      vertex 0.234667 33.428 1.00113
      vertex 0.223887 32.4587 1
    endloop
  endfacet
  facet normal -0.969569 1.68193e-18 0.244819
    outer loop
      vertex 0.2 30.3107 1.86069
      vertex 0.350995 25.6621 2.45868
      vertex 0.234667 33.428 1.99798
    endloop
  endfacet
  facet normal -0.969569 1.68193e-18 0.244819
    outer loop
      vertex 0.246667 33.428 2.04551
      vertex 0.350995 25.6621 2.45868
      vertex 0.350995 36.699 2.45868
    endloop
  endfacet
  facet normal -0.969569 1.68193e-18 0.244819
    outer loop
      vertex 0.234667 33.428 1.99798
      vertex 0.350995 25.6621 2.45868
      vertex 0.246667 33.428 2.04551
    endloop
  endfacet
  facet normal -0.863825 1.4985e-18 0.503792
    outer loop
      vertex 0.350995 25.6621 2.45868
      vertex 0.705333 14.7533 3.06625
      vertex 0.350995 36.699 2.45868
    endloop
  endfacet
  facet normal -0.863825 1.4985e-18 0.503792
    outer loop
      vertex 0.350995 36.699 2.45868
      vertex 0.705333 14.7533 3.06625
      vertex 0.921487 12.6175 3.43687
    endloop
  endfacet
  facet normal -0.863825 1.4985e-18 0.503792
    outer loop
      vertex 0.350995 36.699 2.45868
      vertex 0.921487 12.6175 3.43687
      vertex 0.921487 50.7181 3.43687
    endloop
  endfacet
  facet normal -0.863825 1.4985e-18 0.503792
    outer loop
      vertex 0.350995 36.699 2.45868
      vertex 0.921487 50.7181 3.43687
      vertex 0.741333 48.9373 3.12797
    endloop
  endfacet
  facet normal -0.994918 -0.100687 0
    outer loop
      vertex 0.705333 14.7533 1.02468
      vertex 1.44667 7.428 1.03036
      vertex 0.705333 14.7533 3.06625
    endloop
  endfacet
  facet normal -0.994918 -0.100687 0
    outer loop
      vertex 0.705333 14.7533 3.06625
      vertex 1.44667 7.428 1.03036
      vertex 1.44667 7.428 4.06646
    endloop
  endfacet
  facet normal -0.994918 -0.100687 0
    outer loop
      vertex 0.705333 14.7533 3.06625
      vertex 1.44667 7.428 4.06646
      vertex 0.921487 12.6175 3.43687
    endloop
  endfacet
  facet normal -0.990272 -0.139148 0
    outer loop
      vertex 1.44667 7.428 1.03036
      vertex 1.84667 4.58133 1.03257
      vertex 1.44667 7.428 4.06646
    endloop
  endfacet
  facet normal -0.990272 -0.139148 0
    outer loop
      vertex 1.44667 7.428 4.06646
      vertex 1.84667 4.58133 1.03257
      vertex 1.84667 4.58133 4.54597
    endloop
  endfacet
  facet normal -0.921373 -0.38868 0
    outer loop
      vertex 1.84667 4.58133 1.03257
      vertex 2.516 2.99467 1.0338
      vertex 1.84667 4.58133 4.54597
    endloop
  endfacet
  facet normal -0.921373 -0.38868 0
    outer loop
      vertex 1.84667 4.58133 4.54597
      vertex 2.516 2.99467 1.0338
      vertex 2.516 2.99467 5.19184
    endloop
  endfacet
  facet normal -0.921373 -0.38868 0
    outer loop
      vertex 1.84667 4.58133 4.54597
      vertex 2.516 2.99467 5.19184
      vertex 2.06287 4.06881 4.80516
    endloop
  endfacet
  facet normal -0.854935 -0.518736 0
    outer loop
      vertex 2.516 2.99467 1.0338
      vertex 3.18667 1.88933 1.03466
      vertex 2.516 2.99467 5.19184
    endloop
  endfacet
  facet normal -0.854935 -0.518736 0
    outer loop
      vertex 2.516 2.99467 5.19184
      vertex 3.18667 1.88933 1.03466
      vertex 3.18667 1.88933 5.76417
    endloop
  endfacet
  facet normal -0.537494 -0.843268 0
    outer loop
      vertex 3.18667 1.88933 5.76417
      vertex 3.18667 1.88933 1.03466
      vertex 4.128 1.28933 1.03513
    endloop
  endfacet
  facet normal -0.537494 -0.843268 0
    outer loop
      vertex 4.128 1.28933 6.56747
      vertex 3.18667 1.88933 5.76417
      vertex 4.128 1.28933 1.03513
    endloop
  endfacet
  facet normal -0.352784 -0.935705 0
    outer loop
      vertex 4.128 1.28933 6.56747
      vertex 4.128 1.28933 1.03513
      vertex 5.03333 0.948 1.03539
    endloop
  endfacet
  facet normal -0.352784 -0.935705 0
    outer loop
      vertex 5.03333 0.948 7.34004
      vertex 4.128 1.28933 6.56747
      vertex 5.03333 0.948 1.03539
    endloop
  endfacet
  facet normal -0.126193 -0.992006 0
    outer loop
      vertex 5.03333 0.948 7.34004
      vertex 5.03333 0.948 1.03539
      vertex 11.1754 0.166667 1.036
    endloop
  endfacet
  facet normal -0.126193 -0.992006 0
    outer loop
      vertex 8.031 0.566667 7.056
      vertex 5.03333 0.948 7.34004
      vertex 11.1754 0.166667 4.02267
    endloop
  endfacet
  facet normal -0.126193 -0.992006 0
    outer loop
      vertex 11.1754 0.166667 4.02267
      vertex 5.03333 0.948 7.34004
      vertex 11.1754 0.166667 1.036
    endloop
  endfacet
  facet normal -0.126193 -0.992006 0
    outer loop
      vertex 5.76162 0.855355 7.96153
      vertex 5.03333 0.948 7.34004
      vertex 8.031 0.566667 7.056
    endloop
  endfacet
  facet normal 0 -1 0
    outer loop
      vertex 11.1754 0.166667 4.02267
      vertex 11.1754 0.166667 1.036
      vertex 13.5658 0.166667 1.036
    endloop
  endfacet
  facet normal 0 -1 0
    outer loop
      vertex 19.935 0.166667 4.02267
      vertex 11.1754 0.166667 4.02267
      vertex 19.935 0.166667 1.07123
    endloop
  endfacet
  facet normal 0 -1 0
    outer loop
      vertex 19.935 0.166667 1.07123
      vertex 11.1754 0.166667 4.02267
      vertex 13.5658 0.166667 1.036
    endloop
  endfacet
  facet normal 0.00553042 -9.59374e-21 -0.999985
    outer loop
      vertex 12.8134 59.8 1.03184
      vertex 13.5658 63.3733 1.036
      vertex 90.6 59.8 1.46204
    endloop
  endfacet
  facet normal 0.00553042 -9.59374e-21 -0.999985
    outer loop
      vertex 90.6 59.8 1.46204
      vertex 13.5658 63.3733 1.036
      vertex 33.8965 63.3733 1.14844
    endloop
  endfacet
  facet normal 0.00553042 -9.59374e-21 -0.999985
    outer loop
      vertex 90.6 59.8 1.46204
      vertex 33.8965 63.3733 1.14844
      vertex 53.6573 62.6373 1.25773
    endloop
  endfacet
  facet normal 0.00553042 -9.59374e-21 -0.999985
    outer loop
      vertex 90.6 59.8 1.46204
      vertex 53.6573 62.6373 1.25773
      vertex 98.284 60.932 1.50453
    endloop
  endfacet
  facet normal 0.00553042 -9.59374e-21 -0.999985
    outer loop
      vertex 90.6 59.8 1.46204
      vertex 98.284 60.932 1.50453
      vertex 100.729 60.6973 1.51806
    endloop
  endfacet
  facet normal 0.00553042 -9.59374e-21 -0.999985
    outer loop
      vertex 90.6 59.8 1.46204
      vertex 100.729 60.6973 1.51806
      vertex 102.847 60.0853 1.52977
    endloop
  endfacet
  facet normal 0.00553042 -9.59374e-21 -0.999985
    outer loop
      vertex 90.6 59.8 1.46204
      vertex 102.847 60.0853 1.52977
      vertex 103.964 59.3093 1.53595
    endloop
  endfacet
  facet normal 0.00553042 -9.59374e-21 -0.999985
    outer loop
      vertex 90.6 4 1.46204
      vertex 53.6227 1.05467 1.25753
      vertex 31.82 0.242667 1.13696
    endloop
  endfacet
  facet normal 0.00553042 -9.59374e-21 -0.999985
    outer loop
      vertex 90.6 4 1.46204
      vertex 31.82 0.242667 1.13696
      vertex 19.935 0.166667 1.07123
    endloop
  endfacet
  facet normal 0.00553042 -9.59374e-21 -0.999985
    outer loop
      vertex 90.6 4 1.46204
      vertex 19.935 0.166667 1.07123
      vertex 13.5658 0.166667 1.036
    endloop
  endfacet
  facet normal 0.00553042 -9.59374e-21 -0.999985
    outer loop
      vertex 90.6 4 1.46204
      vertex 13.5658 0.166667 1.036
      vertex 13.0277 4 1.03302
    endloop
  endfacet
  facet normal 0.00553042 -9.59374e-21 -0.999985
    outer loop
      vertex 106.385 50.1 1.54933
      vertex 106.385 13.5 1.54933
      vertex 92.0032 50.1 1.4698
    endloop
  endfacet
  facet normal 0.00553042 -9.59374e-21 -0.999985
    outer loop
      vertex 106.385 10.5 1.54933
      vertex 106.385 7.11171 1.54933
      vertex 92.0032 10.5 1.4698
    endloop
  endfacet
  facet normal 0.00553042 -9.59374e-21 -0.999985
    outer loop
      vertex 106.385 7.11171 1.54933
      vertex 105.997 6.55733 1.54719
      vertex 92.0032 10.5 1.4698
    endloop
  endfacet
  facet normal 0.00553042 -9.59374e-21 -0.999985
    outer loop
      vertex 105.997 6.55733 1.54719
      vertex 104.987 5.41733 1.5416
      vertex 92.0032 10.5 1.4698
    endloop
  endfacet
  facet normal 0.00553042 -9.59374e-21 -0.999985
    outer loop
      vertex 104.987 5.41733 1.5416
      vertex 103.916 4.37067 1.53568
      vertex 92.0032 10.5 1.4698
    endloop
  endfacet
  facet normal 0.00553042 -9.59374e-21 -0.999985
    outer loop
      vertex 103.916 4.37067 1.53568
      vertex 102.811 3.60533 1.52957
      vertex 92.0032 10.5 1.4698
    endloop
  endfacet
  facet normal 0.00553042 -9.59374e-21 -0.999985
    outer loop
      vertex 98.2373 2.75867 1.50428
      vertex 53.6227 1.05467 1.25753
      vertex 90.6 4 1.46204
    endloop
  endfacet
  facet normal 0.00553042 -9.59374e-21 -0.999985
    outer loop
      vertex 90.6 59.8 1.46204
      vertex 103.964 59.3093 1.53595
      vertex 105.033 58.2747 1.54186
    endloop
  endfacet
  facet normal 0.00553042 -9.59374e-21 -0.999985
    outer loop
      vertex 90.6 59.8 1.46204
      vertex 105.033 58.2747 1.54186
      vertex 106.045 57.1347 1.54746
    endloop
  endfacet
  facet normal 0.00553042 -9.59374e-21 -0.999985
    outer loop
      vertex 90.6 59.8 1.46204
      vertex 106.045 57.1347 1.54746
      vertex 106.385 56.642 1.54933
    endloop
  endfacet
  facet normal 0.00553042 -9.59374e-21 -0.999985
    outer loop
      vertex 90.6 59.8 1.46204
      vertex 106.385 56.642 1.54933
      vertex 106.385 53.1 1.54933
    endloop
  endfacet
  facet normal 0.00553042 -9.59374e-21 -0.999985
    outer loop
      vertex 90.6 59.8 1.46204
      vertex 106.385 53.1 1.54933
      vertex 92.0032 53.1 1.4698
    endloop
  endfacet
  facet normal 0.00553042 -9.59374e-21 -0.999985
    outer loop
      vertex 90.6 59.8 1.46204
      vertex 92.0032 53.1 1.4698
      vertex 92.0032 50.1 1.4698
    endloop
  endfacet
  facet normal 0.00553042 -9.59374e-21 -0.999985
    outer loop
      vertex 92.0032 50.1 1.4698
      vertex 106.385 13.5 1.54933
      vertex 92.0032 13.5 1.4698
    endloop
  endfacet
  facet normal 0.00553042 -9.59374e-21 -0.999985
    outer loop
      vertex 90.6 59.8 1.46204
      vertex 92.0032 50.1 1.4698
      vertex 92.0032 13.5 1.4698
    endloop
  endfacet
  facet normal 0.00553042 -9.59374e-21 -0.999985
    outer loop
      vertex 90.6 59.8 1.46204
      vertex 92.0032 13.5 1.4698
      vertex 92.0032 10.5 1.4698
    endloop
  endfacet
  facet normal 0.00553042 -9.59374e-21 -0.999985
    outer loop
      vertex 92.0032 10.5 1.4698
      vertex 102.811 3.60533 1.52957
      vertex 100.695 2.99467 1.51787
    endloop
  endfacet
  facet normal 0.00553042 -9.59374e-21 -0.999985
    outer loop
      vertex 92.0032 10.5 1.4698
      vertex 100.695 2.99467 1.51787
      vertex 98.2373 2.75867 1.50428
    endloop
  endfacet
  facet normal 0.00553042 -9.59374e-21 -0.999985
    outer loop
      vertex 92.0032 10.5 1.4698
      vertex 98.2373 2.75867 1.50428
      vertex 90.6 4 1.46204
    endloop
  endfacet
  facet normal 0.00553042 -9.59374e-21 -0.999985
    outer loop
      vertex 90.6 59.8 1.46204
      vertex 92.0032 10.5 1.4698
      vertex 90.6 4 1.46204
    endloop
  endfacet
  facet normal 0 1 0
    outer loop
      vertex 20 4 6.5
      vertex 20 4 11.5
      vertex 90.6 4 11.5
    endloop
  endfacet
  facet normal 0 1 0
    outer loop
      vertex 20 4 6.5
      vertex 90.6 4 11.5
      vertex 90.6 4 1.46204
    endloop
  endfacet
  facet normal 0 1 0
    outer loop
      vertex 20 4 6.5
      vertex 90.6 4 1.46204
      vertex 5 4 6.5
    endloop
  endfacet
  facet normal 0 1 0
    outer loop
      vertex 90.6 4 1.46204
      vertex 13.0277 4 1.03302
      vertex 5 4 6.5
    endloop
  endfacet
  facet normal 0 1 0
    outer loop
      vertex 13.0277 4 1.03302
      vertex 5 4 1.03302
      vertex 5 4 6.5
    endloop
  endfacet
  facet normal 1 0 0
    outer loop
      vertex 5 59.8 1.03184
      vertex 5 32.4587 1.024
      vertex 5 32.4587 1
    endloop
  endfacet
  facet normal 1 0 0
    outer loop
      vertex 5 59.8 6.5
      vertex 5 32.4587 1.024
      vertex 5 59.8 1.03184
    endloop
  endfacet
  facet normal 1 0 0
    outer loop
      vertex 5 31.0827 1.012
      vertex 5 32.4587 1.024
      vertex 5 59.8 6.5
    endloop
  endfacet
  facet normal 1 0 0
    outer loop
      vertex 5 4 6.5
      vertex 5 31.0827 1.012
      vertex 5 59.8 6.5
    endloop
  endfacet
  facet normal 1 0 0
    outer loop
      vertex 5 4 1.03302
      vertex 5 31.0827 1.012
      vertex 5 4 6.5
    endloop
  endfacet
  facet normal -2.22036e-16 0.0087206 -0.999962
    outer loop
      vertex 0.208585 31.0827 1.012
      vertex 0.223887 32.4587 1.024
      vertex 5 31.0827 1.012
    endloop
  endfacet
  facet normal -2.22036e-16 0.0087206 -0.999962
    outer loop
      vertex 5 31.0827 1.012
      vertex 0.223887 32.4587 1.024
      vertex 5 32.4587 1.024
    endloop
  endfacet
  facet normal 0 -1 0
    outer loop
      vertex 0.223887 32.4587 1.024
      vertex 0.223887 32.4587 1
      vertex 5 32.4587 1
    endloop
  endfacet
  facet normal 0 -1 0
    outer loop
      vertex 5 32.4587 1.024
      vertex 0.223887 32.4587 1.024
      vertex 5 32.4587 1
    endloop
  endfacet
  facet normal -2.22044e-16 0.0011645 -0.999999
    outer loop
      vertex 0.223887 32.4587 1
      vertex 0.234667 33.428 1.00113
      vertex 5 32.4587 1
    endloop
  endfacet
  facet normal -2.22044e-16 0.0011645 -0.999999
    outer loop
      vertex 5 32.4587 1
      vertex 0.234667 33.428 1.00113
      vertex 0.246667 33.428 1.00113
    endloop
  endfacet
  facet normal -2.22044e-16 0.0011645 -0.999999
    outer loop
      vertex 5 32.4587 1
      vertex 0.246667 33.428 1.00113
      vertex 0.741333 48.9373 1.01919
    endloop
  endfacet
  facet normal -2.22044e-16 0.0011645 -0.999999
    outer loop
      vertex 5 32.4587 1
      vertex 0.741333 48.9373 1.01919
      vertex 1.48133 56.252 1.02771
    endloop
  endfacet
  facet normal -2.22044e-16 0.0011645 -0.999999
    outer loop
      vertex 5 32.4587 1
      vertex 1.48133 56.252 1.02771
      vertex 1.89333 59.1093 1.03103
    endloop
  endfacet
  facet normal -2.22044e-16 0.0011645 -0.999999
    outer loop
      vertex 5 32.4587 1
      vertex 1.89333 59.1093 1.03103
      vertex 2.564 60.6973 1.03288
    endloop
  endfacet
  facet normal -2.22044e-16 0.0011645 -0.999999
    outer loop
      vertex 5 32.4587 1
      vertex 2.564 60.6973 1.03288
      vertex 3.23333 61.8027 1.03417
    endloop
  endfacet
  facet normal -2.22044e-16 0.0011645 -0.999999
    outer loop
      vertex 5 32.4587 1
      vertex 3.23333 61.8027 1.03417
      vertex 4.17467 62.4027 1.03487
    endloop
  endfacet
  facet normal -2.22044e-16 0.0011645 -0.999999
    outer loop
      vertex 5 59.8 1.03184
      vertex 4.17467 62.4027 1.03487
      vertex 5.08 62.7427 1.03527
    endloop
  endfacet
  facet normal -2.22044e-16 0.0011645 -0.999999
    outer loop
      vertex 5 32.4587 1
      vertex 4.17467 62.4027 1.03487
      vertex 5 59.8 1.03184
    endloop
  endfacet
  facet normal -2.22044e-16 0.0011645 -0.999999
    outer loop
      vertex 5 59.8 1.03184
      vertex 5.08 62.7427 1.03527
      vertex 10.0207 63.3733 1.036
    endloop
  endfacet
  facet normal -2.22044e-16 0.0011645 -0.999999
    outer loop
      vertex 5 59.8 1.03184
      vertex 10.0207 63.3733 1.036
      vertex 13.5658 63.3733 1.036
    endloop
  endfacet
  facet normal -2.22044e-16 0.0011645 -0.999999
    outer loop
      vertex 5 59.8 1.03184
      vertex 13.5658 63.3733 1.036
      vertex 12.8134 59.8 1.03184
    endloop
  endfacet
  facet normal 0 1 0
    outer loop
      vertex 0.234667 33.428 1.00113
      vertex 0.234667 33.428 1.99798
      vertex 0.246667 33.428 1.00113
    endloop
  endfacet
  facet normal 0 1 0
    outer loop
      vertex 0.246667 33.428 1.00113
      vertex 0.234667 33.428 1.99798
      vertex 0.246667 33.428 2.04551
    endloop
  endfacet
  facet normal -0.999492 0.0318786 0
    outer loop
      vertex 0.246667 33.428 1.00113
      vertex 0.246667 33.428 2.04551
      vertex 0.741333 48.9373 1.01919
    endloop
  endfacet
  facet normal -0.999492 0.0318786 0
    outer loop
      vertex 0.741333 48.9373 1.01919
      vertex 0.246667 33.428 2.04551
      vertex 0.350995 36.699 2.45868
    endloop
  endfacet
  facet normal -0.999492 0.0318786 0
    outer loop
      vertex 0.741333 48.9373 1.01919
      vertex 0.350995 36.699 2.45868
      vertex 0.741333 48.9373 3.12797
    endloop
  endfacet
  facet normal -0.994922 0.100653 0
    outer loop
      vertex 0.741333 48.9373 1.01919
      vertex 0.741333 48.9373 3.12797
      vertex 1.48133 56.252 1.02771
    endloop
  endfacet
  facet normal -0.994922 0.100653 0
    outer loop
      vertex 1.48133 56.252 1.02771
      vertex 0.741333 48.9373 3.12797
      vertex 0.921487 50.7181 3.43687
    endloop
  endfacet
  facet normal -0.994922 0.100653 0
    outer loop
      vertex 1.48133 56.252 1.02771
      vertex 0.921487 50.7181 3.43687
      vertex 1.48133 56.252 4.10802
    endloop
  endfacet
  facet normal -0.767905 1.3321e-18 0.640564
    outer loop
      vertex 0.921487 12.6175 3.43687
      vertex 1.44667 7.428 4.06646
      vertex 0.921487 50.7181 3.43687
    endloop
  endfacet
  facet normal -0.767905 1.3321e-18 0.640564
    outer loop
      vertex 0.921487 50.7181 3.43687
      vertex 1.44667 7.428 4.06646
      vertex 1.84667 4.58133 4.54597
    endloop
  endfacet
  facet normal -0.767905 1.3321e-18 0.640564
    outer loop
      vertex 0.921487 50.7181 3.43687
      vertex 1.84667 4.58133 4.54597
      vertex 2.06287 4.06881 4.80516
    endloop
  endfacet
  facet normal -0.767905 1.3321e-18 0.640564
    outer loop
      vertex 0.921487 50.7181 3.43687
      vertex 2.06287 4.06881 4.80516
      vertex 2.06287 59.5108 4.80516
    endloop
  endfacet
  facet normal -0.767905 1.3321e-18 0.640564
    outer loop
      vertex 0.921487 50.7181 3.43687
      vertex 2.06287 59.5108 4.80516
      vertex 1.89333 59.1093 4.60192
    endloop
  endfacet
  facet normal -0.767905 1.3321e-18 0.640564
    outer loop
      vertex 0.921487 50.7181 3.43687
      vertex 1.89333 59.1093 4.60192
      vertex 1.48133 56.252 4.10802
    endloop
  endfacet
  facet normal -0.649133 1.12607e-18 0.760675
    outer loop
      vertex 2.06287 59.5108 4.80516
      vertex 2.06287 4.06881 4.80516
      vertex 2.516 2.99467 5.19184
    endloop
  endfacet
  facet normal -0.649133 1.12607e-18 0.760675
    outer loop
      vertex 4.128 1.28933 6.56747
      vertex 2.06287 59.5108 4.80516
      vertex 3.18667 1.88933 5.76417
    endloop
  endfacet
  facet normal -0.649133 1.12607e-18 0.760675
    outer loop
      vertex 3.18667 1.88933 5.76417
      vertex 2.06287 59.5108 4.80516
      vertex 2.516 2.99467 5.19184
    endloop
  endfacet
  facet normal -0.649133 1.12607e-18 0.760675
    outer loop
      vertex 5.03333 0.948 7.34004
      vertex 2.06287 59.5108 4.80516
      vertex 4.128 1.28933 6.56747
    endloop
  endfacet
  facet normal -0.649133 1.12607e-18 0.760675
    outer loop
      vertex 5.76162 0.855355 7.96153
      vertex 2.06287 59.5108 4.80516
      vertex 5.03333 0.948 7.34004
    endloop
  endfacet
  facet normal -0.649133 1.12607e-18 0.760675
    outer loop
      vertex 5.95512 0.908 8.12667
      vertex 2.06287 59.5108 4.80516
      vertex 5.76162 0.855355 7.96153
    endloop
  endfacet
  facet normal -0.649133 1.12607e-18 0.760675
    outer loop
      vertex 6.69524 1.16603 8.75825
      vertex 2.06287 59.5108 4.80516
      vertex 5.95512 0.908 8.12667
    endloop
  endfacet
  facet normal -0.649133 1.12607e-18 0.760675
    outer loop
      vertex 6.69524 62.374 8.75825
      vertex 2.06287 59.5108 4.80516
      vertex 6.69524 1.16603 8.75825
    endloop
  endfacet
  facet normal -0.649133 1.12607e-18 0.760675
    outer loop
      vertex 5.95512 62.632 8.12667
      vertex 2.06287 59.5108 4.80516
      vertex 6.69524 62.374 8.75825
    endloop
  endfacet
  facet normal -0.649133 1.12607e-18 0.760675
    outer loop
      vertex 5.39878 62.7834 7.6519
      vertex 2.06287 59.5108 4.80516
      vertex 5.95512 62.632 8.12667
    endloop
  endfacet
  facet normal -0.649133 1.12607e-18 0.760675
    outer loop
      vertex 5.08 62.7427 7.37987
      vertex 2.06287 59.5108 4.80516
      vertex 5.39878 62.7834 7.6519
    endloop
  endfacet
  facet normal -0.649133 1.12607e-18 0.760675
    outer loop
      vertex 4.17467 62.4027 6.60729
      vertex 2.06287 59.5108 4.80516
      vertex 5.08 62.7427 7.37987
    endloop
  endfacet
  facet normal -0.649133 1.12607e-18 0.760675
    outer loop
      vertex 3.23333 61.8027 5.80399
      vertex 2.06287 59.5108 4.80516
      vertex 4.17467 62.4027 6.60729
    endloop
  endfacet
  facet normal -0.649133 1.12607e-18 0.760675
    outer loop
      vertex 2.564 60.6973 5.23281
      vertex 2.06287 59.5108 4.80516
      vertex 3.23333 61.8027 5.80399
    endloop
  endfacet
  facet normal 6.74443e-17 -0.952754 0.303742
    outer loop
      vertex 5.95512 0.908 8.12667
      vertex 5.76162 0.855355 7.96153
      vertex 8.031 0.566667 7.056
    endloop
  endfacet
  facet normal 6.74443e-17 -0.952754 0.303742
    outer loop
      vertex 49.6846 0.908 8.12667
      vertex 5.95512 0.908 8.12667
      vertex 40.5196 0.566667 7.056
    endloop
  endfacet
  facet normal 6.74443e-17 -0.952754 0.303742
    outer loop
      vertex 40.5196 0.566667 7.056
      vertex 5.95512 0.908 8.12667
      vertex 8.031 0.566667 7.056
    endloop
  endfacet
  facet normal 2.90293e-17 -0.991417 0.130736
    outer loop
      vertex 40.5196 0.566667 7.056
      vertex 8.031 0.566667 7.056
      vertex 11.1754 0.166667 4.02267
    endloop
  endfacet
  facet normal 2.90293e-17 -0.991417 0.130736
    outer loop
      vertex 31.82 0.242667 4.599
      vertex 40.5196 0.566667 7.056
      vertex 19.935 0.166667 4.02267
    endloop
  endfacet
  facet normal 2.90293e-17 -0.991417 0.130736
    outer loop
      vertex 19.935 0.166667 4.02267
      vertex 40.5196 0.566667 7.056
      vertex 11.1754 0.166667 4.02267
    endloop
  endfacet
  facet normal 0.00639449 -0.99998 0
    outer loop
      vertex 19.935 0.166667 4.02267
      vertex 19.935 0.166667 1.07123
      vertex 31.82 0.242667 1.13696
    endloop
  endfacet
  facet normal 0.00639449 -0.99998 0
    outer loop
      vertex 31.82 0.242667 4.599
      vertex 19.935 0.166667 4.02267
      vertex 31.82 0.242667 1.13696
    endloop
  endfacet
  facet normal 0 -1 0
    outer loop
      vertex 12.8134 59.8 1.03184
      vertex 90.6 59.8 1.46204
      vertex 90.6 59.8 11.5
    endloop
  endfacet
  facet normal 0 -1 0
    outer loop
      vertex 20 59.8 6.5
      vertex 12.8134 59.8 1.03184
      vertex 90.6 59.8 11.5
    endloop
  endfacet
  facet normal 0 -1 0
    outer loop
      vertex 20 59.8 11.5
      vertex 20 59.8 6.5
      vertex 90.6 59.8 11.5
    endloop
  endfacet
  facet normal 0 -1 0
    outer loop
      vertex 5 59.8 1.03184
      vertex 12.8134 59.8 1.03184
      vertex 5 59.8 6.5
    endloop
  endfacet
  facet normal 0 -1 0
    outer loop
      vertex 20 59.8 6.5
      vertex 5 59.8 6.5
      vertex 12.8134 59.8 1.03184
    endloop
  endfacet
  facet normal -1 0 0
    outer loop
      vertex 90.6 59.8 11.5
      vertex 90.6 59.8 1.46204
      vertex 90.6 4 11.5
    endloop
  endfacet
  facet normal -1 0 0
    outer loop
      vertex 90.6 4 11.5
      vertex 90.6 59.8 1.46204
      vertex 90.6 4 1.46204
    endloop
  endfacet
  facet normal 0.0372173 -0.999307 0
    outer loop
      vertex 31.82 0.242667 4.599
      vertex 31.82 0.242667 1.13696
      vertex 53.6227 1.05467 1.25753
    endloop
  endfacet
  facet normal 0.0372173 -0.999307 0
    outer loop
      vertex 49.6846 0.908 8.12667
      vertex 31.82 0.242667 4.599
      vertex 53.6227 1.05467 8.48567
    endloop
  endfacet
  facet normal 0.0372173 -0.999307 0
    outer loop
      vertex 53.6227 1.05467 8.48567
      vertex 31.82 0.242667 4.599
      vertex 53.6227 1.05467 1.25753
    endloop
  endfacet
  facet normal 0.0372173 -0.999307 0
    outer loop
      vertex 40.5196 0.566667 7.056
      vertex 31.82 0.242667 4.599
      vertex 49.6846 0.908 8.12667
    endloop
  endfacet
  facet normal 0.0381659 -0.999271 0
    outer loop
      vertex 53.6227 1.05467 8.48567
      vertex 53.6227 1.05467 1.25753
      vertex 98.2373 2.75867 1.50428
    endloop
  endfacet
  facet normal 0.0381659 -0.999271 0
    outer loop
      vertex 98.0339 2.7509 11.532
      vertex 53.6227 1.05467 8.48567
      vertex 98.2373 2.75867 11.4396
    endloop
  endfacet
  facet normal 0.0381659 -0.999271 0
    outer loop
      vertex 98.2373 2.75867 11.4396
      vertex 53.6227 1.05467 8.48567
      vertex 98.2373 2.75867 1.50428
    endloop
  endfacet
  facet normal 0.0381659 -0.999271 0
    outer loop
      vertex 88.8815 2.40133 11.148
      vertex 53.6227 1.05467 8.48567
      vertex 98.0339 2.7509 11.532
    endloop
  endfacet
  facet normal 0.0381659 -0.999271 0
    outer loop
      vertex 61.4774 1.35467 9.22
      vertex 53.6227 1.05467 8.48567
      vertex 88.8815 2.40133 11.148
    endloop
  endfacet
  facet normal 0.0955992 -0.99542 0
    outer loop
      vertex 98.2373 2.75867 11.4396
      vertex 98.2373 2.75867 1.50428
      vertex 100.695 2.99467 1.51787
    endloop
  endfacet
  facet normal 0.0955992 -0.99542 0
    outer loop
      vertex 99.7707 2.90593 10.7435
      vertex 98.2373 2.75867 11.4396
      vertex 100.695 2.99467 10.0796
    endloop
  endfacet
  facet normal 0.0955992 -0.99542 0
    outer loop
      vertex 100.695 2.99467 10.0796
      vertex 98.2373 2.75867 11.4396
      vertex 100.695 2.99467 1.51787
    endloop
  endfacet
  facet normal 0.277279 -0.960789 0
    outer loop
      vertex 100.695 2.99467 10.0796
      vertex 100.695 2.99467 1.51787
      vertex 102.811 3.60533 1.52957
    endloop
  endfacet
  facet normal 0.277279 -0.960789 0
    outer loop
      vertex 102.002 3.37189 9.14032
      vertex 100.695 2.99467 10.0796
      vertex 102.811 3.60533 8.17849
    endloop
  endfacet
  facet normal 0.277279 -0.960789 0
    outer loop
      vertex 102.811 3.60533 8.17849
      vertex 100.695 2.99467 10.0796
      vertex 102.811 3.60533 1.52957
    endloop
  endfacet
  facet normal 0.569262 -0.822156 0
    outer loop
      vertex 102.811 3.60533 8.17849
      vertex 102.811 3.60533 1.52957
      vertex 103.916 4.37067 1.53568
    endloop
  endfacet
  facet normal 0.569262 -0.822156 0
    outer loop
      vertex 103.487 4.07373 7.37412
      vertex 102.811 3.60533 8.17849
      vertex 103.916 4.37067 6.70017
    endloop
  endfacet
  facet normal 0.569262 -0.822156 0
    outer loop
      vertex 103.916 4.37067 6.70017
      vertex 102.811 3.60533 8.17849
      vertex 103.916 4.37067 1.53568
    endloop
  endfacet
  facet normal 0.699047 -0.715076 0
    outer loop
      vertex 103.916 4.37067 6.70017
      vertex 103.916 4.37067 1.53568
      vertex 104.987 5.41733 1.5416
    endloop
  endfacet
  facet normal 0.699047 -0.715076 0
    outer loop
      vertex 104.827 5.26088 5.26909
      vertex 103.916 4.37067 6.70017
      vertex 104.987 5.41733 4.92317
    endloop
  endfacet
  facet normal 0.699047 -0.715076 0
    outer loop
      vertex 104.987 5.41733 4.92317
      vertex 103.916 4.37067 6.70017
      vertex 104.987 5.41733 1.5416
    endloop
  endfacet
  facet normal 0.748278 -0.663385 0
    outer loop
      vertex 104.987 5.41733 4.92317
      vertex 104.987 5.41733 1.5416
      vertex 105.997 6.55733 1.54719
    endloop
  endfacet
  facet normal 0.748278 -0.663385 0
    outer loop
      vertex 105.995 6.5544 2.74432
      vertex 104.987 5.41733 4.92317
      vertex 105.997 6.55733 2.73636
    endloop
  endfacet
  facet normal 0.748278 -0.663385 0
    outer loop
      vertex 105.997 6.55733 2.73636
      vertex 104.987 5.41733 4.92317
      vertex 105.997 6.55733 1.54719
    endloop
  endfacet
  facet normal 0.819782 -0.572675 0
    outer loop
      vertex 105.997 6.55733 2.73636
      vertex 105.997 6.55733 1.54719
      vertex 106.385 7.11171 1.54933
    endloop
  endfacet
  facet normal 0.950683 -1.64917e-18 0.310165
    outer loop
      vertex 105.995 10.5 2.74432
      vertex 105.995 6.5544 2.74432
      vertex 105.997 6.55733 2.73636
    endloop
  endfacet
  facet normal 0.950683 -1.64917e-18 0.310165
    outer loop
      vertex 106.385 10.5 1.54933
      vertex 105.995 10.5 2.74432
      vertex 106.385 7.11171 1.54933
    endloop
  endfacet
  facet normal 0.950683 -1.64917e-18 0.310165
    outer loop
      vertex 106.385 7.11171 1.54933
      vertex 105.995 10.5 2.74432
      vertex 105.997 6.55733 2.73636
    endloop
  endfacet
  facet normal 0 1 -2.22045e-16
    outer loop
      vertex 92.8645 10.5 5.56737
      vertex 93.9098 10.5 7.37785
      vertex 92.2185 10.5 3.57912
    endloop
  endfacet
  facet normal 0 1 -2.22045e-16
    outer loop
      vertex 92.2185 10.5 3.57912
      vertex 93.9098 10.5 7.37785
      vertex 95.3087 10.5 8.93145
    endloop
  endfacet
  facet normal 0 1 -2.22045e-16
    outer loop
      vertex 92.2185 10.5 3.57912
      vertex 95.3087 10.5 8.93145
      vertex 97 10.5 10.1603
    endloop
  endfacet
  facet normal 0 1 -2.22045e-16
    outer loop
      vertex 92.2185 10.5 3.57912
      vertex 97 10.5 10.1603
      vertex 98.9098 10.5 11.0106
    endloop
  endfacet
  facet normal 0 1 -2.22045e-16
    outer loop
      vertex 92.2185 10.5 3.57912
      vertex 98.9098 10.5 11.0106
      vertex 99.0955 10.5 11.05
    endloop
  endfacet
  facet normal 0 1 -2.22045e-16
    outer loop
      vertex 92.2185 10.5 3.57912
      vertex 99.0955 10.5 11.05
      vertex 99.7707 10.5 10.7435
    endloop
  endfacet
  facet normal 0 1 -2.22045e-16
    outer loop
      vertex 92.2185 10.5 3.57912
      vertex 99.7707 10.5 10.7435
      vertex 102.002 10.5 9.14032
    endloop
  endfacet
  facet normal 0 1 -2.22045e-16
    outer loop
      vertex 92.2185 10.5 3.57912
      vertex 102.002 10.5 9.14032
      vertex 103.487 10.5 7.37412
    endloop
  endfacet
  facet normal 0 1 -2.22045e-16
    outer loop
      vertex 92.2185 10.5 3.57912
      vertex 103.487 10.5 7.37412
      vertex 104.827 10.5 5.26909
    endloop
  endfacet
  facet normal 0 1 -2.22045e-16
    outer loop
      vertex 92.2185 10.5 3.57912
      vertex 104.827 10.5 5.26909
      vertex 105.995 10.5 2.74432
    endloop
  endfacet
  facet normal 0 1 -2.22045e-16
    outer loop
      vertex 92.2185 10.5 3.57912
      vertex 105.995 10.5 2.74432
      vertex 106.385 10.5 1.54933
    endloop
  endfacet
  facet normal 0 1 -2.22045e-16
    outer loop
      vertex 92.2185 10.5 3.57912
      vertex 106.385 10.5 1.54933
      vertex 92.0032 10.5 1.4698
    endloop
  endfacet
  facet normal 0 1 -2.22045e-16
    outer loop
      vertex 92.2185 10.5 3.57912
      vertex 92.0032 10.5 1.4698
      vertex 92 10.5 1.5
    endloop
  endfacet
  facet normal 0.994522 2.321e-17 0.104528
    outer loop
      vertex 92.0032 10.5 1.4698
      vertex 92.0032 13.5 1.4698
      vertex 92 13.5 1.5
    endloop
  endfacet
  facet normal 0.994522 2.321e-17 0.104528
    outer loop
      vertex 92 10.5 1.5
      vertex 92.0032 10.5 1.4698
      vertex 92 13.5 1.5
    endloop
  endfacet
  facet normal 0 -1 2.22045e-16
    outer loop
      vertex 92.0032 13.5 1.4698
      vertex 106.385 13.5 1.54933
      vertex 105.995 13.5 2.74432
    endloop
  endfacet
  facet normal 0 -1 2.22045e-16
    outer loop
      vertex 103.487 13.5 7.37412
      vertex 92.0032 13.5 1.4698
      vertex 104.827 13.5 5.26909
    endloop
  endfacet
  facet normal 0 -1 2.22045e-16
    outer loop
      vertex 104.827 13.5 5.26909
      vertex 92.0032 13.5 1.4698
      vertex 105.995 13.5 2.74432
    endloop
  endfacet
  facet normal 0 -1 2.22045e-16
    outer loop
      vertex 102.002 13.5 9.14032
      vertex 92.0032 13.5 1.4698
      vertex 103.487 13.5 7.37412
    endloop
  endfacet
  facet normal 0 -1 2.22045e-16
    outer loop
      vertex 99.7707 13.5 10.7435
      vertex 92.0032 13.5 1.4698
      vertex 102.002 13.5 9.14032
    endloop
  endfacet
  facet normal 0 -1 2.22045e-16
    outer loop
      vertex 99.0955 13.5 11.05
      vertex 92.0032 13.5 1.4698
      vertex 99.7707 13.5 10.7435
    endloop
  endfacet
  facet normal 0 -1 2.22045e-16
    outer loop
      vertex 98.9098 13.5 11.0106
      vertex 92.0032 13.5 1.4698
      vertex 99.0955 13.5 11.05
    endloop
  endfacet
  facet normal 0 -1 2.22045e-16
    outer loop
      vertex 97 13.5 10.1603
      vertex 92.0032 13.5 1.4698
      vertex 98.9098 13.5 11.0106
    endloop
  endfacet
  facet normal 0 -1 2.22045e-16
    outer loop
      vertex 95.3087 13.5 8.93145
      vertex 92.0032 13.5 1.4698
      vertex 97 13.5 10.1603
    endloop
  endfacet
  facet normal 0 -1 2.22045e-16
    outer loop
      vertex 93.9098 13.5 7.37785
      vertex 92.0032 13.5 1.4698
      vertex 95.3087 13.5 8.93145
    endloop
  endfacet
  facet normal 0 -1 2.22045e-16
    outer loop
      vertex 92.8645 13.5 5.56737
      vertex 92.0032 13.5 1.4698
      vertex 93.9098 13.5 7.37785
    endloop
  endfacet
  facet normal 0 -1 2.22045e-16
    outer loop
      vertex 92.2185 13.5 3.57912
      vertex 92.0032 13.5 1.4698
      vertex 92.8645 13.5 5.56737
    endloop
  endfacet
  facet normal 0 -1 2.22045e-16
    outer loop
      vertex 92 13.5 1.5
      vertex 92.0032 13.5 1.4698
      vertex 92.2185 13.5 3.57912
    endloop
  endfacet
  facet normal 0.950683 -1.64917e-18 0.310165
    outer loop
      vertex 105.995 50.1 2.74432
      vertex 105.995 13.5 2.74432
      vertex 106.385 13.5 1.54933
    endloop
  endfacet
  facet normal 0.950683 -1.64917e-18 0.310165
    outer loop
      vertex 106.385 50.1 1.54933
      vertex 105.995 50.1 2.74432
      vertex 106.385 13.5 1.54933
    endloop
  endfacet
  facet normal 0 1 -2.22045e-16
    outer loop
      vertex 92.8645 50.1 5.56737
      vertex 93.9098 50.1 7.37785
      vertex 92.2185 50.1 3.57912
    endloop
  endfacet
  facet normal 0 1 -2.22045e-16
    outer loop
      vertex 92.2185 50.1 3.57912
      vertex 93.9098 50.1 7.37785
      vertex 95.3087 50.1 8.93145
    endloop
  endfacet
  facet normal 0 1 -2.22045e-16
    outer loop
      vertex 92.2185 50.1 3.57912
      vertex 95.3087 50.1 8.93145
      vertex 97 50.1 10.1603
    endloop
  endfacet
  facet normal 0 1 -2.22045e-16
    outer loop
      vertex 92.2185 50.1 3.57912
      vertex 97 50.1 10.1603
      vertex 98.9098 50.1 11.0106
    endloop
  endfacet
  facet normal 0 1 -2.22045e-16
    outer loop
      vertex 92.2185 50.1 3.57912
      vertex 98.9098 50.1 11.0106
      vertex 99.0955 50.1 11.05
    endloop
  endfacet
  facet normal 0 1 -2.22045e-16
    outer loop
      vertex 92.2185 50.1 3.57912
      vertex 99.0955 50.1 11.05
      vertex 99.7707 50.1 10.7435
    endloop
  endfacet
  facet normal 0 1 -2.22045e-16
    outer loop
      vertex 92.2185 50.1 3.57912
      vertex 99.7707 50.1 10.7435
      vertex 102.002 50.1 9.14032
    endloop
  endfacet
  facet normal 0 1 -2.22045e-16
    outer loop
      vertex 92.2185 50.1 3.57912
      vertex 102.002 50.1 9.14032
      vertex 103.487 50.1 7.37412
    endloop
  endfacet
  facet normal 0 1 -2.22045e-16
    outer loop
      vertex 92.2185 50.1 3.57912
      vertex 103.487 50.1 7.37412
      vertex 104.827 50.1 5.26909
    endloop
  endfacet
  facet normal 0 1 -2.22045e-16
    outer loop
      vertex 92.2185 50.1 3.57912
      vertex 104.827 50.1 5.26909
      vertex 105.995 50.1 2.74432
    endloop
  endfacet
  facet normal 0 1 -2.22045e-16
    outer loop
      vertex 92.2185 50.1 3.57912
      vertex 105.995 50.1 2.74432
      vertex 106.385 50.1 1.54933
    endloop
  endfacet
  facet normal 0 1 -2.22045e-16
    outer loop
      vertex 92.2185 50.1 3.57912
      vertex 106.385 50.1 1.54933
      vertex 92.0032 50.1 1.4698
    endloop
  endfacet
  facet normal 0 1 -2.22045e-16
    outer loop
      vertex 92.2185 50.1 3.57912
      vertex 92.0032 50.1 1.4698
      vertex 92 50.1 1.5
    endloop
  endfacet
  facet normal 0.994522 2.321e-17 0.104528
    outer loop
      vertex 92.0032 50.1 1.4698
      vertex 92.0032 53.1 1.4698
      vertex 92 53.1 1.5
    endloop
  endfacet
  facet normal 0.994522 2.321e-17 0.104528
    outer loop
      vertex 92 50.1 1.5
      vertex 92.0032 50.1 1.4698
      vertex 92 53.1 1.5
    endloop
  endfacet
  facet normal 0 -1 2.22045e-16
    outer loop
      vertex 92.0032 53.1 1.4698
      vertex 106.385 53.1 1.54933
      vertex 105.995 53.1 2.74432
    endloop
  endfacet
  facet normal 0 -1 2.22045e-16
    outer loop
      vertex 103.487 53.1 7.37412
      vertex 92.0032 53.1 1.4698
      vertex 104.827 53.1 5.26909
    endloop
  endfacet
  facet normal 0 -1 2.22045e-16
    outer loop
      vertex 104.827 53.1 5.26909
      vertex 92.0032 53.1 1.4698
      vertex 105.995 53.1 2.74432
    endloop
  endfacet
  facet normal 0 -1 2.22045e-16
    outer loop
      vertex 102.002 53.1 9.14032
      vertex 92.0032 53.1 1.4698
      vertex 103.487 53.1 7.37412
    endloop
  endfacet
  facet normal 0 -1 2.22045e-16
    outer loop
      vertex 99.7707 53.1 10.7435
      vertex 92.0032 53.1 1.4698
      vertex 102.002 53.1 9.14032
    endloop
  endfacet
  facet normal 0 -1 2.22045e-16
    outer loop
      vertex 99.0955 53.1 11.05
      vertex 92.0032 53.1 1.4698
      vertex 99.7707 53.1 10.7435
    endloop
  endfacet
  facet normal 0 -1 2.22045e-16
    outer loop
      vertex 98.9098 53.1 11.0106
      vertex 92.0032 53.1 1.4698
      vertex 99.0955 53.1 11.05
    endloop
  endfacet
  facet normal 0 -1 2.22045e-16
    outer loop
      vertex 97 53.1 10.1603
      vertex 92.0032 53.1 1.4698
      vertex 98.9098 53.1 11.0106
    endloop
  endfacet
  facet normal 0 -1 2.22045e-16
    outer loop
      vertex 95.3087 53.1 8.93145
      vertex 92.0032 53.1 1.4698
      vertex 97 53.1 10.1603
    endloop
  endfacet
  facet normal 0 -1 2.22045e-16
    outer loop
      vertex 93.9098 53.1 7.37785
      vertex 92.0032 53.1 1.4698
      vertex 95.3087 53.1 8.93145
    endloop
  endfacet
  facet normal 0 -1 2.22045e-16
    outer loop
      vertex 92.8645 53.1 5.56737
      vertex 92.0032 53.1 1.4698
      vertex 93.9098 53.1 7.37785
    endloop
  endfacet
  facet normal 0 -1 2.22045e-16
    outer loop
      vertex 92.2185 53.1 3.57912
      vertex 92.0032 53.1 1.4698
      vertex 92.8645 53.1 5.56737
    endloop
  endfacet
  facet normal 0 -1 2.22045e-16
    outer loop
      vertex 92 53.1 1.5
      vertex 92.0032 53.1 1.4698
      vertex 92.2185 53.1 3.57912
    endloop
  endfacet
  facet normal 0.950683 -1.64917e-18 0.310165
    outer loop
      vertex 105.995 57.1917 2.74432
      vertex 105.995 53.1 2.74432
      vertex 106.385 53.1 1.54933
    endloop
  endfacet
  facet normal 0.950683 -1.64917e-18 0.310165
    outer loop
      vertex 106.045 57.1347 2.58924
      vertex 105.995 57.1917 2.74432
      vertex 106.385 56.642 1.54933
    endloop
  endfacet
  facet normal 0.950683 -1.64917e-18 0.310165
    outer loop
      vertex 106.385 56.642 1.54933
      vertex 105.995 57.1917 2.74432
      vertex 106.385 53.1 1.54933
    endloop
  endfacet
  facet normal 0.823592 0.567182 0
    outer loop
      vertex 106.385 56.642 1.54933
      vertex 106.045 57.1347 1.54746
      vertex 106.045 57.1347 2.58924
    endloop
  endfacet
  facet normal 0.747843 0.663875 0
    outer loop
      vertex 106.045 57.1347 1.54746
      vertex 105.033 58.2747 1.54186
      vertex 105.033 58.2747 4.8223
    endloop
  endfacet
  facet normal 0.747843 0.663875 0
    outer loop
      vertex 106.045 57.1347 2.58924
      vertex 106.045 57.1347 1.54746
      vertex 105.995 57.1917 2.74432
    endloop
  endfacet
  facet normal 0.747843 0.663875 0
    outer loop
      vertex 105.995 57.1917 2.74432
      vertex 106.045 57.1347 1.54746
      vertex 105.033 58.2747 4.8223
    endloop
  endfacet
  facet normal 0.695362 0.71866 0
    outer loop
      vertex 103.964 59.3093 1.53595
      vertex 103.964 59.3093 6.62474
      vertex 105.033 58.2747 1.54186
    endloop
  endfacet
  facet normal 0.695362 0.71866 0
    outer loop
      vertex 105.033 58.2747 1.54186
      vertex 103.964 59.3093 6.62474
      vertex 104.827 58.4747 5.26909
    endloop
  endfacet
  facet normal 0.695362 0.71866 0
    outer loop
      vertex 105.033 58.2747 1.54186
      vertex 104.827 58.4747 5.26909
      vertex 105.033 58.2747 4.8223
    endloop
  endfacet
  facet normal 0.570433 0.821344 0
    outer loop
      vertex 102.847 60.0853 1.52977
      vertex 102.847 60.0853 8.13569
      vertex 103.964 59.3093 1.53595
    endloop
  endfacet
  facet normal 0.570433 0.821344 0
    outer loop
      vertex 103.964 59.3093 1.53595
      vertex 102.847 60.0853 8.13569
      vertex 103.487 59.6405 7.37412
    endloop
  endfacet
  facet normal 0.570433 0.821344 0
    outer loop
      vertex 103.964 59.3093 1.53595
      vertex 103.487 59.6405 7.37412
      vertex 103.964 59.3093 6.62474
    endloop
  endfacet
  facet normal 0.277676 0.960675 0
    outer loop
      vertex 100.729 60.6973 1.51806
      vertex 100.729 60.6973 10.0547
      vertex 102.847 60.0853 1.52977
    endloop
  endfacet
  facet normal 0.277676 0.960675 0
    outer loop
      vertex 102.847 60.0853 1.52977
      vertex 100.729 60.6973 10.0547
      vertex 102.002 60.3295 9.14032
    endloop
  endfacet
  facet normal 0.277676 0.960675 0
    outer loop
      vertex 102.847 60.0853 1.52977
      vertex 102.002 60.3295 9.14032
      vertex 102.847 60.0853 8.13569
    endloop
  endfacet
  facet normal 0.0955262 0.995427 0
    outer loop
      vertex 98.284 60.932 1.50453
      vertex 98.284 60.932 11.3578
      vertex 100.729 60.6973 1.51806
    endloop
  endfacet
  facet normal 0.0955262 0.995427 0
    outer loop
      vertex 100.729 60.6973 1.51806
      vertex 98.284 60.932 11.3578
      vertex 98.3919 60.9216 11.3695
    endloop
  endfacet
  facet normal 0.0955262 0.995427 0
    outer loop
      vertex 100.729 60.6973 1.51806
      vertex 98.3919 60.9216 11.3695
      vertex 99.7707 60.7893 10.7435
    endloop
  endfacet
  facet normal 0.0955262 0.995427 0
    outer loop
      vertex 100.729 60.6973 1.51806
      vertex 99.7707 60.7893 10.7435
      vertex 100.729 60.6973 10.0547
    endloop
  endfacet
  facet normal 0.0381855 0.999271 0
    outer loop
      vertex 53.6573 62.6373 1.25773
      vertex 53.6573 62.6373 8.10994
      vertex 98.284 60.932 1.50453
    endloop
  endfacet
  facet normal 0.0381855 0.999271 0
    outer loop
      vertex 98.284 60.932 1.50453
      vertex 53.6573 62.6373 8.10994
      vertex 53.7969 62.632 8.12667
    endloop
  endfacet
  facet normal 0.0381855 0.999271 0
    outer loop
      vertex 98.284 60.932 1.50453
      vertex 53.7969 62.632 8.12667
      vertex 65.4857 62.1853 9.22
    endloop
  endfacet
  facet normal 0.0381855 0.999271 0
    outer loop
      vertex 98.284 60.932 1.50453
      vertex 65.4857 62.1853 9.22
      vertex 93.1898 61.1267 11.1373
    endloop
  endfacet
  facet normal 0.0381855 0.999271 0
    outer loop
      vertex 98.284 60.932 1.50453
      vertex 93.1898 61.1267 11.1373
      vertex 98.284 60.932 11.3578
    endloop
  endfacet
  facet normal 0.0372196 0.999307 0
    outer loop
      vertex 33.8965 63.3733 1.14844
      vertex 33.8965 63.3733 4.01067
      vertex 53.6573 62.6373 1.25773
    endloop
  endfacet
  facet normal 0.0372196 0.999307 0
    outer loop
      vertex 53.6573 62.6373 1.25773
      vertex 33.8965 63.3733 4.01067
      vertex 44.6361 62.9733 7.056
    endloop
  endfacet
  facet normal 0.0372196 0.999307 0
    outer loop
      vertex 53.6573 62.6373 1.25773
      vertex 44.6361 62.9733 7.056
      vertex 53.6573 62.6373 8.10994
    endloop
  endfacet
  facet normal 0 1 0
    outer loop
      vertex 10.0207 63.3733 1.036
      vertex 10.0207 63.3733 4.01067
      vertex 13.5658 63.3733 1.036
    endloop
  endfacet
  facet normal 0 1 0
    outer loop
      vertex 13.5658 63.3733 1.036
      vertex 10.0207 63.3733 4.01067
      vertex 33.8965 63.3733 4.01067
    endloop
  endfacet
  facet normal 0 1 0
    outer loop
      vertex 13.5658 63.3733 1.036
      vertex 33.8965 63.3733 4.01067
      vertex 33.8965 63.3733 1.14844
    endloop
  endfacet
  facet normal 0 0 -1
    outer loop
      vertex 20 59.8 6.5
      vertex 20 4 6.5
      vertex 5 59.8 6.5
    endloop
  endfacet
  facet normal 0 0 -1
    outer loop
      vertex 5 59.8 6.5
      vertex 20 4 6.5
      vertex 5 4 6.5
    endloop
  endfacet
  facet normal 0 0 -1
    outer loop
      vertex 90.6 59.8 11.5
      vertex 90.6 4 11.5
      vertex 20 59.8 11.5
    endloop
  endfacet
  facet normal 0 0 -1
    outer loop
      vertex 20 59.8 11.5
      vertex 90.6 4 11.5
      vertex 20 4 11.5
    endloop
  endfacet
  facet normal 1 0 0
    outer loop
      vertex 20 59.8 6.5
      vertex 20 59.8 11.5
      vertex 20 4 11.5
    endloop
  endfacet
  facet normal 1 0 0
    outer loop
      vertex 20 4 6.5
      vertex 20 59.8 6.5
      vertex 20 4 11.5
    endloop
  endfacet
  facet normal -0.126619 0.991951 0
    outer loop
      vertex 5.08 62.7427 1.03527
      vertex 5.08 62.7427 7.37987
      vertex 10.0207 63.3733 1.036
    endloop
  endfacet
  facet normal -0.126619 0.991951 0
    outer loop
      vertex 10.0207 63.3733 1.036
      vertex 5.08 62.7427 7.37987
      vertex 5.39878 62.7834 7.6519
    endloop
  endfacet
  facet normal -0.126619 0.991951 0
    outer loop
      vertex 10.0207 63.3733 1.036
      vertex 5.39878 62.7834 7.6519
      vertex 6.88707 62.9733 7.056
    endloop
  endfacet
  facet normal -0.126619 0.991951 0
    outer loop
      vertex 10.0207 63.3733 1.036
      vertex 6.88707 62.9733 7.056
      vertex 10.0207 63.3733 4.01067
    endloop
  endfacet
  facet normal -0.351577 0.936159 0
    outer loop
      vertex 4.17467 62.4027 1.03487
      vertex 4.17467 62.4027 6.60729
      vertex 5.08 62.7427 1.03527
    endloop
  endfacet
  facet normal -0.351577 0.936159 0
    outer loop
      vertex 5.08 62.7427 1.03527
      vertex 4.17467 62.4027 6.60729
      vertex 5.08 62.7427 7.37987
    endloop
  endfacet
  facet normal -0.537494 0.843268 0
    outer loop
      vertex 3.23333 61.8027 1.03417
      vertex 3.23333 61.8027 5.80399
      vertex 4.17467 62.4027 1.03487
    endloop
  endfacet
  facet normal -0.537494 0.843268 0
    outer loop
      vertex 4.17467 62.4027 1.03487
      vertex 3.23333 61.8027 5.80399
      vertex 4.17467 62.4027 6.60729
    endloop
  endfacet
  facet normal -0.855392 0.517982 0
    outer loop
      vertex 2.564 60.6973 1.03288
      vertex 2.564 60.6973 5.23281
      vertex 3.23333 61.8027 1.03417
    endloop
  endfacet
  facet normal -0.855392 0.517982 0
    outer loop
      vertex 3.23333 61.8027 1.03417
      vertex 2.564 60.6973 5.23281
      vertex 3.23333 61.8027 5.80399
    endloop
  endfacet
  facet normal -0.921213 0.38906 0
    outer loop
      vertex 1.89333 59.1093 1.03103
      vertex 1.89333 59.1093 4.60192
      vertex 2.564 60.6973 1.03288
    endloop
  endfacet
  facet normal -0.921213 0.38906 0
    outer loop
      vertex 2.564 60.6973 1.03288
      vertex 1.89333 59.1093 4.60192
      vertex 2.06287 59.5108 4.80516
    endloop
  endfacet
  facet normal -0.921213 0.38906 0
    outer loop
      vertex 2.564 60.6973 1.03288
      vertex 2.06287 59.5108 4.80516
      vertex 2.564 60.6973 5.23281
    endloop
  endfacet
  facet normal -0.989764 0.142714 0
    outer loop
      vertex 1.48133 56.252 1.02771
      vertex 1.48133 56.252 4.10802
      vertex 1.89333 59.1093 1.03103
    endloop
  endfacet
  facet normal -0.989764 0.142714 0
    outer loop
      vertex 1.89333 59.1093 1.03103
      vertex 1.48133 56.252 4.10802
      vertex 1.89333 59.1093 4.60192
    endloop
  endfacet
  facet normal 6.74443e-17 0.952754 0.303742
    outer loop
      vertex 5.39878 62.7834 7.6519
      vertex 5.95512 62.632 8.12667
      vertex 6.88707 62.9733 7.056
    endloop
  endfacet
  facet normal 6.74443e-17 0.952754 0.303742
    outer loop
      vertex 6.88707 62.9733 7.056
      vertex 5.95512 62.632 8.12667
      vertex 53.7969 62.632 8.12667
    endloop
  endfacet
  facet normal 6.74443e-17 0.952754 0.303742
    outer loop
      vertex 6.88707 62.9733 7.056
      vertex 53.7969 62.632 8.12667
      vertex 53.6573 62.6373 8.10994
    endloop
  endfacet
  facet normal 6.74443e-17 0.952754 0.303742
    outer loop
      vertex 6.88707 62.9733 7.056
      vertex 53.6573 62.6373 8.10994
      vertex 44.6361 62.9733 7.056
    endloop
  endfacet
  facet normal 8.39758e-17 0.925727 0.378193
    outer loop
      vertex 5.95512 62.632 8.12667
      vertex 6.69524 62.374 8.75825
      vertex 53.7969 62.632 8.12667
    endloop
  endfacet
  facet normal 8.39758e-17 0.925727 0.378193
    outer loop
      vertex 53.7969 62.632 8.12667
      vertex 6.69524 62.374 8.75825
      vertex 7.69114 62.1853 9.22
    endloop
  endfacet
  facet normal 8.39758e-17 0.925727 0.378193
    outer loop
      vertex 53.7969 62.632 8.12667
      vertex 7.69114 62.1853 9.22
      vertex 65.4857 62.1853 9.22
    endloop
  endfacet
  facet normal -0.420636 7.29688e-19 0.907229
    outer loop
      vertex 6.69524 62.374 8.75825
      vertex 6.69524 1.16603 8.75825
      vertex 7.69114 1.35467 9.22
    endloop
  endfacet
  facet normal -0.420636 7.29688e-19 0.907229
    outer loop
      vertex 10.2875 61.5206 10.4238
      vertex 6.69524 62.374 8.75825
      vertex 10.2875 2.00819 10.4238
    endloop
  endfacet
  facet normal -0.420636 7.29688e-19 0.907229
    outer loop
      vertex 10.2875 2.00819 10.4238
      vertex 6.69524 62.374 8.75825
      vertex 7.69114 1.35467 9.22
    endloop
  endfacet
  facet normal -0.420636 7.29688e-19 0.907229
    outer loop
      vertex 7.69114 62.1853 9.22
      vertex 6.69524 62.374 8.75825
      vertex 10.2875 61.5206 10.4238
    endloop
  endfacet
  facet normal 8.39758e-17 -0.925727 0.378193
    outer loop
      vertex 6.69524 1.16603 8.75825
      vertex 5.95512 0.908 8.12667
      vertex 49.6846 0.908 8.12667
    endloop
  endfacet
  facet normal 8.39758e-17 -0.925727 0.378193
    outer loop
      vertex 61.4774 1.35467 9.22
      vertex 6.69524 1.16603 8.75825
      vertex 53.6227 1.05467 8.48567
    endloop
  endfacet
  facet normal 8.39758e-17 -0.925727 0.378193
    outer loop
      vertex 53.6227 1.05467 8.48567
      vertex 6.69524 1.16603 8.75825
      vertex 49.6846 0.908 8.12667
    endloop
  endfacet
  facet normal 8.39758e-17 -0.925727 0.378193
    outer loop
      vertex 7.69114 1.35467 9.22
      vertex 6.69524 1.16603 8.75825
      vertex 61.4774 1.35467 9.22
    endloop
  endfacet
  facet normal 1.05939e-16 -0.878846 0.477105
    outer loop
      vertex 10.2875 2.00819 10.4238
      vertex 7.69114 1.35467 9.22
      vertex 61.4774 1.35467 9.22
    endloop
  endfacet
  facet normal 1.05939e-16 -0.878846 0.477105
    outer loop
      vertex 12.2775 2.40133 11.148
      vertex 10.2875 2.00819 10.4238
      vertex 88.8815 2.40133 11.148
    endloop
  endfacet
  facet normal 1.05939e-16 -0.878846 0.477105
    outer loop
      vertex 88.8815 2.40133 11.148
      vertex 10.2875 2.00819 10.4238
      vertex 61.4774 1.35467 9.22
    endloop
  endfacet
  facet normal 1.05939e-16 -0.878846 0.477105
    outer loop
      vertex 10.5013 2.06408 10.5268
      vertex 10.2875 2.00819 10.4238
      vertex 12.2775 2.40133 11.148
    endloop
  endfacet
  facet normal 1.05939e-16 -0.878846 0.477105
    outer loop
      vertex 10.335 2.0338 10.471
      vertex 10.2875 2.00819 10.4238
      vertex 10.5013 2.06408 10.5268
    endloop
  endfacet
  facet normal 1.49474e-16 -0.739487 0.673171
    outer loop
      vertex 14.5305 3.11867 11.936
      vertex 12.2775 2.40133 11.148
      vertex 88.8815 2.40133 11.148
    endloop
  endfacet
  facet normal 1.49474e-16 -0.739487 0.673171
    outer loop
      vertex 97.144 3.11867 11.936
      vertex 14.5305 3.11867 11.936
      vertex 98.0339 2.7509 11.532
    endloop
  endfacet
  facet normal 1.49474e-16 -0.739487 0.673171
    outer loop
      vertex 98.0339 2.7509 11.532
      vertex 14.5305 3.11867 11.936
      vertex 88.8815 2.40133 11.148
    endloop
  endfacet
  facet normal 0.413383 -7.17105e-19 0.910557
    outer loop
      vertex 96.7251 60.2156 12.1262
      vertex 96.7251 3.32442 12.1262
      vertex 97.144 3.11867 11.936
    endloop
  endfacet
  facet normal 0.413383 -7.17105e-19 0.910557
    outer loop
      vertex 98.2373 2.75867 11.4396
      vertex 96.7251 60.2156 12.1262
      vertex 98.0339 2.7509 11.532
    endloop
  endfacet
  facet normal 0.413383 -7.17105e-19 0.910557
    outer loop
      vertex 98.0339 2.7509 11.532
      vertex 96.7251 60.2156 12.1262
      vertex 97.144 3.11867 11.936
    endloop
  endfacet
  facet normal 0.413383 -7.17105e-19 0.910557
    outer loop
      vertex 99.0955 10.5 11.05
      vertex 96.7251 60.2156 12.1262
      vertex 98.2373 2.75867 11.4396
    endloop
  endfacet
  facet normal 0.413383 -7.17105e-19 0.910557
    outer loop
      vertex 99.7707 2.90593 10.7435
      vertex 99.0955 10.5 11.05
      vertex 98.2373 2.75867 11.4396
    endloop
  endfacet
  facet normal 0.413383 -7.17105e-19 0.910557
    outer loop
      vertex 99.0955 13.5 11.05
      vertex 96.7251 60.2156 12.1262
      vertex 99.0955 10.5 11.05
    endloop
  endfacet
  facet normal 0.413383 -7.17105e-19 0.910557
    outer loop
      vertex 99.0955 13.5 11.05
      vertex 99.7707 13.5 10.7435
      vertex 96.7251 60.2156 12.1262
    endloop
  endfacet
  facet normal 0.413383 -7.17105e-19 0.910557
    outer loop
      vertex 99.0955 50.1 11.05
      vertex 96.7251 60.2156 12.1262
      vertex 99.7707 13.5 10.7435
    endloop
  endfacet
  facet normal 0.413383 -7.17105e-19 0.910557
    outer loop
      vertex 99.7707 50.1 10.7435
      vertex 99.0955 50.1 11.05
      vertex 99.7707 13.5 10.7435
    endloop
  endfacet
  facet normal 0.413383 -7.17105e-19 0.910557
    outer loop
      vertex 99.7707 53.1 10.7435
      vertex 96.7251 60.2156 12.1262
      vertex 99.0955 53.1 11.05
    endloop
  endfacet
  facet normal 0.413383 -7.17105e-19 0.910557
    outer loop
      vertex 99.7707 60.7893 10.7435
      vertex 96.7251 60.2156 12.1262
      vertex 99.7707 53.1 10.7435
    endloop
  endfacet
  facet normal 0.413383 -7.17105e-19 0.910557
    outer loop
      vertex 98.3919 60.9216 11.3695
      vertex 96.7251 60.2156 12.1262
      vertex 99.7707 60.7893 10.7435
    endloop
  endfacet
  facet normal 0.413383 -7.17105e-19 0.910557
    outer loop
      vertex 97.144 60.4213 11.936
      vertex 96.7251 60.2156 12.1262
      vertex 98.3919 60.9216 11.3695
    endloop
  endfacet
  facet normal 0.413383 -7.17105e-19 0.910557
    outer loop
      vertex 99.0955 50.1 11.05
      vertex 99.0955 53.1 11.05
      vertex 96.7251 60.2156 12.1262
    endloop
  endfacet
  facet normal 0.413383 -7.17105e-19 0.910557
    outer loop
      vertex 99.7707 10.5 10.7435
      vertex 99.0955 10.5 11.05
      vertex 99.7707 2.90593 10.7435
    endloop
  endfacet
  facet normal 0.583547 -1.01229e-18 0.812079
    outer loop
      vertex 99.7707 10.5 10.7435
      vertex 99.7707 2.90593 10.7435
      vertex 100.695 2.99467 10.0796
    endloop
  endfacet
  facet normal 0.583547 -1.01229e-18 0.812079
    outer loop
      vertex 102.002 10.5 9.14032
      vertex 99.7707 10.5 10.7435
      vertex 102.002 3.37189 9.14032
    endloop
  endfacet
  facet normal 0.583547 -1.01229e-18 0.812079
    outer loop
      vertex 102.002 3.37189 9.14032
      vertex 99.7707 10.5 10.7435
      vertex 100.695 2.99467 10.0796
    endloop
  endfacet
  facet normal 0.765321 -1.32762e-18 0.643649
    outer loop
      vertex 102.002 10.5 9.14032
      vertex 102.002 3.37189 9.14032
      vertex 102.811 3.60533 8.17849
    endloop
  endfacet
  facet normal 0.765321 -1.32762e-18 0.643649
    outer loop
      vertex 103.487 10.5 7.37412
      vertex 102.002 10.5 9.14032
      vertex 103.487 4.07373 7.37412
    endloop
  endfacet
  facet normal 0.765321 -1.32762e-18 0.643649
    outer loop
      vertex 103.487 4.07373 7.37412
      vertex 102.002 10.5 9.14032
      vertex 102.811 3.60533 8.17849
    endloop
  endfacet
  facet normal 0.843679 -1.46355e-18 0.536847
    outer loop
      vertex 103.487 10.5 7.37412
      vertex 103.487 4.07373 7.37412
      vertex 103.916 4.37067 6.70017
    endloop
  endfacet
  facet normal 0.843679 -1.46355e-18 0.536847
    outer loop
      vertex 104.827 10.5 5.26909
      vertex 103.487 10.5 7.37412
      vertex 104.827 5.26088 5.26909
    endloop
  endfacet
  facet normal 0.843679 -1.46355e-18 0.536847
    outer loop
      vertex 104.827 5.26088 5.26909
      vertex 103.487 10.5 7.37412
      vertex 103.916 4.37067 6.70017
    endloop
  endfacet
  facet normal 0.907571 -1.57438e-18 0.419898
    outer loop
      vertex 104.827 10.5 5.26909
      vertex 104.827 5.26088 5.26909
      vertex 104.987 5.41733 4.92317
    endloop
  endfacet
  facet normal 0.907571 -1.57438e-18 0.419898
    outer loop
      vertex 105.995 10.5 2.74432
      vertex 104.827 10.5 5.26909
      vertex 105.995 6.5544 2.74432
    endloop
  endfacet
  facet normal 0.907571 -1.57438e-18 0.419898
    outer loop
      vertex 105.995 6.5544 2.74432
      vertex 104.827 10.5 5.26909
      vertex 104.987 5.41733 4.92317
    endloop
  endfacet
  facet normal 0.951057 -6.86155e-17 -0.309017
    outer loop
      vertex 92.2185 13.5 3.57912
      vertex 92.8645 13.5 5.56737
      vertex 92.8645 10.5 5.56737
    endloop
  endfacet
  facet normal 0.951057 -6.86155e-17 -0.309017
    outer loop
      vertex 92.2185 10.5 3.57912
      vertex 92.2185 13.5 3.57912
      vertex 92.8645 10.5 5.56737
    endloop
  endfacet
  facet normal 0.994522 -2.321e-17 -0.104528
    outer loop
      vertex 92 13.5 1.5
      vertex 92.2185 13.5 3.57912
      vertex 92.2185 10.5 3.57912
    endloop
  endfacet
  facet normal 0.994522 -2.321e-17 -0.104528
    outer loop
      vertex 92 10.5 1.5
      vertex 92 13.5 1.5
      vertex 92.2185 10.5 3.57912
    endloop
  endfacet
  facet normal 0.207912 -2.17192e-16 -0.978148
    outer loop
      vertex 99.0955 13.5 11.05
      vertex 99.0955 10.5 11.05
      vertex 98.9098 13.5 11.0106
    endloop
  endfacet
  facet normal 0.207912 -2.17192e-16 -0.978148
    outer loop
      vertex 98.9098 13.5 11.0106
      vertex 99.0955 10.5 11.05
      vertex 98.9098 10.5 11.0106
    endloop
  endfacet
  facet normal 0.406737 -2.02848e-16 -0.913545
    outer loop
      vertex 98.9098 13.5 11.0106
      vertex 98.9098 10.5 11.0106
      vertex 97 13.5 10.1603
    endloop
  endfacet
  facet normal 0.406737 -2.02848e-16 -0.913545
    outer loop
      vertex 97 13.5 10.1603
      vertex 98.9098 10.5 11.0106
      vertex 97 10.5 10.1603
    endloop
  endfacet
  facet normal 0.587785 -1.79638e-16 -0.809017
    outer loop
      vertex 97 13.5 10.1603
      vertex 97 10.5 10.1603
      vertex 95.3087 13.5 8.93145
    endloop
  endfacet
  facet normal 0.587785 -1.79638e-16 -0.809017
    outer loop
      vertex 95.3087 13.5 8.93145
      vertex 97 10.5 10.1603
      vertex 95.3087 10.5 8.93145
    endloop
  endfacet
  facet normal 0.743145 -1.48577e-16 -0.669131
    outer loop
      vertex 93.9098 13.5 7.37785
      vertex 95.3087 13.5 8.93145
      vertex 95.3087 10.5 8.93145
    endloop
  endfacet
  facet normal 0.743145 -1.48577e-16 -0.669131
    outer loop
      vertex 93.9098 10.5 7.37785
      vertex 93.9098 13.5 7.37785
      vertex 95.3087 10.5 8.93145
    endloop
  endfacet
  facet normal 0.866025 -1.11022e-16 -0.5
    outer loop
      vertex 92.8645 13.5 5.56737
      vertex 93.9098 13.5 7.37785
      vertex 93.9098 10.5 7.37785
    endloop
  endfacet
  facet normal 0.866025 -1.11022e-16 -0.5
    outer loop
      vertex 92.8645 10.5 5.56737
      vertex 92.8645 13.5 5.56737
      vertex 93.9098 10.5 7.37785
    endloop
  endfacet
  facet normal 0.583547 -1.01229e-18 0.812079
    outer loop
      vertex 99.7707 50.1 10.7435
      vertex 99.7707 13.5 10.7435
      vertex 102.002 13.5 9.14032
    endloop
  endfacet
  facet normal 0.583547 -1.01229e-18 0.812079
    outer loop
      vertex 102.002 50.1 9.14032
      vertex 99.7707 50.1 10.7435
      vertex 102.002 13.5 9.14032
    endloop
  endfacet
  facet normal 0.765321 -1.32762e-18 0.643649
    outer loop
      vertex 102.002 50.1 9.14032
      vertex 102.002 13.5 9.14032
      vertex 103.487 13.5 7.37412
    endloop
  endfacet
  facet normal 0.765321 -1.32762e-18 0.643649
    outer loop
      vertex 103.487 50.1 7.37412
      vertex 102.002 50.1 9.14032
      vertex 103.487 13.5 7.37412
    endloop
  endfacet
  facet normal 0.843679 -1.46355e-18 0.536847
    outer loop
      vertex 103.487 50.1 7.37412
      vertex 103.487 13.5 7.37412
      vertex 104.827 13.5 5.26909
    endloop
  endfacet
  facet normal 0.843679 -1.46355e-18 0.536847
    outer loop
      vertex 104.827 50.1 5.26909
      vertex 103.487 50.1 7.37412
      vertex 104.827 13.5 5.26909
    endloop
  endfacet
  facet normal 0.907571 -1.57438e-18 0.419898
    outer loop
      vertex 104.827 50.1 5.26909
      vertex 104.827 13.5 5.26909
      vertex 105.995 13.5 2.74432
    endloop
  endfacet
  facet normal 0.907571 -1.57438e-18 0.419898
    outer loop
      vertex 105.995 50.1 2.74432
      vertex 104.827 50.1 5.26909
      vertex 105.995 13.5 2.74432
    endloop
  endfacet
  facet normal 0.951057 -6.86155e-17 -0.309017
    outer loop
      vertex 92.2185 53.1 3.57912
      vertex 92.8645 53.1 5.56737
      vertex 92.8645 50.1 5.56737
    endloop
  endfacet
  facet normal 0.951057 -6.86155e-17 -0.309017
    outer loop
      vertex 92.2185 50.1 3.57912
      vertex 92.2185 53.1 3.57912
      vertex 92.8645 50.1 5.56737
    endloop
  endfacet
  facet normal 0.994522 -2.321e-17 -0.104528
    outer loop
      vertex 92 53.1 1.5
      vertex 92.2185 53.1 3.57912
      vertex 92.2185 50.1 3.57912
    endloop
  endfacet
  facet normal 0.994522 -2.321e-17 -0.104528
    outer loop
      vertex 92 50.1 1.5
      vertex 92 53.1 1.5
      vertex 92.2185 50.1 3.57912
    endloop
  endfacet
  facet normal 0.207912 -2.17192e-16 -0.978148
    outer loop
      vertex 99.0955 53.1 11.05
      vertex 99.0955 50.1 11.05
      vertex 98.9098 53.1 11.0106
    endloop
  endfacet
  facet normal 0.207912 -2.17192e-16 -0.978148
    outer loop
      vertex 98.9098 53.1 11.0106
      vertex 99.0955 50.1 11.05
      vertex 98.9098 50.1 11.0106
    endloop
  endfacet
  facet normal 0.406737 -2.02848e-16 -0.913545
    outer loop
      vertex 98.9098 53.1 11.0106
      vertex 98.9098 50.1 11.0106
      vertex 97 53.1 10.1603
    endloop
  endfacet
  facet normal 0.406737 -2.02848e-16 -0.913545
    outer loop
      vertex 97 53.1 10.1603
      vertex 98.9098 50.1 11.0106
      vertex 97 50.1 10.1603
    endloop
  endfacet
  facet normal 0.587785 -1.79638e-16 -0.809017
    outer loop
      vertex 97 53.1 10.1603
      vertex 97 50.1 10.1603
      vertex 95.3087 53.1 8.93145
    endloop
  endfacet
  facet normal 0.587785 -1.79638e-16 -0.809017
    outer loop
      vertex 95.3087 53.1 8.93145
      vertex 97 50.1 10.1603
      vertex 95.3087 50.1 8.93145
    endloop
  endfacet
  facet normal 0.743145 -1.48577e-16 -0.669131
    outer loop
      vertex 93.9098 53.1 7.37785
      vertex 95.3087 53.1 8.93145
      vertex 95.3087 50.1 8.93145
    endloop
  endfacet
  facet normal 0.743145 -1.48577e-16 -0.669131
    outer loop
      vertex 93.9098 50.1 7.37785
      vertex 93.9098 53.1 7.37785
      vertex 95.3087 50.1 8.93145
    endloop
  endfacet
  facet normal 0.866025 -1.11022e-16 -0.5
    outer loop
      vertex 92.8645 53.1 5.56737
      vertex 93.9098 53.1 7.37785
      vertex 93.9098 50.1 7.37785
    endloop
  endfacet
  facet normal 0.866025 -1.11022e-16 -0.5
    outer loop
      vertex 92.8645 50.1 5.56737
      vertex 92.8645 53.1 5.56737
      vertex 93.9098 50.1 7.37785
    endloop
  endfacet
  facet normal 0.583547 -1.01229e-18 0.812079
    outer loop
      vertex 99.7707 60.7893 10.7435
      vertex 99.7707 53.1 10.7435
      vertex 102.002 53.1 9.14032
    endloop
  endfacet
  facet normal 0.583547 -1.01229e-18 0.812079
    outer loop
      vertex 100.729 60.6973 10.0547
      vertex 99.7707 60.7893 10.7435
      vertex 102.002 60.3295 9.14032
    endloop
  endfacet
  facet normal 0.583547 -1.01229e-18 0.812079
    outer loop
      vertex 102.002 60.3295 9.14032
      vertex 99.7707 60.7893 10.7435
      vertex 102.002 53.1 9.14032
    endloop
  endfacet
  facet normal 0.765321 -1.32762e-18 0.643649
    outer loop
      vertex 102.002 60.3295 9.14032
      vertex 102.002 53.1 9.14032
      vertex 103.487 53.1 7.37412
    endloop
  endfacet
  facet normal 0.765321 -1.32762e-18 0.643649
    outer loop
      vertex 102.847 60.0853 8.13569
      vertex 102.002 60.3295 9.14032
      vertex 103.487 59.6405 7.37412
    endloop
  endfacet
  facet normal 0.765321 -1.32762e-18 0.643649
    outer loop
      vertex 103.487 59.6405 7.37412
      vertex 102.002 60.3295 9.14032
      vertex 103.487 53.1 7.37412
    endloop
  endfacet
  facet normal 0.843679 -1.46355e-18 0.536847
    outer loop
      vertex 103.487 59.6405 7.37412
      vertex 103.487 53.1 7.37412
      vertex 104.827 53.1 5.26909
    endloop
  endfacet
  facet normal 0.843679 -1.46355e-18 0.536847
    outer loop
      vertex 103.964 59.3093 6.62474
      vertex 103.487 59.6405 7.37412
      vertex 104.827 58.4747 5.26909
    endloop
  endfacet
  facet normal 0.843679 -1.46355e-18 0.536847
    outer loop
      vertex 104.827 58.4747 5.26909
      vertex 103.487 59.6405 7.37412
      vertex 104.827 53.1 5.26909
    endloop
  endfacet
  facet normal 0.907571 -1.57438e-18 0.419898
    outer loop
      vertex 104.827 58.4747 5.26909
      vertex 104.827 53.1 5.26909
      vertex 105.995 53.1 2.74432
    endloop
  endfacet
  facet normal 0.907571 -1.57438e-18 0.419898
    outer loop
      vertex 105.033 58.2747 4.8223
      vertex 104.827 58.4747 5.26909
      vertex 105.995 57.1917 2.74432
    endloop
  endfacet
  facet normal 0.907571 -1.57438e-18 0.419898
    outer loop
      vertex 105.995 57.1917 2.74432
      vertex 104.827 58.4747 5.26909
      vertex 105.995 53.1 2.74432
    endloop
  endfacet
  facet normal 1.46983e-16 0.749546 0.661953
    outer loop
      vertex 12.247 61.1267 11.1373
      vertex 14.5305 60.4213 11.936
      vertex 93.1898 61.1267 11.1373
    endloop
  endfacet
  facet normal 1.46983e-16 0.749546 0.661953
    outer loop
      vertex 93.1898 61.1267 11.1373
      vertex 14.5305 60.4213 11.936
      vertex 97.144 60.4213 11.936
    endloop
  endfacet
  facet normal 1.46983e-16 0.749546 0.661953
    outer loop
      vertex 93.1898 61.1267 11.1373
      vertex 97.144 60.4213 11.936
      vertex 98.3919 60.9216 11.3695
    endloop
  endfacet
  facet normal 1.46983e-16 0.749546 0.661953
    outer loop
      vertex 93.1898 61.1267 11.1373
      vertex 98.3919 60.9216 11.3695
      vertex 98.284 60.932 11.3578
    endloop
  endfacet
  facet normal 1.07329e-16 0.875418 0.483367
    outer loop
      vertex 7.69114 62.1853 9.22
      vertex 10.2875 61.5206 10.4238
      vertex 65.4857 62.1853 9.22
    endloop
  endfacet
  facet normal 1.07329e-16 0.875418 0.483367
    outer loop
      vertex 65.4857 62.1853 9.22
      vertex 10.2875 61.5206 10.4238
      vertex 10.335 61.4946 10.471
    endloop
  endfacet
  facet normal 1.07329e-16 0.875418 0.483367
    outer loop
      vertex 65.4857 62.1853 9.22
      vertex 10.335 61.4946 10.471
      vertex 10.5013 61.4638 10.5268
    endloop
  endfacet
  facet normal 1.07329e-16 0.875418 0.483367
    outer loop
      vertex 65.4857 62.1853 9.22
      vertex 10.5013 61.4638 10.5268
      vertex 12.247 61.1267 11.1373
    endloop
  endfacet
  facet normal 1.07329e-16 0.875418 0.483367
    outer loop
      vertex 65.4857 62.1853 9.22
      vertex 12.247 61.1267 11.1373
      vertex 93.1898 61.1267 11.1373
    endloop
  endfacet
  facet normal 2.89169e-17 0.991484 0.13023
    outer loop
      vertex 6.88707 62.9733 7.056
      vertex 44.6361 62.9733 7.056
      vertex 10.0207 63.3733 4.01067
    endloop
  endfacet
  facet normal 2.89169e-17 0.991484 0.13023
    outer loop
      vertex 10.0207 63.3733 4.01067
      vertex 44.6361 62.9733 7.056
      vertex 33.8965 63.3733 4.01067
    endloop
  endfacet
  facet normal -0.70472 1.22249e-18 0.709486
    outer loop
      vertex 10.2875 61.5206 10.4238
      vertex 10.2875 2.00819 10.4238
      vertex 10.335 2.0338 10.471
    endloop
  endfacet
  facet normal -0.70472 1.22249e-18 0.709486
    outer loop
      vertex 10.335 61.4946 10.471
      vertex 10.2875 61.5206 10.4238
      vertex 10.335 2.0338 10.471
    endloop
  endfacet
  facet normal -0.317911 5.51488e-19 0.94812
    outer loop
      vertex 10.335 61.4946 10.471
      vertex 10.335 2.0338 10.471
      vertex 10.5013 2.06408 10.5268
    endloop
  endfacet
  facet normal -0.317911 5.51488e-19 0.94812
    outer loop
      vertex 10.5013 61.4638 10.5268
      vertex 10.335 61.4946 10.471
      vertex 10.5013 2.06408 10.5268
    endloop
  endfacet
  facet normal -0.330147 5.72713e-19 0.94393
    outer loop
      vertex 10.5013 61.4638 10.5268
      vertex 10.5013 2.06408 10.5268
      vertex 12.2775 2.40133 11.148
    endloop
  endfacet
  facet normal -0.330147 5.72713e-19 0.94393
    outer loop
      vertex 15.6254 3.53293 12.3189
      vertex 10.5013 61.4638 10.5268
      vertex 14.5305 3.11867 11.936
    endloop
  endfacet
  facet normal -0.330147 5.72713e-19 0.94393
    outer loop
      vertex 14.5305 3.11867 11.936
      vertex 10.5013 61.4638 10.5268
      vertex 12.2775 2.40133 11.148
    endloop
  endfacet
  facet normal -0.330147 5.72713e-19 0.94393
    outer loop
      vertex 15.6254 60.0071 12.3189
      vertex 10.5013 61.4638 10.5268
      vertex 15.6254 3.53293 12.3189
    endloop
  endfacet
  facet normal -0.330147 5.72713e-19 0.94393
    outer loop
      vertex 14.5305 60.4213 11.936
      vertex 10.5013 61.4638 10.5268
      vertex 15.6254 60.0071 12.3189
    endloop
  endfacet
  facet normal -0.330147 5.72713e-19 0.94393
    outer loop
      vertex 12.247 61.1267 11.1373
      vertex 10.5013 61.4638 10.5268
      vertex 14.5305 60.4213 11.936
    endloop
  endfacet
  facet normal 1.63052e-16 -0.678804 0.73432
    outer loop
      vertex 15.6254 3.53293 12.3189
      vertex 14.5305 3.11867 11.936
      vertex 97.144 3.11867 11.936
    endloop
  endfacet
  facet normal 1.63052e-16 -0.678804 0.73432
    outer loop
      vertex 95.3275 3.89467 12.6533
      vertex 15.6254 3.53293 12.3189
      vertex 96.7251 3.32442 12.1262
    endloop
  endfacet
  facet normal 1.63052e-16 -0.678804 0.73432
    outer loop
      vertex 96.7251 3.32442 12.1262
      vertex 15.6254 3.53293 12.3189
      vertex 97.144 3.11867 11.936
    endloop
  endfacet
  facet normal 1.63052e-16 -0.678804 0.73432
    outer loop
      vertex 17.0437 3.89467 12.6533
      vertex 15.6254 3.53293 12.3189
      vertex 95.3275 3.89467 12.6533
    endloop
  endfacet
  facet normal 0.352925 -6.12226e-19 0.935652
    outer loop
      vertex 94.7975 59.246 12.8533
      vertex 94.7975 4.29401 12.8533
      vertex 95.3275 3.89467 12.6533
    endloop
  endfacet
  facet normal 0.352925 -6.12226e-19 0.935652
    outer loop
      vertex 96.7251 60.2156 12.1262
      vertex 94.7975 59.246 12.8533
      vertex 96.7251 3.32442 12.1262
    endloop
  endfacet
  facet normal 0.352925 -6.12226e-19 0.935652
    outer loop
      vertex 96.7251 3.32442 12.1262
      vertex 94.7975 59.246 12.8533
      vertex 95.3275 3.89467 12.6533
    endloop
  endfacet
  facet normal 0.352925 -6.12226e-19 0.935652
    outer loop
      vertex 95.3275 59.6453 12.6533
      vertex 94.7975 59.246 12.8533
      vertex 96.7251 60.2156 12.1262
    endloop
  endfacet
  facet normal 1.63052e-16 0.678804 0.73432
    outer loop
      vertex 97.144 60.4213 11.936
      vertex 14.5305 60.4213 11.936
      vertex 15.6254 60.0071 12.3189
    endloop
  endfacet
  facet normal 1.63052e-16 0.678804 0.73432
    outer loop
      vertex 95.3275 59.6453 12.6533
      vertex 97.144 60.4213 11.936
      vertex 17.0437 59.6453 12.6533
    endloop
  endfacet
  facet normal 1.63052e-16 0.678804 0.73432
    outer loop
      vertex 17.0437 59.6453 12.6533
      vertex 97.144 60.4213 11.936
      vertex 15.6254 60.0071 12.3189
    endloop
  endfacet
  facet normal 1.63052e-16 0.678804 0.73432
    outer loop
      vertex 96.7251 60.2156 12.1262
      vertex 97.144 60.4213 11.936
      vertex 95.3275 59.6453 12.6533
    endloop
  endfacet
  facet normal -0.229477 3.9808e-19 0.973314
    outer loop
      vertex 15.6254 60.0071 12.3189
      vertex 15.6254 3.53293 12.3189
      vertex 17.0437 3.89467 12.6533
    endloop
  endfacet
  facet normal -0.229477 3.9808e-19 0.973314
    outer loop
      vertex 20.4071 23.4469 13.4463
      vertex 15.6254 60.0071 12.3189
      vertex 19.0909 4.85867 13.136
    endloop
  endfacet
  facet normal -0.229477 3.9808e-19 0.973314
    outer loop
      vertex 19.0909 4.85867 13.136
      vertex 15.6254 60.0071 12.3189
      vertex 17.0437 3.89467 12.6533
    endloop
  endfacet
  facet normal -0.229477 3.9808e-19 0.973314
    outer loop
      vertex 20.4071 39.6868 13.4463
      vertex 15.6254 60.0071 12.3189
      vertex 20.4071 23.4469 13.4463
    endloop
  endfacet
  facet normal -0.229477 3.9808e-19 0.973314
    outer loop
      vertex 19.0909 58.6813 13.136
      vertex 15.6254 60.0071 12.3189
      vertex 20.4071 39.6868 13.4463
    endloop
  endfacet
  facet normal -0.229477 3.9808e-19 0.973314
    outer loop
      vertex 17.0437 59.6453 12.6533
      vertex 15.6254 60.0071 12.3189
      vertex 19.0909 58.6813 13.136
    endloop
  endfacet
  facet normal 1.98548e-16 -0.447708 0.89418
    outer loop
      vertex 19.0909 4.85867 13.136
      vertex 17.0437 3.89467 12.6533
      vertex 95.3275 3.89467 12.6533
    endloop
  endfacet
  facet normal 1.98548e-16 -0.447708 0.89418
    outer loop
      vertex 71.7681 4.85867 13.136
      vertex 19.0909 4.85867 13.136
      vertex 94.7975 4.29401 12.8533
    endloop
  endfacet
  facet normal 1.98548e-16 -0.447708 0.89418
    outer loop
      vertex 94.7975 4.29401 12.8533
      vertex 19.0909 4.85867 13.136
      vertex 95.3275 3.89467 12.6533
    endloop
  endfacet
  facet normal 0.0122756 -2.12947e-20 0.999925
    outer loop
      vertex 38.145 33.4161 13.5488
      vertex 38.145 29.5834 13.5488
      vertex 71.7681 4.85867 13.136
    endloop
  endfacet
  facet normal 0.0122756 -2.12947e-20 0.999925
    outer loop
      vertex 94.7975 59.246 12.8533
      vertex 38.145 33.4161 13.5488
      vertex 94.7975 4.29401 12.8533
    endloop
  endfacet
  facet normal 0.0122756 -2.12947e-20 0.999925
    outer loop
      vertex 94.7975 4.29401 12.8533
      vertex 38.145 33.4161 13.5488
      vertex 71.7681 4.85867 13.136
    endloop
  endfacet
  facet normal 0.0122756 -2.12947e-20 0.999925
    outer loop
      vertex 71.7681 58.6813 13.136
      vertex 38.145 33.4161 13.5488
      vertex 94.7975 59.246 12.8533
    endloop
  endfacet
  facet normal 1.98548e-16 0.447708 0.89418
    outer loop
      vertex 95.3275 59.6453 12.6533
      vertex 17.0437 59.6453 12.6533
      vertex 19.0909 58.6813 13.136
    endloop
  endfacet
  facet normal 1.98548e-16 0.447708 0.89418
    outer loop
      vertex 94.7975 59.246 12.8533
      vertex 95.3275 59.6453 12.6533
      vertex 71.7681 58.6813 13.136
    endloop
  endfacet
  facet normal 1.98548e-16 0.447708 0.89418
    outer loop
      vertex 71.7681 58.6813 13.136
      vertex 95.3275 59.6453 12.6533
      vertex 19.0909 58.6813 13.136
    endloop
  endfacet
  facet normal 2.22015e-16 0.0163355 0.999867
    outer loop
      vertex 71.7681 58.6813 13.136
      vertex 19.0909 58.6813 13.136
      vertex 20.4071 39.6868 13.4463
    endloop
  endfacet
  facet normal 2.22015e-16 0.0163355 0.999867
    outer loop
      vertex 38.145 33.4161 13.5488
      vertex 71.7681 58.6813 13.136
      vertex 20.4071 39.6868 13.4463
    endloop
  endfacet
  facet normal -0.00577558 1.0019e-20 0.999983
    outer loop
      vertex 20.4071 39.6868 13.4463
      vertex 20.4071 23.4469 13.4463
      vertex 38.145 29.5834 13.5488
    endloop
  endfacet
  facet normal -0.00577558 1.0019e-20 0.999983
    outer loop
      vertex 38.145 33.4161 13.5488
      vertex 20.4071 39.6868 13.4463
      vertex 38.145 29.5834 13.5488
    endloop
  endfacet
  facet normal 2.22014e-16 -0.0166925 0.999861
    outer loop
      vertex 20.4071 23.4469 13.4463
      vertex 19.0909 4.85867 13.136
      vertex 71.7681 4.85867 13.136
    endloop
  endfacet
  facet normal 2.22014e-16 -0.0166925 0.999861
    outer loop
      vertex 38.145 29.5834 13.5488
      vertex 20.4071 23.4469 13.4463
      vertex 71.7681 4.85867 13.136
    endloop
  endfacet
endsolid OpenSCAD_Model
