solid OpenSCAD_Model
  facet normal -0.881341 5.39848e-17 -0.47248
    outer loop
      vertex 0.262246 28.3943 -0.950264
      vertex 0.262246 33.9165 -0.950264
      vertex 0.307098 27.0135 -1.03393
    endloop
  endfacet
  facet normal -0.881341 5.39848e-17 -0.47248
    outer loop
      vertex 0.307098 27.0135 -1.03393
      vertex 0.262246 33.9165 -0.950264
      vertex 0.307098 35.3227 -1.03393
    endloop
  endfacet
  facet normal 0.077099 -1.10826e-16 0.997023
    outer loop
      vertex 0.262246 33.9165 -0.950264
      vertex 0.262246 28.3943 -0.950264
      vertex 0.705333 14.7533 -0.984528
    endloop
  endfacet
  facet normal 0.077099 -1.10826e-16 0.997023
    outer loop
      vertex 1.31938 54.6512 -1.03201
      vertex 0.262246 33.9165 -0.950264
      vertex 1.31938 8.68575 -1.03201
    endloop
  endfacet
  facet normal 0.077099 -1.10826e-16 0.997023
    outer loop
      vertex 1.31938 8.68575 -1.03201
      vertex 0.262246 33.9165 -0.950264
      vertex 0.705333 14.7533 -0.984528
    endloop
  endfacet
  facet normal 0.077099 -1.10826e-16 0.997023
    outer loop
      vertex 0.741333 48.9373 -0.987312
      vertex 0.262246 33.9165 -0.950264
      vertex 1.31938 54.6512 -1.03201
    endloop
  endfacet
  facet normal -0.999473 -0.0324649 0
    outer loop
      vertex 0.262246 28.3943 -0.950264
      vertex 0.307098 27.0135 -1.03393
      vertex 0.705333 14.7533 -0.984528
    endloop
  endfacet
  facet normal -0.999473 -0.0324649 0
    outer loop
      vertex 0.705333 14.7533 -0.984528
      vertex 0.307098 27.0135 -1.03393
      vertex 0.705333 14.7533 -1.70422
    endloop
  endfacet
  facet normal -0.859715 5.81987e-17 -0.510775
    outer loop
      vertex 0.307098 27.0135 -1.03393
      vertex 0.307098 35.3227 -1.03393
      vertex 0.705333 14.7533 -1.70422
    endloop
  endfacet
  facet normal -0.859715 5.81987e-17 -0.510775
    outer loop
      vertex 0.705333 14.7533 -1.70422
      vertex 0.307098 35.3227 -1.03393
      vertex 0.741333 48.9373 -1.76482
    endloop
  endfacet
  facet normal -0.859715 5.81987e-17 -0.510775
    outer loop
      vertex 0.705333 14.7533 -1.70422
      vertex 0.741333 48.9373 -1.76482
      vertex 1.13554 52.834 -2.42833
    endloop
  endfacet
  facet normal -0.859715 5.81987e-17 -0.510775
    outer loop
      vertex 0.705333 14.7533 -1.70422
      vertex 1.13554 52.834 -2.42833
      vertex 1.13554 10.5023 -2.42833
    endloop
  endfacet
  facet normal -0.999492 0.0318786 0
    outer loop
      vertex 0.262246 33.9165 -0.950264
      vertex 0.741333 48.9373 -0.987312
      vertex 0.307098 35.3227 -1.03393
    endloop
  endfacet
  facet normal -0.999492 0.0318786 0
    outer loop
      vertex 0.307098 35.3227 -1.03393
      vertex 0.741333 48.9373 -0.987312
      vertex 0.741333 48.9373 -1.76482
    endloop
  endfacet
  facet normal -0.994922 0.100653 0
    outer loop
      vertex 0.741333 48.9373 -1.76482
      vertex 0.741333 48.9373 -0.987312
      vertex 1.13554 52.834 -2.42833
    endloop
  endfacet
  facet normal -0.994922 0.100653 0
    outer loop
      vertex 1.13554 52.834 -2.42833
      vertex 0.741333 48.9373 -0.987312
      vertex 1.31938 54.6512 -1.03201
    endloop
  endfacet
  facet normal -0.994922 0.100653 0
    outer loop
      vertex 1.13554 52.834 -2.42833
      vertex 1.31938 54.6512 -1.03201
      vertex 1.48133 56.252 -1.03207
    endloop
  endfacet
  facet normal -0.994922 0.100653 0
    outer loop
      vertex 1.13554 52.834 -2.42833
      vertex 1.48133 56.252 -1.03207
      vertex 1.48133 56.252 -3.02017
    endloop
  endfacet
  facet normal 0.000357201 -1.11023e-16 1
    outer loop
      vertex 1.31938 54.6512 -1.03201
      vertex 1.31938 8.68575 -1.03201
      vertex 1.44667 7.428 -1.03206
    endloop
  endfacet
  facet normal 0.000357201 -1.11023e-16 1
    outer loop
      vertex 2.516 2.99467 -1.03244
      vertex 1.31938 54.6512 -1.03201
      vertex 1.84667 4.58133 -1.0322
    endloop
  endfacet
  facet normal 0.000357201 -1.11023e-16 1
    outer loop
      vertex 1.84667 4.58133 -1.0322
      vertex 1.31938 54.6512 -1.03201
      vertex 1.44667 7.428 -1.03206
    endloop
  endfacet
  facet normal 0.000357201 -1.11023e-16 1
    outer loop
      vertex 3.18667 1.88933 -1.03268
      vertex 1.31938 54.6512 -1.03201
      vertex 2.516 2.99467 -1.03244
    endloop
  endfacet
  facet normal 0.000357201 -1.11023e-16 1
    outer loop
      vertex 4.128 1.28933 -1.03301
      vertex 1.31938 54.6512 -1.03201
      vertex 3.18667 1.88933 -1.03268
    endloop
  endfacet
  facet normal 0.000357201 -1.11023e-16 1
    outer loop
      vertex 5.03333 0.948 -1.03334
      vertex 1.31938 54.6512 -1.03201
      vertex 4.128 1.28933 -1.03301
    endloop
  endfacet
  facet normal 0.000357201 -1.11023e-16 1
    outer loop
      vertex 11.4374 0.133333 -1.03563
      vertex 1.31938 54.6512 -1.03201
      vertex 5.03333 0.948 -1.03334
    endloop
  endfacet
  facet normal 0.000357201 -1.11023e-16 1
    outer loop
      vertex 14.7223 0.133333 -1.0368
      vertex 1.31938 54.6512 -1.03201
      vertex 11.4374 0.133333 -1.03563
    endloop
  endfacet
  facet normal 0.000357201 -1.11023e-16 1
    outer loop
      vertex 31.82 0.242667 -1.04291
      vertex 1.31938 54.6512 -1.03201
      vertex 14.7223 0.133333 -1.0368
    endloop
  endfacet
  facet normal 0.000357201 -1.11023e-16 1
    outer loop
      vertex 53.6227 1.05467 -1.05069
      vertex 1.31938 54.6512 -1.03201
      vertex 31.82 0.242667 -1.04291
    endloop
  endfacet
  facet normal 0.000357201 -1.11023e-16 1
    outer loop
      vertex 98.2373 2.75867 -1.06663
      vertex 1.31938 54.6512 -1.03201
      vertex 53.6227 1.05467 -1.05069
    endloop
  endfacet
  facet normal 0.000357201 -1.11023e-16 1
    outer loop
      vertex 100.695 2.99467 -1.06751
      vertex 1.31938 54.6512 -1.03201
      vertex 98.2373 2.75867 -1.06663
    endloop
  endfacet
  facet normal 0.000357201 -1.11023e-16 1
    outer loop
      vertex 102.811 3.60533 -1.06826
      vertex 1.31938 54.6512 -1.03201
      vertex 100.695 2.99467 -1.06751
    endloop
  endfacet
  facet normal 0.000357201 -1.11023e-16 1
    outer loop
      vertex 103.916 4.37067 -1.06866
      vertex 1.31938 54.6512 -1.03201
      vertex 102.811 3.60533 -1.06826
    endloop
  endfacet
  facet normal 0.000357201 -1.11023e-16 1
    outer loop
      vertex 104.987 5.41733 -1.06904
      vertex 1.31938 54.6512 -1.03201
      vertex 103.916 4.37067 -1.06866
    endloop
  endfacet
  facet normal 0.000357201 -1.11023e-16 1
    outer loop
      vertex 105.997 6.55733 -1.0694
      vertex 1.31938 54.6512 -1.03201
      vertex 104.987 5.41733 -1.06904
    endloop
  endfacet
  facet normal 0.000357201 -1.11023e-16 1
    outer loop
      vertex 106.518 7.30304 -1.06959
      vertex 1.31938 54.6512 -1.03201
      vertex 105.997 6.55733 -1.0694
    endloop
  endfacet
  facet normal 0.000357201 -1.11023e-16 1
    outer loop
      vertex 106.518 56.4479 -1.06959
      vertex 1.31938 54.6512 -1.03201
      vertex 106.518 7.30304 -1.06959
    endloop
  endfacet
  facet normal 0.000357201 -1.11023e-16 1
    outer loop
      vertex 106.045 57.1347 -1.06942
      vertex 1.31938 54.6512 -1.03201
      vertex 106.518 56.4479 -1.06959
    endloop
  endfacet
  facet normal 0.000357201 -1.11023e-16 1
    outer loop
      vertex 105.033 58.2747 -1.06906
      vertex 1.31938 54.6512 -1.03201
      vertex 106.045 57.1347 -1.06942
    endloop
  endfacet
  facet normal 0.000357201 -1.11023e-16 1
    outer loop
      vertex 103.964 59.3093 -1.06868
      vertex 1.31938 54.6512 -1.03201
      vertex 105.033 58.2747 -1.06906
    endloop
  endfacet
  facet normal 0.000357201 -1.11023e-16 1
    outer loop
      vertex 102.847 60.0853 -1.06828
      vertex 1.31938 54.6512 -1.03201
      vertex 103.964 59.3093 -1.06868
    endloop
  endfacet
  facet normal 0.000357201 -1.11023e-16 1
    outer loop
      vertex 100.729 60.6973 -1.06752
      vertex 1.31938 54.6512 -1.03201
      vertex 102.847 60.0853 -1.06828
    endloop
  endfacet
  facet normal 0.000357201 -1.11023e-16 1
    outer loop
      vertex 98.284 60.932 -1.06665
      vertex 1.31938 54.6512 -1.03201
      vertex 100.729 60.6973 -1.06752
    endloop
  endfacet
  facet normal 0.000357201 -1.11023e-16 1
    outer loop
      vertex 53.6573 62.6373 -1.05071
      vertex 1.31938 54.6512 -1.03201
      vertex 98.284 60.932 -1.06665
    endloop
  endfacet
  facet normal 0.000357201 -1.11023e-16 1
    outer loop
      vertex 34.5051 63.3507 -1.04387
      vertex 1.31938 54.6512 -1.03201
      vertex 53.6573 62.6373 -1.05071
    endloop
  endfacet
  facet normal 0.000357201 -1.11023e-16 1
    outer loop
      vertex 9.84315 63.3507 -1.03506
      vertex 1.31938 54.6512 -1.03201
      vertex 34.5051 63.3507 -1.04387
    endloop
  endfacet
  facet normal 0.000357201 -1.11023e-16 1
    outer loop
      vertex 5.08 62.7427 -1.03335
      vertex 1.31938 54.6512 -1.03201
      vertex 9.84315 63.3507 -1.03506
    endloop
  endfacet
  facet normal 0.000357201 -1.11023e-16 1
    outer loop
      vertex 4.17467 62.4027 -1.03303
      vertex 1.31938 54.6512 -1.03201
      vertex 5.08 62.7427 -1.03335
    endloop
  endfacet
  facet normal 0.000357201 -1.11023e-16 1
    outer loop
      vertex 3.23333 61.8027 -1.0327
      vertex 1.31938 54.6512 -1.03201
      vertex 4.17467 62.4027 -1.03303
    endloop
  endfacet
  facet normal 0.000357201 -1.11023e-16 1
    outer loop
      vertex 2.564 60.6973 -1.03246
      vertex 1.31938 54.6512 -1.03201
      vertex 3.23333 61.8027 -1.0327
    endloop
  endfacet
  facet normal 0.000357201 -1.11023e-16 1
    outer loop
      vertex 1.89333 59.1093 -1.03222
      vertex 1.31938 54.6512 -1.03201
      vertex 2.564 60.6973 -1.03246
    endloop
  endfacet
  facet normal 0.000357201 -1.11023e-16 1
    outer loop
      vertex 1.48133 56.252 -1.03207
      vertex 1.31938 54.6512 -1.03201
      vertex 1.89333 59.1093 -1.03222
    endloop
  endfacet
  facet normal -0.994918 -0.100687 0
    outer loop
      vertex 0.705333 14.7533 -1.70422
      vertex 1.13554 10.5023 -2.42833
      vertex 0.705333 14.7533 -0.984528
    endloop
  endfacet
  facet normal -0.994918 -0.100687 0
    outer loop
      vertex 0.705333 14.7533 -0.984528
      vertex 1.13554 10.5023 -2.42833
      vertex 1.44667 7.428 -2.96083
    endloop
  endfacet
  facet normal -0.994918 -0.100687 0
    outer loop
      vertex 1.31938 8.68575 -1.03201
      vertex 1.44667 7.428 -2.96083
      vertex 1.44667 7.428 -1.03206
    endloop
  endfacet
  facet normal -0.994918 -0.100687 0
    outer loop
      vertex 0.705333 14.7533 -0.984528
      vertex 1.44667 7.428 -2.96083
      vertex 1.31938 8.68575 -1.03201
    endloop
  endfacet
  facet normal -0.863426 5.75058e-17 -0.504475
    outer loop
      vertex 1.13554 10.5023 -2.42833
      vertex 1.13554 52.834 -2.42833
      vertex 1.44667 7.428 -2.96083
    endloop
  endfacet
  facet normal -0.863426 5.75058e-17 -0.504475
    outer loop
      vertex 1.44667 7.428 -2.96083
      vertex 1.13554 52.834 -2.42833
      vertex 1.48133 56.252 -3.02017
    endloop
  endfacet
  facet normal -0.863426 5.75058e-17 -0.504475
    outer loop
      vertex 1.44667 7.428 -2.96083
      vertex 1.48133 56.252 -3.02017
      vertex 1.89333 59.1093 -3.72532
    endloop
  endfacet
  facet normal -0.863426 5.75058e-17 -0.504475
    outer loop
      vertex 1.44667 7.428 -2.96083
      vertex 1.89333 59.1093 -3.72532
      vertex 1.96349 59.2755 -3.8454
    endloop
  endfacet
  facet normal -0.863426 5.75058e-17 -0.504475
    outer loop
      vertex 1.44667 7.428 -2.96083
      vertex 1.96349 59.2755 -3.8454
      vertex 1.96349 4.30439 -3.8454
    endloop
  endfacet
  facet normal -0.863426 5.75058e-17 -0.504475
    outer loop
      vertex 1.44667 7.428 -2.96083
      vertex 1.96349 4.30439 -3.8454
      vertex 1.84667 4.58133 -3.64545
    endloop
  endfacet
  facet normal -0.989764 0.142714 0
    outer loop
      vertex 1.48133 56.252 -3.02017
      vertex 1.48133 56.252 -1.03207
      vertex 1.89333 59.1093 -3.72532
    endloop
  endfacet
  facet normal -0.989764 0.142714 0
    outer loop
      vertex 1.89333 59.1093 -3.72532
      vertex 1.48133 56.252 -1.03207
      vertex 1.89333 59.1093 -1.03222
    endloop
  endfacet
  facet normal -0.921213 0.38906 0
    outer loop
      vertex 1.89333 59.1093 -3.72532
      vertex 1.89333 59.1093 -1.03222
      vertex 1.96349 59.2755 -3.8454
    endloop
  endfacet
  facet normal -0.921213 0.38906 0
    outer loop
      vertex 1.96349 59.2755 -3.8454
      vertex 1.89333 59.1093 -1.03222
      vertex 2.564 60.6973 -1.03246
    endloop
  endfacet
  facet normal -0.921213 0.38906 0
    outer loop
      vertex 1.96349 59.2755 -3.8454
      vertex 2.564 60.6973 -1.03246
      vertex 2.564 60.6973 -4.65155
    endloop
  endfacet
  facet normal -0.855392 0.517982 0
    outer loop
      vertex 2.564 60.6973 -4.65155
      vertex 2.564 60.6973 -1.03246
      vertex 2.93397 61.3083 -5.14821
    endloop
  endfacet
  facet normal -0.855392 0.517982 0
    outer loop
      vertex 2.93397 61.3083 -5.14821
      vertex 2.564 60.6973 -1.03246
      vertex 3.23333 61.8027 -1.0327
    endloop
  endfacet
  facet normal -0.855392 0.517982 0
    outer loop
      vertex 2.93397 61.3083 -5.14821
      vertex 3.23333 61.8027 -1.0327
      vertex 3.23333 61.8027 -5.46534
    endloop
  endfacet
  facet normal -0.537494 0.843268 0
    outer loop
      vertex 3.23333 61.8027 -5.46534
      vertex 3.23333 61.8027 -1.0327
      vertex 4.17467 62.4027 -6.46252
    endloop
  endfacet
  facet normal -0.537494 0.843268 0
    outer loop
      vertex 4.17467 62.4027 -6.46252
      vertex 3.23333 61.8027 -1.0327
      vertex 4.17467 62.4027 -1.03303
    endloop
  endfacet
  facet normal -0.351577 0.936159 0
    outer loop
      vertex 4.17467 62.4027 -6.46252
      vertex 4.17467 62.4027 -1.03303
      vertex 4.60117 62.5628 -6.91434
    endloop
  endfacet
  facet normal -0.351577 0.936159 0
    outer loop
      vertex 4.60117 62.5628 -6.91434
      vertex 4.17467 62.4027 -1.03303
      vertex 5.08 62.7427 -1.03335
    endloop
  endfacet
  facet normal -0.351577 0.936159 0
    outer loop
      vertex 4.60117 62.5628 -6.91434
      vertex 5.08 62.7427 -1.03335
      vertex 5.08 62.7427 -7.3267
    endloop
  endfacet
  facet normal -0.126619 0.991951 0
    outer loop
      vertex 5.08 62.7427 -7.3267
      vertex 5.08 62.7427 -1.03335
      vertex 5.29379 62.77 -7.51081
    endloop
  endfacet
  facet normal -0.126619 0.991951 0
    outer loop
      vertex 5.29379 62.77 -7.51081
      vertex 5.08 62.7427 -1.03335
      vertex 9.84315 63.3507 -1.03506
    endloop
  endfacet
  facet normal -0.126619 0.991951 0
    outer loop
      vertex 5.29379 62.77 -7.51081
      vertex 9.84315 63.3507 -1.03506
      vertex 9.84315 63.3507 -3.92133
    endloop
  endfacet
  facet normal -0.126619 0.991951 0
    outer loop
      vertex 5.29379 62.77 -7.51081
      vertex 9.84315 63.3507 -3.92133
      vertex 6.7095 62.9507 -6.968
    endloop
  endfacet
  facet normal 0 1 0
    outer loop
      vertex 9.84315 63.3507 -3.92133
      vertex 9.84315 63.3507 -1.03506
      vertex 34.5051 63.3507 -3.92133
    endloop
  endfacet
  facet normal 0 1 0
    outer loop
      vertex 34.5051 63.3507 -3.92133
      vertex 9.84315 63.3507 -1.03506
      vertex 34.5051 63.3507 -1.04387
    endloop
  endfacet
  facet normal 0.0372196 0.999307 0
    outer loop
      vertex 34.5051 63.3507 -3.92133
      vertex 34.5051 63.3507 -1.04387
      vertex 45.2447 62.9507 -6.968
    endloop
  endfacet
  facet normal 0.0372196 0.999307 0
    outer loop
      vertex 45.2447 62.9507 -6.968
      vertex 34.5051 63.3507 -1.04387
      vertex 53.6573 62.6373 -1.05071
    endloop
  endfacet
  facet normal 0.0372196 0.999307 0
    outer loop
      vertex 45.2447 62.9507 -6.968
      vertex 53.6573 62.6373 -1.05071
      vertex 53.6573 62.6373 -7.90919
    endloop
  endfacet
  facet normal 0.0381855 0.999271 0
    outer loop
      vertex 53.6573 62.6373 -7.90919
      vertex 53.6573 62.6373 -1.05071
      vertex 54.6692 62.5987 -8.02533
    endloop
  endfacet
  facet normal 0.0381855 0.999271 0
    outer loop
      vertex 54.6692 62.5987 -8.02533
      vertex 53.6573 62.6373 -1.05071
      vertex 98.284 60.932 -1.06665
    endloop
  endfacet
  facet normal 0.0381855 0.999271 0
    outer loop
      vertex 54.6692 62.5987 -8.02533
      vertex 98.284 60.932 -1.06665
      vertex 98.284 60.932 -7.74161
    endloop
  endfacet
  facet normal 0.0381855 0.999271 0
    outer loop
      vertex 54.6692 62.5987 -8.02533
      vertex 98.284 60.932 -7.74161
      vertex 97.5429 60.9603 -8.09546
    endloop
  endfacet
  facet normal 0.0381855 0.999271 0
    outer loop
      vertex 96.8665 60.9862 -8.40878
      vertex 97.5429 60.9603 -8.09546
      vertex 96.8772 60.9858 -8.40902
    endloop
  endfacet
  facet normal 0.0381855 0.999271 0
    outer loop
      vertex 54.6692 62.5987 -8.02533
      vertex 97.5429 60.9603 -8.09546
      vertex 96.8665 60.9862 -8.40878
    endloop
  endfacet
  facet normal 0.0381855 0.999271 0
    outer loop
      vertex 54.6692 62.5987 -8.02533
      vertex 96.7708 60.9898 -8.45471
      vertex 96.6645 60.9939 -8.49907
    endloop
  endfacet
  facet normal 0.0381855 0.999271 0
    outer loop
      vertex 54.6692 62.5987 -8.02533
      vertex 96.6645 60.9939 -8.49907
      vertex 95.5262 61.0374 -8.89833
    endloop
  endfacet
  facet normal 0.0381855 0.999271 0
    outer loop
      vertex 54.6692 62.5987 -8.02533
      vertex 95.5262 61.0374 -8.89833
      vertex 94.6981 61.069 -9.13899
    endloop
  endfacet
  facet normal 0.0381855 0.999271 0
    outer loop
      vertex 54.6692 62.5987 -8.02533
      vertex 94.6981 61.069 -9.13899
      vertex 93.1604 61.1278 -9.5042
    endloop
  endfacet
  facet normal 0.0381855 0.999271 0
    outer loop
      vertex 54.6692 62.5987 -8.02533
      vertex 93.1604 61.1278 -9.5042
      vertex 90.588 61.2261 -9.86016
    endloop
  endfacet
  facet normal 0.0381855 0.999271 0
    outer loop
      vertex 54.6692 62.5987 -8.02533
      vertex 90.588 61.2261 -9.86016
      vertex 82.5703 61.5325 -10.2691
    endloop
  endfacet
  facet normal 0.0381855 0.999271 0
    outer loop
      vertex 54.6692 62.5987 -8.02533
      vertex 82.5703 61.5325 -10.2691
      vertex 66.0788 62.1627 -9.12
    endloop
  endfacet
  facet normal 0.0381855 0.999271 0
    outer loop
      vertex 96.7708 60.9898 -8.45471
      vertex 54.6692 62.5987 -8.02533
      vertex 96.8665 60.9862 -8.40878
    endloop
  endfacet
  facet normal 0.0955262 0.995427 0
    outer loop
      vertex 98.284 60.932 -7.74161
      vertex 98.284 60.932 -1.06665
      vertex 98.8865 60.8742 -7.45396
    endloop
  endfacet
  facet normal 0.0955262 0.995427 0
    outer loop
      vertex 98.8865 60.8742 -7.45396
      vertex 98.284 60.932 -1.06665
      vertex 100.729 60.6973 -1.06752
    endloop
  endfacet
  facet normal 0.0955262 0.995427 0
    outer loop
      vertex 98.9814 60.8651 -7.38534
      vertex 100.729 60.6973 -1.06752
      vertex 100.729 60.6973 -6.40216
    endloop
  endfacet
  facet normal 0.0955262 0.995427 0
    outer loop
      vertex 98.8865 60.8742 -7.45396
      vertex 100.729 60.6973 -1.06752
      vertex 98.9814 60.8651 -7.38534
    endloop
  endfacet
  facet normal 0.277676 0.960675 0
    outer loop
      vertex 100.729 60.6973 -6.40216
      vertex 100.729 60.6973 -1.06752
      vertex 100.995 60.6207 -6.25299
    endloop
  endfacet
  facet normal 0.277676 0.960675 0
    outer loop
      vertex 100.995 60.6207 -6.25299
      vertex 100.729 60.6973 -1.06752
      vertex 102.847 60.0853 -1.06828
    endloop
  endfacet
  facet normal 0.277676 0.960675 0
    outer loop
      vertex 100.995 60.6207 -6.25299
      vertex 102.847 60.0853 -1.06828
      vertex 102.847 60.0853 -5.13658
    endloop
  endfacet
  facet normal 0.277676 0.960675 0
    outer loop
      vertex 100.995 60.6207 -6.25299
      vertex 102.847 60.0853 -5.13658
      vertex 102.83 60.0902 -5.15143
    endloop
  endfacet
  facet normal 0.570433 0.821344 0
    outer loop
      vertex 102.847 60.0853 -5.13658
      vertex 102.847 60.0853 -1.06828
      vertex 103.964 59.3093 -4.16029
    endloop
  endfacet
  facet normal 0.570433 0.821344 0
    outer loop
      vertex 103.964 59.3093 -4.16029
      vertex 102.847 60.0853 -1.06828
      vertex 103.964 59.3093 -1.06868
    endloop
  endfacet
  facet normal 0.695362 0.71866 0
    outer loop
      vertex 103.964 59.3093 -4.16029
      vertex 103.964 59.3093 -1.06868
      vertex 104.064 59.2124 -4.07277
    endloop
  endfacet
  facet normal 0.695362 0.71866 0
    outer loop
      vertex 104.064 59.2124 -4.07277
      vertex 103.964 59.3093 -1.06868
      vertex 105.033 58.2747 -1.06906
    endloop
  endfacet
  facet normal 0.695362 0.71866 0
    outer loop
      vertex 104.064 59.2124 -4.07277
      vertex 105.033 58.2747 -1.06906
      vertex 105.033 58.2747 -3.07521
    endloop
  endfacet
  facet normal 0.747843 0.663875 0
    outer loop
      vertex 105.641 57.5898 -2.44945
      vertex 105.033 58.2747 -3.07521
      vertex 105.033 58.2747 -1.06906
    endloop
  endfacet
  facet normal 0.747843 0.663875 0
    outer loop
      vertex 106.045 57.1347 -1.81946
      vertex 105.641 57.5898 -2.44945
      vertex 106.045 57.1347 -1.06942
    endloop
  endfacet
  facet normal 0.747843 0.663875 0
    outer loop
      vertex 106.045 57.1347 -1.06942
      vertex 105.641 57.5898 -2.44945
      vertex 105.033 58.2747 -1.06906
    endloop
  endfacet
  facet normal 0.747843 0.663875 0
    outer loop
      vertex 105.677 57.5496 -2.40355
      vertex 105.641 57.5898 -2.44945
      vertex 106.045 57.1347 -1.81946
    endloop
  endfacet
  facet normal 0.747843 0.663875 0
    outer loop
      vertex 105.664 57.5637 -2.42595
      vertex 105.641 57.5898 -2.44945
      vertex 105.677 57.5496 -2.40355
    endloop
  endfacet
  facet normal 0.747843 0.663875 0
    outer loop
      vertex 105.653 57.5763 -2.44971
      vertex 105.641 57.5898 -2.44945
      vertex 105.664 57.5637 -2.42595
    endloop
  endfacet
  facet normal 0.823592 0.567182 0
    outer loop
      vertex 106.518 56.4479 -1.06959
      vertex 106.045 57.1347 -1.81946
      vertex 106.045 57.1347 -1.06942
    endloop
  endfacet
  facet normal 0.845833 5.77573e-17 -0.533447
    outer loop
      vertex 105.997 6.55733 -1.89557
      vertex 105.677 6.19596 -2.40355
      vertex 105.677 57.5496 -2.40355
    endloop
  endfacet
  facet normal 0.845833 5.77573e-17 -0.533447
    outer loop
      vertex 106.518 56.4479 -1.06959
      vertex 105.997 6.55733 -1.89557
      vertex 106.045 57.1347 -1.81946
    endloop
  endfacet
  facet normal 0.845833 5.77573e-17 -0.533447
    outer loop
      vertex 106.045 57.1347 -1.81946
      vertex 105.997 6.55733 -1.89557
      vertex 105.677 57.5496 -2.40355
    endloop
  endfacet
  facet normal 0.845833 5.77573e-17 -0.533447
    outer loop
      vertex 106.518 7.30304 -1.06959
      vertex 105.997 6.55733 -1.89557
      vertex 106.518 56.4479 -1.06959
    endloop
  endfacet
  facet normal 0.819782 -0.572675 0
    outer loop
      vertex 105.997 6.55733 -1.0694
      vertex 105.997 6.55733 -1.89557
      vertex 106.518 7.30304 -1.06959
    endloop
  endfacet
  facet normal 0.748278 -0.663385 0
    outer loop
      vertex 105.664 6.18187 -2.42595
      vertex 105.677 6.19596 -2.40355
      vertex 104.987 5.41733 -1.06904
    endloop
  endfacet
  facet normal 0.748278 -0.663385 0
    outer loop
      vertex 104.987 5.41733 -1.06904
      vertex 104.987 5.41733 -3.12325
      vertex 105.641 6.15572 -2.44945
    endloop
  endfacet
  facet normal 0.748278 -0.663385 0
    outer loop
      vertex 105.653 6.16925 -2.44971
      vertex 104.987 5.41733 -1.06904
      vertex 105.641 6.15572 -2.44945
    endloop
  endfacet
  facet normal 0.748278 -0.663385 0
    outer loop
      vertex 105.653 6.16925 -2.44971
      vertex 105.664 6.18187 -2.42595
      vertex 104.987 5.41733 -1.06904
    endloop
  endfacet
  facet normal 0.748278 -0.663385 0
    outer loop
      vertex 105.677 6.19596 -2.40355
      vertex 105.997 6.55733 -1.89557
      vertex 104.987 5.41733 -1.06904
    endloop
  endfacet
  facet normal 0.748278 -0.663385 0
    outer loop
      vertex 105.997 6.55733 -1.89557
      vertex 105.997 6.55733 -1.0694
      vertex 104.987 5.41733 -1.06904
    endloop
  endfacet
  facet normal 0.699047 -0.715076 0
    outer loop
      vertex 103.916 4.37067 -1.06866
      vertex 103.916 4.37067 -4.20223
      vertex 104.064 4.51551 -4.07277
    endloop
  endfacet
  facet normal 0.699047 -0.715076 0
    outer loop
      vertex 104.987 5.41733 -1.06904
      vertex 103.916 4.37067 -1.06866
      vertex 104.987 5.41733 -3.12325
    endloop
  endfacet
  facet normal 0.699047 -0.715076 0
    outer loop
      vertex 104.987 5.41733 -3.12325
      vertex 103.916 4.37067 -1.06866
      vertex 104.064 4.51551 -4.07277
    endloop
  endfacet
  facet normal 0.569262 -0.822156 0
    outer loop
      vertex 102.811 3.60533 -1.06826
      vertex 102.811 3.60533 -5.16284
      vertex 102.83 3.61849 -5.15143
    endloop
  endfacet
  facet normal 0.569262 -0.822156 0
    outer loop
      vertex 103.916 4.37067 -1.06866
      vertex 102.811 3.60533 -1.06826
      vertex 103.916 4.37067 -4.20223
    endloop
  endfacet
  facet normal 0.569262 -0.822156 0
    outer loop
      vertex 103.916 4.37067 -4.20223
      vertex 102.811 3.60533 -1.06826
      vertex 102.83 3.61849 -5.15143
    endloop
  endfacet
  facet normal 0.277279 -0.960789 0
    outer loop
      vertex 100.695 2.99467 -1.06751
      vertex 100.695 2.99467 -6.42166
      vertex 100.995 3.08121 -6.25299
    endloop
  endfacet
  facet normal 0.277279 -0.960789 0
    outer loop
      vertex 102.811 3.60533 -1.06826
      vertex 100.695 2.99467 -1.06751
      vertex 102.811 3.60533 -5.16284
    endloop
  endfacet
  facet normal 0.277279 -0.960789 0
    outer loop
      vertex 102.811 3.60533 -5.16284
      vertex 100.695 2.99467 -1.06751
      vertex 100.995 3.08121 -6.25299
    endloop
  endfacet
  facet normal 0.0955992 -0.99542 0
    outer loop
      vertex 98.2373 2.75867 -1.06663
      vertex 98.2373 2.75867 -7.76389
      vertex 98.8865 2.82101 -7.45396
    endloop
  endfacet
  facet normal 0.0955992 -0.99542 0
    outer loop
      vertex 100.695 2.99467 -6.42166
      vertex 98.2373 2.75867 -1.06663
      vertex 98.9814 2.83012 -7.38534
    endloop
  endfacet
  facet normal 0.0955992 -0.99542 0
    outer loop
      vertex 98.9814 2.83012 -7.38534
      vertex 98.2373 2.75867 -1.06663
      vertex 98.8865 2.82101 -7.45396
    endloop
  endfacet
  facet normal 0.0955992 -0.99542 0
    outer loop
      vertex 100.695 2.99467 -1.06751
      vertex 98.2373 2.75867 -1.06663
      vertex 100.695 2.99467 -6.42166
    endloop
  endfacet
  facet normal 0.0381659 -0.999271 0
    outer loop
      vertex 53.6227 1.05467 -1.05069
      vertex 53.6227 1.05467 -8.46196
      vertex 60.6046 1.32133 -9.13067
    endloop
  endfacet
  facet normal 0.0381659 -0.999271 0
    outer loop
      vertex 90.588 2.46651 -9.86016
      vertex 53.6227 1.05467 -1.05069
      vertex 79.3868 2.0387 -10.4315
    endloop
  endfacet
  facet normal 0.0381659 -0.999271 0
    outer loop
      vertex 79.3868 2.0387 -10.4315
      vertex 53.6227 1.05467 -1.05069
      vertex 60.6046 1.32133 -9.13067
    endloop
  endfacet
  facet normal 0.0381659 -0.999271 0
    outer loop
      vertex 93.1604 2.56476 -9.5042
      vertex 53.6227 1.05467 -1.05069
      vertex 90.588 2.46651 -9.86016
    endloop
  endfacet
  facet normal 0.0381659 -0.999271 0
    outer loop
      vertex 94.6981 2.62349 -9.13899
      vertex 53.6227 1.05467 -1.05069
      vertex 93.1604 2.56476 -9.5042
    endloop
  endfacet
  facet normal 0.0381659 -0.999271 0
    outer loop
      vertex 95.5262 2.65512 -8.89833
      vertex 53.6227 1.05467 -1.05069
      vertex 94.6981 2.62349 -9.13899
    endloop
  endfacet
  facet normal 0.0381659 -0.999271 0
    outer loop
      vertex 96.6645 2.69859 -8.49907
      vertex 53.6227 1.05467 -1.05069
      vertex 95.5262 2.65512 -8.89833
    endloop
  endfacet
  facet normal 0.0381659 -0.999271 0
    outer loop
      vertex 96.7708 2.70266 -8.45471
      vertex 53.6227 1.05467 -1.05069
      vertex 96.6645 2.69859 -8.49907
    endloop
  endfacet
  facet normal 0.0381659 -0.999271 0
    outer loop
      vertex 96.8665 2.70631 -8.40878
      vertex 53.6227 1.05467 -1.05069
      vertex 96.7708 2.70266 -8.45471
    endloop
  endfacet
  facet normal 0.0381659 -0.999271 0
    outer loop
      vertex 96.8772 2.70672 -8.40902
      vertex 53.6227 1.05467 -1.05069
      vertex 96.8665 2.70631 -8.40878
    endloop
  endfacet
  facet normal 0.0381659 -0.999271 0
    outer loop
      vertex 97.5429 2.73214 -8.09546
      vertex 53.6227 1.05467 -1.05069
      vertex 96.8772 2.70672 -8.40902
    endloop
  endfacet
  facet normal 0.0381659 -0.999271 0
    outer loop
      vertex 98.2373 2.75867 -7.76389
      vertex 53.6227 1.05467 -1.05069
      vertex 97.5429 2.73214 -8.09546
    endloop
  endfacet
  facet normal 0.0381659 -0.999271 0
    outer loop
      vertex 98.2373 2.75867 -1.06663
      vertex 53.6227 1.05467 -1.05069
      vertex 98.2373 2.75867 -7.76389
    endloop
  endfacet
  facet normal 0.0372173 -0.999307 0
    outer loop
      vertex 31.82 0.242667 -1.04291
      vertex 31.82 0.242667 -4.72983
      vertex 39.9468 0.545333 -6.968
    endloop
  endfacet
  facet normal 0.0372173 -0.999307 0
    outer loop
      vertex 53.6227 1.05467 -8.46196
      vertex 31.82 0.242667 -1.04291
      vertex 49.076 0.885333 -8.03733
    endloop
  endfacet
  facet normal 0.0372173 -0.999307 0
    outer loop
      vertex 49.076 0.885333 -8.03733
      vertex 31.82 0.242667 -1.04291
      vertex 39.9468 0.545333 -6.968
    endloop
  endfacet
  facet normal 0.0372173 -0.999307 0
    outer loop
      vertex 53.6227 1.05467 -1.05069
      vertex 31.82 0.242667 -1.04291
      vertex 53.6227 1.05467 -8.46196
    endloop
  endfacet
  facet normal 0.00639449 -0.99998 0
    outer loop
      vertex 14.7223 0.133333 -1.0368
      vertex 14.7223 0.133333 -3.92133
      vertex 31.82 0.242667 -4.72983
    endloop
  endfacet
  facet normal 0.00639449 -0.99998 0
    outer loop
      vertex 31.82 0.242667 -1.04291
      vertex 14.7223 0.133333 -1.0368
      vertex 31.82 0.242667 -4.72983
    endloop
  endfacet
  facet normal 0 -1 0
    outer loop
      vertex 11.4374 0.133333 -1.03563
      vertex 11.4374 0.133333 -3.92133
      vertex 14.7223 0.133333 -3.92133
    endloop
  endfacet
  facet normal 0 -1 0
    outer loop
      vertex 14.7223 0.133333 -1.0368
      vertex 11.4374 0.133333 -1.03563
      vertex 14.7223 0.133333 -3.92133
    endloop
  endfacet
  facet normal -0.126193 -0.992006 0
    outer loop
      vertex 5.03333 0.948 -1.03334
      vertex 5.03333 0.948 -7.28651
      vertex 5.78488 0.852395 -7.93374
    endloop
  endfacet
  facet normal -0.126193 -0.992006 0
    outer loop
      vertex 11.4374 0.133333 -3.92133
      vertex 5.03333 0.948 -1.03334
      vertex 8.19871 0.545333 -6.968
    endloop
  endfacet
  facet normal -0.126193 -0.992006 0
    outer loop
      vertex 8.19871 0.545333 -6.968
      vertex 5.03333 0.948 -1.03334
      vertex 5.78488 0.852395 -7.93374
    endloop
  endfacet
  facet normal -0.126193 -0.992006 0
    outer loop
      vertex 11.4374 0.133333 -1.03563
      vertex 5.03333 0.948 -1.03334
      vertex 11.4374 0.133333 -3.92133
    endloop
  endfacet
  facet normal -0.352784 -0.935705 0
    outer loop
      vertex 4.128 1.28933 -1.03301
      vertex 4.128 1.28933 -6.41309
      vertex 4.60117 1.11094 -6.91434
    endloop
  endfacet
  facet normal -0.352784 -0.935705 0
    outer loop
      vertex 5.03333 0.948 -1.03334
      vertex 4.128 1.28933 -1.03301
      vertex 5.03333 0.948 -7.28651
    endloop
  endfacet
  facet normal -0.352784 -0.935705 0
    outer loop
      vertex 5.03333 0.948 -7.28651
      vertex 4.128 1.28933 -1.03301
      vertex 4.60117 1.11094 -6.91434
    endloop
  endfacet
  facet normal -0.537494 -0.843268 0
    outer loop
      vertex 3.18667 1.88933 -1.03268
      vertex 3.18667 1.88933 -5.4159
      vertex 4.128 1.28933 -6.41309
    endloop
  endfacet
  facet normal -0.537494 -0.843268 0
    outer loop
      vertex 4.128 1.28933 -1.03301
      vertex 3.18667 1.88933 -1.03268
      vertex 4.128 1.28933 -6.41309
    endloop
  endfacet
  facet normal -0.854935 -0.518736 0
    outer loop
      vertex 2.516 2.99467 -4.58711
      vertex 2.93397 2.3058 -5.14821
      vertex 2.516 2.99467 -1.03244
    endloop
  endfacet
  facet normal -0.854935 -0.518736 0
    outer loop
      vertex 2.516 2.99467 -1.03244
      vertex 2.93397 2.3058 -5.14821
      vertex 3.18667 1.88933 -5.4159
    endloop
  endfacet
  facet normal -0.854935 -0.518736 0
    outer loop
      vertex 2.516 2.99467 -1.03244
      vertex 3.18667 1.88933 -5.4159
      vertex 3.18667 1.88933 -1.03268
    endloop
  endfacet
  facet normal -0.921373 -0.38868 0
    outer loop
      vertex 1.84667 4.58133 -3.64545
      vertex 1.96349 4.30439 -3.8454
      vertex 1.84667 4.58133 -1.0322
    endloop
  endfacet
  facet normal -0.921373 -0.38868 0
    outer loop
      vertex 1.84667 4.58133 -1.0322
      vertex 1.96349 4.30439 -3.8454
      vertex 2.516 2.99467 -4.58711
    endloop
  endfacet
  facet normal -0.921373 -0.38868 0
    outer loop
      vertex 1.84667 4.58133 -1.0322
      vertex 2.516 2.99467 -4.58711
      vertex 2.516 2.99467 -1.03244
    endloop
  endfacet
  facet normal -0.990272 -0.139148 0
    outer loop
      vertex 1.44667 7.428 -2.96083
      vertex 1.84667 4.58133 -3.64545
      vertex 1.44667 7.428 -1.03206
    endloop
  endfacet
  facet normal -0.990272 -0.139148 0
    outer loop
      vertex 1.44667 7.428 -1.03206
      vertex 1.84667 4.58133 -3.64545
      vertex 1.84667 4.58133 -1.0322
    endloop
  endfacet
  facet normal -0.801956 6.7714e-17 -0.597383
    outer loop
      vertex 1.96349 4.30439 -3.8454
      vertex 1.96349 59.2755 -3.8454
      vertex 2.516 2.99467 -4.58711
    endloop
  endfacet
  facet normal -0.801956 6.7714e-17 -0.597383
    outer loop
      vertex 2.516 2.99467 -4.58711
      vertex 1.96349 59.2755 -3.8454
      vertex 2.564 60.6973 -4.65155
    endloop
  endfacet
  facet normal -0.801956 6.7714e-17 -0.597383
    outer loop
      vertex 2.516 2.99467 -4.58711
      vertex 2.564 60.6973 -4.65155
      vertex 2.93397 61.3083 -5.14821
    endloop
  endfacet
  facet normal -0.801956 6.7714e-17 -0.597383
    outer loop
      vertex 2.516 2.99467 -4.58711
      vertex 2.93397 61.3083 -5.14821
      vertex 2.93397 2.3058 -5.14821
    endloop
  endfacet
  facet normal -0.727178 7.74726e-17 -0.686449
    outer loop
      vertex 2.93397 2.3058 -5.14821
      vertex 2.93397 61.3083 -5.14821
      vertex 3.18667 1.88933 -5.4159
    endloop
  endfacet
  facet normal -0.727178 7.74726e-17 -0.686449
    outer loop
      vertex 3.18667 1.88933 -5.4159
      vertex 2.93397 61.3083 -5.14821
      vertex 3.23333 61.8027 -5.46534
    endloop
  endfacet
  facet normal -0.727178 7.74726e-17 -0.686449
    outer loop
      vertex 3.18667 1.88933 -5.4159
      vertex 3.23333 61.8027 -5.46534
      vertex 4.17467 62.4027 -6.46252
    endloop
  endfacet
  facet normal -0.727178 7.74726e-17 -0.686449
    outer loop
      vertex 3.18667 1.88933 -5.4159
      vertex 4.17467 62.4027 -6.46252
      vertex 4.60117 62.5628 -6.91434
    endloop
  endfacet
  facet normal -0.727178 7.74726e-17 -0.686449
    outer loop
      vertex 3.18667 1.88933 -5.4159
      vertex 4.60117 62.5628 -6.91434
      vertex 4.60117 1.11094 -6.91434
    endloop
  endfacet
  facet normal -0.727178 7.74726e-17 -0.686449
    outer loop
      vertex 3.18667 1.88933 -5.4159
      vertex 4.60117 1.11094 -6.91434
      vertex 4.128 1.28933 -6.41309
    endloop
  endfacet
  facet normal -0.652558 8.52579e-17 -0.757739
    outer loop
      vertex 4.60117 1.11094 -6.91434
      vertex 4.60117 62.5628 -6.91434
      vertex 5.03333 0.948 -7.28651
    endloop
  endfacet
  facet normal -0.652558 8.52579e-17 -0.757739
    outer loop
      vertex 5.03333 0.948 -7.28651
      vertex 4.60117 62.5628 -6.91434
      vertex 5.08 62.7427 -7.3267
    endloop
  endfacet
  facet normal -0.652558 8.52579e-17 -0.757739
    outer loop
      vertex 5.03333 0.948 -7.28651
      vertex 5.08 62.7427 -7.3267
      vertex 5.29379 62.77 -7.51081
    endloop
  endfacet
  facet normal -0.652558 8.52579e-17 -0.757739
    outer loop
      vertex 5.03333 0.948 -7.28651
      vertex 5.29379 62.77 -7.51081
      vertex 5.89124 62.5987 -8.02533
    endloop
  endfacet
  facet normal -0.652558 8.52579e-17 -0.757739
    outer loop
      vertex 5.03333 0.948 -7.28651
      vertex 5.89124 62.5987 -8.02533
      vertex 6.31079 62.4548 -8.38665
    endloop
  endfacet
  facet normal -0.652558 8.52579e-17 -0.757739
    outer loop
      vertex 5.03333 0.948 -7.28651
      vertex 6.31079 62.4548 -8.38665
      vertex 6.31079 1.02463 -8.38665
    endloop
  endfacet
  facet normal -0.652558 8.52579e-17 -0.757739
    outer loop
      vertex 5.03333 0.948 -7.28651
      vertex 6.31079 1.02463 -8.38665
      vertex 5.90518 0.885333 -8.03733
    endloop
  endfacet
  facet normal -0.652558 8.52579e-17 -0.757739
    outer loop
      vertex 5.03333 0.948 -7.28651
      vertex 5.90518 0.885333 -8.03733
      vertex 5.78488 0.852395 -7.93374
    endloop
  endfacet
  facet normal -7.0137e-17 0.948803 -0.315869
    outer loop
      vertex 5.29379 62.77 -7.51081
      vertex 6.7095 62.9507 -6.968
      vertex 5.89124 62.5987 -8.02533
    endloop
  endfacet
  facet normal -7.0137e-17 0.948803 -0.315869
    outer loop
      vertex 5.89124 62.5987 -8.02533
      vertex 6.7095 62.9507 -6.968
      vertex 45.2447 62.9507 -6.968
    endloop
  endfacet
  facet normal -7.0137e-17 0.948803 -0.315869
    outer loop
      vertex 5.89124 62.5987 -8.02533
      vertex 45.2447 62.9507 -6.968
      vertex 53.6573 62.6373 -7.90919
    endloop
  endfacet
  facet normal -7.0137e-17 0.948803 -0.315869
    outer loop
      vertex 5.89124 62.5987 -8.02533
      vertex 53.6573 62.6373 -7.90919
      vertex 54.6692 62.5987 -8.02533
    endloop
  endfacet
  facet normal -2.89044e-17 0.991491 -0.130174
    outer loop
      vertex 6.7095 62.9507 -6.968
      vertex 9.84315 63.3507 -3.92133
      vertex 45.2447 62.9507 -6.968
    endloop
  endfacet
  facet normal -2.89044e-17 0.991491 -0.130174
    outer loop
      vertex 45.2447 62.9507 -6.968
      vertex 9.84315 63.3507 -3.92133
      vertex 34.5051 63.3507 -3.92133
    endloop
  endfacet
  facet normal -8.2162e-17 0.929022 -0.370025
    outer loop
      vertex 5.89124 62.5987 -8.02533
      vertex 54.6692 62.5987 -8.02533
      vertex 6.31079 62.4548 -8.38665
    endloop
  endfacet
  facet normal -8.2162e-17 0.929022 -0.370025
    outer loop
      vertex 6.31079 62.4548 -8.38665
      vertex 54.6692 62.5987 -8.02533
      vertex 66.0788 62.1627 -9.12
    endloop
  endfacet
  facet normal -8.2162e-17 0.929022 -0.370025
    outer loop
      vertex 6.31079 62.4548 -8.38665
      vertex 66.0788 62.1627 -9.12
      vertex 7.35946 62.1627 -9.12
    endloop
  endfacet
  facet normal -1.0677e-16 0.876804 -0.480848
    outer loop
      vertex 7.35946 62.1627 -9.12
      vertex 66.0788 62.1627 -9.12
      vertex 7.66512 62.0454 -9.33375
    endloop
  endfacet
  facet normal -1.0677e-16 0.876804 -0.480848
    outer loop
      vertex 7.66512 62.0454 -9.33375
      vertex 66.0788 62.1627 -9.12
      vertex 82.5703 61.5325 -10.2691
    endloop
  endfacet
  facet normal -1.0677e-16 0.876804 -0.480848
    outer loop
      vertex 7.66512 62.0454 -9.33375
      vertex 82.5703 61.5325 -10.2691
      vertex 67.3004 61.1053 -11.048
    endloop
  endfacet
  facet normal -1.0677e-16 0.876804 -0.480848
    outer loop
      vertex 7.66512 62.0454 -9.33375
      vertex 67.3004 61.1053 -11.048
      vertex 11.1248 61.1053 -11.048
    endloop
  endfacet
  facet normal -1.0677e-16 0.876804 -0.480848
    outer loop
      vertex 7.66512 62.0454 -9.33375
      vertex 11.1248 61.1053 -11.048
      vertex 10.1993 61.2801 -10.7294
    endloop
  endfacet
  facet normal -1.0677e-16 0.876804 -0.480848
    outer loop
      vertex 7.66512 62.0454 -9.33375
      vertex 10.1993 61.2801 -10.7294
      vertex 8.65232 61.7177 -9.93143
    endloop
  endfacet
  facet normal 0.0509409 1.1079e-16 -0.998702
    outer loop
      vertex 65.39 2.46604 -11.1454
      vertex 65.39 61.0194 -11.1454
      vertex 67.3004 2.37867 -11.048
    endloop
  endfacet
  facet normal 0.0509409 1.1079e-16 -0.998702
    outer loop
      vertex 67.3004 2.37867 -11.048
      vertex 65.39 61.0194 -11.1454
      vertex 67.3004 61.1053 -11.048
    endloop
  endfacet
  facet normal 0.0509409 1.1079e-16 -0.998702
    outer loop
      vertex 67.3004 2.37867 -11.048
      vertex 67.3004 61.1053 -11.048
      vertex 82.5703 61.5325 -10.2691
    endloop
  endfacet
  facet normal 0.0509409 1.1079e-16 -0.998702
    outer loop
      vertex 67.3004 2.37867 -11.048
      vertex 82.5703 61.5325 -10.2691
      vertex 90.588 61.2261 -9.86016
    endloop
  endfacet
  facet normal 0.0509409 1.1079e-16 -0.998702
    outer loop
      vertex 67.3004 2.37867 -11.048
      vertex 90.588 61.2261 -9.86016
      vertex 90.588 2.46651 -9.86016
    endloop
  endfacet
  facet normal 0.0509409 1.1079e-16 -0.998702
    outer loop
      vertex 67.3004 2.37867 -11.048
      vertex 90.588 2.46651 -9.86016
      vertex 79.3868 2.0387 -10.4315
    endloop
  endfacet
  facet normal 0.137075 1.09737e-16 -0.990561
    outer loop
      vertex 90.588 2.46651 -9.86016
      vertex 90.588 61.2261 -9.86016
      vertex 93.1604 2.56476 -9.5042
    endloop
  endfacet
  facet normal 0.137075 1.09737e-16 -0.990561
    outer loop
      vertex 93.1604 2.56476 -9.5042
      vertex 90.588 61.2261 -9.86016
      vertex 93.1604 61.1278 -9.5042
    endloop
  endfacet
  facet normal 0.231081 1.07617e-16 -0.972935
    outer loop
      vertex 93.1604 2.56476 -9.5042
      vertex 93.1604 61.1278 -9.5042
      vertex 94.6981 2.62349 -9.13899
    endloop
  endfacet
  facet normal 0.231081 1.07617e-16 -0.972935
    outer loop
      vertex 94.6981 2.62349 -9.13899
      vertex 93.1604 61.1278 -9.5042
      vertex 94.6981 61.069 -9.13899
    endloop
  endfacet
  facet normal 0.279065 1.06128e-16 -0.960272
    outer loop
      vertex 94.6981 2.62349 -9.13899
      vertex 94.6981 61.069 -9.13899
      vertex 95.5262 2.65512 -8.89833
    endloop
  endfacet
  facet normal 0.279065 1.06128e-16 -0.960272
    outer loop
      vertex 95.5262 2.65512 -8.89833
      vertex 94.6981 61.069 -9.13899
      vertex 95.5262 61.0374 -8.89833
    endloop
  endfacet
  facet normal 0.33098 1.04191e-16 -0.943638
    outer loop
      vertex 95.5262 2.65512 -8.89833
      vertex 95.5262 61.0374 -8.89833
      vertex 96.6645 2.69859 -8.49907
    endloop
  endfacet
  facet normal 0.33098 1.04191e-16 -0.943638
    outer loop
      vertex 96.6645 2.69859 -8.49907
      vertex 95.5262 61.0374 -8.89833
      vertex 96.6645 60.9939 -8.49907
    endloop
  endfacet
  facet normal 0.385023 1.01795e-16 -0.922907
    outer loop
      vertex 96.6645 2.69859 -8.49907
      vertex 96.6645 60.9939 -8.49907
      vertex 96.7708 2.70266 -8.45471
    endloop
  endfacet
  facet normal 0.385023 1.01795e-16 -0.922907
    outer loop
      vertex 96.7708 2.70266 -8.45471
      vertex 96.6645 60.9939 -8.49907
      vertex 96.7708 60.9898 -8.45471
    endloop
  endfacet
  facet normal 0.432667 9.9342e-17 -0.901554
    outer loop
      vertex 96.7708 2.70266 -8.45471
      vertex 96.7708 60.9898 -8.45471
      vertex 96.8665 2.70631 -8.40878
    endloop
  endfacet
  facet normal 0.432667 9.9342e-17 -0.901554
    outer loop
      vertex 96.8665 2.70631 -8.40878
      vertex 96.7708 60.9898 -8.45471
      vertex 96.8665 60.9862 -8.40878
    endloop
  endfacet
  facet normal -0.0218149 1.11034e-16 -0.999762
    outer loop
      vertex 96.8665 2.70631 -8.40878
      vertex 96.8665 60.9862 -8.40878
      vertex 96.8772 2.70672 -8.40902
    endloop
  endfacet
  facet normal -0.0218149 1.11034e-16 -0.999762
    outer loop
      vertex 96.8772 2.70672 -8.40902
      vertex 96.8665 60.9862 -8.40878
      vertex 96.8772 60.9858 -8.40902
    endloop
  endfacet
  facet normal 0.42613 9.96985e-17 -0.904662
    outer loop
      vertex 96.8772 2.70672 -8.40902
      vertex 96.8772 60.9858 -8.40902
      vertex 97.5429 2.73214 -8.09546
    endloop
  endfacet
  facet normal 0.42613 9.96985e-17 -0.904662
    outer loop
      vertex 97.5429 2.73214 -8.09546
      vertex 96.8772 60.9858 -8.40902
      vertex 97.5429 60.9603 -8.09546
    endloop
  endfacet
  facet normal 0.430851 9.94417e-17 -0.902423
    outer loop
      vertex 97.5429 2.73214 -8.09546
      vertex 97.5429 60.9603 -8.09546
      vertex 98.2373 2.75867 -7.76389
    endloop
  endfacet
  facet normal 0.430851 9.94417e-17 -0.902423
    outer loop
      vertex 98.2373 2.75867 -7.76389
      vertex 97.5429 60.9603 -8.09546
      vertex 98.284 60.932 -7.74161
    endloop
  endfacet
  facet normal 0.430851 9.94417e-17 -0.902423
    outer loop
      vertex 98.2373 2.75867 -7.76389
      vertex 98.284 60.932 -7.74161
      vertex 98.8865 60.8742 -7.45396
    endloop
  endfacet
  facet normal 0.430851 9.94417e-17 -0.902423
    outer loop
      vertex 98.2373 2.75867 -7.76389
      vertex 98.8865 60.8742 -7.45396
      vertex 98.8865 2.82101 -7.45396
    endloop
  endfacet
  facet normal 0.586103 8.89376e-17 -0.810237
    outer loop
      vertex 98.8865 2.82101 -7.45396
      vertex 98.8865 60.8742 -7.45396
      vertex 98.9814 2.83012 -7.38534
    endloop
  endfacet
  facet normal 0.586103 8.89376e-17 -0.810237
    outer loop
      vertex 98.9814 2.83012 -7.38534
      vertex 98.8865 60.8742 -7.45396
      vertex 98.9814 60.8651 -7.38534
    endloop
  endfacet
  facet normal 0.490241 9.59152e-17 -0.871587
    outer loop
      vertex 98.9814 2.83012 -7.38534
      vertex 98.9814 60.8651 -7.38534
      vertex 100.695 2.99467 -6.42166
    endloop
  endfacet
  facet normal 0.490241 9.59152e-17 -0.871587
    outer loop
      vertex 100.695 2.99467 -6.42166
      vertex 98.9814 60.8651 -7.38534
      vertex 100.729 60.6973 -6.40216
    endloop
  endfacet
  facet normal 0.490241 9.59152e-17 -0.871587
    outer loop
      vertex 100.695 2.99467 -6.42166
      vertex 100.729 60.6973 -6.40216
      vertex 100.995 60.6207 -6.25299
    endloop
  endfacet
  facet normal 0.490241 9.59152e-17 -0.871587
    outer loop
      vertex 100.695 2.99467 -6.42166
      vertex 100.995 60.6207 -6.25299
      vertex 100.995 3.08121 -6.25299
    endloop
  endfacet
  facet normal 0.514661 9.4297e-17 -0.857394
    outer loop
      vertex 100.995 3.08121 -6.25299
      vertex 100.995 60.6207 -6.25299
      vertex 102.811 3.60533 -5.16284
    endloop
  endfacet
  facet normal 0.514661 9.4297e-17 -0.857394
    outer loop
      vertex 102.811 3.60533 -5.16284
      vertex 100.995 60.6207 -6.25299
      vertex 102.83 60.0902 -5.15143
    endloop
  endfacet
  facet normal 0.514661 9.4297e-17 -0.857394
    outer loop
      vertex 102.811 3.60533 -5.16284
      vertex 102.83 60.0902 -5.15143
      vertex 102.83 3.61849 -5.15143
    endloop
  endfacet
  facet normal 0.657979 8.24624e-17 -0.753036
    outer loop
      vertex 102.83 3.61849 -5.15143
      vertex 102.83 60.0902 -5.15143
      vertex 103.916 4.37067 -4.20223
    endloop
  endfacet
  facet normal 0.657979 8.24624e-17 -0.753036
    outer loop
      vertex 103.916 4.37067 -4.20223
      vertex 102.83 60.0902 -5.15143
      vertex 102.847 60.0853 -5.13658
    endloop
  endfacet
  facet normal 0.657979 8.24624e-17 -0.753036
    outer loop
      vertex 103.916 4.37067 -4.20223
      vertex 102.847 60.0853 -5.13658
      vertex 103.964 59.3093 -4.16029
    endloop
  endfacet
  facet normal 0.657979 8.24624e-17 -0.753036
    outer loop
      vertex 103.916 4.37067 -4.20223
      vertex 103.964 59.3093 -4.16029
      vertex 104.064 59.2124 -4.07277
    endloop
  endfacet
  facet normal 0.657979 8.24624e-17 -0.753036
    outer loop
      vertex 103.916 4.37067 -4.20223
      vertex 104.064 59.2124 -4.07277
      vertex 104.064 4.51551 -4.07277
    endloop
  endfacet
  facet normal 0.717238 7.61192e-17 -0.696828
    outer loop
      vertex 104.987 5.41733 -3.12325
      vertex 104.064 4.51551 -4.07277
      vertex 104.064 59.2124 -4.07277
    endloop
  endfacet
  facet normal 0.717238 7.61192e-17 -0.696828
    outer loop
      vertex 105.641 57.5898 -2.44945
      vertex 104.987 5.41733 -3.12325
      vertex 105.033 58.2747 -3.07521
    endloop
  endfacet
  facet normal 0.717238 7.61192e-17 -0.696828
    outer loop
      vertex 105.033 58.2747 -3.07521
      vertex 104.987 5.41733 -3.12325
      vertex 104.064 59.2124 -4.07277
    endloop
  endfacet
  facet normal 0.717238 7.61192e-17 -0.696828
    outer loop
      vertex 105.641 6.15572 -2.44945
      vertex 104.987 5.41733 -3.12325
      vertex 105.641 57.5898 -2.44945
    endloop
  endfacet
  facet normal -0.0218149 1.11034e-16 -0.999762
    outer loop
      vertex 105.641 6.15572 -2.44945
      vertex 105.641 57.5898 -2.44945
      vertex 105.653 6.16925 -2.44971
    endloop
  endfacet
  facet normal -0.0218149 1.11034e-16 -0.999762
    outer loop
      vertex 105.653 6.16925 -2.44971
      vertex 105.641 57.5898 -2.44945
      vertex 105.653 57.5763 -2.44971
    endloop
  endfacet
  facet normal 0.904734 4.57234e-17 -0.425977
    outer loop
      vertex 105.664 6.18187 -2.42595
      vertex 105.653 6.16925 -2.44971
      vertex 105.653 57.5763 -2.44971
    endloop
  endfacet
  facet normal 0.904734 4.57234e-17 -0.425977
    outer loop
      vertex 105.664 57.5637 -2.42595
      vertex 105.664 6.18187 -2.42595
      vertex 105.653 57.5763 -2.44971
    endloop
  endfacet
  facet normal 0.873371 5.2559e-17 -0.487056
    outer loop
      vertex 105.677 6.19596 -2.40355
      vertex 105.664 6.18187 -2.42595
      vertex 105.664 57.5637 -2.42595
    endloop
  endfacet
  facet normal 0.873371 5.2559e-17 -0.487056
    outer loop
      vertex 105.677 57.5496 -2.40355
      vertex 105.677 6.19596 -2.40355
      vertex 105.664 57.5637 -2.42595
    endloop
  endfacet
  facet normal -1.07225e-16 -0.875675 -0.4829
    outer loop
      vertex 60.6046 1.32133 -9.13067
      vertex 7.37472 1.32133 -9.13067
      vertex 7.66512 1.43333 -9.33375
    endloop
  endfacet
  facet normal -1.07225e-16 -0.875675 -0.4829
    outer loop
      vertex 10.1993 2.20295 -10.7294
      vertex 60.6046 1.32133 -9.13067
      vertex 8.65232 1.76292 -9.93143
    endloop
  endfacet
  facet normal -1.07225e-16 -0.875675 -0.4829
    outer loop
      vertex 8.65232 1.76292 -9.93143
      vertex 60.6046 1.32133 -9.13067
      vertex 7.66512 1.43333 -9.33375
    endloop
  endfacet
  facet normal -1.07225e-16 -0.875675 -0.4829
    outer loop
      vertex 11.1248 2.37867 -11.048
      vertex 60.6046 1.32133 -9.13067
      vertex 10.1993 2.20295 -10.7294
    endloop
  endfacet
  facet normal -1.07225e-16 -0.875675 -0.4829
    outer loop
      vertex 67.3004 2.37867 -11.048
      vertex 60.6046 1.32133 -9.13067
      vertex 11.1248 2.37867 -11.048
    endloop
  endfacet
  facet normal -1.07225e-16 -0.875675 -0.4829
    outer loop
      vertex 79.3868 2.0387 -10.4315
      vertex 60.6046 1.32133 -9.13067
      vertex 67.3004 2.37867 -11.048
    endloop
  endfacet
  facet normal -8.22484e-17 -0.928867 -0.370414
    outer loop
      vertex 49.076 0.885333 -8.03733
      vertex 5.90518 0.885333 -8.03733
      vertex 6.31079 1.02463 -8.38665
    endloop
  endfacet
  facet normal -8.22484e-17 -0.928867 -0.370414
    outer loop
      vertex 60.6046 1.32133 -9.13067
      vertex 49.076 0.885333 -8.03733
      vertex 7.37472 1.32133 -9.13067
    endloop
  endfacet
  facet normal -8.22484e-17 -0.928867 -0.370414
    outer loop
      vertex 7.37472 1.32133 -9.13067
      vertex 49.076 0.885333 -8.03733
      vertex 6.31079 1.02463 -8.38665
    endloop
  endfacet
  facet normal -8.22484e-17 -0.928867 -0.370414
    outer loop
      vertex 53.6227 1.05467 -8.46196
      vertex 49.076 0.885333 -8.03733
      vertex 60.6046 1.32133 -9.13067
    endloop
  endfacet
  facet normal -6.72812e-17 -0.952988 -0.303007
    outer loop
      vertex 8.19871 0.545333 -6.968
      vertex 5.78488 0.852395 -7.93374
      vertex 5.90518 0.885333 -8.03733
    endloop
  endfacet
  facet normal -6.72812e-17 -0.952988 -0.303007
    outer loop
      vertex 39.9468 0.545333 -6.968
      vertex 8.19871 0.545333 -6.968
      vertex 49.076 0.885333 -8.03733
    endloop
  endfacet
  facet normal -6.72812e-17 -0.952988 -0.303007
    outer loop
      vertex 49.076 0.885333 -8.03733
      vertex 8.19871 0.545333 -6.968
      vertex 5.90518 0.885333 -8.03733
    endloop
  endfacet
  facet normal -2.97562e-17 -0.99098 -0.13401
    outer loop
      vertex 11.4374 0.133333 -3.92133
      vertex 8.19871 0.545333 -6.968
      vertex 39.9468 0.545333 -6.968
    endloop
  endfacet
  facet normal -2.97562e-17 -0.99098 -0.13401
    outer loop
      vertex 14.7223 0.133333 -3.92133
      vertex 11.4374 0.133333 -3.92133
      vertex 31.82 0.242667 -4.72983
    endloop
  endfacet
  facet normal -2.97562e-17 -0.99098 -0.13401
    outer loop
      vertex 31.82 0.242667 -4.72983
      vertex 11.4374 0.133333 -3.92133
      vertex 39.9468 0.545333 -6.968
    endloop
  endfacet
  facet normal -0.573086 9.19764e-17 -0.819495
    outer loop
      vertex 6.31079 1.02463 -8.38665
      vertex 6.31079 62.4548 -8.38665
      vertex 7.37472 1.32133 -9.13067
    endloop
  endfacet
  facet normal -0.573086 9.19764e-17 -0.819495
    outer loop
      vertex 7.37472 1.32133 -9.13067
      vertex 6.31079 62.4548 -8.38665
      vertex 7.35946 62.1627 -9.12
    endloop
  endfacet
  facet normal -0.573086 9.19764e-17 -0.819495
    outer loop
      vertex 7.37472 1.32133 -9.13067
      vertex 7.35946 62.1627 -9.12
      vertex 7.66512 62.0454 -9.33375
    endloop
  endfacet
  facet normal -0.573086 9.19764e-17 -0.819495
    outer loop
      vertex 7.37472 1.32133 -9.13067
      vertex 7.66512 62.0454 -9.33375
      vertex 7.66512 1.43333 -9.33375
    endloop
  endfacet
  facet normal -0.517907 9.5871e-17 -0.855437
    outer loop
      vertex 7.66512 1.43333 -9.33375
      vertex 7.66512 62.0454 -9.33375
      vertex 8.65232 1.76292 -9.93143
    endloop
  endfacet
  facet normal -0.517907 9.5871e-17 -0.855437
    outer loop
      vertex 8.65232 1.76292 -9.93143
      vertex 7.66512 62.0454 -9.33375
      vertex 8.65232 61.7177 -9.93143
    endloop
  endfacet
  facet normal -0.458418 9.94648e-17 -0.888737
    outer loop
      vertex 8.65232 1.76292 -9.93143
      vertex 8.65232 61.7177 -9.93143
      vertex 10.1993 2.20295 -10.7294
    endloop
  endfacet
  facet normal -0.458418 9.94648e-17 -0.888737
    outer loop
      vertex 10.1993 2.20295 -10.7294
      vertex 8.65232 61.7177 -9.93143
      vertex 10.1993 61.2801 -10.7294
    endloop
  endfacet
  facet normal -0.325511 1.0554e-16 -0.945538
    outer loop
      vertex 10.1993 2.20295 -10.7294
      vertex 10.1993 61.2801 -10.7294
      vertex 11.1248 2.37867 -11.048
    endloop
  endfacet
  facet normal -0.325511 1.0554e-16 -0.945538
    outer loop
      vertex 11.1248 2.37867 -11.048
      vertex 10.1993 61.2801 -10.7294
      vertex 11.1248 61.1053 -11.048
    endloop
  endfacet
  facet normal -0.325511 1.0554e-16 -0.945538
    outer loop
      vertex 11.1248 2.37867 -11.048
      vertex 11.1248 61.1053 -11.048
      vertex 11.6593 60.9431 -11.232
    endloop
  endfacet
  facet normal -0.325511 1.0554e-16 -0.945538
    outer loop
      vertex 11.1248 2.37867 -11.048
      vertex 11.6593 60.9431 -11.232
      vertex 11.6593 2.54366 -11.232
    endloop
  endfacet
  facet normal -1.46845e-16 0.750093 -0.661332
    outer loop
      vertex 11.1248 61.1053 -11.048
      vertex 67.3004 61.1053 -11.048
      vertex 11.6593 60.9431 -11.232
    endloop
  endfacet
  facet normal -1.46845e-16 0.750093 -0.661332
    outer loop
      vertex 11.6593 60.9431 -11.232
      vertex 67.3004 61.1053 -11.048
      vertex 65.39 61.0194 -11.1454
    endloop
  endfacet
  facet normal -1.46845e-16 0.750093 -0.661332
    outer loop
      vertex 11.6593 60.9431 -11.232
      vertex 65.39 61.0194 -11.1454
      vertex 49.3267 60.4 -11.848
    endloop
  endfacet
  facet normal -1.46845e-16 0.750093 -0.661332
    outer loop
      vertex 12.9678 60.6275 -11.59
      vertex 49.3267 60.4 -11.848
      vertex 13.8546 60.4 -11.848
    endloop
  endfacet
  facet normal -1.46845e-16 0.750093 -0.661332
    outer loop
      vertex 11.6593 60.9431 -11.232
      vertex 49.3267 60.4 -11.848
      vertex 12.9678 60.6275 -11.59
    endloop
  endfacet
  facet normal -1.48235e-16 -0.744527 -0.667592
    outer loop
      vertex 67.3004 2.37867 -11.048
      vertex 11.1248 2.37867 -11.048
      vertex 11.6593 2.54366 -11.232
    endloop
  endfacet
  facet normal -1.48235e-16 -0.744527 -0.667592
    outer loop
      vertex 13.8546 3.096 -11.848
      vertex 67.3004 2.37867 -11.048
      vertex 12.9678 2.86463 -11.59
    endloop
  endfacet
  facet normal -1.48235e-16 -0.744527 -0.667592
    outer loop
      vertex 12.9678 2.86463 -11.59
      vertex 67.3004 2.37867 -11.048
      vertex 11.6593 2.54366 -11.232
    endloop
  endfacet
  facet normal -1.48235e-16 -0.744527 -0.667592
    outer loop
      vertex 49.3267 3.096 -11.848
      vertex 67.3004 2.37867 -11.048
      vertex 13.8546 3.096 -11.848
    endloop
  endfacet
  facet normal -1.48235e-16 -0.744527 -0.667592
    outer loop
      vertex 65.39 2.46604 -11.1454
      vertex 67.3004 2.37867 -11.048
      vertex 49.3267 3.096 -11.848
    endloop
  endfacet
  facet normal 0.0436948 1.1084e-16 -0.999045
    outer loop
      vertex 37.9466 3.63443 -12.3457
      vertex 37.9466 59.8515 -12.3457
      vertex 49.3267 3.096 -11.848
    endloop
  endfacet
  facet normal 0.0436948 1.1084e-16 -0.999045
    outer loop
      vertex 49.3267 3.096 -11.848
      vertex 37.9466 59.8515 -12.3457
      vertex 49.3267 60.4 -11.848
    endloop
  endfacet
  facet normal 0.0436948 1.1084e-16 -0.999045
    outer loop
      vertex 49.3267 3.096 -11.848
      vertex 49.3267 60.4 -11.848
      vertex 65.39 61.0194 -11.1454
    endloop
  endfacet
  facet normal 0.0436948 1.1084e-16 -0.999045
    outer loop
      vertex 49.3267 3.096 -11.848
      vertex 65.39 61.0194 -11.1454
      vertex 65.39 2.46604 -11.1454
    endloop
  endfacet
  facet normal -0.263871 1.07545e-16 -0.964558
    outer loop
      vertex 11.6593 2.54366 -11.232
      vertex 11.6593 60.9431 -11.232
      vertex 12.9678 2.86463 -11.59
    endloop
  endfacet
  facet normal -0.263871 1.07545e-16 -0.964558
    outer loop
      vertex 12.9678 2.86463 -11.59
      vertex 11.6593 60.9431 -11.232
      vertex 12.9678 60.6275 -11.59
    endloop
  endfacet
  facet normal -0.279388 1.07086e-16 -0.960178
    outer loop
      vertex 12.9678 2.86463 -11.59
      vertex 12.9678 60.6275 -11.59
      vertex 13.8546 3.096 -11.848
    endloop
  endfacet
  facet normal -0.279388 1.07086e-16 -0.960178
    outer loop
      vertex 13.8546 3.096 -11.848
      vertex 12.9678 60.6275 -11.59
      vertex 13.8546 60.4 -11.848
    endloop
  endfacet
  facet normal -0.279388 1.07086e-16 -0.960178
    outer loop
      vertex 13.8546 3.096 -11.848
      vertex 13.8546 60.4 -11.848
      vertex 13.9737 60.3618 -11.8826
    endloop
  endfacet
  facet normal -0.279388 1.07086e-16 -0.960178
    outer loop
      vertex 13.8546 3.096 -11.848
      vertex 13.9737 60.3618 -11.8826
      vertex 13.9737 3.13348 -11.8826
    endloop
  endfacet
  facet normal -1.6444e-16 0.671977 -0.740572
    outer loop
      vertex 13.8546 60.4 -11.848
      vertex 49.3267 60.4 -11.848
      vertex 13.9737 60.3618 -11.8826
    endloop
  endfacet
  facet normal -1.6444e-16 0.671977 -0.740572
    outer loop
      vertex 13.9737 60.3618 -11.8826
      vertex 49.3267 60.4 -11.848
      vertex 37.9466 59.8515 -12.3457
    endloop
  endfacet
  facet normal -1.6444e-16 0.671977 -0.740572
    outer loop
      vertex 13.9737 60.3618 -11.8826
      vertex 37.9466 59.8515 -12.3457
      vertex 34.3551 59.6227 -12.5533
    endloop
  endfacet
  facet normal -1.6444e-16 0.671977 -0.740572
    outer loop
      vertex 13.9737 60.3618 -11.8826
      vertex 34.3551 59.6227 -12.5533
      vertex 17.4101 59.6227 -12.5533
    endloop
  endfacet
  facet normal -1.6444e-16 0.671977 -0.740572
    outer loop
      vertex 13.9737 60.3618 -11.8826
      vertex 17.4101 59.6227 -12.5533
      vertex 16.0578 59.8708 -12.3282
    endloop
  endfacet
  facet normal -1.63052e-16 -0.678804 -0.73432
    outer loop
      vertex 13.8546 3.096 -11.848
      vertex 13.9737 3.13348 -11.8826
      vertex 49.3267 3.096 -11.848
    endloop
  endfacet
  facet normal -1.63052e-16 -0.678804 -0.73432
    outer loop
      vertex 49.3267 3.096 -11.848
      vertex 13.9737 3.13348 -11.8826
      vertex 16.0578 3.61549 -12.3282
    endloop
  endfacet
  facet normal -1.63052e-16 -0.678804 -0.73432
    outer loop
      vertex 49.3267 3.096 -11.848
      vertex 16.0578 3.61549 -12.3282
      vertex 17.4822 3.872 -12.5653
    endloop
  endfacet
  facet normal -1.63052e-16 -0.678804 -0.73432
    outer loop
      vertex 37.9466 3.63443 -12.3457
      vertex 17.4822 3.872 -12.5653
      vertex 34.1475 3.872 -12.5653
    endloop
  endfacet
  facet normal -1.63052e-16 -0.678804 -0.73432
    outer loop
      vertex 49.3267 3.096 -11.848
      vertex 17.4822 3.872 -12.5653
      vertex 37.9466 3.63443 -12.3457
    endloop
  endfacet
  facet normal 0.057709 1.10737e-16 -0.998333
    outer loop
      vertex 24.4971 9.52534 -13.1232
      vertex 24.4971 53.9608 -13.1232
      vertex 25.8207 4.82533 -13.0467
    endloop
  endfacet
  facet normal 0.057709 1.10737e-16 -0.998333
    outer loop
      vertex 25.8207 4.82533 -13.0467
      vertex 24.4971 53.9608 -13.1232
      vertex 25.8207 58.6587 -13.0467
    endloop
  endfacet
  facet normal 0.057709 1.10737e-16 -0.998333
    outer loop
      vertex 25.8207 4.82533 -13.0467
      vertex 25.8207 58.6587 -13.0467
      vertex 34.3551 59.6227 -12.5533
    endloop
  endfacet
  facet normal 0.057709 1.10737e-16 -0.998333
    outer loop
      vertex 25.8207 4.82533 -13.0467
      vertex 34.3551 59.6227 -12.5533
      vertex 37.9466 59.8515 -12.3457
    endloop
  endfacet
  facet normal 0.057709 1.10737e-16 -0.998333
    outer loop
      vertex 25.8207 4.82533 -13.0467
      vertex 37.9466 59.8515 -12.3457
      vertex 37.9466 3.63443 -12.3457
    endloop
  endfacet
  facet normal 0.057709 1.10737e-16 -0.998333
    outer loop
      vertex 25.8207 4.82533 -13.0467
      vertex 37.9466 3.63443 -12.3457
      vertex 34.1475 3.872 -12.5653
    endloop
  endfacet
  facet normal -0.20907 1.08931e-16 -0.977901
    outer loop
      vertex 13.9737 3.13348 -11.8826
      vertex 13.9737 60.3618 -11.8826
      vertex 16.0578 3.61549 -12.3282
    endloop
  endfacet
  facet normal -0.20907 1.08931e-16 -0.977901
    outer loop
      vertex 16.0578 3.61549 -12.3282
      vertex 13.9737 60.3618 -11.8826
      vertex 16.0578 59.8708 -12.3282
    endloop
  endfacet
  facet normal -0.16421 1.098e-16 -0.986425
    outer loop
      vertex 16.0578 3.61549 -12.3282
      vertex 16.0578 59.8708 -12.3282
      vertex 17.4822 3.872 -12.5653
    endloop
  endfacet
  facet normal -0.16421 1.098e-16 -0.986425
    outer loop
      vertex 17.4822 3.872 -12.5653
      vertex 16.0578 59.8708 -12.3282
      vertex 17.4101 59.6227 -12.5533
    endloop
  endfacet
  facet normal -0.16421 1.098e-16 -0.986425
    outer loop
      vertex 17.4822 3.872 -12.5653
      vertex 17.4101 59.6227 -12.5533
      vertex 18.0032 59.4297 -12.6521
    endloop
  endfacet
  facet normal -0.16421 1.098e-16 -0.986425
    outer loop
      vertex 17.4822 3.872 -12.5653
      vertex 18.0032 59.4297 -12.6521
      vertex 18.0032 4.04378 -12.6521
    endloop
  endfacet
  facet normal -1.97664e-16 0.455567 -0.890202
    outer loop
      vertex 17.4101 59.6227 -12.5533
      vertex 34.3551 59.6227 -12.5533
      vertex 18.0032 59.4297 -12.6521
    endloop
  endfacet
  facet normal -1.97664e-16 0.455567 -0.890202
    outer loop
      vertex 18.0032 59.4297 -12.6521
      vertex 34.3551 59.6227 -12.5533
      vertex 25.8207 58.6587 -13.0467
    endloop
  endfacet
  facet normal -1.97664e-16 0.455567 -0.890202
    outer loop
      vertex 18.0032 59.4297 -12.6521
      vertex 25.8207 58.6587 -13.0467
      vertex 22.428 58.6587 -13.0467
    endloop
  endfacet
  facet normal -1.97664e-16 0.455567 -0.890202
    outer loop
      vertex 18.0032 59.4297 -12.6521
      vertex 22.428 58.6587 -13.0467
      vertex 21.4175 58.7317 -13.0093
    endloop
  endfacet
  facet normal -1.98213e-16 -0.450706 -0.892672
    outer loop
      vertex 17.4822 3.872 -12.5653
      vertex 18.0032 4.04378 -12.6521
      vertex 34.1475 3.872 -12.5653
    endloop
  endfacet
  facet normal -1.98213e-16 -0.450706 -0.892672
    outer loop
      vertex 34.1475 3.872 -12.5653
      vertex 18.0032 4.04378 -12.6521
      vertex 21.4175 4.75133 -13.0093
    endloop
  endfacet
  facet normal -1.98213e-16 -0.450706 -0.892672
    outer loop
      vertex 34.1475 3.872 -12.5653
      vertex 21.4175 4.75133 -13.0093
      vertex 22.428 4.82533 -13.0467
    endloop
  endfacet
  facet normal -1.98213e-16 -0.450706 -0.892672
    outer loop
      vertex 34.1475 3.872 -12.5653
      vertex 22.428 4.82533 -13.0467
      vertex 25.8207 4.82533 -13.0467
    endloop
  endfacet
  facet normal -2.22015e-16 -0.0162763 -0.999868
    outer loop
      vertex 25.8207 4.82533 -13.0467
      vertex 22.428 4.82533 -13.0467
      vertex 24.4971 9.52534 -13.1232
    endloop
  endfacet
  facet normal -2.22015e-16 0.0162838 -0.999867
    outer loop
      vertex 24.4971 53.9608 -13.1232
      vertex 22.428 58.6587 -13.0467
      vertex 25.8207 58.6587 -13.0467
    endloop
  endfacet
  facet normal -0.036952 1.11011e-16 -0.999317
    outer loop
      vertex 21.4175 4.75133 -13.0093
      vertex 21.4175 58.7317 -13.0093
      vertex 22.428 4.82533 -13.0467
    endloop
  endfacet
  facet normal -0.036952 1.11011e-16 -0.999317
    outer loop
      vertex 22.428 4.82533 -13.0467
      vertex 21.4175 58.7317 -13.0093
      vertex 22.428 58.6587 -13.0467
    endloop
  endfacet
  facet normal -0.036952 1.11011e-16 -0.999317
    outer loop
      vertex 22.428 4.82533 -13.0467
      vertex 22.428 58.6587 -13.0467
      vertex 24.4971 53.9608 -13.1232
    endloop
  endfacet
  facet normal -0.036952 1.11011e-16 -0.999317
    outer loop
      vertex 22.428 4.82533 -13.0467
      vertex 24.4971 53.9608 -13.1232
      vertex 24.4971 9.52534 -13.1232
    endloop
  endfacet
  facet normal -0.10406 1.106e-16 -0.994571
    outer loop
      vertex 18.0032 4.04378 -12.6521
      vertex 18.0032 59.4297 -12.6521
      vertex 21.4175 4.75133 -13.0093
    endloop
  endfacet
  facet normal -0.10406 1.106e-16 -0.994571
    outer loop
      vertex 21.4175 4.75133 -13.0093
      vertex 18.0032 59.4297 -12.6521
      vertex 21.4175 58.7317 -13.0093
    endloop
  endfacet
endsolid OpenSCAD_Model
