solid OpenSCAD_Model
  facet normal 0 0 -1
    outer loop
      vertex -20 0 0
      vertex -19.563 4.15823 0
      vertex -19.563 -4.15823 0
    endloop
  endfacet
  facet normal 0 0 -1
    outer loop
      vertex -19.563 -4.15823 0
      vertex -19.563 4.15823 0
      vertex -18.2709 8.13473 0
    endloop
  endfacet
  facet normal 0 0 -1
    outer loop
      vertex -19.563 -4.15823 0
      vertex -18.2709 8.13473 0
      vertex -16.1803 11.7557 0
    endloop
  endfacet
  facet normal 0 0 -1
    outer loop
      vertex -15.987 7.11789 0
      vertex -16.1803 11.7557 0
      vertex -13.3826 14.8629 0
    endloop
  endfacet
  facet normal 0 0 -1
    outer loop
      vertex -13.005 11.7098 0
      vertex -13.3826 14.8629 0
      vertex -10 17.3205 0
    endloop
  endfacet
  facet normal 0 0 -1
    outer loop
      vertex -8.75 15.1554 0
      vertex -10 17.3205 0
      vertex -6.18034 19.0211 0
    endloop
  endfacet
  facet normal 0 0 -1
    outer loop
      vertex -5 16.7528 0
      vertex -6.18034 19.0211 0
      vertex -2.09057 19.8904 0
    endloop
  endfacet
  facet normal 0 0 -1
    outer loop
      vertex -3.0667 14.4277 0
      vertex -2.09057 19.8904 0
      vertex 2.09057 19.8904 0
    endloop
  endfacet
  facet normal 0 0 -1
    outer loop
      vertex 0 14.75 0
      vertex 2.09057 19.8904 0
      vertex 6.18034 19.0211 0
    endloop
  endfacet
  facet normal 0 0 -1
    outer loop
      vertex 7.11789 15.987 0
      vertex 6.18034 19.0211 0
      vertex 10 17.3205 0
    endloop
  endfacet
  facet normal 0 0 -1
    outer loop
      vertex 10.2862 14.1578 0
      vertex 10 17.3205 0
      vertex 13.3826 14.8629 0
    endloop
  endfacet
  facet normal 0 0 -1
    outer loop
      vertex 13.005 11.7098 0
      vertex 13.3826 14.8629 0
      vertex 16.1803 11.7557 0
    endloop
  endfacet
  facet normal 0 0 -1
    outer loop
      vertex 15.1554 8.75 0
      vertex 16.1803 11.7557 0
      vertex 18.2709 8.13473 0
    endloop
  endfacet
  facet normal 0 0 -1
    outer loop
      vertex 17.1176 3.63845 0
      vertex 18.2709 8.13473 0
      vertex 19.563 4.15823 0
    endloop
  endfacet
  facet normal 0 0 -1
    outer loop
      vertex 17.5 0 0
      vertex 19.563 4.15823 0
      vertex 20 0 0
    endloop
  endfacet
  facet normal 0 0 -1
    outer loop
      vertex 17.1176 -3.63845 0
      vertex 20 0 0
      vertex 19.563 -4.15823 0
    endloop
  endfacet
  facet normal 0 0 -1
    outer loop
      vertex 15.987 -7.11789 0
      vertex 19.563 -4.15823 0
      vertex 18.2709 -8.13473 0
    endloop
  endfacet
  facet normal 0 0 -1
    outer loop
      vertex 14.1578 -10.2862 0
      vertex 18.2709 -8.13473 0
      vertex 16.1803 -11.7557 0
    endloop
  endfacet
  facet normal 0 0 -1
    outer loop
      vertex 11.7098 -13.005 0
      vertex 16.1803 -11.7557 0
      vertex 13.3826 -14.8629 0
    endloop
  endfacet
  facet normal 0 0 -1
    outer loop
      vertex 7.11789 -15.987 0
      vertex 13.3826 -14.8629 0
      vertex 10 -17.3205 0
    endloop
  endfacet
  facet normal 0 0 -1
    outer loop
      vertex 3.63845 -17.1176 0
      vertex 10 -17.3205 0
      vertex 6.18034 -19.0211 0
    endloop
  endfacet
  facet normal 0 0 -1
    outer loop
      vertex -3.75 -14.2446 0
      vertex 6.18034 -19.0211 0
      vertex 2.09057 -19.8904 0
    endloop
  endfacet
  facet normal 0 0 -1
    outer loop
      vertex -5.4078 -16.6435 0
      vertex 2.09057 -19.8904 0
      vertex -2.09057 -19.8904 0
    endloop
  endfacet
  facet normal 0 0 -1
    outer loop
      vertex -10.2862 -14.1578 0
      vertex -2.09057 -19.8904 0
      vertex -6.18034 -19.0211 0
    endloop
  endfacet
  facet normal 0 0 -1
    outer loop
      vertex -13.005 -11.7098 0
      vertex -6.18034 -19.0211 0
      vertex -10 -17.3205 0
    endloop
  endfacet
  facet normal 0 0 -1
    outer loop
      vertex -19.563 -4.15823 0
      vertex -10 -17.3205 0
      vertex -13.3826 -14.8629 0
    endloop
  endfacet
  facet normal 0 0 -1
    outer loop
      vertex -19.563 -4.15823 0
      vertex -13.3826 -14.8629 0
      vertex -16.1803 -11.7557 0
    endloop
  endfacet
  facet normal 0 0 -1
    outer loop
      vertex -19.563 -4.15823 0
      vertex -16.1803 -11.7557 0
      vertex -18.2709 -8.13473 0
    endloop
  endfacet
  facet normal 0 0 -1
    outer loop
      vertex -17.4041 -1.82925 0
      vertex -19.563 -4.15823 0
      vertex -17.5 0 0
    endloop
  endfacet
  facet normal 0 0 -1
    outer loop
      vertex 4.558 14.0281 0
      vertex 3.0667 14.4277 0
      vertex 5 16.7528 0
    endloop
  endfacet
  facet normal 0 0 -1
    outer loop
      vertex -17.1176 -3.63845 0
      vertex -19.563 -4.15823 0
      vertex -17.4041 -1.82925 0
    endloop
  endfacet
  facet normal 0 0 -1
    outer loop
      vertex -16.6435 -5.4078 0
      vertex -19.563 -4.15823 0
      vertex -17.1176 -3.63845 0
    endloop
  endfacet
  facet normal 0 0 -1
    outer loop
      vertex -15.987 -7.11789 0
      vertex -19.563 -4.15823 0
      vertex -16.6435 -5.4078 0
    endloop
  endfacet
  facet normal 0 0 -1
    outer loop
      vertex -15.1554 -8.75 0
      vertex -19.563 -4.15823 0
      vertex -15.987 -7.11789 0
    endloop
  endfacet
  facet normal 0 0 -1
    outer loop
      vertex -14.1578 -10.2862 0
      vertex -19.563 -4.15823 0
      vertex -15.1554 -8.75 0
    endloop
  endfacet
  facet normal 0 0 -1
    outer loop
      vertex -10.2862 -14.1578 0
      vertex -6.18034 -19.0211 0
      vertex -11.7098 -13.005 0
    endloop
  endfacet
  facet normal 0 0 -1
    outer loop
      vertex -19.563 -4.15823 0
      vertex -14.1578 -10.2862 0
      vertex -10 -17.3205 0
    endloop
  endfacet
  facet normal 0 0 -1
    outer loop
      vertex -11.7098 -13.005 0
      vertex -6.18034 -19.0211 0
      vertex -13.005 -11.7098 0
    endloop
  endfacet
  facet normal 0 0 -1
    outer loop
      vertex -14.1578 -10.2862 0
      vertex -13.005 -11.7098 0
      vertex -10 -17.3205 0
    endloop
  endfacet
  facet normal 0 0 -1
    outer loop
      vertex -8.75 -15.1554 0
      vertex -2.09057 -19.8904 0
      vertex -10.2862 -14.1578 0
    endloop
  endfacet
  facet normal 0 0 -1
    outer loop
      vertex -5.4078 -16.6435 0
      vertex -2.09057 -19.8904 0
      vertex -7.11789 -15.987 0
    endloop
  endfacet
  facet normal 0 0 -1
    outer loop
      vertex -7.11789 -15.987 0
      vertex -2.09057 -19.8904 0
      vertex -8.75 -15.1554 0
    endloop
  endfacet
  facet normal 0 0 -1
    outer loop
      vertex -3.75 -17.0877 0
      vertex 2.09057 -19.8904 0
      vertex -5.4078 -16.6435 0
    endloop
  endfacet
  facet normal 0 0 -1
    outer loop
      vertex -3.75 -14.2446 0
      vertex 2.09057 -19.8904 0
      vertex -3.75 -17.0877 0
    endloop
  endfacet
  facet normal 0 0 -1
    outer loop
      vertex -3.0667 -14.4277 0
      vertex 6.18034 -19.0211 0
      vertex -3.75 -14.2446 0
    endloop
  endfacet
  facet normal 0 0 -1
    outer loop
      vertex -1.5418 -14.6692 0
      vertex 6.18034 -19.0211 0
      vertex -3.0667 -14.4277 0
    endloop
  endfacet
  facet normal 0 0 -1
    outer loop
      vertex 7.11789 -15.987 0
      vertex 10 -17.3205 0
      vertex 5.4078 -16.6435 0
    endloop
  endfacet
  facet normal 0 0 -1
    outer loop
      vertex 3.63845 -17.1176 0
      vertex 6.18034 -19.0211 0
      vertex 3.25 -17.1791 0
    endloop
  endfacet
  facet normal 0 0 -1
    outer loop
      vertex 5.4078 -16.6435 0
      vertex 10 -17.3205 0
      vertex 3.63845 -17.1176 0
    endloop
  endfacet
  facet normal 0 0 -1
    outer loop
      vertex 5 13.8584 0
      vertex 4.558 14.0281 0
      vertex 5 16.7528 0
    endloop
  endfacet
  facet normal 0 0 -1
    outer loop
      vertex 8.75 -15.1554 0
      vertex 13.3826 -14.8629 0
      vertex 7.11789 -15.987 0
    endloop
  endfacet
  facet normal 0 0 -1
    outer loop
      vertex 11.7098 -13.005 0
      vertex 13.3826 -14.8629 0
      vertex 10.2862 -14.1578 0
    endloop
  endfacet
  facet normal 0 0 -1
    outer loop
      vertex 10.2862 -14.1578 0
      vertex 13.3826 -14.8629 0
      vertex 8.75 -15.1554 0
    endloop
  endfacet
  facet normal 0 0 -1
    outer loop
      vertex 13.005 -11.7098 0
      vertex 16.1803 -11.7557 0
      vertex 11.7098 -13.005 0
    endloop
  endfacet
  facet normal 0 0 -1
    outer loop
      vertex 15.1554 -8.75 0
      vertex 18.2709 -8.13473 0
      vertex 14.1578 -10.2862 0
    endloop
  endfacet
  facet normal 0 0 -1
    outer loop
      vertex 3.25 -17.1791 0
      vertex 1.5418 -14.6692 0
      vertex 3.0667 -14.4277 0
    endloop
  endfacet
  facet normal 0 0 -1
    outer loop
      vertex 3.25 -17.1791 0
      vertex 0 -14.75 0
      vertex 1.5418 -14.6692 0
    endloop
  endfacet
  facet normal 0 0 -1
    outer loop
      vertex 16.6435 -5.4078 0
      vertex 19.563 -4.15823 0
      vertex 15.987 -7.11789 0
    endloop
  endfacet
  facet normal 0 0 -1
    outer loop
      vertex 3.25 -17.1791 0
      vertex 3.0667 -14.4277 0
      vertex 3.25 -14.3786 0
    endloop
  endfacet
  facet normal 0 0 -1
    outer loop
      vertex 17.4041 -1.82925 0
      vertex 20 0 0
      vertex 17.1176 -3.63845 0
    endloop
  endfacet
  facet normal 0 0 -1
    outer loop
      vertex 3.25 -17.1791 0
      vertex 6.18034 -19.0211 0
      vertex -1.5418 -14.6692 0
    endloop
  endfacet
  facet normal 0 0 -1
    outer loop
      vertex 0 -14.75 0
      vertex 3.25 -17.1791 0
      vertex -1.5418 -14.6692 0
    endloop
  endfacet
  facet normal 0 0 -1
    outer loop
      vertex 17.4041 1.82925 0
      vertex 19.563 4.15823 0
      vertex 17.5 0 0
    endloop
  endfacet
  facet normal 0 0 -1
    outer loop
      vertex 17.1176 3.63845 0
      vertex 19.563 4.15823 0
      vertex 17.4041 1.82925 0
    endloop
  endfacet
  facet normal 0 0 -1
    outer loop
      vertex 16.6435 5.4078 0
      vertex 18.2709 8.13473 0
      vertex 17.1176 3.63845 0
    endloop
  endfacet
  facet normal 0 0 -1
    outer loop
      vertex 15.987 7.11789 0
      vertex 18.2709 8.13473 0
      vertex 16.6435 5.4078 0
    endloop
  endfacet
  facet normal 0 0 -1
    outer loop
      vertex 17.5 0 0
      vertex 20 0 0
      vertex 17.4041 -1.82925 0
    endloop
  endfacet
  facet normal 0 0 -1
    outer loop
      vertex 14.1578 10.2862 0
      vertex 16.1803 11.7557 0
      vertex 15.1554 8.75 0
    endloop
  endfacet
  facet normal 0 0 -1
    outer loop
      vertex 17.1176 -3.63845 0
      vertex 19.563 -4.15823 0
      vertex 16.6435 -5.4078 0
    endloop
  endfacet
  facet normal 0 0 -1
    outer loop
      vertex 11.7098 13.005 0
      vertex 13.3826 14.8629 0
      vertex 13.005 11.7098 0
    endloop
  endfacet
  facet normal 0 0 -1
    outer loop
      vertex 15.987 -7.11789 0
      vertex 18.2709 -8.13473 0
      vertex 15.1554 -8.75 0
    endloop
  endfacet
  facet normal 0 0 -1
    outer loop
      vertex 8.75 15.1554 0
      vertex 10 17.3205 0
      vertex 10.2862 14.1578 0
    endloop
  endfacet
  facet normal 0 0 -1
    outer loop
      vertex 14.1578 -10.2862 0
      vertex 16.1803 -11.7557 0
      vertex 13.005 -11.7098 0
    endloop
  endfacet
  facet normal 0 0 -1
    outer loop
      vertex 5.4078 16.6435 0
      vertex 6.18034 19.0211 0
      vertex 7.11789 15.987 0
    endloop
  endfacet
  facet normal 0 0 -1
    outer loop
      vertex 5 16.7528 0
      vertex 6.18034 19.0211 0
      vertex 5.4078 16.6435 0
    endloop
  endfacet
  facet normal 0 0 -1
    outer loop
      vertex 1.5418 14.6692 0
      vertex 6.18034 19.0211 0
      vertex 5 16.7528 0
    endloop
  endfacet
  facet normal 0 0 -1
    outer loop
      vertex 1.5418 14.6692 0
      vertex 5 16.7528 0
      vertex 3.0667 14.4277 0
    endloop
  endfacet
  facet normal 0 0 -1
    outer loop
      vertex -1.5418 14.6692 0
      vertex 2.09057 19.8904 0
      vertex 0 14.75 0
    endloop
  endfacet
  facet normal 0 0 -1
    outer loop
      vertex -3.0667 14.4277 0
      vertex 2.09057 19.8904 0
      vertex -1.5418 14.6692 0
    endloop
  endfacet
  facet normal 0 0 -1
    outer loop
      vertex -4.558 14.0281 0
      vertex -2.09057 19.8904 0
      vertex -3.0667 14.4277 0
    endloop
  endfacet
  facet normal 0 0 -1
    outer loop
      vertex -5 13.8584 0
      vertex -2.09057 19.8904 0
      vertex -4.558 14.0281 0
    endloop
  endfacet
  facet normal 0 0 -1
    outer loop
      vertex 0 14.75 0
      vertex 6.18034 19.0211 0
      vertex 1.5418 14.6692 0
    endloop
  endfacet
  facet normal 0 0 -1
    outer loop
      vertex -5.4078 16.6435 0
      vertex -6.18034 19.0211 0
      vertex -5 16.7528 0
    endloop
  endfacet
  facet normal 0 0 -1
    outer loop
      vertex -7.11789 15.987 0
      vertex -6.18034 19.0211 0
      vertex -5.4078 16.6435 0
    endloop
  endfacet
  facet normal 0 0 -1
    outer loop
      vertex -10.2862 14.1578 0
      vertex -10 17.3205 0
      vertex -8.75 15.1554 0
    endloop
  endfacet
  facet normal 0 0 -1
    outer loop
      vertex -13.005 11.7098 0
      vertex -10 17.3205 0
      vertex -11.7098 13.005 0
    endloop
  endfacet
  facet normal 0 0 -1
    outer loop
      vertex -11.7098 13.005 0
      vertex -10 17.3205 0
      vertex -10.2862 14.1578 0
    endloop
  endfacet
  facet normal 0 0 -1
    outer loop
      vertex -14.1578 10.2862 0
      vertex -13.3826 14.8629 0
      vertex -13.005 11.7098 0
    endloop
  endfacet
  facet normal 0 0 -1
    outer loop
      vertex -15.1554 8.75 0
      vertex -13.3826 14.8629 0
      vertex -14.1578 10.2862 0
    endloop
  endfacet
  facet normal 0 0 -1
    outer loop
      vertex -16.6435 5.4078 0
      vertex -16.1803 11.7557 0
      vertex -15.987 7.11789 0
    endloop
  endfacet
  facet normal 0 0 -1
    outer loop
      vertex -17.4041 1.82925 0
      vertex -19.563 -4.15823 0
      vertex -17.1176 3.63845 0
    endloop
  endfacet
  facet normal 0 0 -1
    outer loop
      vertex -19.563 -4.15823 0
      vertex -16.1803 11.7557 0
      vertex -16.6435 5.4078 0
    endloop
  endfacet
  facet normal 0 0 -1
    outer loop
      vertex -19.563 -4.15823 0
      vertex -16.6435 5.4078 0
      vertex -17.1176 3.63845 0
    endloop
  endfacet
  facet normal 0 0 -1
    outer loop
      vertex -17.5 0 0
      vertex -19.563 -4.15823 0
      vertex -17.4041 1.82925 0
    endloop
  endfacet
  facet normal 0 0 -1
    outer loop
      vertex -15.987 7.11789 0
      vertex -13.3826 14.8629 0
      vertex -15.1554 8.75 0
    endloop
  endfacet
  facet normal 0 0 -1
    outer loop
      vertex -8.75 15.1554 0
      vertex -6.18034 19.0211 0
      vertex -7.11789 15.987 0
    endloop
  endfacet
  facet normal 0 0 -1
    outer loop
      vertex -5 16.7528 0
      vertex -2.09057 19.8904 0
      vertex -5 13.8584 0
    endloop
  endfacet
  facet normal 0 0 -1
    outer loop
      vertex 7.11789 15.987 0
      vertex 10 17.3205 0
      vertex 8.75 15.1554 0
    endloop
  endfacet
  facet normal 0 0 -1
    outer loop
      vertex 10.2862 14.1578 0
      vertex 13.3826 14.8629 0
      vertex 11.7098 13.005 0
    endloop
  endfacet
  facet normal 0 0 -1
    outer loop
      vertex 13.005 11.7098 0
      vertex 16.1803 11.7557 0
      vertex 14.1578 10.2862 0
    endloop
  endfacet
  facet normal 0 0 -1
    outer loop
      vertex 15.1554 8.75 0
      vertex 18.2709 8.13473 0
      vertex 15.987 7.11789 0
    endloop
  endfacet
  facet normal -0.994522 0.104528 0
    outer loop
      vertex -20 0 0
      vertex -20 0 10
      vertex -19.563 4.15823 0
    endloop
  endfacet
  facet normal -0.994522 0.104528 0
    outer loop
      vertex -19.563 4.15823 0
      vertex -20 0 10
      vertex -19.563 4.15823 10
    endloop
  endfacet
  facet normal -0.994522 -0.104528 0
    outer loop
      vertex -20 0 0
      vertex -19.563 -4.15823 0
      vertex -20 0 10
    endloop
  endfacet
  facet normal -0.994522 -0.104528 0
    outer loop
      vertex -20 0 10
      vertex -19.563 -4.15823 0
      vertex -19.563 -4.15823 10
    endloop
  endfacet
  facet normal -0.951057 -0.309017 0
    outer loop
      vertex -19.563 -4.15823 0
      vertex -18.2709 -8.13473 0
      vertex -19.563 -4.15823 10
    endloop
  endfacet
  facet normal -0.951057 -0.309017 0
    outer loop
      vertex -19.563 -4.15823 10
      vertex -18.2709 -8.13473 0
      vertex -18.2709 -8.13473 10
    endloop
  endfacet
  facet normal -0.866025 -0.5 0
    outer loop
      vertex -18.2709 -8.13473 0
      vertex -16.1803 -11.7557 0
      vertex -18.2709 -8.13473 10
    endloop
  endfacet
  facet normal -0.866025 -0.5 0
    outer loop
      vertex -18.2709 -8.13473 10
      vertex -16.1803 -11.7557 0
      vertex -16.1803 -11.7557 10
    endloop
  endfacet
  facet normal -0.743145 -0.669131 0
    outer loop
      vertex -16.1803 -11.7557 0
      vertex -13.3826 -14.8629 0
      vertex -16.1803 -11.7557 10
    endloop
  endfacet
  facet normal -0.743145 -0.669131 0
    outer loop
      vertex -16.1803 -11.7557 10
      vertex -13.3826 -14.8629 0
      vertex -13.3826 -14.8629 10
    endloop
  endfacet
  facet normal -0.587785 -0.809017 0
    outer loop
      vertex -13.3826 -14.8629 10
      vertex -13.3826 -14.8629 0
      vertex -10 -17.3205 0
    endloop
  endfacet
  facet normal -0.587785 -0.809017 0
    outer loop
      vertex -10 -17.3205 10
      vertex -13.3826 -14.8629 10
      vertex -10 -17.3205 0
    endloop
  endfacet
  facet normal -0.406737 -0.913545 0
    outer loop
      vertex -10 -17.3205 10
      vertex -10 -17.3205 0
      vertex -6.18034 -19.0211 0
    endloop
  endfacet
  facet normal -0.406737 -0.913545 0
    outer loop
      vertex -6.18034 -19.0211 10
      vertex -10 -17.3205 10
      vertex -6.18034 -19.0211 0
    endloop
  endfacet
  facet normal -0.207912 -0.978148 0
    outer loop
      vertex -6.18034 -19.0211 10
      vertex -6.18034 -19.0211 0
      vertex -2.09057 -19.8904 0
    endloop
  endfacet
  facet normal -0.207912 -0.978148 0
    outer loop
      vertex -2.09057 -19.8904 10
      vertex -6.18034 -19.0211 10
      vertex -2.09057 -19.8904 0
    endloop
  endfacet
  facet normal 0 -1 0
    outer loop
      vertex -2.09057 -19.8904 10
      vertex -2.09057 -19.8904 0
      vertex 2.09057 -19.8904 0
    endloop
  endfacet
  facet normal 0 -1 0
    outer loop
      vertex 2.09057 -19.8904 10
      vertex -2.09057 -19.8904 10
      vertex 2.09057 -19.8904 0
    endloop
  endfacet
  facet normal 0.207912 -0.978148 0
    outer loop
      vertex 2.09057 -19.8904 10
      vertex 2.09057 -19.8904 0
      vertex 6.18034 -19.0211 0
    endloop
  endfacet
  facet normal 0.207912 -0.978148 0
    outer loop
      vertex 6.18034 -19.0211 10
      vertex 2.09057 -19.8904 10
      vertex 6.18034 -19.0211 0
    endloop
  endfacet
  facet normal 0.406737 -0.913545 0
    outer loop
      vertex 6.18034 -19.0211 10
      vertex 6.18034 -19.0211 0
      vertex 10 -17.3205 0
    endloop
  endfacet
  facet normal 0.406737 -0.913545 0
    outer loop
      vertex 10 -17.3205 10
      vertex 6.18034 -19.0211 10
      vertex 10 -17.3205 0
    endloop
  endfacet
  facet normal 0.587785 -0.809017 0
    outer loop
      vertex 10 -17.3205 10
      vertex 10 -17.3205 0
      vertex 13.3826 -14.8629 0
    endloop
  endfacet
  facet normal 0.587785 -0.809017 0
    outer loop
      vertex 13.3826 -14.8629 10
      vertex 10 -17.3205 10
      vertex 13.3826 -14.8629 0
    endloop
  endfacet
  facet normal 0.743145 -0.669131 0
    outer loop
      vertex 13.3826 -14.8629 10
      vertex 13.3826 -14.8629 0
      vertex 16.1803 -11.7557 0
    endloop
  endfacet
  facet normal 0.743145 -0.669131 0
    outer loop
      vertex 16.1803 -11.7557 10
      vertex 13.3826 -14.8629 10
      vertex 16.1803 -11.7557 0
    endloop
  endfacet
  facet normal 0.866025 -0.5 0
    outer loop
      vertex 16.1803 -11.7557 10
      vertex 16.1803 -11.7557 0
      vertex 18.2709 -8.13473 0
    endloop
  endfacet
  facet normal 0.866025 -0.5 0
    outer loop
      vertex 18.2709 -8.13473 10
      vertex 16.1803 -11.7557 10
      vertex 18.2709 -8.13473 0
    endloop
  endfacet
  facet normal 0.951057 -0.309017 0
    outer loop
      vertex 18.2709 -8.13473 10
      vertex 18.2709 -8.13473 0
      vertex 19.563 -4.15823 0
    endloop
  endfacet
  facet normal 0.951057 -0.309017 0
    outer loop
      vertex 19.563 -4.15823 10
      vertex 18.2709 -8.13473 10
      vertex 19.563 -4.15823 0
    endloop
  endfacet
  facet normal 0.994522 -0.104528 0
    outer loop
      vertex 19.563 -4.15823 10
      vertex 19.563 -4.15823 0
      vertex 20 0 0
    endloop
  endfacet
  facet normal 0.994522 -0.104528 0
    outer loop
      vertex 20 0 10
      vertex 19.563 -4.15823 10
      vertex 20 0 0
    endloop
  endfacet
  facet normal 0.994522 0.104528 0
    outer loop
      vertex 20 0 0
      vertex 19.563 4.15823 0
      vertex 19.563 4.15823 10
    endloop
  endfacet
  facet normal 0.994522 0.104528 0
    outer loop
      vertex 20 0 10
      vertex 20 0 0
      vertex 19.563 4.15823 10
    endloop
  endfacet
  facet normal 0.951057 0.309017 0
    outer loop
      vertex 19.563 4.15823 0
      vertex 18.2709 8.13473 0
      vertex 18.2709 8.13473 10
    endloop
  endfacet
  facet normal 0.951057 0.309017 0
    outer loop
      vertex 19.563 4.15823 10
      vertex 19.563 4.15823 0
      vertex 18.2709 8.13473 10
    endloop
  endfacet
  facet normal 0.866025 0.5 0
    outer loop
      vertex 18.2709 8.13473 0
      vertex 16.1803 11.7557 0
      vertex 16.1803 11.7557 10
    endloop
  endfacet
  facet normal 0.866025 0.5 0
    outer loop
      vertex 18.2709 8.13473 10
      vertex 18.2709 8.13473 0
      vertex 16.1803 11.7557 10
    endloop
  endfacet
  facet normal 0.743145 0.669131 0
    outer loop
      vertex 16.1803 11.7557 0
      vertex 13.3826 14.8629 0
      vertex 13.3826 14.8629 10
    endloop
  endfacet
  facet normal 0.743145 0.669131 0
    outer loop
      vertex 16.1803 11.7557 10
      vertex 16.1803 11.7557 0
      vertex 13.3826 14.8629 10
    endloop
  endfacet
  facet normal 0.587785 0.809017 0
    outer loop
      vertex 10 17.3205 0
      vertex 10 17.3205 10
      vertex 13.3826 14.8629 0
    endloop
  endfacet
  facet normal 0.587785 0.809017 0
    outer loop
      vertex 13.3826 14.8629 0
      vertex 10 17.3205 10
      vertex 13.3826 14.8629 10
    endloop
  endfacet
  facet normal 0.406737 0.913545 0
    outer loop
      vertex 6.18034 19.0211 0
      vertex 6.18034 19.0211 10
      vertex 10 17.3205 0
    endloop
  endfacet
  facet normal 0.406737 0.913545 0
    outer loop
      vertex 10 17.3205 0
      vertex 6.18034 19.0211 10
      vertex 10 17.3205 10
    endloop
  endfacet
  facet normal 0.207912 0.978148 0
    outer loop
      vertex 2.09057 19.8904 0
      vertex 2.09057 19.8904 10
      vertex 6.18034 19.0211 0
    endloop
  endfacet
  facet normal 0.207912 0.978148 0
    outer loop
      vertex 6.18034 19.0211 0
      vertex 2.09057 19.8904 10
      vertex 6.18034 19.0211 10
    endloop
  endfacet
  facet normal 0 1 0
    outer loop
      vertex -2.09057 19.8904 0
      vertex -2.09057 19.8904 10
      vertex 2.09057 19.8904 0
    endloop
  endfacet
  facet normal 0 1 0
    outer loop
      vertex 2.09057 19.8904 0
      vertex -2.09057 19.8904 10
      vertex 2.09057 19.8904 10
    endloop
  endfacet
  facet normal -0.207912 0.978148 0
    outer loop
      vertex -6.18034 19.0211 0
      vertex -6.18034 19.0211 10
      vertex -2.09057 19.8904 0
    endloop
  endfacet
  facet normal -0.207912 0.978148 0
    outer loop
      vertex -2.09057 19.8904 0
      vertex -6.18034 19.0211 10
      vertex -2.09057 19.8904 10
    endloop
  endfacet
  facet normal -0.406737 0.913545 0
    outer loop
      vertex -10 17.3205 0
      vertex -10 17.3205 10
      vertex -6.18034 19.0211 0
    endloop
  endfacet
  facet normal -0.406737 0.913545 0
    outer loop
      vertex -6.18034 19.0211 0
      vertex -10 17.3205 10
      vertex -6.18034 19.0211 10
    endloop
  endfacet
  facet normal -0.587785 0.809017 0
    outer loop
      vertex -13.3826 14.8629 0
      vertex -13.3826 14.8629 10
      vertex -10 17.3205 0
    endloop
  endfacet
  facet normal -0.587785 0.809017 0
    outer loop
      vertex -10 17.3205 0
      vertex -13.3826 14.8629 10
      vertex -10 17.3205 10
    endloop
  endfacet
  facet normal -0.743145 0.669131 0
    outer loop
      vertex -16.1803 11.7557 0
      vertex -16.1803 11.7557 10
      vertex -13.3826 14.8629 0
    endloop
  endfacet
  facet normal -0.743145 0.669131 0
    outer loop
      vertex -13.3826 14.8629 0
      vertex -16.1803 11.7557 10
      vertex -13.3826 14.8629 10
    endloop
  endfacet
  facet normal -0.866025 0.5 0
    outer loop
      vertex -18.2709 8.13473 0
      vertex -18.2709 8.13473 10
      vertex -16.1803 11.7557 0
    endloop
  endfacet
  facet normal -0.866025 0.5 0
    outer loop
      vertex -16.1803 11.7557 0
      vertex -18.2709 8.13473 10
      vertex -16.1803 11.7557 10
    endloop
  endfacet
  facet normal -0.951057 0.309017 0
    outer loop
      vertex -19.563 4.15823 0
      vertex -19.563 4.15823 10
      vertex -18.2709 8.13473 0
    endloop
  endfacet
  facet normal -0.951057 0.309017 0
    outer loop
      vertex -18.2709 8.13473 0
      vertex -19.563 4.15823 10
      vertex -18.2709 8.13473 10
    endloop
  endfacet
  facet normal 0.99863 -0.0523361 0
    outer loop
      vertex -17.4041 1.82925 0
      vertex -17.4041 1.82925 10
      vertex -17.5 0 10
    endloop
  endfacet
  facet normal 0.99863 -0.0523361 0
    outer loop
      vertex -17.5 0 0
      vertex -17.4041 1.82925 0
      vertex -17.5 0 10
    endloop
  endfacet
  facet normal 0.99863 0.0523361 0
    outer loop
      vertex -17.5 0 10
      vertex -17.4041 -1.82925 10
      vertex -17.4041 -1.82925 0
    endloop
  endfacet
  facet normal 0.99863 0.0523361 0
    outer loop
      vertex -17.5 0 0
      vertex -17.5 0 10
      vertex -17.4041 -1.82925 0
    endloop
  endfacet
  facet normal 0.987688 -0.156434 0
    outer loop
      vertex -17.1176 3.63845 0
      vertex -17.1176 3.63845 10
      vertex -17.4041 1.82925 10
    endloop
  endfacet
  facet normal 0.987688 -0.156434 0
    outer loop
      vertex -17.4041 1.82925 0
      vertex -17.1176 3.63845 0
      vertex -17.4041 1.82925 10
    endloop
  endfacet
  facet normal 0.965926 -0.258819 0
    outer loop
      vertex -16.6435 5.4078 0
      vertex -16.6435 5.4078 10
      vertex -17.1176 3.63845 10
    endloop
  endfacet
  facet normal 0.965926 -0.258819 0
    outer loop
      vertex -17.1176 3.63845 0
      vertex -16.6435 5.4078 0
      vertex -17.1176 3.63845 10
    endloop
  endfacet
  facet normal 0.933581 -0.358368 0
    outer loop
      vertex -15.987 7.11789 0
      vertex -15.987 7.11789 10
      vertex -16.6435 5.4078 10
    endloop
  endfacet
  facet normal 0.933581 -0.358368 0
    outer loop
      vertex -16.6435 5.4078 0
      vertex -15.987 7.11789 0
      vertex -16.6435 5.4078 10
    endloop
  endfacet
  facet normal 0.891007 -0.45399 0
    outer loop
      vertex -15.1554 8.75 0
      vertex -15.1554 8.75 10
      vertex -15.987 7.11789 10
    endloop
  endfacet
  facet normal 0.891007 -0.45399 0
    outer loop
      vertex -15.987 7.11789 0
      vertex -15.1554 8.75 0
      vertex -15.987 7.11789 10
    endloop
  endfacet
  facet normal 0.83867 -0.544639 0
    outer loop
      vertex -14.1578 10.2862 0
      vertex -14.1578 10.2862 10
      vertex -15.1554 8.75 10
    endloop
  endfacet
  facet normal 0.83867 -0.544639 0
    outer loop
      vertex -15.1554 8.75 0
      vertex -14.1578 10.2862 0
      vertex -15.1554 8.75 10
    endloop
  endfacet
  facet normal 0.777146 -0.62932 0
    outer loop
      vertex -13.005 11.7098 0
      vertex -13.005 11.7098 10
      vertex -14.1578 10.2862 10
    endloop
  endfacet
  facet normal 0.777146 -0.62932 0
    outer loop
      vertex -14.1578 10.2862 0
      vertex -13.005 11.7098 0
      vertex -14.1578 10.2862 10
    endloop
  endfacet
  facet normal 0.707107 -0.707107 0
    outer loop
      vertex -11.7098 13.005 0
      vertex -11.7098 13.005 10
      vertex -13.005 11.7098 10
    endloop
  endfacet
  facet normal 0.707107 -0.707107 0
    outer loop
      vertex -13.005 11.7098 0
      vertex -11.7098 13.005 0
      vertex -13.005 11.7098 10
    endloop
  endfacet
  facet normal 0.62932 -0.777146 0
    outer loop
      vertex -10.2862 14.1578 0
      vertex -10.2862 14.1578 10
      vertex -11.7098 13.005 10
    endloop
  endfacet
  facet normal 0.62932 -0.777146 0
    outer loop
      vertex -11.7098 13.005 0
      vertex -10.2862 14.1578 0
      vertex -11.7098 13.005 10
    endloop
  endfacet
  facet normal 0.544639 -0.83867 0
    outer loop
      vertex -8.75 15.1554 0
      vertex -8.75 15.1554 10
      vertex -10.2862 14.1578 10
    endloop
  endfacet
  facet normal 0.544639 -0.83867 0
    outer loop
      vertex -10.2862 14.1578 0
      vertex -8.75 15.1554 0
      vertex -10.2862 14.1578 10
    endloop
  endfacet
  facet normal 0.45399 -0.891007 0
    outer loop
      vertex -7.11789 15.987 0
      vertex -7.11789 15.987 10
      vertex -8.75 15.1554 10
    endloop
  endfacet
  facet normal 0.45399 -0.891007 0
    outer loop
      vertex -8.75 15.1554 0
      vertex -7.11789 15.987 0
      vertex -8.75 15.1554 10
    endloop
  endfacet
  facet normal 0.358368 -0.933581 0
    outer loop
      vertex -5.4078 16.6435 0
      vertex -5.4078 16.6435 10
      vertex -7.11789 15.987 10
    endloop
  endfacet
  facet normal 0.358368 -0.933581 0
    outer loop
      vertex -7.11789 15.987 0
      vertex -5.4078 16.6435 0
      vertex -7.11789 15.987 10
    endloop
  endfacet
  facet normal 0.258819 -0.965926 0
    outer loop
      vertex -3.63845 17.1176 10
      vertex -5 16.7528 7
      vertex -3.63845 17.1176 7
    endloop
  endfacet
  facet normal 0.258819 -0.965926 0
    outer loop
      vertex -5.4078 16.6435 10
      vertex -5 16.7528 7
      vertex -3.63845 17.1176 10
    endloop
  endfacet
  facet normal 0.258819 -0.965926 0
    outer loop
      vertex -5 16.7528 0
      vertex -5 16.7528 7
      vertex -5.4078 16.6435 10
    endloop
  endfacet
  facet normal 0.258819 -0.965926 0
    outer loop
      vertex -5.4078 16.6435 0
      vertex -5 16.7528 0
      vertex -5.4078 16.6435 10
    endloop
  endfacet
  facet normal -1 0 0
    outer loop
      vertex -5 13.8584 0
      vertex -5 13.8584 7
      vertex -5 16.7528 0
    endloop
  endfacet
  facet normal -1 0 0
    outer loop
      vertex -5 16.7528 0
      vertex -5 13.8584 7
      vertex -5 16.7528 7
    endloop
  endfacet
  facet normal 0.358368 -0.93358 0
    outer loop
      vertex -4.558 14.0281 0
      vertex -4.558 14.0281 7
      vertex -5 13.8584 7
    endloop
  endfacet
  facet normal 0.358368 -0.93358 0
    outer loop
      vertex -5 13.8584 0
      vertex -4.558 14.0281 0
      vertex -5 13.8584 7
    endloop
  endfacet
  facet normal 0.258819 -0.965926 0
    outer loop
      vertex -3.0667 14.4277 0
      vertex -3.0667 14.4277 7
      vertex -4.558 14.0281 7
    endloop
  endfacet
  facet normal 0.258819 -0.965926 0
    outer loop
      vertex -4.558 14.0281 0
      vertex -3.0667 14.4277 0
      vertex -4.558 14.0281 7
    endloop
  endfacet
  facet normal 0.156435 -0.987688 0
    outer loop
      vertex -1.5418 14.6692 0
      vertex -1.5418 14.6692 7
      vertex -3.0667 14.4277 7
    endloop
  endfacet
  facet normal 0.156435 -0.987688 0
    outer loop
      vertex -3.0667 14.4277 0
      vertex -1.5418 14.6692 0
      vertex -3.0667 14.4277 7
    endloop
  endfacet
  facet normal 0.0523359 -0.99863 0
    outer loop
      vertex 0 14.75 0
      vertex 0 14.75 7
      vertex -1.5418 14.6692 7
    endloop
  endfacet
  facet normal 0.0523359 -0.99863 0
    outer loop
      vertex -1.5418 14.6692 0
      vertex 0 14.75 0
      vertex -1.5418 14.6692 7
    endloop
  endfacet
  facet normal -0.0523359 -0.99863 0
    outer loop
      vertex 1.5418 14.6692 0
      vertex 1.5418 14.6692 7
      vertex 0 14.75 7
    endloop
  endfacet
  facet normal -0.0523359 -0.99863 0
    outer loop
      vertex 0 14.75 0
      vertex 1.5418 14.6692 0
      vertex 0 14.75 7
    endloop
  endfacet
  facet normal -0.156435 -0.987688 0
    outer loop
      vertex 3.0667 14.4277 0
      vertex 3.0667 14.4277 7
      vertex 1.5418 14.6692 7
    endloop
  endfacet
  facet normal -0.156435 -0.987688 0
    outer loop
      vertex 1.5418 14.6692 0
      vertex 3.0667 14.4277 0
      vertex 1.5418 14.6692 7
    endloop
  endfacet
  facet normal -0.258819 -0.965926 0
    outer loop
      vertex 4.558 14.0281 0
      vertex 4.558 14.0281 7
      vertex 3.0667 14.4277 7
    endloop
  endfacet
  facet normal -0.258819 -0.965926 0
    outer loop
      vertex 3.0667 14.4277 0
      vertex 4.558 14.0281 0
      vertex 3.0667 14.4277 7
    endloop
  endfacet
  facet normal -0.358368 -0.93358 0
    outer loop
      vertex 5 13.8584 0
      vertex 5 13.8584 7
      vertex 4.558 14.0281 7
    endloop
  endfacet
  facet normal -0.358368 -0.93358 0
    outer loop
      vertex 4.558 14.0281 0
      vertex 5 13.8584 0
      vertex 4.558 14.0281 7
    endloop
  endfacet
  facet normal 1 0 0
    outer loop
      vertex 5 13.8584 7
      vertex 5 13.8584 0
      vertex 5 16.7528 0
    endloop
  endfacet
  facet normal 1 0 0
    outer loop
      vertex 5 16.7528 7
      vertex 5 13.8584 7
      vertex 5 16.7528 0
    endloop
  endfacet
  facet normal -0.258819 -0.965926 0
    outer loop
      vertex 5 16.7528 7
      vertex 5 16.7528 0
      vertex 5.4078 16.6435 0
    endloop
  endfacet
  facet normal -0.258819 -0.965926 0
    outer loop
      vertex 3.63845 17.1176 10
      vertex 5 16.7528 7
      vertex 5.4078 16.6435 10
    endloop
  endfacet
  facet normal -0.258819 -0.965926 0
    outer loop
      vertex 5.4078 16.6435 10
      vertex 5 16.7528 7
      vertex 5.4078 16.6435 0
    endloop
  endfacet
  facet normal -0.258819 -0.965926 0
    outer loop
      vertex 3.63845 17.1176 7
      vertex 5 16.7528 7
      vertex 3.63845 17.1176 10
    endloop
  endfacet
  facet normal -0.358368 -0.933581 0
    outer loop
      vertex 7.11789 15.987 0
      vertex 7.11789 15.987 10
      vertex 5.4078 16.6435 10
    endloop
  endfacet
  facet normal -0.358368 -0.933581 0
    outer loop
      vertex 5.4078 16.6435 0
      vertex 7.11789 15.987 0
      vertex 5.4078 16.6435 10
    endloop
  endfacet
  facet normal -0.45399 -0.891007 0
    outer loop
      vertex 8.75 15.1554 0
      vertex 8.75 15.1554 10
      vertex 7.11789 15.987 10
    endloop
  endfacet
  facet normal -0.45399 -0.891007 0
    outer loop
      vertex 7.11789 15.987 0
      vertex 8.75 15.1554 0
      vertex 7.11789 15.987 10
    endloop
  endfacet
  facet normal -0.544639 -0.83867 0
    outer loop
      vertex 10.2862 14.1578 0
      vertex 10.2862 14.1578 10
      vertex 8.75 15.1554 10
    endloop
  endfacet
  facet normal -0.544639 -0.83867 0
    outer loop
      vertex 8.75 15.1554 0
      vertex 10.2862 14.1578 0
      vertex 8.75 15.1554 10
    endloop
  endfacet
  facet normal -0.62932 -0.777146 0
    outer loop
      vertex 11.7098 13.005 0
      vertex 11.7098 13.005 10
      vertex 10.2862 14.1578 10
    endloop
  endfacet
  facet normal -0.62932 -0.777146 0
    outer loop
      vertex 10.2862 14.1578 0
      vertex 11.7098 13.005 0
      vertex 10.2862 14.1578 10
    endloop
  endfacet
  facet normal -0.707107 -0.707107 0
    outer loop
      vertex 13.005 11.7098 0
      vertex 13.005 11.7098 10
      vertex 11.7098 13.005 10
    endloop
  endfacet
  facet normal -0.707107 -0.707107 0
    outer loop
      vertex 11.7098 13.005 0
      vertex 13.005 11.7098 0
      vertex 11.7098 13.005 10
    endloop
  endfacet
  facet normal -0.777146 -0.62932 0
    outer loop
      vertex 14.1578 10.2862 10
      vertex 13.005 11.7098 10
      vertex 14.1578 10.2862 0
    endloop
  endfacet
  facet normal -0.777146 -0.62932 0
    outer loop
      vertex 14.1578 10.2862 0
      vertex 13.005 11.7098 10
      vertex 13.005 11.7098 0
    endloop
  endfacet
  facet normal -0.83867 -0.544639 0
    outer loop
      vertex 15.1554 8.75 10
      vertex 14.1578 10.2862 10
      vertex 15.1554 8.75 0
    endloop
  endfacet
  facet normal -0.83867 -0.544639 0
    outer loop
      vertex 15.1554 8.75 0
      vertex 14.1578 10.2862 10
      vertex 14.1578 10.2862 0
    endloop
  endfacet
  facet normal -0.891007 -0.45399 0
    outer loop
      vertex 15.987 7.11789 10
      vertex 15.1554 8.75 10
      vertex 15.987 7.11789 0
    endloop
  endfacet
  facet normal -0.891007 -0.45399 0
    outer loop
      vertex 15.987 7.11789 0
      vertex 15.1554 8.75 10
      vertex 15.1554 8.75 0
    endloop
  endfacet
  facet normal -0.933581 -0.358368 0
    outer loop
      vertex 16.6435 5.4078 10
      vertex 15.987 7.11789 10
      vertex 16.6435 5.4078 0
    endloop
  endfacet
  facet normal -0.933581 -0.358368 0
    outer loop
      vertex 16.6435 5.4078 0
      vertex 15.987 7.11789 10
      vertex 15.987 7.11789 0
    endloop
  endfacet
  facet normal -0.965926 -0.258819 0
    outer loop
      vertex 17.1176 3.63845 10
      vertex 16.6435 5.4078 10
      vertex 17.1176 3.63845 0
    endloop
  endfacet
  facet normal -0.965926 -0.258819 0
    outer loop
      vertex 17.1176 3.63845 0
      vertex 16.6435 5.4078 10
      vertex 16.6435 5.4078 0
    endloop
  endfacet
  facet normal -0.987688 -0.156434 0
    outer loop
      vertex 17.4041 1.82925 10
      vertex 17.1176 3.63845 10
      vertex 17.4041 1.82925 0
    endloop
  endfacet
  facet normal -0.987688 -0.156434 0
    outer loop
      vertex 17.4041 1.82925 0
      vertex 17.1176 3.63845 10
      vertex 17.1176 3.63845 0
    endloop
  endfacet
  facet normal -0.99863 -0.0523361 0
    outer loop
      vertex 17.5 0 10
      vertex 17.4041 1.82925 10
      vertex 17.5 0 0
    endloop
  endfacet
  facet normal -0.99863 -0.0523361 0
    outer loop
      vertex 17.5 0 0
      vertex 17.4041 1.82925 10
      vertex 17.4041 1.82925 0
    endloop
  endfacet
  facet normal -0.99863 0.0523361 0
    outer loop
      vertex 17.5 0 10
      vertex 17.5 0 0
      vertex 17.4041 -1.82925 10
    endloop
  endfacet
  facet normal -0.99863 0.0523361 0
    outer loop
      vertex 17.4041 -1.82925 10
      vertex 17.5 0 0
      vertex 17.4041 -1.82925 0
    endloop
  endfacet
  facet normal -0.987688 0.156434 0
    outer loop
      vertex 17.4041 -1.82925 10
      vertex 17.4041 -1.82925 0
      vertex 17.1176 -3.63845 10
    endloop
  endfacet
  facet normal -0.987688 0.156434 0
    outer loop
      vertex 17.1176 -3.63845 10
      vertex 17.4041 -1.82925 0
      vertex 17.1176 -3.63845 0
    endloop
  endfacet
  facet normal -0.965926 0.258819 0
    outer loop
      vertex 17.1176 -3.63845 10
      vertex 17.1176 -3.63845 0
      vertex 16.6435 -5.4078 10
    endloop
  endfacet
  facet normal -0.965926 0.258819 0
    outer loop
      vertex 16.6435 -5.4078 10
      vertex 17.1176 -3.63845 0
      vertex 16.6435 -5.4078 0
    endloop
  endfacet
  facet normal -0.933581 0.358368 0
    outer loop
      vertex 16.6435 -5.4078 10
      vertex 16.6435 -5.4078 0
      vertex 15.987 -7.11789 10
    endloop
  endfacet
  facet normal -0.933581 0.358368 0
    outer loop
      vertex 15.987 -7.11789 10
      vertex 16.6435 -5.4078 0
      vertex 15.987 -7.11789 0
    endloop
  endfacet
  facet normal -0.891007 0.45399 0
    outer loop
      vertex 15.987 -7.11789 10
      vertex 15.987 -7.11789 0
      vertex 15.1554 -8.75 10
    endloop
  endfacet
  facet normal -0.891007 0.45399 0
    outer loop
      vertex 15.1554 -8.75 10
      vertex 15.987 -7.11789 0
      vertex 15.1554 -8.75 0
    endloop
  endfacet
  facet normal -0.83867 0.544639 0
    outer loop
      vertex 15.1554 -8.75 10
      vertex 15.1554 -8.75 0
      vertex 14.1578 -10.2862 10
    endloop
  endfacet
  facet normal -0.83867 0.544639 0
    outer loop
      vertex 14.1578 -10.2862 10
      vertex 15.1554 -8.75 0
      vertex 14.1578 -10.2862 0
    endloop
  endfacet
  facet normal -0.777146 0.62932 0
    outer loop
      vertex 14.1578 -10.2862 10
      vertex 14.1578 -10.2862 0
      vertex 13.005 -11.7098 10
    endloop
  endfacet
  facet normal -0.777146 0.62932 0
    outer loop
      vertex 13.005 -11.7098 10
      vertex 14.1578 -10.2862 0
      vertex 13.005 -11.7098 0
    endloop
  endfacet
  facet normal -0.707107 0.707107 0
    outer loop
      vertex 13.005 -11.7098 10
      vertex 13.005 -11.7098 0
      vertex 11.7098 -13.005 10
    endloop
  endfacet
  facet normal -0.707107 0.707107 0
    outer loop
      vertex 11.7098 -13.005 10
      vertex 13.005 -11.7098 0
      vertex 11.7098 -13.005 0
    endloop
  endfacet
  facet normal -0.62932 0.777146 0
    outer loop
      vertex 11.7098 -13.005 10
      vertex 11.7098 -13.005 0
      vertex 10.2862 -14.1578 10
    endloop
  endfacet
  facet normal -0.62932 0.777146 0
    outer loop
      vertex 10.2862 -14.1578 10
      vertex 11.7098 -13.005 0
      vertex 10.2862 -14.1578 0
    endloop
  endfacet
  facet normal -0.544639 0.83867 0
    outer loop
      vertex 10.2862 -14.1578 10
      vertex 10.2862 -14.1578 0
      vertex 8.75 -15.1554 10
    endloop
  endfacet
  facet normal -0.544639 0.83867 0
    outer loop
      vertex 8.75 -15.1554 10
      vertex 10.2862 -14.1578 0
      vertex 8.75 -15.1554 0
    endloop
  endfacet
  facet normal -0.45399 0.891007 0
    outer loop
      vertex 8.75 -15.1554 10
      vertex 8.75 -15.1554 0
      vertex 7.11789 -15.987 10
    endloop
  endfacet
  facet normal -0.45399 0.891007 0
    outer loop
      vertex 7.11789 -15.987 10
      vertex 8.75 -15.1554 0
      vertex 7.11789 -15.987 0
    endloop
  endfacet
  facet normal -0.358368 0.933581 0
    outer loop
      vertex 7.11789 -15.987 10
      vertex 7.11789 -15.987 0
      vertex 5.4078 -16.6435 10
    endloop
  endfacet
  facet normal -0.358368 0.933581 0
    outer loop
      vertex 5.4078 -16.6435 10
      vertex 7.11789 -15.987 0
      vertex 5.4078 -16.6435 0
    endloop
  endfacet
  facet normal -0.258819 0.965926 0
    outer loop
      vertex 5.4078 -16.6435 10
      vertex 5.4078 -16.6435 0
      vertex 3.63845 -17.1176 10
    endloop
  endfacet
  facet normal -0.258819 0.965926 0
    outer loop
      vertex 3.63845 -17.1176 10
      vertex 5.4078 -16.6435 0
      vertex 3.63845 -17.1176 0
    endloop
  endfacet
  facet normal -0.156434 0.987688 0
    outer loop
      vertex 1.82925 -17.4041 7
      vertex 1.82925 -17.4041 10
      vertex 3.25 -17.1791 7
    endloop
  endfacet
  facet normal -0.156434 0.987688 0
    outer loop
      vertex 3.63845 -17.1176 10
      vertex 3.63845 -17.1176 0
      vertex 3.25 -17.1791 7
    endloop
  endfacet
  facet normal -0.156434 0.987688 0
    outer loop
      vertex 3.63845 -17.1176 10
      vertex 3.25 -17.1791 7
      vertex 1.82925 -17.4041 10
    endloop
  endfacet
  facet normal -0.156434 0.987688 0
    outer loop
      vertex 3.25 -17.1791 7
      vertex 3.63845 -17.1176 0
      vertex 3.25 -17.1791 0
    endloop
  endfacet
  facet normal 1 0 0
    outer loop
      vertex 3.25 -17.1791 7
      vertex 3.25 -17.1791 0
      vertex 3.25 -14.3786 0
    endloop
  endfacet
  facet normal 1 0 0
    outer loop
      vertex 3.25 -14.3786 7
      vertex 3.25 -17.1791 7
      vertex 3.25 -14.3786 0
    endloop
  endfacet
  facet normal -0.258819 0.965926 0
    outer loop
      vertex 3.25 -14.3786 7
      vertex 3.25 -14.3786 0
      vertex 3.0667 -14.4277 7
    endloop
  endfacet
  facet normal -0.258819 0.965926 0
    outer loop
      vertex 3.0667 -14.4277 7
      vertex 3.25 -14.3786 0
      vertex 3.0667 -14.4277 0
    endloop
  endfacet
  facet normal -0.156435 0.987688 0
    outer loop
      vertex 3.0667 -14.4277 7
      vertex 3.0667 -14.4277 0
      vertex 1.5418 -14.6692 7
    endloop
  endfacet
  facet normal -0.156435 0.987688 0
    outer loop
      vertex 1.5418 -14.6692 7
      vertex 3.0667 -14.4277 0
      vertex 1.5418 -14.6692 0
    endloop
  endfacet
  facet normal -0.0523359 0.99863 0
    outer loop
      vertex 1.5418 -14.6692 7
      vertex 1.5418 -14.6692 0
      vertex 0 -14.75 7
    endloop
  endfacet
  facet normal -0.0523359 0.99863 0
    outer loop
      vertex 0 -14.75 7
      vertex 1.5418 -14.6692 0
      vertex 0 -14.75 0
    endloop
  endfacet
  facet normal 0.0523359 0.99863 0
    outer loop
      vertex 0 -14.75 7
      vertex 0 -14.75 0
      vertex -1.5418 -14.6692 7
    endloop
  endfacet
  facet normal 0.0523359 0.99863 0
    outer loop
      vertex -1.5418 -14.6692 7
      vertex 0 -14.75 0
      vertex -1.5418 -14.6692 0
    endloop
  endfacet
  facet normal 0.156435 0.987688 0
    outer loop
      vertex -1.5418 -14.6692 7
      vertex -1.5418 -14.6692 0
      vertex -3.0667 -14.4277 7
    endloop
  endfacet
  facet normal 0.156435 0.987688 0
    outer loop
      vertex -3.0667 -14.4277 7
      vertex -1.5418 -14.6692 0
      vertex -3.0667 -14.4277 0
    endloop
  endfacet
  facet normal 0.258819 0.965926 0
    outer loop
      vertex -3.0667 -14.4277 7
      vertex -3.0667 -14.4277 0
      vertex -3.75 -14.2446 7
    endloop
  endfacet
  facet normal 0.258819 0.965926 0
    outer loop
      vertex -3.75 -14.2446 7
      vertex -3.0667 -14.4277 0
      vertex -3.75 -14.2446 0
    endloop
  endfacet
  facet normal -1 0 0
    outer loop
      vertex -3.75 -17.0877 0
      vertex -3.75 -17.0877 7
      vertex -3.75 -14.2446 0
    endloop
  endfacet
  facet normal -1 0 0
    outer loop
      vertex -3.75 -14.2446 0
      vertex -3.75 -17.0877 7
      vertex -3.75 -14.2446 7
    endloop
  endfacet
  facet normal 0.258819 0.965926 0
    outer loop
      vertex -3.63845 -17.1176 10
      vertex -3.63845 -17.1176 7
      vertex -5.4078 -16.6435 10
    endloop
  endfacet
  facet normal 0.258819 0.965926 0
    outer loop
      vertex -5.4078 -16.6435 10
      vertex -3.63845 -17.1176 7
      vertex -3.75 -17.0877 7
    endloop
  endfacet
  facet normal 0.258819 0.965926 0
    outer loop
      vertex -5.4078 -16.6435 10
      vertex -3.75 -17.0877 7
      vertex -3.75 -17.0877 0
    endloop
  endfacet
  facet normal 0.258819 0.965926 0
    outer loop
      vertex -5.4078 -16.6435 10
      vertex -3.75 -17.0877 0
      vertex -5.4078 -16.6435 0
    endloop
  endfacet
  facet normal 0.358368 0.933581 0
    outer loop
      vertex -5.4078 -16.6435 10
      vertex -5.4078 -16.6435 0
      vertex -7.11789 -15.987 10
    endloop
  endfacet
  facet normal 0.358368 0.933581 0
    outer loop
      vertex -7.11789 -15.987 10
      vertex -5.4078 -16.6435 0
      vertex -7.11789 -15.987 0
    endloop
  endfacet
  facet normal 0.45399 0.891007 0
    outer loop
      vertex -7.11789 -15.987 10
      vertex -7.11789 -15.987 0
      vertex -8.75 -15.1554 10
    endloop
  endfacet
  facet normal 0.45399 0.891007 0
    outer loop
      vertex -8.75 -15.1554 10
      vertex -7.11789 -15.987 0
      vertex -8.75 -15.1554 0
    endloop
  endfacet
  facet normal 0.544639 0.83867 0
    outer loop
      vertex -8.75 -15.1554 10
      vertex -8.75 -15.1554 0
      vertex -10.2862 -14.1578 10
    endloop
  endfacet
  facet normal 0.544639 0.83867 0
    outer loop
      vertex -10.2862 -14.1578 10
      vertex -8.75 -15.1554 0
      vertex -10.2862 -14.1578 0
    endloop
  endfacet
  facet normal 0.62932 0.777146 0
    outer loop
      vertex -10.2862 -14.1578 10
      vertex -10.2862 -14.1578 0
      vertex -11.7098 -13.005 10
    endloop
  endfacet
  facet normal 0.62932 0.777146 0
    outer loop
      vertex -11.7098 -13.005 10
      vertex -10.2862 -14.1578 0
      vertex -11.7098 -13.005 0
    endloop
  endfacet
  facet normal 0.707107 0.707107 0
    outer loop
      vertex -11.7098 -13.005 10
      vertex -11.7098 -13.005 0
      vertex -13.005 -11.7098 10
    endloop
  endfacet
  facet normal 0.707107 0.707107 0
    outer loop
      vertex -13.005 -11.7098 10
      vertex -11.7098 -13.005 0
      vertex -13.005 -11.7098 0
    endloop
  endfacet
  facet normal 0.777146 0.62932 0
    outer loop
      vertex -14.1578 -10.2862 10
      vertex -13.005 -11.7098 10
      vertex -13.005 -11.7098 0
    endloop
  endfacet
  facet normal 0.777146 0.62932 0
    outer loop
      vertex -14.1578 -10.2862 0
      vertex -14.1578 -10.2862 10
      vertex -13.005 -11.7098 0
    endloop
  endfacet
  facet normal 0.83867 0.544639 0
    outer loop
      vertex -15.1554 -8.75 10
      vertex -14.1578 -10.2862 10
      vertex -14.1578 -10.2862 0
    endloop
  endfacet
  facet normal 0.83867 0.544639 0
    outer loop
      vertex -15.1554 -8.75 0
      vertex -15.1554 -8.75 10
      vertex -14.1578 -10.2862 0
    endloop
  endfacet
  facet normal 0.891007 0.45399 0
    outer loop
      vertex -15.987 -7.11789 10
      vertex -15.1554 -8.75 10
      vertex -15.1554 -8.75 0
    endloop
  endfacet
  facet normal 0.891007 0.45399 0
    outer loop
      vertex -15.987 -7.11789 0
      vertex -15.987 -7.11789 10
      vertex -15.1554 -8.75 0
    endloop
  endfacet
  facet normal 0.933581 0.358368 0
    outer loop
      vertex -16.6435 -5.4078 10
      vertex -15.987 -7.11789 10
      vertex -15.987 -7.11789 0
    endloop
  endfacet
  facet normal 0.933581 0.358368 0
    outer loop
      vertex -16.6435 -5.4078 0
      vertex -16.6435 -5.4078 10
      vertex -15.987 -7.11789 0
    endloop
  endfacet
  facet normal 0.965926 0.258819 0
    outer loop
      vertex -17.1176 -3.63845 10
      vertex -16.6435 -5.4078 10
      vertex -16.6435 -5.4078 0
    endloop
  endfacet
  facet normal 0.965926 0.258819 0
    outer loop
      vertex -17.1176 -3.63845 0
      vertex -17.1176 -3.63845 10
      vertex -16.6435 -5.4078 0
    endloop
  endfacet
  facet normal 0.987688 0.156434 0
    outer loop
      vertex -17.4041 -1.82925 10
      vertex -17.1176 -3.63845 10
      vertex -17.1176 -3.63845 0
    endloop
  endfacet
  facet normal 0.987688 0.156434 0
    outer loop
      vertex -17.4041 -1.82925 0
      vertex -17.4041 -1.82925 10
      vertex -17.1176 -3.63845 0
    endloop
  endfacet
  facet normal 0 0 1
    outer loop
      vertex -19.563 4.15823 10
      vertex -20 0 10
      vertex -19.563 -4.15823 10
    endloop
  endfacet
  facet normal 0 0 1
    outer loop
      vertex -16.1803 -11.7557 10
      vertex -19.563 4.15823 10
      vertex -18.2709 -8.13473 10
    endloop
  endfacet
  facet normal 0 0 1
    outer loop
      vertex -18.2709 -8.13473 10
      vertex -19.563 4.15823 10
      vertex -19.563 -4.15823 10
    endloop
  endfacet
  facet normal 0 0 1
    outer loop
      vertex -16.6435 -5.4078 10
      vertex -19.563 4.15823 10
      vertex -16.1803 -11.7557 10
    endloop
  endfacet
  facet normal 0 0 1
    outer loop
      vertex -15.1554 -8.75 10
      vertex -15.987 -7.11789 10
      vertex -13.3826 -14.8629 10
    endloop
  endfacet
  facet normal 0 0 1
    outer loop
      vertex 11.7098 -13.005 10
      vertex 10.2862 -14.1578 10
      vertex 13.3826 -14.8629 10
    endloop
  endfacet
  facet normal 0 0 1
    outer loop
      vertex 14.1578 -10.2862 10
      vertex 13.005 -11.7098 10
      vertex 16.1803 -11.7557 10
    endloop
  endfacet
  facet normal 0 0 1
    outer loop
      vertex -17.1176 3.63845 10
      vertex -16.6435 5.4078 10
      vertex -19.563 4.15823 10
    endloop
  endfacet
  facet normal 0 0 1
    outer loop
      vertex 10.2862 14.1578 10
      vertex 11.7098 13.005 10
      vertex 13.3826 14.8629 10
    endloop
  endfacet
  facet normal 0 0 1
    outer loop
      vertex -1.82925 17.4041 10
      vertex 0 17.5 10
      vertex 2.09057 19.8904 10
    endloop
  endfacet
  facet normal 0 0 1
    outer loop
      vertex -13.3826 14.8629 10
      vertex -19.563 4.15823 10
      vertex -10 17.3205 10
    endloop
  endfacet
  facet normal 0 0 1
    outer loop
      vertex -16.1803 11.7557 10
      vertex -19.563 4.15823 10
      vertex -13.3826 14.8629 10
    endloop
  endfacet
  facet normal 0 0 1
    outer loop
      vertex -18.2709 8.13473 10
      vertex -19.563 4.15823 10
      vertex -16.1803 11.7557 10
    endloop
  endfacet
  facet normal 0 0 1
    outer loop
      vertex -3.63845 -17.1176 10
      vertex -5.4078 -16.6435 10
      vertex -2.09057 -19.8904 10
    endloop
  endfacet
  facet normal 0 0 1
    outer loop
      vertex 15.987 -7.11789 10
      vertex 15.1554 -8.75 10
      vertex 18.2709 -8.13473 10
    endloop
  endfacet
  facet normal 0 0 1
    outer loop
      vertex 13.005 11.7098 10
      vertex 14.1578 10.2862 10
      vertex 16.1803 11.7557 10
    endloop
  endfacet
  facet normal 0 0 1
    outer loop
      vertex 1.82925 17.4041 10
      vertex 3.63845 17.1176 10
      vertex 6.18034 19.0211 10
    endloop
  endfacet
  facet normal 0 0 1
    outer loop
      vertex -15.1554 8.75 10
      vertex -14.1578 10.2862 10
      vertex -19.563 4.15823 10
    endloop
  endfacet
  facet normal 0 0 1
    outer loop
      vertex 5.4078 16.6435 10
      vertex 7.11789 15.987 10
      vertex 10 17.3205 10
    endloop
  endfacet
  facet normal 0 0 1
    outer loop
      vertex -7.11789 15.987 10
      vertex -5.4078 16.6435 10
      vertex -2.09057 19.8904 10
    endloop
  endfacet
  facet normal 0 0 1
    outer loop
      vertex -10 17.3205 10
      vertex -19.563 4.15823 10
      vertex -14.1578 10.2862 10
    endloop
  endfacet
  facet normal 0 0 1
    outer loop
      vertex -10 17.3205 10
      vertex -13.005 11.7098 10
      vertex -6.18034 19.0211 10
    endloop
  endfacet
  facet normal 0 0 1
    outer loop
      vertex -10 17.3205 10
      vertex -14.1578 10.2862 10
      vertex -13.005 11.7098 10
    endloop
  endfacet
  facet normal 0 0 1
    outer loop
      vertex -13.005 11.7098 10
      vertex -11.7098 13.005 10
      vertex -6.18034 19.0211 10
    endloop
  endfacet
  facet normal 0 0 1
    outer loop
      vertex -6.18034 19.0211 10
      vertex -10.2862 14.1578 10
      vertex -2.09057 19.8904 10
    endloop
  endfacet
  facet normal 0 0 1
    outer loop
      vertex -10.2862 14.1578 10
      vertex -8.75 15.1554 10
      vertex -2.09057 19.8904 10
    endloop
  endfacet
  facet normal 0 0 1
    outer loop
      vertex -8.75 15.1554 10
      vertex -7.11789 15.987 10
      vertex -2.09057 19.8904 10
    endloop
  endfacet
  facet normal 0 0 1
    outer loop
      vertex -2.09057 19.8904 10
      vertex -5.4078 16.6435 10
      vertex 2.09057 19.8904 10
    endloop
  endfacet
  facet normal 0 0 1
    outer loop
      vertex -5.4078 16.6435 10
      vertex -3.63845 17.1176 10
      vertex 2.09057 19.8904 10
    endloop
  endfacet
  facet normal 0 0 1
    outer loop
      vertex -3.63845 17.1176 10
      vertex -1.82925 17.4041 10
      vertex 2.09057 19.8904 10
    endloop
  endfacet
  facet normal 0 0 1
    outer loop
      vertex 2.09057 19.8904 10
      vertex 0 17.5 10
      vertex 6.18034 19.0211 10
    endloop
  endfacet
  facet normal 0 0 1
    outer loop
      vertex -15.987 7.11789 10
      vertex -15.1554 8.75 10
      vertex -19.563 4.15823 10
    endloop
  endfacet
  facet normal 0 0 1
    outer loop
      vertex 0 17.5 10
      vertex 1.82925 17.4041 10
      vertex 6.18034 19.0211 10
    endloop
  endfacet
  facet normal 0 0 1
    outer loop
      vertex -11.7098 13.005 10
      vertex -10.2862 14.1578 10
      vertex -6.18034 19.0211 10
    endloop
  endfacet
  facet normal 0 0 1
    outer loop
      vertex 6.18034 19.0211 10
      vertex 3.63845 17.1176 10
      vertex 10 17.3205 10
    endloop
  endfacet
  facet normal 0 0 1
    outer loop
      vertex 3.63845 17.1176 10
      vertex 5.4078 16.6435 10
      vertex 10 17.3205 10
    endloop
  endfacet
  facet normal 0 0 1
    outer loop
      vertex 10 17.3205 10
      vertex 7.11789 15.987 10
      vertex 13.3826 14.8629 10
    endloop
  endfacet
  facet normal 0 0 1
    outer loop
      vertex 7.11789 15.987 10
      vertex 8.75 15.1554 10
      vertex 13.3826 14.8629 10
    endloop
  endfacet
  facet normal 0 0 1
    outer loop
      vertex 8.75 15.1554 10
      vertex 10.2862 14.1578 10
      vertex 13.3826 14.8629 10
    endloop
  endfacet
  facet normal 0 0 1
    outer loop
      vertex 13.3826 14.8629 10
      vertex 11.7098 13.005 10
      vertex 16.1803 11.7557 10
    endloop
  endfacet
  facet normal 0 0 1
    outer loop
      vertex 11.7098 13.005 10
      vertex 13.005 11.7098 10
      vertex 16.1803 11.7557 10
    endloop
  endfacet
  facet normal 0 0 1
    outer loop
      vertex 16.1803 11.7557 10
      vertex 14.1578 10.2862 10
      vertex 18.2709 8.13473 10
    endloop
  endfacet
  facet normal 0 0 1
    outer loop
      vertex 14.1578 10.2862 10
      vertex 15.1554 8.75 10
      vertex 18.2709 8.13473 10
    endloop
  endfacet
  facet normal 0 0 1
    outer loop
      vertex 17.4041 1.82925 10
      vertex 17.5 0 10
      vertex 20 0 10
    endloop
  endfacet
  facet normal 0 0 1
    outer loop
      vertex 18.2709 8.13473 10
      vertex 15.987 7.11789 10
      vertex 19.563 4.15823 10
    endloop
  endfacet
  facet normal 0 0 1
    outer loop
      vertex -16.6435 5.4078 10
      vertex -15.987 7.11789 10
      vertex -19.563 4.15823 10
    endloop
  endfacet
  facet normal 0 0 1
    outer loop
      vertex 15.987 7.11789 10
      vertex 16.6435 5.4078 10
      vertex 19.563 4.15823 10
    endloop
  endfacet
  facet normal 0 0 1
    outer loop
      vertex 19.563 4.15823 10
      vertex 17.1176 3.63845 10
      vertex 20 0 10
    endloop
  endfacet
  facet normal 0 0 1
    outer loop
      vertex 17.1176 3.63845 10
      vertex 17.4041 1.82925 10
      vertex 20 0 10
    endloop
  endfacet
  facet normal 0 0 1
    outer loop
      vertex 20 0 10
      vertex 17.5 0 10
      vertex 19.563 -4.15823 10
    endloop
  endfacet
  facet normal 0 0 1
    outer loop
      vertex 17.5 0 10
      vertex 17.4041 -1.82925 10
      vertex 19.563 -4.15823 10
    endloop
  endfacet
  facet normal 0 0 1
    outer loop
      vertex 19.563 -4.15823 10
      vertex 17.1176 -3.63845 10
      vertex 18.2709 -8.13473 10
    endloop
  endfacet
  facet normal 0 0 1
    outer loop
      vertex 17.1176 -3.63845 10
      vertex 16.6435 -5.4078 10
      vertex 18.2709 -8.13473 10
    endloop
  endfacet
  facet normal 0 0 1
    outer loop
      vertex 15.1554 8.75 10
      vertex 15.987 7.11789 10
      vertex 18.2709 8.13473 10
    endloop
  endfacet
  facet normal 0 0 1
    outer loop
      vertex 16.6435 -5.4078 10
      vertex 15.987 -7.11789 10
      vertex 18.2709 -8.13473 10
    endloop
  endfacet
  facet normal 0 0 1
    outer loop
      vertex 18.2709 -8.13473 10
      vertex 15.1554 -8.75 10
      vertex 16.1803 -11.7557 10
    endloop
  endfacet
  facet normal 0 0 1
    outer loop
      vertex 16.6435 5.4078 10
      vertex 17.1176 3.63845 10
      vertex 19.563 4.15823 10
    endloop
  endfacet
  facet normal 0 0 1
    outer loop
      vertex 15.1554 -8.75 10
      vertex 14.1578 -10.2862 10
      vertex 16.1803 -11.7557 10
    endloop
  endfacet
  facet normal 0 0 1
    outer loop
      vertex 16.1803 -11.7557 10
      vertex 13.005 -11.7098 10
      vertex 13.3826 -14.8629 10
    endloop
  endfacet
  facet normal 0 0 1
    outer loop
      vertex 13.005 -11.7098 10
      vertex 11.7098 -13.005 10
      vertex 13.3826 -14.8629 10
    endloop
  endfacet
  facet normal 0 0 1
    outer loop
      vertex 13.3826 -14.8629 10
      vertex 10.2862 -14.1578 10
      vertex 10 -17.3205 10
    endloop
  endfacet
  facet normal 0 0 1
    outer loop
      vertex 5.4078 -16.6435 10
      vertex 3.63845 -17.1176 10
      vertex 6.18034 -19.0211 10
    endloop
  endfacet
  facet normal 0 0 1
    outer loop
      vertex 10.2862 -14.1578 10
      vertex 8.75 -15.1554 10
      vertex 10 -17.3205 10
    endloop
  endfacet
  facet normal 0 0 1
    outer loop
      vertex 17.4041 -1.82925 10
      vertex 17.1176 -3.63845 10
      vertex 19.563 -4.15823 10
    endloop
  endfacet
  facet normal 0 0 1
    outer loop
      vertex 10 -17.3205 10
      vertex 7.11789 -15.987 10
      vertex 6.18034 -19.0211 10
    endloop
  endfacet
  facet normal 0 0 1
    outer loop
      vertex 7.11789 -15.987 10
      vertex 5.4078 -16.6435 10
      vertex 6.18034 -19.0211 10
    endloop
  endfacet
  facet normal 0 0 1
    outer loop
      vertex 6.18034 -19.0211 10
      vertex 3.63845 -17.1176 10
      vertex 2.09057 -19.8904 10
    endloop
  endfacet
  facet normal 0 0 1
    outer loop
      vertex 3.63845 -17.1176 10
      vertex 1.82925 -17.4041 10
      vertex 2.09057 -19.8904 10
    endloop
  endfacet
  facet normal 0 0 1
    outer loop
      vertex 1.82925 -17.4041 10
      vertex 0 -17.5 10
      vertex 2.09057 -19.8904 10
    endloop
  endfacet
  facet normal 0 0 1
    outer loop
      vertex 2.09057 -19.8904 10
      vertex -1.82925 -17.4041 10
      vertex -2.09057 -19.8904 10
    endloop
  endfacet
  facet normal 0 0 1
    outer loop
      vertex -1.82925 -17.4041 10
      vertex -3.63845 -17.1176 10
      vertex -2.09057 -19.8904 10
    endloop
  endfacet
  facet normal 0 0 1
    outer loop
      vertex -2.09057 -19.8904 10
      vertex -5.4078 -16.6435 10
      vertex -6.18034 -19.0211 10
    endloop
  endfacet
  facet normal 0 0 1
    outer loop
      vertex -5.4078 -16.6435 10
      vertex -7.11789 -15.987 10
      vertex -6.18034 -19.0211 10
    endloop
  endfacet
  facet normal 0 0 1
    outer loop
      vertex -6.18034 -19.0211 10
      vertex -8.75 -15.1554 10
      vertex -10 -17.3205 10
    endloop
  endfacet
  facet normal 0 0 1
    outer loop
      vertex -8.75 -15.1554 10
      vertex -10.2862 -14.1578 10
      vertex -10 -17.3205 10
    endloop
  endfacet
  facet normal 0 0 1
    outer loop
      vertex -10.2862 -14.1578 10
      vertex -11.7098 -13.005 10
      vertex -10 -17.3205 10
    endloop
  endfacet
  facet normal 0 0 1
    outer loop
      vertex -10 -17.3205 10
      vertex -13.005 -11.7098 10
      vertex -13.3826 -14.8629 10
    endloop
  endfacet
  facet normal 0 0 1
    outer loop
      vertex -13.005 -11.7098 10
      vertex -14.1578 -10.2862 10
      vertex -13.3826 -14.8629 10
    endloop
  endfacet
  facet normal 0 0 1
    outer loop
      vertex -14.1578 -10.2862 10
      vertex -15.1554 -8.75 10
      vertex -13.3826 -14.8629 10
    endloop
  endfacet
  facet normal 0 0 1
    outer loop
      vertex -13.3826 -14.8629 10
      vertex -15.987 -7.11789 10
      vertex -16.1803 -11.7557 10
    endloop
  endfacet
  facet normal 0 0 1
    outer loop
      vertex -17.4041 -1.82925 10
      vertex -17.5 0 10
      vertex -19.563 4.15823 10
    endloop
  endfacet
  facet normal 0 0 1
    outer loop
      vertex -15.987 -7.11789 10
      vertex -16.6435 -5.4078 10
      vertex -16.1803 -11.7557 10
    endloop
  endfacet
  facet normal 0 0 1
    outer loop
      vertex -17.1176 -3.63845 10
      vertex -19.563 4.15823 10
      vertex -16.6435 -5.4078 10
    endloop
  endfacet
  facet normal 0 0 1
    outer loop
      vertex -17.1176 -3.63845 10
      vertex -17.4041 -1.82925 10
      vertex -19.563 4.15823 10
    endloop
  endfacet
  facet normal 0 0 1
    outer loop
      vertex -11.7098 -13.005 10
      vertex -13.005 -11.7098 10
      vertex -10 -17.3205 10
    endloop
  endfacet
  facet normal 0 0 1
    outer loop
      vertex -17.5 0 10
      vertex -17.4041 1.82925 10
      vertex -19.563 4.15823 10
    endloop
  endfacet
  facet normal 0 0 1
    outer loop
      vertex 8.75 -15.1554 10
      vertex 7.11789 -15.987 10
      vertex 10 -17.3205 10
    endloop
  endfacet
  facet normal 0 0 1
    outer loop
      vertex -7.11789 -15.987 10
      vertex -8.75 -15.1554 10
      vertex -6.18034 -19.0211 10
    endloop
  endfacet
  facet normal 0 0 1
    outer loop
      vertex 0 -17.5 10
      vertex -1.82925 -17.4041 10
      vertex 2.09057 -19.8904 10
    endloop
  endfacet
  facet normal 0 0 1
    outer loop
      vertex -17.4041 1.82925 10
      vertex -17.1176 3.63845 10
      vertex -19.563 4.15823 10
    endloop
  endfacet
  facet normal 0.156434 -0.987688 0
    outer loop
      vertex -1.82925 17.4041 7
      vertex -1.82925 17.4041 10
      vertex -3.63845 17.1176 10
    endloop
  endfacet
  facet normal 0.156434 -0.987688 0
    outer loop
      vertex -3.63845 17.1176 7
      vertex -1.82925 17.4041 7
      vertex -3.63845 17.1176 10
    endloop
  endfacet
  facet normal 0 0 1
    outer loop
      vertex -1.5418 14.6692 7
      vertex 0 14.75 7
      vertex -5 16.7528 7
    endloop
  endfacet
  facet normal 0 0 1
    outer loop
      vertex -5 16.7528 7
      vertex -5 13.8584 7
      vertex -4.558 14.0281 7
    endloop
  endfacet
  facet normal 0 0 1
    outer loop
      vertex 0 14.75 7
      vertex 1.5418 14.6692 7
      vertex -5 16.7528 7
    endloop
  endfacet
  facet normal 0 0 1
    outer loop
      vertex -3.0667 14.4277 7
      vertex -5 16.7528 7
      vertex -4.558 14.0281 7
    endloop
  endfacet
  facet normal 0 0 1
    outer loop
      vertex -3.0667 14.4277 7
      vertex -1.5418 14.6692 7
      vertex -5 16.7528 7
    endloop
  endfacet
  facet normal 0 0 1
    outer loop
      vertex 1.5418 14.6692 7
      vertex 3.0667 14.4277 7
      vertex -5 16.7528 7
    endloop
  endfacet
  facet normal 0 0 1
    outer loop
      vertex 3.0667 14.4277 7
      vertex 4.558 14.0281 7
      vertex -5 16.7528 7
    endloop
  endfacet
  facet normal 0 0 1
    outer loop
      vertex 4.558 14.0281 7
      vertex 5 16.7528 7
      vertex -5 16.7528 7
    endloop
  endfacet
  facet normal 0 0 1
    outer loop
      vertex 5 13.8584 7
      vertex 5 16.7528 7
      vertex 4.558 14.0281 7
    endloop
  endfacet
  facet normal 0 0 1
    outer loop
      vertex 5 16.7528 7
      vertex 3.63845 17.1176 7
      vertex -5 16.7528 7
    endloop
  endfacet
  facet normal 0 0 1
    outer loop
      vertex 3.63845 17.1176 7
      vertex 1.82925 17.4041 7
      vertex -5 16.7528 7
    endloop
  endfacet
  facet normal 0 0 1
    outer loop
      vertex 1.82925 17.4041 7
      vertex 0 17.5 7
      vertex -5 16.7528 7
    endloop
  endfacet
  facet normal 0 0 1
    outer loop
      vertex 0 17.5 7
      vertex -1.82925 17.4041 7
      vertex -5 16.7528 7
    endloop
  endfacet
  facet normal 0 0 1
    outer loop
      vertex -1.82925 17.4041 7
      vertex -3.63845 17.1176 7
      vertex -5 16.7528 7
    endloop
  endfacet
  facet normal -0.156434 -0.987688 0
    outer loop
      vertex 3.63845 17.1176 7
      vertex 3.63845 17.1176 10
      vertex 1.82925 17.4041 10
    endloop
  endfacet
  facet normal -0.156434 -0.987688 0
    outer loop
      vertex 1.82925 17.4041 7
      vertex 3.63845 17.1176 7
      vertex 1.82925 17.4041 10
    endloop
  endfacet
  facet normal -0.0523361 0.99863 0
    outer loop
      vertex 1.82925 -17.4041 10
      vertex 1.82925 -17.4041 7
      vertex 0 -17.5 10
    endloop
  endfacet
  facet normal -0.0523361 0.99863 0
    outer loop
      vertex 0 -17.5 10
      vertex 1.82925 -17.4041 7
      vertex 0 -17.5 7
    endloop
  endfacet
  facet normal 0 0 1
    outer loop
      vertex -3.75 -14.2446 7
      vertex -3.75 -17.0877 7
      vertex -3.63845 -17.1176 7
    endloop
  endfacet
  facet normal 0 0 1
    outer loop
      vertex 0 -17.5 7
      vertex -3.75 -14.2446 7
      vertex -1.82925 -17.4041 7
    endloop
  endfacet
  facet normal 0 0 1
    outer loop
      vertex -1.82925 -17.4041 7
      vertex -3.75 -14.2446 7
      vertex -3.63845 -17.1176 7
    endloop
  endfacet
  facet normal 0 0 1
    outer loop
      vertex 1.82925 -17.4041 7
      vertex -3.75 -14.2446 7
      vertex 0 -17.5 7
    endloop
  endfacet
  facet normal 0 0 1
    outer loop
      vertex 3.25 -17.1791 7
      vertex -3.75 -14.2446 7
      vertex 1.82925 -17.4041 7
    endloop
  endfacet
  facet normal 0 0 1
    outer loop
      vertex -3.0667 -14.4277 7
      vertex -3.75 -14.2446 7
      vertex 3.25 -17.1791 7
    endloop
  endfacet
  facet normal 0 0 1
    outer loop
      vertex 3.25 -14.3786 7
      vertex 3.0667 -14.4277 7
      vertex 3.25 -17.1791 7
    endloop
  endfacet
  facet normal 0 0 1
    outer loop
      vertex 3.0667 -14.4277 7
      vertex 1.5418 -14.6692 7
      vertex 3.25 -17.1791 7
    endloop
  endfacet
  facet normal 0 0 1
    outer loop
      vertex 1.5418 -14.6692 7
      vertex 0 -14.75 7
      vertex 3.25 -17.1791 7
    endloop
  endfacet
  facet normal 0 0 1
    outer loop
      vertex 0 -14.75 7
      vertex -1.5418 -14.6692 7
      vertex 3.25 -17.1791 7
    endloop
  endfacet
  facet normal 0 0 1
    outer loop
      vertex -1.5418 -14.6692 7
      vertex -3.0667 -14.4277 7
      vertex 3.25 -17.1791 7
    endloop
  endfacet
  facet normal 0.156434 0.987688 0
    outer loop
      vertex -1.82925 -17.4041 10
      vertex -1.82925 -17.4041 7
      vertex -3.63845 -17.1176 10
    endloop
  endfacet
  facet normal 0.156434 0.987688 0
    outer loop
      vertex -3.63845 -17.1176 10
      vertex -1.82925 -17.4041 7
      vertex -3.63845 -17.1176 7
    endloop
  endfacet
  facet normal 0.0523361 0.99863 0
    outer loop
      vertex 0 -17.5 10
      vertex 0 -17.5 7
      vertex -1.82925 -17.4041 10
    endloop
  endfacet
  facet normal 0.0523361 0.99863 0
    outer loop
      vertex -1.82925 -17.4041 10
      vertex 0 -17.5 7
      vertex -1.82925 -17.4041 7
    endloop
  endfacet
  facet normal -0.0523361 -0.99863 0
    outer loop
      vertex 1.82925 17.4041 7
      vertex 1.82925 17.4041 10
      vertex 0 17.5 10
    endloop
  endfacet
  facet normal -0.0523361 -0.99863 0
    outer loop
      vertex 0 17.5 7
      vertex 1.82925 17.4041 7
      vertex 0 17.5 10
    endloop
  endfacet
  facet normal 0.0523361 -0.99863 0
    outer loop
      vertex 0 17.5 7
      vertex 0 17.5 10
      vertex -1.82925 17.4041 10
    endloop
  endfacet
  facet normal 0.0523361 -0.99863 0
    outer loop
      vertex -1.82925 17.4041 7
      vertex 0 17.5 7
      vertex -1.82925 17.4041 10
    endloop
  endfacet
endsolid OpenSCAD_Model
