solid OpenSCAD_Model
  facet normal 0 0 -1
    outer loop
      vertex -20 0 0
      vertex -19.563 4.15823 0
      vertex -19.563 -4.15823 0
    endloop
  endfacet
  facet normal 0 0 -1
    outer loop
      vertex -19.563 -4.15823 0
      vertex -19.563 4.15823 0
      vertex -18.2709 8.13473 0
    endloop
  endfacet
  facet normal 0 0 -1
    outer loop
      vertex -17.5945 5.71681 0
      vertex -18.2709 8.13473 0
      vertex -16.1803 11.7557 0
    endloop
  endfacet
  facet normal 0 0 -1
    outer loop
      vertex -14.9668 10.874 0
      vertex -16.1803 11.7557 0
      vertex -13.3826 14.8629 0
    endloop
  endfacet
  facet normal 0 0 -1
    outer loop
      vertex -12.3789 13.7482 0
      vertex -13.3826 14.8629 0
      vertex -10 17.3205 0
    endloop
  endfacet
  facet normal 0 0 -1
    outer loop
      vertex -7.52463 16.9006 0
      vertex -10 17.3205 0
      vertex -6.18034 19.0211 0
    endloop
  endfacet
  facet normal 0 0 -1
    outer loop
      vertex -5 17.7866 0
      vertex -6.18034 19.0211 0
      vertex -2.09057 19.8904 0
    endloop
  endfacet
  facet normal 0 0 -1
    outer loop
      vertex 0 18.5 0
      vertex -2.09057 19.8904 0
      vertex 2.09057 19.8904 0
    endloop
  endfacet
  facet normal 0 0 -1
    outer loop
      vertex 4.20364 18 0
      vertex 2.09057 19.8904 0
      vertex 6.18034 19.0211 0
    endloop
  endfacet
  facet normal 0 0 -1
    outer loop
      vertex 7.52463 16.9006 0
      vertex 6.18034 19.0211 0
      vertex 10 17.3205 0
    endloop
  endfacet
  facet normal 0 0 -1
    outer loop
      vertex 10.874 14.9668 0
      vertex 10 17.3205 0
      vertex 13.3826 14.8629 0
    endloop
  endfacet
  facet normal 0 0 -1
    outer loop
      vertex 13.7482 12.3789 0
      vertex 13.3826 14.8629 0
      vertex 16.1803 11.7557 0
    endloop
  endfacet
  facet normal 0 0 -1
    outer loop
      vertex 16.0215 9.25 0
      vertex 16.1803 11.7557 0
      vertex 18.2709 8.13473 0
    endloop
  endfacet
  facet normal 0 0 -1
    outer loop
      vertex 17.5945 5.71681 0
      vertex 18.2709 8.13473 0
      vertex 19.563 4.15823 0
    endloop
  endfacet
  facet normal 0 0 -1
    outer loop
      vertex 18.5 0 0
      vertex 19.563 4.15823 0
      vertex 20 0 0
    endloop
  endfacet
  facet normal 0 0 -1
    outer loop
      vertex 18.0957 -3.84637 0
      vertex 20 0 0
      vertex 19.563 -4.15823 0
    endloop
  endfacet
  facet normal 0 0 -1
    outer loop
      vertex 16.9006 -7.52463 0
      vertex 19.563 -4.15823 0
      vertex 18.2709 -8.13473 0
    endloop
  endfacet
  facet normal 0 0 -1
    outer loop
      vertex 14.9668 -10.874 0
      vertex 18.2709 -8.13473 0
      vertex 16.1803 -11.7557 0
    endloop
  endfacet
  facet normal 0 0 -1
    outer loop
      vertex 12.3789 -13.7482 0
      vertex 16.1803 -11.7557 0
      vertex 13.3826 -14.8629 0
    endloop
  endfacet
  facet normal 0 0 -1
    outer loop
      vertex 9.25 -16.0215 0
      vertex 13.3826 -14.8629 0
      vertex 10 -17.3205 0
    endloop
  endfacet
  facet normal 0 0 -1
    outer loop
      vertex 5.71681 -17.5945 0
      vertex 10 -17.3205 0
      vertex 6.18034 -19.0211 0
    endloop
  endfacet
  facet normal 0 0 -1
    outer loop
      vertex 1.93378 -18.3987 0
      vertex 6.18034 -19.0211 0
      vertex 2.09057 -19.8904 0
    endloop
  endfacet
  facet normal 0 0 -1
    outer loop
      vertex -3.84637 -18.0957 0
      vertex 2.09057 -19.8904 0
      vertex -2.09057 -19.8904 0
    endloop
  endfacet
  facet normal 0 0 -1
    outer loop
      vertex -7.52463 -16.9006 0
      vertex -2.09057 -19.8904 0
      vertex -6.18034 -19.0211 0
    endloop
  endfacet
  facet normal 0 0 -1
    outer loop
      vertex -12.3789 -13.7482 0
      vertex -6.18034 -19.0211 0
      vertex -10 -17.3205 0
    endloop
  endfacet
  facet normal 0 0 -1
    outer loop
      vertex -14.9668 -10.874 0
      vertex -10 -17.3205 0
      vertex -13.3826 -14.8629 0
    endloop
  endfacet
  facet normal 0 0 -1
    outer loop
      vertex -19.563 -4.15823 0
      vertex -13.3826 -14.8629 0
      vertex -16.1803 -11.7557 0
    endloop
  endfacet
  facet normal 0 0 -1
    outer loop
      vertex -19.563 -4.15823 0
      vertex -16.1803 -11.7557 0
      vertex -18.2709 -8.13473 0
    endloop
  endfacet
  facet normal 0 0 -1
    outer loop
      vertex -18.3987 -1.93378 0
      vertex -19.563 -4.15823 0
      vertex -18.5 0 0
    endloop
  endfacet
  facet normal 0 0 -1
    outer loop
      vertex -18.0957 -3.84637 0
      vertex -19.563 -4.15823 0
      vertex -18.3987 -1.93378 0
    endloop
  endfacet
  facet normal 0 0 -1
    outer loop
      vertex -17.5945 -5.71681 0
      vertex -19.563 -4.15823 0
      vertex -18.0957 -3.84637 0
    endloop
  endfacet
  facet normal 0 0 -1
    outer loop
      vertex -16.9006 -7.52463 0
      vertex -19.563 -4.15823 0
      vertex -17.5945 -5.71681 0
    endloop
  endfacet
  facet normal 0 0 -1
    outer loop
      vertex -16.0215 -9.25 0
      vertex -19.563 -4.15823 0
      vertex -16.9006 -7.52463 0
    endloop
  endfacet
  facet normal 0 0 -1
    outer loop
      vertex -12.3789 -13.7482 0
      vertex -10 -17.3205 0
      vertex -13.7482 -12.3789 0
    endloop
  endfacet
  facet normal 0 0 -1
    outer loop
      vertex -19.563 -4.15823 0
      vertex -16.0215 -9.25 0
      vertex -13.3826 -14.8629 0
    endloop
  endfacet
  facet normal 0 0 -1
    outer loop
      vertex -13.7482 -12.3789 0
      vertex -10 -17.3205 0
      vertex -14.9668 -10.874 0
    endloop
  endfacet
  facet normal 0 0 -1
    outer loop
      vertex -16.0215 -9.25 0
      vertex -14.9668 -10.874 0
      vertex -13.3826 -14.8629 0
    endloop
  endfacet
  facet normal 0 0 -1
    outer loop
      vertex -10.874 -14.9668 0
      vertex -6.18034 -19.0211 0
      vertex -12.3789 -13.7482 0
    endloop
  endfacet
  facet normal 0 0 -1
    outer loop
      vertex -7.52463 -16.9006 0
      vertex -6.18034 -19.0211 0
      vertex -9.25 -16.0215 0
    endloop
  endfacet
  facet normal 0 0 -1
    outer loop
      vertex -9.25 -16.0215 0
      vertex -6.18034 -19.0211 0
      vertex -10.874 -14.9668 0
    endloop
  endfacet
  facet normal 0 0 -1
    outer loop
      vertex -5.71681 -17.5945 0
      vertex -2.09057 -19.8904 0
      vertex -7.52463 -16.9006 0
    endloop
  endfacet
  facet normal 0 0 -1
    outer loop
      vertex 5 14.1258 0
      vertex 4.63525 14.2658 0
      vertex 5 17.7866 0
    endloop
  endfacet
  facet normal 0 0 -1
    outer loop
      vertex -1.93378 -18.3987 0
      vertex 2.09057 -19.8904 0
      vertex -3.84637 -18.0957 0
    endloop
  endfacet
  facet normal 0 0 -1
    outer loop
      vertex 1.93378 -18.3987 0
      vertex 2.09057 -19.8904 0
      vertex 0 -18.5 0
    endloop
  endfacet
  facet normal 0 0 -1
    outer loop
      vertex 0 -18.5 0
      vertex 2.09057 -19.8904 0
      vertex -1.93378 -18.3987 0
    endloop
  endfacet
  facet normal 0 0 -1
    outer loop
      vertex 3.84637 -18.0957 0
      vertex 6.18034 -19.0211 0
      vertex 1.93378 -18.3987 0
    endloop
  endfacet
  facet normal 0 0 -1
    outer loop
      vertex -3.84637 -18.0957 0
      vertex -2.09057 -19.8904 0
      vertex -5.71681 -17.5945 0
    endloop
  endfacet
  facet normal 0 0 -1
    outer loop
      vertex 7.52463 -16.9006 0
      vertex 10 -17.3205 0
      vertex 5.71681 -17.5945 0
    endloop
  endfacet
  facet normal 0 0 -1
    outer loop
      vertex 10.874 -14.9668 0
      vertex 13.3826 -14.8629 0
      vertex 9.25 -16.0215 0
    endloop
  endfacet
  facet normal 0 0 -1
    outer loop
      vertex 0 18.5 0
      vertex 2.09057 19.8904 0
      vertex 1.93378 18.3987 0
    endloop
  endfacet
  facet normal 0 0 -1
    outer loop
      vertex 13.7482 -12.3789 0
      vertex 16.1803 -11.7557 0
      vertex 12.3789 -13.7482 0
    endloop
  endfacet
  facet normal 0 0 -1
    outer loop
      vertex 16.0215 -9.25 0
      vertex 18.2709 -8.13473 0
      vertex 14.9668 -10.874 0
    endloop
  endfacet
  facet normal 0 0 -1
    outer loop
      vertex 17.5945 -5.71681 0
      vertex 19.563 -4.15823 0
      vertex 16.9006 -7.52463 0
    endloop
  endfacet
  facet normal 0 0 -1
    outer loop
      vertex 18.3987 -1.93378 0
      vertex 20 0 0
      vertex 18.0957 -3.84637 0
    endloop
  endfacet
  facet normal 0 0 -1
    outer loop
      vertex 18.3987 1.93378 0
      vertex 19.563 4.15823 0
      vertex 18.5 0 0
    endloop
  endfacet
  facet normal 0 0 -1
    outer loop
      vertex 18.0957 3.84637 0
      vertex 19.563 4.15823 0
      vertex 18.3987 1.93378 0
    endloop
  endfacet
  facet normal 0 0 -1
    outer loop
      vertex 16.9006 7.52463 0
      vertex 18.2709 8.13473 0
      vertex 17.5945 5.71681 0
    endloop
  endfacet
  facet normal 0 0 -1
    outer loop
      vertex 16.0215 9.25 0
      vertex 18.2709 8.13473 0
      vertex 16.9006 7.52463 0
    endloop
  endfacet
  facet normal 0 0 -1
    outer loop
      vertex 14.9668 10.874 0
      vertex 16.1803 11.7557 0
      vertex 16.0215 9.25 0
    endloop
  endfacet
  facet normal 0 0 -1
    outer loop
      vertex 12.3789 13.7482 0
      vertex 13.3826 14.8629 0
      vertex 13.7482 12.3789 0
    endloop
  endfacet
  facet normal 0 0 -1
    outer loop
      vertex 17.5945 5.71681 0
      vertex 19.563 4.15823 0
      vertex 18.0957 3.84637 0
    endloop
  endfacet
  facet normal 0 0 -1
    outer loop
      vertex 9.25 16.0215 0
      vertex 10 17.3205 0
      vertex 10.874 14.9668 0
    endloop
  endfacet
  facet normal 0 0 -1
    outer loop
      vertex 18.5 0 0
      vertex 20 0 0
      vertex 18.3987 -1.93378 0
    endloop
  endfacet
  facet normal 0 0 -1
    outer loop
      vertex 5.71681 17.5945 0
      vertex 6.18034 19.0211 0
      vertex 7.52463 16.9006 0
    endloop
  endfacet
  facet normal 0 0 -1
    outer loop
      vertex 5 17.7866 0
      vertex 6.18034 19.0211 0
      vertex 5.71681 17.5945 0
    endloop
  endfacet
  facet normal 0 0 -1
    outer loop
      vertex 14.9668 -10.874 0
      vertex 16.1803 -11.7557 0
      vertex 13.7482 -12.3789 0
    endloop
  endfacet
  facet normal 0 0 -1
    outer loop
      vertex 1.56793 14.9178 0
      vertex 5 17.7866 0
      vertex 3.11867 14.6722 0
    endloop
  endfacet
  facet normal 0 0 -1
    outer loop
      vertex 18.0957 -3.84637 0
      vertex 19.563 -4.15823 0
      vertex 17.5945 -5.71681 0
    endloop
  endfacet
  facet normal 0 0 -1
    outer loop
      vertex 16.9006 -7.52463 0
      vertex 18.2709 -8.13473 0
      vertex 16.0215 -9.25 0
    endloop
  endfacet
  facet normal 0 0 -1
    outer loop
      vertex 12.3789 -13.7482 0
      vertex 13.3826 -14.8629 0
      vertex 10.874 -14.9668 0
    endloop
  endfacet
  facet normal 0 0 -1
    outer loop
      vertex 4.20364 18 0
      vertex -1.56793 14.9178 0
      vertex -3.11867 14.6722 0
    endloop
  endfacet
  facet normal 0 0 -1
    outer loop
      vertex 4.20364 18 0
      vertex 0 15 0
      vertex -1.56793 14.9178 0
    endloop
  endfacet
  facet normal 0 0 -1
    outer loop
      vertex 9.25 -16.0215 0
      vertex 10 -17.3205 0
      vertex 7.52463 -16.9006 0
    endloop
  endfacet
  facet normal 0 0 -1
    outer loop
      vertex -5.71681 17.5945 0
      vertex -6.18034 19.0211 0
      vertex -5 17.7866 0
    endloop
  endfacet
  facet normal 0 0 -1
    outer loop
      vertex -4.20364 18 0
      vertex -5 17.7866 0
      vertex -2.09057 19.8904 0
    endloop
  endfacet
  facet normal 0 0 -1
    outer loop
      vertex -9.25 16.0215 0
      vertex -10 17.3205 0
      vertex -7.52463 16.9006 0
    endloop
  endfacet
  facet normal 0 0 -1
    outer loop
      vertex -12.3789 13.7482 0
      vertex -10 17.3205 0
      vertex -10.874 14.9668 0
    endloop
  endfacet
  facet normal 0 0 -1
    outer loop
      vertex -10.874 14.9668 0
      vertex -10 17.3205 0
      vertex -9.25 16.0215 0
    endloop
  endfacet
  facet normal 0 0 -1
    outer loop
      vertex -13.7482 12.3789 0
      vertex -13.3826 14.8629 0
      vertex -12.3789 13.7482 0
    endloop
  endfacet
  facet normal 0 0 -1
    outer loop
      vertex -7.52463 16.9006 0
      vertex -6.18034 19.0211 0
      vertex -5.71681 17.5945 0
    endloop
  endfacet
  facet normal 0 0 -1
    outer loop
      vertex -16.0215 9.25 0
      vertex -16.1803 11.7557 0
      vertex -14.9668 10.874 0
    endloop
  endfacet
  facet normal 0 0 -1
    outer loop
      vertex -17.5945 5.71681 0
      vertex -16.1803 11.7557 0
      vertex -16.9006 7.52463 0
    endloop
  endfacet
  facet normal 0 0 -1
    outer loop
      vertex -16.9006 7.52463 0
      vertex -16.1803 11.7557 0
      vertex -16.0215 9.25 0
    endloop
  endfacet
  facet normal 0 0 -1
    outer loop
      vertex -18.0957 3.84637 0
      vertex -18.2709 8.13473 0
      vertex -17.5945 5.71681 0
    endloop
  endfacet
  facet normal 0 0 -1
    outer loop
      vertex -19.563 -4.15823 0
      vertex -18.2709 8.13473 0
      vertex -18.0957 3.84637 0
    endloop
  endfacet
  facet normal 0 0 -1
    outer loop
      vertex -19.563 -4.15823 0
      vertex -18.0957 3.84637 0
      vertex -18.3987 1.93378 0
    endloop
  endfacet
  facet normal 0 0 -1
    outer loop
      vertex -4.20364 18 0
      vertex -2.09057 19.8904 0
      vertex -3.84637 18.0957 0
    endloop
  endfacet
  facet normal 0 0 -1
    outer loop
      vertex 5.71681 -17.5945 0
      vertex 6.18034 -19.0211 0
      vertex 3.84637 -18.0957 0
    endloop
  endfacet
  facet normal 0 0 -1
    outer loop
      vertex 3.84637 18.0957 0
      vertex 2.09057 19.8904 0
      vertex 4.20364 18 0
    endloop
  endfacet
  facet normal 0 0 -1
    outer loop
      vertex 1.56793 14.9178 0
      vertex 4.20364 18 0
      vertex 6.18034 19.0211 0
    endloop
  endfacet
  facet normal 0 0 -1
    outer loop
      vertex 1.93378 18.3987 0
      vertex 2.09057 19.8904 0
      vertex 3.84637 18.0957 0
    endloop
  endfacet
  facet normal 0 0 -1
    outer loop
      vertex -1.93378 18.3987 0
      vertex -2.09057 19.8904 0
      vertex 0 18.5 0
    endloop
  endfacet
  facet normal 0 0 -1
    outer loop
      vertex 4.20364 18 0
      vertex -3.11867 14.6722 0
      vertex -4.63525 14.2658 0
    endloop
  endfacet
  facet normal 0 0 -1
    outer loop
      vertex -18.5 0 0
      vertex -19.563 -4.15823 0
      vertex -18.3987 1.93378 0
    endloop
  endfacet
  facet normal 0 0 -1
    outer loop
      vertex -3.84637 18.0957 0
      vertex -2.09057 19.8904 0
      vertex -1.93378 18.3987 0
    endloop
  endfacet
  facet normal 0 0 -1
    outer loop
      vertex -14.9668 10.874 0
      vertex -13.3826 14.8629 0
      vertex -13.7482 12.3789 0
    endloop
  endfacet
  facet normal 0 0 -1
    outer loop
      vertex 4.20364 18 0
      vertex 1.56793 14.9178 0
      vertex 0 15 0
    endloop
  endfacet
  facet normal 0 0 -1
    outer loop
      vertex 1.56793 14.9178 0
      vertex 6.18034 19.0211 0
      vertex 5 17.7866 0
    endloop
  endfacet
  facet normal 0 0 -1
    outer loop
      vertex 4.20364 18 0
      vertex -5 14.1258 0
      vertex -4.20364 18 0
    endloop
  endfacet
  facet normal 0 0 -1
    outer loop
      vertex 4.20364 18 0
      vertex -4.63525 14.2658 0
      vertex -5 14.1258 0
    endloop
  endfacet
  facet normal 0 0 -1
    outer loop
      vertex -5 17.7866 0
      vertex -4.20364 18 0
      vertex -5 14.1258 0
    endloop
  endfacet
  facet normal 0 0 -1
    outer loop
      vertex 4.63525 14.2658 0
      vertex 3.11867 14.6722 0
      vertex 5 17.7866 0
    endloop
  endfacet
  facet normal 0 0 -1
    outer loop
      vertex 7.52463 16.9006 0
      vertex 10 17.3205 0
      vertex 9.25 16.0215 0
    endloop
  endfacet
  facet normal 0 0 -1
    outer loop
      vertex 10.874 14.9668 0
      vertex 13.3826 14.8629 0
      vertex 12.3789 13.7482 0
    endloop
  endfacet
  facet normal 0 0 -1
    outer loop
      vertex 13.7482 12.3789 0
      vertex 16.1803 11.7557 0
      vertex 14.9668 10.874 0
    endloop
  endfacet
  facet normal -0.994522 0.104528 0
    outer loop
      vertex -20 0 0
      vertex -20 0 8
      vertex -19.563 4.15823 0
    endloop
  endfacet
  facet normal -0.994522 0.104528 0
    outer loop
      vertex -19.563 4.15823 0
      vertex -20 0 8
      vertex -19.563 4.15823 8
    endloop
  endfacet
  facet normal -0.994522 -0.104528 0
    outer loop
      vertex -20 0 0
      vertex -19.563 -4.15823 0
      vertex -20 0 8
    endloop
  endfacet
  facet normal -0.994522 -0.104528 0
    outer loop
      vertex -20 0 8
      vertex -19.563 -4.15823 0
      vertex -19.563 -4.15823 8
    endloop
  endfacet
  facet normal -0.951057 -0.309017 0
    outer loop
      vertex -19.563 -4.15823 0
      vertex -18.2709 -8.13473 0
      vertex -19.563 -4.15823 8
    endloop
  endfacet
  facet normal -0.951057 -0.309017 0
    outer loop
      vertex -19.563 -4.15823 8
      vertex -18.2709 -8.13473 0
      vertex -18.2709 -8.13473 8
    endloop
  endfacet
  facet normal -0.866025 -0.5 0
    outer loop
      vertex -18.2709 -8.13473 0
      vertex -16.1803 -11.7557 0
      vertex -18.2709 -8.13473 8
    endloop
  endfacet
  facet normal -0.866025 -0.5 0
    outer loop
      vertex -18.2709 -8.13473 8
      vertex -16.1803 -11.7557 0
      vertex -16.1803 -11.7557 8
    endloop
  endfacet
  facet normal -0.743145 -0.669131 0
    outer loop
      vertex -16.1803 -11.7557 0
      vertex -13.3826 -14.8629 0
      vertex -16.1803 -11.7557 8
    endloop
  endfacet
  facet normal -0.743145 -0.669131 0
    outer loop
      vertex -16.1803 -11.7557 8
      vertex -13.3826 -14.8629 0
      vertex -13.3826 -14.8629 8
    endloop
  endfacet
  facet normal -0.587785 -0.809017 0
    outer loop
      vertex -13.3826 -14.8629 8
      vertex -13.3826 -14.8629 0
      vertex -10 -17.3205 0
    endloop
  endfacet
  facet normal -0.587785 -0.809017 0
    outer loop
      vertex -10 -17.3205 8
      vertex -13.3826 -14.8629 8
      vertex -10 -17.3205 0
    endloop
  endfacet
  facet normal -0.406737 -0.913545 0
    outer loop
      vertex -10 -17.3205 8
      vertex -10 -17.3205 0
      vertex -6.18034 -19.0211 0
    endloop
  endfacet
  facet normal -0.406737 -0.913545 0
    outer loop
      vertex -6.18034 -19.0211 8
      vertex -10 -17.3205 8
      vertex -6.18034 -19.0211 0
    endloop
  endfacet
  facet normal -0.207912 -0.978148 0
    outer loop
      vertex -6.18034 -19.0211 8
      vertex -6.18034 -19.0211 0
      vertex -2.09057 -19.8904 0
    endloop
  endfacet
  facet normal -0.207912 -0.978148 0
    outer loop
      vertex -2.09057 -19.8904 8
      vertex -6.18034 -19.0211 8
      vertex -2.09057 -19.8904 0
    endloop
  endfacet
  facet normal 0 -1 0
    outer loop
      vertex -2.09057 -19.8904 8
      vertex -2.09057 -19.8904 0
      vertex 2.09057 -19.8904 0
    endloop
  endfacet
  facet normal 0 -1 0
    outer loop
      vertex 2.09057 -19.8904 8
      vertex -2.09057 -19.8904 8
      vertex 2.09057 -19.8904 0
    endloop
  endfacet
  facet normal 0.207912 -0.978148 0
    outer loop
      vertex 2.09057 -19.8904 8
      vertex 2.09057 -19.8904 0
      vertex 6.18034 -19.0211 0
    endloop
  endfacet
  facet normal 0.207912 -0.978148 0
    outer loop
      vertex 6.18034 -19.0211 8
      vertex 2.09057 -19.8904 8
      vertex 6.18034 -19.0211 0
    endloop
  endfacet
  facet normal 0.406737 -0.913545 0
    outer loop
      vertex 6.18034 -19.0211 8
      vertex 6.18034 -19.0211 0
      vertex 10 -17.3205 0
    endloop
  endfacet
  facet normal 0.406737 -0.913545 0
    outer loop
      vertex 10 -17.3205 8
      vertex 6.18034 -19.0211 8
      vertex 10 -17.3205 0
    endloop
  endfacet
  facet normal 0.587785 -0.809017 0
    outer loop
      vertex 10 -17.3205 8
      vertex 10 -17.3205 0
      vertex 13.3826 -14.8629 0
    endloop
  endfacet
  facet normal 0.587785 -0.809017 0
    outer loop
      vertex 13.3826 -14.8629 8
      vertex 10 -17.3205 8
      vertex 13.3826 -14.8629 0
    endloop
  endfacet
  facet normal 0.743145 -0.669131 0
    outer loop
      vertex 13.3826 -14.8629 8
      vertex 13.3826 -14.8629 0
      vertex 16.1803 -11.7557 0
    endloop
  endfacet
  facet normal 0.743145 -0.669131 0
    outer loop
      vertex 16.1803 -11.7557 8
      vertex 13.3826 -14.8629 8
      vertex 16.1803 -11.7557 0
    endloop
  endfacet
  facet normal 0.866025 -0.5 0
    outer loop
      vertex 16.1803 -11.7557 8
      vertex 16.1803 -11.7557 0
      vertex 18.2709 -8.13473 0
    endloop
  endfacet
  facet normal 0.866025 -0.5 0
    outer loop
      vertex 18.2709 -8.13473 8
      vertex 16.1803 -11.7557 8
      vertex 18.2709 -8.13473 0
    endloop
  endfacet
  facet normal 0.951057 -0.309017 0
    outer loop
      vertex 18.2709 -8.13473 8
      vertex 18.2709 -8.13473 0
      vertex 19.563 -4.15823 0
    endloop
  endfacet
  facet normal 0.951057 -0.309017 0
    outer loop
      vertex 19.563 -4.15823 8
      vertex 18.2709 -8.13473 8
      vertex 19.563 -4.15823 0
    endloop
  endfacet
  facet normal 0.994522 -0.104528 0
    outer loop
      vertex 19.563 -4.15823 8
      vertex 19.563 -4.15823 0
      vertex 20 0 0
    endloop
  endfacet
  facet normal 0.994522 -0.104528 0
    outer loop
      vertex 20 0 8
      vertex 19.563 -4.15823 8
      vertex 20 0 0
    endloop
  endfacet
  facet normal 0.994522 0.104528 0
    outer loop
      vertex 20 0 0
      vertex 19.563 4.15823 0
      vertex 19.563 4.15823 8
    endloop
  endfacet
  facet normal 0.994522 0.104528 0
    outer loop
      vertex 20 0 8
      vertex 20 0 0
      vertex 19.563 4.15823 8
    endloop
  endfacet
  facet normal 0.951057 0.309017 0
    outer loop
      vertex 19.563 4.15823 0
      vertex 18.2709 8.13473 0
      vertex 18.2709 8.13473 8
    endloop
  endfacet
  facet normal 0.951057 0.309017 0
    outer loop
      vertex 19.563 4.15823 8
      vertex 19.563 4.15823 0
      vertex 18.2709 8.13473 8
    endloop
  endfacet
  facet normal 0.866025 0.5 0
    outer loop
      vertex 18.2709 8.13473 0
      vertex 16.1803 11.7557 0
      vertex 16.1803 11.7557 8
    endloop
  endfacet
  facet normal 0.866025 0.5 0
    outer loop
      vertex 18.2709 8.13473 8
      vertex 18.2709 8.13473 0
      vertex 16.1803 11.7557 8
    endloop
  endfacet
  facet normal 0.743145 0.669131 0
    outer loop
      vertex 16.1803 11.7557 0
      vertex 13.3826 14.8629 0
      vertex 13.3826 14.8629 8
    endloop
  endfacet
  facet normal 0.743145 0.669131 0
    outer loop
      vertex 16.1803 11.7557 8
      vertex 16.1803 11.7557 0
      vertex 13.3826 14.8629 8
    endloop
  endfacet
  facet normal 0.587785 0.809017 0
    outer loop
      vertex 10 17.3205 0
      vertex 10 17.3205 8
      vertex 13.3826 14.8629 0
    endloop
  endfacet
  facet normal 0.587785 0.809017 0
    outer loop
      vertex 13.3826 14.8629 0
      vertex 10 17.3205 8
      vertex 13.3826 14.8629 8
    endloop
  endfacet
  facet normal 0.406737 0.913545 0
    outer loop
      vertex 6.18034 19.0211 0
      vertex 6.18034 19.0211 8
      vertex 10 17.3205 0
    endloop
  endfacet
  facet normal 0.406737 0.913545 0
    outer loop
      vertex 10 17.3205 0
      vertex 6.18034 19.0211 8
      vertex 10 17.3205 8
    endloop
  endfacet
  facet normal 0.207912 0.978148 0
    outer loop
      vertex 2.09057 19.8904 0
      vertex 2.09057 19.8904 8
      vertex 6.18034 19.0211 0
    endloop
  endfacet
  facet normal 0.207912 0.978148 0
    outer loop
      vertex 6.18034 19.0211 0
      vertex 2.09057 19.8904 8
      vertex 6.18034 19.0211 8
    endloop
  endfacet
  facet normal 0 1 0
    outer loop
      vertex -2.09057 19.8904 0
      vertex -2.09057 19.8904 8
      vertex 2.09057 19.8904 0
    endloop
  endfacet
  facet normal 0 1 0
    outer loop
      vertex 2.09057 19.8904 0
      vertex -2.09057 19.8904 8
      vertex 2.09057 19.8904 8
    endloop
  endfacet
  facet normal -0.207912 0.978148 0
    outer loop
      vertex -6.18034 19.0211 0
      vertex -6.18034 19.0211 8
      vertex -2.09057 19.8904 0
    endloop
  endfacet
  facet normal -0.207912 0.978148 0
    outer loop
      vertex -2.09057 19.8904 0
      vertex -6.18034 19.0211 8
      vertex -2.09057 19.8904 8
    endloop
  endfacet
  facet normal -0.406737 0.913545 0
    outer loop
      vertex -10 17.3205 0
      vertex -10 17.3205 8
      vertex -6.18034 19.0211 0
    endloop
  endfacet
  facet normal -0.406737 0.913545 0
    outer loop
      vertex -6.18034 19.0211 0
      vertex -10 17.3205 8
      vertex -6.18034 19.0211 8
    endloop
  endfacet
  facet normal -0.587785 0.809017 0
    outer loop
      vertex -13.3826 14.8629 0
      vertex -13.3826 14.8629 8
      vertex -10 17.3205 0
    endloop
  endfacet
  facet normal -0.587785 0.809017 0
    outer loop
      vertex -10 17.3205 0
      vertex -13.3826 14.8629 8
      vertex -10 17.3205 8
    endloop
  endfacet
  facet normal -0.743145 0.669131 0
    outer loop
      vertex -16.1803 11.7557 0
      vertex -16.1803 11.7557 8
      vertex -13.3826 14.8629 0
    endloop
  endfacet
  facet normal -0.743145 0.669131 0
    outer loop
      vertex -13.3826 14.8629 0
      vertex -16.1803 11.7557 8
      vertex -13.3826 14.8629 8
    endloop
  endfacet
  facet normal -0.866025 0.5 0
    outer loop
      vertex -18.2709 8.13473 0
      vertex -18.2709 8.13473 8
      vertex -16.1803 11.7557 0
    endloop
  endfacet
  facet normal -0.866025 0.5 0
    outer loop
      vertex -16.1803 11.7557 0
      vertex -18.2709 8.13473 8
      vertex -16.1803 11.7557 8
    endloop
  endfacet
  facet normal -0.951057 0.309017 0
    outer loop
      vertex -19.563 4.15823 0
      vertex -19.563 4.15823 8
      vertex -18.2709 8.13473 0
    endloop
  endfacet
  facet normal -0.951057 0.309017 0
    outer loop
      vertex -18.2709 8.13473 0
      vertex -19.563 4.15823 8
      vertex -18.2709 8.13473 8
    endloop
  endfacet
  facet normal 0.99863 -0.052336 0
    outer loop
      vertex -18.3987 1.93378 0
      vertex -18.3987 1.93378 8
      vertex -18.5 0 8
    endloop
  endfacet
  facet normal 0.99863 -0.052336 0
    outer loop
      vertex -18.5 0 0
      vertex -18.3987 1.93378 0
      vertex -18.5 0 8
    endloop
  endfacet
  facet normal 0.99863 0.052336 0
    outer loop
      vertex -18.5 0 8
      vertex -18.3987 -1.93378 8
      vertex -18.3987 -1.93378 0
    endloop
  endfacet
  facet normal 0.99863 0.052336 0
    outer loop
      vertex -18.5 0 0
      vertex -18.5 0 8
      vertex -18.3987 -1.93378 0
    endloop
  endfacet
  facet normal 0.987688 -0.156434 0
    outer loop
      vertex -18.0957 3.84637 0
      vertex -18.0957 3.84637 8
      vertex -18.3987 1.93378 8
    endloop
  endfacet
  facet normal 0.987688 -0.156434 0
    outer loop
      vertex -18.3987 1.93378 0
      vertex -18.0957 3.84637 0
      vertex -18.3987 1.93378 8
    endloop
  endfacet
  facet normal 0.965926 -0.258819 0
    outer loop
      vertex -17.5945 5.71681 0
      vertex -17.5945 5.71681 8
      vertex -18.0957 3.84637 8
    endloop
  endfacet
  facet normal 0.965926 -0.258819 0
    outer loop
      vertex -18.0957 3.84637 0
      vertex -17.5945 5.71681 0
      vertex -18.0957 3.84637 8
    endloop
  endfacet
  facet normal 0.93358 -0.358368 0
    outer loop
      vertex -16.9006 7.52463 0
      vertex -16.9006 7.52463 8
      vertex -17.5945 5.71681 8
    endloop
  endfacet
  facet normal 0.93358 -0.358368 0
    outer loop
      vertex -17.5945 5.71681 0
      vertex -16.9006 7.52463 0
      vertex -17.5945 5.71681 8
    endloop
  endfacet
  facet normal 0.891007 -0.453991 0
    outer loop
      vertex -16.0215 9.25 0
      vertex -16.0215 9.25 8
      vertex -16.9006 7.52463 8
    endloop
  endfacet
  facet normal 0.891007 -0.453991 0
    outer loop
      vertex -16.9006 7.52463 0
      vertex -16.0215 9.25 0
      vertex -16.9006 7.52463 8
    endloop
  endfacet
  facet normal 0.83867 -0.544639 0
    outer loop
      vertex -14.9668 10.874 0
      vertex -14.9668 10.874 8
      vertex -16.0215 9.25 8
    endloop
  endfacet
  facet normal 0.83867 -0.544639 0
    outer loop
      vertex -16.0215 9.25 0
      vertex -14.9668 10.874 0
      vertex -16.0215 9.25 8
    endloop
  endfacet
  facet normal 0.777146 -0.62932 0
    outer loop
      vertex -13.7482 12.3789 0
      vertex -13.7482 12.3789 8
      vertex -14.9668 10.874 8
    endloop
  endfacet
  facet normal 0.777146 -0.62932 0
    outer loop
      vertex -14.9668 10.874 0
      vertex -13.7482 12.3789 0
      vertex -14.9668 10.874 8
    endloop
  endfacet
  facet normal 0.707107 -0.707107 0
    outer loop
      vertex -12.3789 13.7482 0
      vertex -12.3789 13.7482 8
      vertex -13.7482 12.3789 8
    endloop
  endfacet
  facet normal 0.707107 -0.707107 0
    outer loop
      vertex -13.7482 12.3789 0
      vertex -12.3789 13.7482 0
      vertex -13.7482 12.3789 8
    endloop
  endfacet
  facet normal 0.62932 -0.777146 0
    outer loop
      vertex -10.874 14.9668 0
      vertex -10.874 14.9668 8
      vertex -12.3789 13.7482 8
    endloop
  endfacet
  facet normal 0.62932 -0.777146 0
    outer loop
      vertex -12.3789 13.7482 0
      vertex -10.874 14.9668 0
      vertex -12.3789 13.7482 8
    endloop
  endfacet
  facet normal 0.544639 -0.83867 0
    outer loop
      vertex -9.25 16.0215 0
      vertex -9.25 16.0215 8
      vertex -10.874 14.9668 8
    endloop
  endfacet
  facet normal 0.544639 -0.83867 0
    outer loop
      vertex -10.874 14.9668 0
      vertex -9.25 16.0215 0
      vertex -10.874 14.9668 8
    endloop
  endfacet
  facet normal 0.453991 -0.891007 0
    outer loop
      vertex -7.52463 16.9006 0
      vertex -7.52463 16.9006 8
      vertex -9.25 16.0215 8
    endloop
  endfacet
  facet normal 0.453991 -0.891007 0
    outer loop
      vertex -9.25 16.0215 0
      vertex -7.52463 16.9006 0
      vertex -9.25 16.0215 8
    endloop
  endfacet
  facet normal 0.358368 -0.93358 0
    outer loop
      vertex -5.71681 17.5945 0
      vertex -5.71681 17.5945 8
      vertex -7.52463 16.9006 8
    endloop
  endfacet
  facet normal 0.358368 -0.93358 0
    outer loop
      vertex -7.52463 16.9006 0
      vertex -5.71681 17.5945 0
      vertex -7.52463 16.9006 8
    endloop
  endfacet
  facet normal 0.258819 -0.965926 0
    outer loop
      vertex -3.84637 18.0957 8
      vertex -5 17.7866 7
      vertex -4.20364 18 7
    endloop
  endfacet
  facet normal 0.258819 -0.965926 0
    outer loop
      vertex -5 17.7866 0
      vertex -5 17.7866 7
      vertex -5.71681 17.5945 8
    endloop
  endfacet
  facet normal 0.258819 -0.965926 0
    outer loop
      vertex -4.20364 18 0
      vertex -3.84637 18.0957 0
      vertex -4.20364 18 7
    endloop
  endfacet
  facet normal 0.258819 -0.965926 0
    outer loop
      vertex -3.84637 18.0957 0
      vertex -3.84637 18.0957 8
      vertex -4.20364 18 7
    endloop
  endfacet
  facet normal 0.258819 -0.965926 0
    outer loop
      vertex -3.84637 18.0957 8
      vertex -5.71681 17.5945 8
      vertex -5 17.7866 7
    endloop
  endfacet
  facet normal 0.258819 -0.965926 0
    outer loop
      vertex -5.71681 17.5945 8
      vertex -5.71681 17.5945 0
      vertex -5 17.7866 0
    endloop
  endfacet
  facet normal -1 0 0
    outer loop
      vertex -5 14.1258 0
      vertex -5 14.1258 7
      vertex -5 17.7866 0
    endloop
  endfacet
  facet normal -1 0 0
    outer loop
      vertex -5 17.7866 0
      vertex -5 14.1258 7
      vertex -5 17.7866 7
    endloop
  endfacet
  facet normal 0.358368 -0.93358 0
    outer loop
      vertex -4.63525 14.2658 0
      vertex -4.63525 14.2658 7
      vertex -5 14.1258 7
    endloop
  endfacet
  facet normal 0.358368 -0.93358 0
    outer loop
      vertex -5 14.1258 0
      vertex -4.63525 14.2658 0
      vertex -5 14.1258 7
    endloop
  endfacet
  facet normal 0.258819 -0.965926 0
    outer loop
      vertex -3.11867 14.6722 0
      vertex -3.11867 14.6722 7
      vertex -4.63525 14.2658 7
    endloop
  endfacet
  facet normal 0.258819 -0.965926 0
    outer loop
      vertex -4.63525 14.2658 0
      vertex -3.11867 14.6722 0
      vertex -4.63525 14.2658 7
    endloop
  endfacet
  facet normal 0.156434 -0.987688 0
    outer loop
      vertex -1.56793 14.9178 0
      vertex -1.56793 14.9178 7
      vertex -3.11867 14.6722 7
    endloop
  endfacet
  facet normal 0.156434 -0.987688 0
    outer loop
      vertex -3.11867 14.6722 0
      vertex -1.56793 14.9178 0
      vertex -3.11867 14.6722 7
    endloop
  endfacet
  facet normal 0.0523362 -0.99863 0
    outer loop
      vertex 0 15 0
      vertex 0 15 7
      vertex -1.56793 14.9178 7
    endloop
  endfacet
  facet normal 0.0523362 -0.99863 0
    outer loop
      vertex -1.56793 14.9178 0
      vertex 0 15 0
      vertex -1.56793 14.9178 7
    endloop
  endfacet
  facet normal -0.0523362 -0.99863 0
    outer loop
      vertex 1.56793 14.9178 0
      vertex 1.56793 14.9178 7
      vertex 0 15 7
    endloop
  endfacet
  facet normal -0.0523362 -0.99863 0
    outer loop
      vertex 0 15 0
      vertex 1.56793 14.9178 0
      vertex 0 15 7
    endloop
  endfacet
  facet normal -0.156434 -0.987688 0
    outer loop
      vertex 3.11867 14.6722 0
      vertex 3.11867 14.6722 7
      vertex 1.56793 14.9178 7
    endloop
  endfacet
  facet normal -0.156434 -0.987688 0
    outer loop
      vertex 1.56793 14.9178 0
      vertex 3.11867 14.6722 0
      vertex 1.56793 14.9178 7
    endloop
  endfacet
  facet normal -0.258819 -0.965926 0
    outer loop
      vertex 4.63525 14.2658 0
      vertex 4.63525 14.2658 7
      vertex 3.11867 14.6722 7
    endloop
  endfacet
  facet normal -0.258819 -0.965926 0
    outer loop
      vertex 3.11867 14.6722 0
      vertex 4.63525 14.2658 0
      vertex 3.11867 14.6722 7
    endloop
  endfacet
  facet normal -0.358368 -0.93358 0
    outer loop
      vertex 5 14.1258 0
      vertex 5 14.1258 7
      vertex 4.63525 14.2658 7
    endloop
  endfacet
  facet normal -0.358368 -0.93358 0
    outer loop
      vertex 4.63525 14.2658 0
      vertex 5 14.1258 0
      vertex 4.63525 14.2658 7
    endloop
  endfacet
  facet normal 1 0 0
    outer loop
      vertex 5 14.1258 7
      vertex 5 14.1258 0
      vertex 5 17.7866 0
    endloop
  endfacet
  facet normal 1 0 0
    outer loop
      vertex 5 17.7866 7
      vertex 5 14.1258 7
      vertex 5 17.7866 0
    endloop
  endfacet
  facet normal -0.258819 -0.965926 0
    outer loop
      vertex 5.71681 17.5945 8
      vertex 4.20364 18 7
      vertex 5 17.7866 7
    endloop
  endfacet
  facet normal -0.258819 -0.965926 0
    outer loop
      vertex 4.20364 18 0
      vertex 4.20364 18 7
      vertex 3.84637 18.0957 8
    endloop
  endfacet
  facet normal -0.258819 -0.965926 0
    outer loop
      vertex 5 17.7866 0
      vertex 5.71681 17.5945 0
      vertex 5 17.7866 7
    endloop
  endfacet
  facet normal -0.258819 -0.965926 0
    outer loop
      vertex 5.71681 17.5945 0
      vertex 5.71681 17.5945 8
      vertex 5 17.7866 7
    endloop
  endfacet
  facet normal -0.258819 -0.965926 0
    outer loop
      vertex 5.71681 17.5945 8
      vertex 3.84637 18.0957 8
      vertex 4.20364 18 7
    endloop
  endfacet
  facet normal -0.258819 -0.965926 0
    outer loop
      vertex 3.84637 18.0957 8
      vertex 3.84637 18.0957 0
      vertex 4.20364 18 0
    endloop
  endfacet
  facet normal -0.358368 -0.93358 0
    outer loop
      vertex 7.52463 16.9006 0
      vertex 7.52463 16.9006 8
      vertex 5.71681 17.5945 8
    endloop
  endfacet
  facet normal -0.358368 -0.93358 0
    outer loop
      vertex 5.71681 17.5945 0
      vertex 7.52463 16.9006 0
      vertex 5.71681 17.5945 8
    endloop
  endfacet
  facet normal -0.453991 -0.891007 0
    outer loop
      vertex 9.25 16.0215 0
      vertex 9.25 16.0215 8
      vertex 7.52463 16.9006 8
    endloop
  endfacet
  facet normal -0.453991 -0.891007 0
    outer loop
      vertex 7.52463 16.9006 0
      vertex 9.25 16.0215 0
      vertex 7.52463 16.9006 8
    endloop
  endfacet
  facet normal -0.544639 -0.83867 0
    outer loop
      vertex 10.874 14.9668 0
      vertex 10.874 14.9668 8
      vertex 9.25 16.0215 8
    endloop
  endfacet
  facet normal -0.544639 -0.83867 0
    outer loop
      vertex 9.25 16.0215 0
      vertex 10.874 14.9668 0
      vertex 9.25 16.0215 8
    endloop
  endfacet
  facet normal -0.62932 -0.777146 0
    outer loop
      vertex 12.3789 13.7482 0
      vertex 12.3789 13.7482 8
      vertex 10.874 14.9668 8
    endloop
  endfacet
  facet normal -0.62932 -0.777146 0
    outer loop
      vertex 10.874 14.9668 0
      vertex 12.3789 13.7482 0
      vertex 10.874 14.9668 8
    endloop
  endfacet
  facet normal -0.707107 -0.707107 0
    outer loop
      vertex 13.7482 12.3789 0
      vertex 13.7482 12.3789 8
      vertex 12.3789 13.7482 8
    endloop
  endfacet
  facet normal -0.707107 -0.707107 0
    outer loop
      vertex 12.3789 13.7482 0
      vertex 13.7482 12.3789 0
      vertex 12.3789 13.7482 8
    endloop
  endfacet
  facet normal -0.777146 -0.62932 0
    outer loop
      vertex 14.9668 10.874 8
      vertex 13.7482 12.3789 8
      vertex 14.9668 10.874 0
    endloop
  endfacet
  facet normal -0.777146 -0.62932 0
    outer loop
      vertex 14.9668 10.874 0
      vertex 13.7482 12.3789 8
      vertex 13.7482 12.3789 0
    endloop
  endfacet
  facet normal -0.83867 -0.544639 0
    outer loop
      vertex 16.0215 9.25 8
      vertex 14.9668 10.874 8
      vertex 16.0215 9.25 0
    endloop
  endfacet
  facet normal -0.83867 -0.544639 0
    outer loop
      vertex 16.0215 9.25 0
      vertex 14.9668 10.874 8
      vertex 14.9668 10.874 0
    endloop
  endfacet
  facet normal -0.891007 -0.453991 0
    outer loop
      vertex 16.9006 7.52463 8
      vertex 16.0215 9.25 8
      vertex 16.9006 7.52463 0
    endloop
  endfacet
  facet normal -0.891007 -0.453991 0
    outer loop
      vertex 16.9006 7.52463 0
      vertex 16.0215 9.25 8
      vertex 16.0215 9.25 0
    endloop
  endfacet
  facet normal -0.93358 -0.358368 0
    outer loop
      vertex 17.5945 5.71681 8
      vertex 16.9006 7.52463 8
      vertex 17.5945 5.71681 0
    endloop
  endfacet
  facet normal -0.93358 -0.358368 0
    outer loop
      vertex 17.5945 5.71681 0
      vertex 16.9006 7.52463 8
      vertex 16.9006 7.52463 0
    endloop
  endfacet
  facet normal -0.965926 -0.258819 0
    outer loop
      vertex 18.0957 3.84637 8
      vertex 17.5945 5.71681 8
      vertex 18.0957 3.84637 0
    endloop
  endfacet
  facet normal -0.965926 -0.258819 0
    outer loop
      vertex 18.0957 3.84637 0
      vertex 17.5945 5.71681 8
      vertex 17.5945 5.71681 0
    endloop
  endfacet
  facet normal -0.987688 -0.156434 0
    outer loop
      vertex 18.3987 1.93378 8
      vertex 18.0957 3.84637 8
      vertex 18.3987 1.93378 0
    endloop
  endfacet
  facet normal -0.987688 -0.156434 0
    outer loop
      vertex 18.3987 1.93378 0
      vertex 18.0957 3.84637 8
      vertex 18.0957 3.84637 0
    endloop
  endfacet
  facet normal -0.99863 -0.052336 0
    outer loop
      vertex 18.5 0 8
      vertex 18.3987 1.93378 8
      vertex 18.5 0 0
    endloop
  endfacet
  facet normal -0.99863 -0.052336 0
    outer loop
      vertex 18.5 0 0
      vertex 18.3987 1.93378 8
      vertex 18.3987 1.93378 0
    endloop
  endfacet
  facet normal -0.99863 0.052336 0
    outer loop
      vertex 18.5 0 8
      vertex 18.5 0 0
      vertex 18.3987 -1.93378 8
    endloop
  endfacet
  facet normal -0.99863 0.052336 0
    outer loop
      vertex 18.3987 -1.93378 8
      vertex 18.5 0 0
      vertex 18.3987 -1.93378 0
    endloop
  endfacet
  facet normal -0.987688 0.156434 0
    outer loop
      vertex 18.3987 -1.93378 8
      vertex 18.3987 -1.93378 0
      vertex 18.0957 -3.84637 8
    endloop
  endfacet
  facet normal -0.987688 0.156434 0
    outer loop
      vertex 18.0957 -3.84637 8
      vertex 18.3987 -1.93378 0
      vertex 18.0957 -3.84637 0
    endloop
  endfacet
  facet normal -0.965926 0.258819 0
    outer loop
      vertex 18.0957 -3.84637 8
      vertex 18.0957 -3.84637 0
      vertex 17.5945 -5.71681 8
    endloop
  endfacet
  facet normal -0.965926 0.258819 0
    outer loop
      vertex 17.5945 -5.71681 8
      vertex 18.0957 -3.84637 0
      vertex 17.5945 -5.71681 0
    endloop
  endfacet
  facet normal -0.93358 0.358368 0
    outer loop
      vertex 17.5945 -5.71681 8
      vertex 17.5945 -5.71681 0
      vertex 16.9006 -7.52463 8
    endloop
  endfacet
  facet normal -0.93358 0.358368 0
    outer loop
      vertex 16.9006 -7.52463 8
      vertex 17.5945 -5.71681 0
      vertex 16.9006 -7.52463 0
    endloop
  endfacet
  facet normal -0.891007 0.453991 0
    outer loop
      vertex 16.9006 -7.52463 8
      vertex 16.9006 -7.52463 0
      vertex 16.0215 -9.25 8
    endloop
  endfacet
  facet normal -0.891007 0.453991 0
    outer loop
      vertex 16.0215 -9.25 8
      vertex 16.9006 -7.52463 0
      vertex 16.0215 -9.25 0
    endloop
  endfacet
  facet normal -0.83867 0.544639 0
    outer loop
      vertex 16.0215 -9.25 8
      vertex 16.0215 -9.25 0
      vertex 14.9668 -10.874 8
    endloop
  endfacet
  facet normal -0.83867 0.544639 0
    outer loop
      vertex 14.9668 -10.874 8
      vertex 16.0215 -9.25 0
      vertex 14.9668 -10.874 0
    endloop
  endfacet
  facet normal -0.777146 0.62932 0
    outer loop
      vertex 14.9668 -10.874 8
      vertex 14.9668 -10.874 0
      vertex 13.7482 -12.3789 8
    endloop
  endfacet
  facet normal -0.777146 0.62932 0
    outer loop
      vertex 13.7482 -12.3789 8
      vertex 14.9668 -10.874 0
      vertex 13.7482 -12.3789 0
    endloop
  endfacet
  facet normal -0.707107 0.707107 0
    outer loop
      vertex 13.7482 -12.3789 8
      vertex 13.7482 -12.3789 0
      vertex 12.3789 -13.7482 8
    endloop
  endfacet
  facet normal -0.707107 0.707107 0
    outer loop
      vertex 12.3789 -13.7482 8
      vertex 13.7482 -12.3789 0
      vertex 12.3789 -13.7482 0
    endloop
  endfacet
  facet normal -0.62932 0.777146 0
    outer loop
      vertex 12.3789 -13.7482 8
      vertex 12.3789 -13.7482 0
      vertex 10.874 -14.9668 8
    endloop
  endfacet
  facet normal -0.62932 0.777146 0
    outer loop
      vertex 10.874 -14.9668 8
      vertex 12.3789 -13.7482 0
      vertex 10.874 -14.9668 0
    endloop
  endfacet
  facet normal -0.544639 0.83867 0
    outer loop
      vertex 10.874 -14.9668 8
      vertex 10.874 -14.9668 0
      vertex 9.25 -16.0215 8
    endloop
  endfacet
  facet normal -0.544639 0.83867 0
    outer loop
      vertex 9.25 -16.0215 8
      vertex 10.874 -14.9668 0
      vertex 9.25 -16.0215 0
    endloop
  endfacet
  facet normal -0.453991 0.891007 0
    outer loop
      vertex 9.25 -16.0215 8
      vertex 9.25 -16.0215 0
      vertex 7.52463 -16.9006 8
    endloop
  endfacet
  facet normal -0.453991 0.891007 0
    outer loop
      vertex 7.52463 -16.9006 8
      vertex 9.25 -16.0215 0
      vertex 7.52463 -16.9006 0
    endloop
  endfacet
  facet normal -0.358368 0.93358 0
    outer loop
      vertex 7.52463 -16.9006 8
      vertex 7.52463 -16.9006 0
      vertex 5.71681 -17.5945 8
    endloop
  endfacet
  facet normal -0.358368 0.93358 0
    outer loop
      vertex 5.71681 -17.5945 8
      vertex 7.52463 -16.9006 0
      vertex 5.71681 -17.5945 0
    endloop
  endfacet
  facet normal -0.258819 0.965926 0
    outer loop
      vertex 5.71681 -17.5945 8
      vertex 5.71681 -17.5945 0
      vertex 3.84637 -18.0957 8
    endloop
  endfacet
  facet normal -0.258819 0.965926 0
    outer loop
      vertex 3.84637 -18.0957 8
      vertex 5.71681 -17.5945 0
      vertex 3.84637 -18.0957 0
    endloop
  endfacet
  facet normal -0.156434 0.987688 0
    outer loop
      vertex 3.84637 -18.0957 8
      vertex 3.84637 -18.0957 0
      vertex 1.93378 -18.3987 8
    endloop
  endfacet
  facet normal -0.156434 0.987688 0
    outer loop
      vertex 1.93378 -18.3987 8
      vertex 3.84637 -18.0957 0
      vertex 1.93378 -18.3987 0
    endloop
  endfacet
  facet normal -0.052336 0.99863 0
    outer loop
      vertex 1.93378 -18.3987 8
      vertex 1.93378 -18.3987 0
      vertex 0 -18.5 8
    endloop
  endfacet
  facet normal -0.052336 0.99863 0
    outer loop
      vertex 0 -18.5 8
      vertex 1.93378 -18.3987 0
      vertex 0 -18.5 0
    endloop
  endfacet
  facet normal 0.052336 0.99863 0
    outer loop
      vertex 0 -18.5 8
      vertex 0 -18.5 0
      vertex -1.93378 -18.3987 8
    endloop
  endfacet
  facet normal 0.052336 0.99863 0
    outer loop
      vertex -1.93378 -18.3987 8
      vertex 0 -18.5 0
      vertex -1.93378 -18.3987 0
    endloop
  endfacet
  facet normal 0.156434 0.987688 0
    outer loop
      vertex -1.93378 -18.3987 8
      vertex -1.93378 -18.3987 0
      vertex -3.84637 -18.0957 8
    endloop
  endfacet
  facet normal 0.156434 0.987688 0
    outer loop
      vertex -3.84637 -18.0957 8
      vertex -1.93378 -18.3987 0
      vertex -3.84637 -18.0957 0
    endloop
  endfacet
  facet normal 0.258819 0.965926 0
    outer loop
      vertex -3.84637 -18.0957 8
      vertex -3.84637 -18.0957 0
      vertex -5.71681 -17.5945 8
    endloop
  endfacet
  facet normal 0.258819 0.965926 0
    outer loop
      vertex -5.71681 -17.5945 8
      vertex -3.84637 -18.0957 0
      vertex -5.71681 -17.5945 0
    endloop
  endfacet
  facet normal 0.358368 0.93358 0
    outer loop
      vertex -5.71681 -17.5945 8
      vertex -5.71681 -17.5945 0
      vertex -7.52463 -16.9006 8
    endloop
  endfacet
  facet normal 0.358368 0.93358 0
    outer loop
      vertex -7.52463 -16.9006 8
      vertex -5.71681 -17.5945 0
      vertex -7.52463 -16.9006 0
    endloop
  endfacet
  facet normal 0.453991 0.891007 0
    outer loop
      vertex -7.52463 -16.9006 8
      vertex -7.52463 -16.9006 0
      vertex -9.25 -16.0215 8
    endloop
  endfacet
  facet normal 0.453991 0.891007 0
    outer loop
      vertex -9.25 -16.0215 8
      vertex -7.52463 -16.9006 0
      vertex -9.25 -16.0215 0
    endloop
  endfacet
  facet normal 0.544639 0.83867 0
    outer loop
      vertex -9.25 -16.0215 8
      vertex -9.25 -16.0215 0
      vertex -10.874 -14.9668 8
    endloop
  endfacet
  facet normal 0.544639 0.83867 0
    outer loop
      vertex -10.874 -14.9668 8
      vertex -9.25 -16.0215 0
      vertex -10.874 -14.9668 0
    endloop
  endfacet
  facet normal 0.62932 0.777146 0
    outer loop
      vertex -10.874 -14.9668 8
      vertex -10.874 -14.9668 0
      vertex -12.3789 -13.7482 8
    endloop
  endfacet
  facet normal 0.62932 0.777146 0
    outer loop
      vertex -12.3789 -13.7482 8
      vertex -10.874 -14.9668 0
      vertex -12.3789 -13.7482 0
    endloop
  endfacet
  facet normal 0.707107 0.707107 0
    outer loop
      vertex -12.3789 -13.7482 8
      vertex -12.3789 -13.7482 0
      vertex -13.7482 -12.3789 8
    endloop
  endfacet
  facet normal 0.707107 0.707107 0
    outer loop
      vertex -13.7482 -12.3789 8
      vertex -12.3789 -13.7482 0
      vertex -13.7482 -12.3789 0
    endloop
  endfacet
  facet normal 0.777146 0.62932 0
    outer loop
      vertex -14.9668 -10.874 8
      vertex -13.7482 -12.3789 8
      vertex -13.7482 -12.3789 0
    endloop
  endfacet
  facet normal 0.777146 0.62932 0
    outer loop
      vertex -14.9668 -10.874 0
      vertex -14.9668 -10.874 8
      vertex -13.7482 -12.3789 0
    endloop
  endfacet
  facet normal 0.83867 0.544639 0
    outer loop
      vertex -16.0215 -9.25 8
      vertex -14.9668 -10.874 8
      vertex -14.9668 -10.874 0
    endloop
  endfacet
  facet normal 0.83867 0.544639 0
    outer loop
      vertex -16.0215 -9.25 0
      vertex -16.0215 -9.25 8
      vertex -14.9668 -10.874 0
    endloop
  endfacet
  facet normal 0.891007 0.453991 0
    outer loop
      vertex -16.9006 -7.52463 8
      vertex -16.0215 -9.25 8
      vertex -16.0215 -9.25 0
    endloop
  endfacet
  facet normal 0.891007 0.453991 0
    outer loop
      vertex -16.9006 -7.52463 0
      vertex -16.9006 -7.52463 8
      vertex -16.0215 -9.25 0
    endloop
  endfacet
  facet normal 0.93358 0.358368 0
    outer loop
      vertex -17.5945 -5.71681 8
      vertex -16.9006 -7.52463 8
      vertex -16.9006 -7.52463 0
    endloop
  endfacet
  facet normal 0.93358 0.358368 0
    outer loop
      vertex -17.5945 -5.71681 0
      vertex -17.5945 -5.71681 8
      vertex -16.9006 -7.52463 0
    endloop
  endfacet
  facet normal 0.965926 0.258819 0
    outer loop
      vertex -18.0957 -3.84637 8
      vertex -17.5945 -5.71681 8
      vertex -17.5945 -5.71681 0
    endloop
  endfacet
  facet normal 0.965926 0.258819 0
    outer loop
      vertex -18.0957 -3.84637 0
      vertex -18.0957 -3.84637 8
      vertex -17.5945 -5.71681 0
    endloop
  endfacet
  facet normal 0.987688 0.156434 0
    outer loop
      vertex -18.3987 -1.93378 8
      vertex -18.0957 -3.84637 8
      vertex -18.0957 -3.84637 0
    endloop
  endfacet
  facet normal 0.987688 0.156434 0
    outer loop
      vertex -18.3987 -1.93378 0
      vertex -18.3987 -1.93378 8
      vertex -18.0957 -3.84637 0
    endloop
  endfacet
  facet normal 0.156434 -0.987688 0
    outer loop
      vertex -1.93378 18.3987 0
      vertex -1.93378 18.3987 8
      vertex -3.84637 18.0957 8
    endloop
  endfacet
  facet normal 0.156434 -0.987688 0
    outer loop
      vertex -3.84637 18.0957 0
      vertex -1.93378 18.3987 0
      vertex -3.84637 18.0957 8
    endloop
  endfacet
  facet normal 0.052336 -0.99863 0
    outer loop
      vertex 0 18.5 0
      vertex 0 18.5 8
      vertex -1.93378 18.3987 8
    endloop
  endfacet
  facet normal 0.052336 -0.99863 0
    outer loop
      vertex -1.93378 18.3987 0
      vertex 0 18.5 0
      vertex -1.93378 18.3987 8
    endloop
  endfacet
  facet normal -0.052336 -0.99863 0
    outer loop
      vertex 1.93378 18.3987 0
      vertex 1.93378 18.3987 8
      vertex 0 18.5 8
    endloop
  endfacet
  facet normal -0.052336 -0.99863 0
    outer loop
      vertex 0 18.5 0
      vertex 1.93378 18.3987 0
      vertex 0 18.5 8
    endloop
  endfacet
  facet normal -0.156434 -0.987688 0
    outer loop
      vertex 3.84637 18.0957 0
      vertex 3.84637 18.0957 8
      vertex 1.93378 18.3987 8
    endloop
  endfacet
  facet normal -0.156434 -0.987688 0
    outer loop
      vertex 1.93378 18.3987 0
      vertex 3.84637 18.0957 0
      vertex 1.93378 18.3987 8
    endloop
  endfacet
  facet normal 0 1 0
    outer loop
      vertex -4.20364 18 0
      vertex -4.20364 18 7
      vertex 4.20364 18 0
    endloop
  endfacet
  facet normal 0 1 0
    outer loop
      vertex 4.20364 18 0
      vertex -4.20364 18 7
      vertex 4.20364 18 7
    endloop
  endfacet
  facet normal 0 0 1
    outer loop
      vertex -19.563 4.15823 8
      vertex -20 0 8
      vertex -19.563 -4.15823 8
    endloop
  endfacet
  facet normal 0 0 1
    outer loop
      vertex -18.3987 -1.93378 8
      vertex -19.563 4.15823 8
      vertex -18.2709 -8.13473 8
    endloop
  endfacet
  facet normal 0 0 1
    outer loop
      vertex -18.2709 -8.13473 8
      vertex -19.563 4.15823 8
      vertex -19.563 -4.15823 8
    endloop
  endfacet
  facet normal 0 0 1
    outer loop
      vertex 0 18.5 8
      vertex 1.93378 18.3987 8
      vertex 2.09057 19.8904 8
    endloop
  endfacet
  facet normal 0 0 1
    outer loop
      vertex -9.25 16.0215 8
      vertex -7.52463 16.9006 8
      vertex -6.18034 19.0211 8
    endloop
  endfacet
  facet normal 0 0 1
    outer loop
      vertex -16.1803 11.7557 8
      vertex -19.563 4.15823 8
      vertex -13.3826 14.8629 8
    endloop
  endfacet
  facet normal 0 0 1
    outer loop
      vertex -18.2709 8.13473 8
      vertex -19.563 4.15823 8
      vertex -16.1803 11.7557 8
    endloop
  endfacet
  facet normal 0 0 1
    outer loop
      vertex -18.0957 -3.84637 8
      vertex -18.3987 -1.93378 8
      vertex -18.2709 -8.13473 8
    endloop
  endfacet
  facet normal 0 0 1
    outer loop
      vertex 14.9668 -10.874 8
      vertex 13.7482 -12.3789 8
      vertex 16.1803 -11.7557 8
    endloop
  endfacet
  facet normal 0 0 1
    outer loop
      vertex 3.84637 18.0957 8
      vertex 5.71681 17.5945 8
      vertex 6.18034 19.0211 8
    endloop
  endfacet
  facet normal 0 0 1
    outer loop
      vertex -5.71681 17.5945 8
      vertex -3.84637 18.0957 8
      vertex -2.09057 19.8904 8
    endloop
  endfacet
  facet normal 0 0 1
    outer loop
      vertex -13.3826 14.8629 8
      vertex -19.563 4.15823 8
      vertex -16.0215 9.25 8
    endloop
  endfacet
  facet normal 0 0 1
    outer loop
      vertex -13.3826 14.8629 8
      vertex -14.9668 10.874 8
      vertex -10 17.3205 8
    endloop
  endfacet
  facet normal 0 0 1
    outer loop
      vertex -13.3826 14.8629 8
      vertex -16.0215 9.25 8
      vertex -14.9668 10.874 8
    endloop
  endfacet
  facet normal 0 0 1
    outer loop
      vertex -14.9668 10.874 8
      vertex -13.7482 12.3789 8
      vertex -10 17.3205 8
    endloop
  endfacet
  facet normal 0 0 1
    outer loop
      vertex -10 17.3205 8
      vertex -12.3789 13.7482 8
      vertex -6.18034 19.0211 8
    endloop
  endfacet
  facet normal 0 0 1
    outer loop
      vertex -12.3789 13.7482 8
      vertex -10.874 14.9668 8
      vertex -6.18034 19.0211 8
    endloop
  endfacet
  facet normal 0 0 1
    outer loop
      vertex -10.874 14.9668 8
      vertex -9.25 16.0215 8
      vertex -6.18034 19.0211 8
    endloop
  endfacet
  facet normal 0 0 1
    outer loop
      vertex -6.18034 19.0211 8
      vertex -7.52463 16.9006 8
      vertex -2.09057 19.8904 8
    endloop
  endfacet
  facet normal 0 0 1
    outer loop
      vertex -16.9006 7.52463 8
      vertex -16.0215 9.25 8
      vertex -19.563 4.15823 8
    endloop
  endfacet
  facet normal 0 0 1
    outer loop
      vertex -7.52463 16.9006 8
      vertex -5.71681 17.5945 8
      vertex -2.09057 19.8904 8
    endloop
  endfacet
  facet normal 0 0 1
    outer loop
      vertex -13.7482 12.3789 8
      vertex -12.3789 13.7482 8
      vertex -10 17.3205 8
    endloop
  endfacet
  facet normal 0 0 1
    outer loop
      vertex -2.09057 19.8904 8
      vertex -3.84637 18.0957 8
      vertex 2.09057 19.8904 8
    endloop
  endfacet
  facet normal 0 0 1
    outer loop
      vertex -3.84637 18.0957 8
      vertex -1.93378 18.3987 8
      vertex 2.09057 19.8904 8
    endloop
  endfacet
  facet normal 0 0 1
    outer loop
      vertex -1.93378 18.3987 8
      vertex 0 18.5 8
      vertex 2.09057 19.8904 8
    endloop
  endfacet
  facet normal 0 0 1
    outer loop
      vertex 2.09057 19.8904 8
      vertex 1.93378 18.3987 8
      vertex 6.18034 19.0211 8
    endloop
  endfacet
  facet normal 0 0 1
    outer loop
      vertex 1.93378 18.3987 8
      vertex 3.84637 18.0957 8
      vertex 6.18034 19.0211 8
    endloop
  endfacet
  facet normal 0 0 1
    outer loop
      vertex -5.71681 -17.5945 8
      vertex -7.52463 -16.9006 8
      vertex -6.18034 -19.0211 8
    endloop
  endfacet
  facet normal 0 0 1
    outer loop
      vertex 6.18034 19.0211 8
      vertex 5.71681 17.5945 8
      vertex 10 17.3205 8
    endloop
  endfacet
  facet normal 0 0 1
    outer loop
      vertex -17.5945 5.71681 8
      vertex -16.9006 7.52463 8
      vertex -19.563 4.15823 8
    endloop
  endfacet
  facet normal 0 0 1
    outer loop
      vertex 5.71681 17.5945 8
      vertex 7.52463 16.9006 8
      vertex 10 17.3205 8
    endloop
  endfacet
  facet normal 0 0 1
    outer loop
      vertex 10 17.3205 8
      vertex 9.25 16.0215 8
      vertex 13.3826 14.8629 8
    endloop
  endfacet
  facet normal 0 0 1
    outer loop
      vertex 9.25 16.0215 8
      vertex 10.874 14.9668 8
      vertex 13.3826 14.8629 8
    endloop
  endfacet
  facet normal 0 0 1
    outer loop
      vertex 13.3826 14.8629 8
      vertex 12.3789 13.7482 8
      vertex 16.1803 11.7557 8
    endloop
  endfacet
  facet normal 0 0 1
    outer loop
      vertex 12.3789 13.7482 8
      vertex 13.7482 12.3789 8
      vertex 16.1803 11.7557 8
    endloop
  endfacet
  facet normal 0 0 1
    outer loop
      vertex 16.1803 11.7557 8
      vertex 14.9668 10.874 8
      vertex 18.2709 8.13473 8
    endloop
  endfacet
  facet normal 0 0 1
    outer loop
      vertex 14.9668 10.874 8
      vertex 16.0215 9.25 8
      vertex 18.2709 8.13473 8
    endloop
  endfacet
  facet normal 0 0 1
    outer loop
      vertex 18.2709 8.13473 8
      vertex 16.9006 7.52463 8
      vertex 19.563 4.15823 8
    endloop
  endfacet
  facet normal 0 0 1
    outer loop
      vertex 16.9006 7.52463 8
      vertex 17.5945 5.71681 8
      vertex 19.563 4.15823 8
    endloop
  endfacet
  facet normal 0 0 1
    outer loop
      vertex 19.563 4.15823 8
      vertex 18.0957 3.84637 8
      vertex 20 0 8
    endloop
  endfacet
  facet normal 0 0 1
    outer loop
      vertex 18.0957 3.84637 8
      vertex 18.3987 1.93378 8
      vertex 20 0 8
    endloop
  endfacet
  facet normal 0 0 1
    outer loop
      vertex 20 0 8
      vertex 18.5 0 8
      vertex 19.563 -4.15823 8
    endloop
  endfacet
  facet normal 0 0 1
    outer loop
      vertex 18.5 0 8
      vertex 18.3987 -1.93378 8
      vertex 19.563 -4.15823 8
    endloop
  endfacet
  facet normal 0 0 1
    outer loop
      vertex 18.3987 -1.93378 8
      vertex 18.0957 -3.84637 8
      vertex 19.563 -4.15823 8
    endloop
  endfacet
  facet normal 0 0 1
    outer loop
      vertex 19.563 -4.15823 8
      vertex 17.5945 -5.71681 8
      vertex 18.2709 -8.13473 8
    endloop
  endfacet
  facet normal 0 0 1
    outer loop
      vertex 17.5945 -5.71681 8
      vertex 16.9006 -7.52463 8
      vertex 18.2709 -8.13473 8
    endloop
  endfacet
  facet normal 0 0 1
    outer loop
      vertex 18.2709 -8.13473 8
      vertex 16.0215 -9.25 8
      vertex 16.1803 -11.7557 8
    endloop
  endfacet
  facet normal 0 0 1
    outer loop
      vertex 16.0215 -9.25 8
      vertex 14.9668 -10.874 8
      vertex 16.1803 -11.7557 8
    endloop
  endfacet
  facet normal 0 0 1
    outer loop
      vertex 7.52463 16.9006 8
      vertex 9.25 16.0215 8
      vertex 10 17.3205 8
    endloop
  endfacet
  facet normal 0 0 1
    outer loop
      vertex 16.1803 -11.7557 8
      vertex 13.7482 -12.3789 8
      vertex 13.3826 -14.8629 8
    endloop
  endfacet
  facet normal 0 0 1
    outer loop
      vertex 13.7482 -12.3789 8
      vertex 12.3789 -13.7482 8
      vertex 13.3826 -14.8629 8
    endloop
  endfacet
  facet normal 0 0 1
    outer loop
      vertex 10.874 14.9668 8
      vertex 12.3789 13.7482 8
      vertex 13.3826 14.8629 8
    endloop
  endfacet
  facet normal 0 0 1
    outer loop
      vertex 13.3826 -14.8629 8
      vertex 10.874 -14.9668 8
      vertex 10 -17.3205 8
    endloop
  endfacet
  facet normal 0 0 1
    outer loop
      vertex 10.874 -14.9668 8
      vertex 9.25 -16.0215 8
      vertex 10 -17.3205 8
    endloop
  endfacet
  facet normal 0 0 1
    outer loop
      vertex 13.7482 12.3789 8
      vertex 14.9668 10.874 8
      vertex 16.1803 11.7557 8
    endloop
  endfacet
  facet normal 0 0 1
    outer loop
      vertex 10 -17.3205 8
      vertex 7.52463 -16.9006 8
      vertex 6.18034 -19.0211 8
    endloop
  endfacet
  facet normal 0 0 1
    outer loop
      vertex 7.52463 -16.9006 8
      vertex 5.71681 -17.5945 8
      vertex 6.18034 -19.0211 8
    endloop
  endfacet
  facet normal 0 0 1
    outer loop
      vertex 16.0215 9.25 8
      vertex 16.9006 7.52463 8
      vertex 18.2709 8.13473 8
    endloop
  endfacet
  facet normal 0 0 1
    outer loop
      vertex 6.18034 -19.0211 8
      vertex 3.84637 -18.0957 8
      vertex 2.09057 -19.8904 8
    endloop
  endfacet
  facet normal 0 0 1
    outer loop
      vertex 3.84637 -18.0957 8
      vertex 1.93378 -18.3987 8
      vertex 2.09057 -19.8904 8
    endloop
  endfacet
  facet normal 0 0 1
    outer loop
      vertex 17.5945 5.71681 8
      vertex 18.0957 3.84637 8
      vertex 19.563 4.15823 8
    endloop
  endfacet
  facet normal 0 0 1
    outer loop
      vertex 2.09057 -19.8904 8
      vertex 0 -18.5 8
      vertex -2.09057 -19.8904 8
    endloop
  endfacet
  facet normal 0 0 1
    outer loop
      vertex 0 -18.5 8
      vertex -1.93378 -18.3987 8
      vertex -2.09057 -19.8904 8
    endloop
  endfacet
  facet normal 0 0 1
    outer loop
      vertex 18.3987 1.93378 8
      vertex 18.5 0 8
      vertex 20 0 8
    endloop
  endfacet
  facet normal 0 0 1
    outer loop
      vertex -2.09057 -19.8904 8
      vertex -3.84637 -18.0957 8
      vertex -6.18034 -19.0211 8
    endloop
  endfacet
  facet normal 0 0 1
    outer loop
      vertex -3.84637 -18.0957 8
      vertex -5.71681 -17.5945 8
      vertex -6.18034 -19.0211 8
    endloop
  endfacet
  facet normal 0 0 1
    outer loop
      vertex 18.0957 -3.84637 8
      vertex 17.5945 -5.71681 8
      vertex 19.563 -4.15823 8
    endloop
  endfacet
  facet normal 0 0 1
    outer loop
      vertex -6.18034 -19.0211 8
      vertex -7.52463 -16.9006 8
      vertex -10 -17.3205 8
    endloop
  endfacet
  facet normal 0 0 1
    outer loop
      vertex -7.52463 -16.9006 8
      vertex -9.25 -16.0215 8
      vertex -10 -17.3205 8
    endloop
  endfacet
  facet normal 0 0 1
    outer loop
      vertex -9.25 -16.0215 8
      vertex -10.874 -14.9668 8
      vertex -10 -17.3205 8
    endloop
  endfacet
  facet normal 0 0 1
    outer loop
      vertex -10 -17.3205 8
      vertex -12.3789 -13.7482 8
      vertex -13.3826 -14.8629 8
    endloop
  endfacet
  facet normal 0 0 1
    outer loop
      vertex -12.3789 -13.7482 8
      vertex -13.7482 -12.3789 8
      vertex -13.3826 -14.8629 8
    endloop
  endfacet
  facet normal 0 0 1
    outer loop
      vertex 12.3789 -13.7482 8
      vertex 10.874 -14.9668 8
      vertex 13.3826 -14.8629 8
    endloop
  endfacet
  facet normal 0 0 1
    outer loop
      vertex -13.3826 -14.8629 8
      vertex -14.9668 -10.874 8
      vertex -16.1803 -11.7557 8
    endloop
  endfacet
  facet normal 0 0 1
    outer loop
      vertex -14.9668 -10.874 8
      vertex -16.0215 -9.25 8
      vertex -16.1803 -11.7557 8
    endloop
  endfacet
  facet normal 0 0 1
    outer loop
      vertex -16.0215 -9.25 8
      vertex -16.9006 -7.52463 8
      vertex -16.1803 -11.7557 8
    endloop
  endfacet
  facet normal 0 0 1
    outer loop
      vertex -16.1803 -11.7557 8
      vertex -17.5945 -5.71681 8
      vertex -18.2709 -8.13473 8
    endloop
  endfacet
  facet normal 0 0 1
    outer loop
      vertex -17.5945 -5.71681 8
      vertex -18.0957 -3.84637 8
      vertex -18.2709 -8.13473 8
    endloop
  endfacet
  facet normal 0 0 1
    outer loop
      vertex -18.3987 -1.93378 8
      vertex -18.5 0 8
      vertex -19.563 4.15823 8
    endloop
  endfacet
  facet normal 0 0 1
    outer loop
      vertex -16.9006 -7.52463 8
      vertex -17.5945 -5.71681 8
      vertex -16.1803 -11.7557 8
    endloop
  endfacet
  facet normal 0 0 1
    outer loop
      vertex -18.5 0 8
      vertex -18.3987 1.93378 8
      vertex -19.563 4.15823 8
    endloop
  endfacet
  facet normal 0 0 1
    outer loop
      vertex 9.25 -16.0215 8
      vertex 7.52463 -16.9006 8
      vertex 10 -17.3205 8
    endloop
  endfacet
  facet normal 0 0 1
    outer loop
      vertex 5.71681 -17.5945 8
      vertex 3.84637 -18.0957 8
      vertex 6.18034 -19.0211 8
    endloop
  endfacet
  facet normal 0 0 1
    outer loop
      vertex 1.93378 -18.3987 8
      vertex 0 -18.5 8
      vertex 2.09057 -19.8904 8
    endloop
  endfacet
  facet normal 0 0 1
    outer loop
      vertex -1.93378 -18.3987 8
      vertex -3.84637 -18.0957 8
      vertex -2.09057 -19.8904 8
    endloop
  endfacet
  facet normal 0 0 1
    outer loop
      vertex -13.7482 -12.3789 8
      vertex -14.9668 -10.874 8
      vertex -13.3826 -14.8629 8
    endloop
  endfacet
  facet normal 0 0 1
    outer loop
      vertex -10.874 -14.9668 8
      vertex -12.3789 -13.7482 8
      vertex -10 -17.3205 8
    endloop
  endfacet
  facet normal 0 0 1
    outer loop
      vertex -18.3987 1.93378 8
      vertex -18.0957 3.84637 8
      vertex -19.563 4.15823 8
    endloop
  endfacet
  facet normal 0 0 1
    outer loop
      vertex 16.9006 -7.52463 8
      vertex 16.0215 -9.25 8
      vertex 18.2709 -8.13473 8
    endloop
  endfacet
  facet normal 0 0 1
    outer loop
      vertex -18.0957 3.84637 8
      vertex -17.5945 5.71681 8
      vertex -19.563 4.15823 8
    endloop
  endfacet
  facet normal 0 0 1
    outer loop
      vertex -1.56793 14.9178 7
      vertex 0 15 7
      vertex -5 17.7866 7
    endloop
  endfacet
  facet normal 0 0 1
    outer loop
      vertex -5 17.7866 7
      vertex -5 14.1258 7
      vertex -4.63525 14.2658 7
    endloop
  endfacet
  facet normal 0 0 1
    outer loop
      vertex 0 15 7
      vertex 1.56793 14.9178 7
      vertex -5 17.7866 7
    endloop
  endfacet
  facet normal 0 0 1
    outer loop
      vertex -3.11867 14.6722 7
      vertex -5 17.7866 7
      vertex -4.63525 14.2658 7
    endloop
  endfacet
  facet normal 0 0 1
    outer loop
      vertex -3.11867 14.6722 7
      vertex -1.56793 14.9178 7
      vertex -5 17.7866 7
    endloop
  endfacet
  facet normal 0 0 1
    outer loop
      vertex 1.56793 14.9178 7
      vertex 3.11867 14.6722 7
      vertex -5 17.7866 7
    endloop
  endfacet
  facet normal 0 0 1
    outer loop
      vertex 3.11867 14.6722 7
      vertex 4.63525 14.2658 7
      vertex -5 17.7866 7
    endloop
  endfacet
  facet normal 0 0 1
    outer loop
      vertex 4.63525 14.2658 7
      vertex 5 17.7866 7
      vertex -5 17.7866 7
    endloop
  endfacet
  facet normal 0 0 1
    outer loop
      vertex 5 14.1258 7
      vertex 5 17.7866 7
      vertex 4.63525 14.2658 7
    endloop
  endfacet
  facet normal 0 0 1
    outer loop
      vertex 5 17.7866 7
      vertex 4.20364 18 7
      vertex -5 17.7866 7
    endloop
  endfacet
  facet normal 0 0 1
    outer loop
      vertex 4.20364 18 7
      vertex -4.20364 18 7
      vertex -5 17.7866 7
    endloop
  endfacet
  facet normal -1 0 0
    outer loop
      vertex -3.75 -18 0
      vertex -3.75 -18 7
      vertex -3.75 -14.5031 0
    endloop
  endfacet
  facet normal -1 0 0
    outer loop
      vertex -3.75 -14.5031 0
      vertex -3.75 -18 7
      vertex -3.75 -14.5031 7
    endloop
  endfacet
  facet normal 0 -1 0
    outer loop
      vertex -3.75 -18 7
      vertex -3.75 -18 0
      vertex 3.25 -18 0
    endloop
  endfacet
  facet normal 0 -1 0
    outer loop
      vertex 3.25 -18 7
      vertex -3.75 -18 7
      vertex 3.25 -18 0
    endloop
  endfacet
  facet normal 0 0 -1
    outer loop
      vertex -3.75 -18 0
      vertex -3.75 -14.5031 0
      vertex 3.25 -18 0
    endloop
  endfacet
  facet normal 0 0 -1
    outer loop
      vertex 3.25 -18 0
      vertex -3.75 -14.5031 0
      vertex -3.11867 -14.6722 0
    endloop
  endfacet
  facet normal 0 0 -1
    outer loop
      vertex 3.25 -18 0
      vertex -3.11867 -14.6722 0
      vertex -1.56793 -14.9178 0
    endloop
  endfacet
  facet normal 0 0 -1
    outer loop
      vertex -1.56793 -14.9178 0
      vertex 0 -15 0
      vertex 3.25 -18 0
    endloop
  endfacet
  facet normal 0 0 -1
    outer loop
      vertex 0 -15 0
      vertex 1.56793 -14.9178 0
      vertex 3.25 -18 0
    endloop
  endfacet
  facet normal 0 0 -1
    outer loop
      vertex 1.56793 -14.9178 0
      vertex 3.11867 -14.6722 0
      vertex 3.25 -18 0
    endloop
  endfacet
  facet normal 0 0 -1
    outer loop
      vertex 3.11867 -14.6722 0
      vertex 3.25 -14.637 0
      vertex 3.25 -18 0
    endloop
  endfacet
  facet normal 0.258819 0.965926 0
    outer loop
      vertex -3.11867 -14.6722 7
      vertex -3.11867 -14.6722 0
      vertex -3.75 -14.5031 7
    endloop
  endfacet
  facet normal 0.258819 0.965926 0
    outer loop
      vertex -3.75 -14.5031 7
      vertex -3.11867 -14.6722 0
      vertex -3.75 -14.5031 0
    endloop
  endfacet
  facet normal 0 0 1
    outer loop
      vertex -3.75 -14.5031 7
      vertex -3.75 -18 7
      vertex 3.25 -18 7
    endloop
  endfacet
  facet normal 0 0 1
    outer loop
      vertex -3.11867 -14.6722 7
      vertex -3.75 -14.5031 7
      vertex 3.25 -18 7
    endloop
  endfacet
  facet normal 0 0 1
    outer loop
      vertex 3.25 -14.637 7
      vertex 3.11867 -14.6722 7
      vertex 3.25 -18 7
    endloop
  endfacet
  facet normal 0 0 1
    outer loop
      vertex 3.11867 -14.6722 7
      vertex 1.56793 -14.9178 7
      vertex 3.25 -18 7
    endloop
  endfacet
  facet normal 0 0 1
    outer loop
      vertex 1.56793 -14.9178 7
      vertex 0 -15 7
      vertex 3.25 -18 7
    endloop
  endfacet
  facet normal 0 0 1
    outer loop
      vertex 0 -15 7
      vertex -1.56793 -14.9178 7
      vertex 3.25 -18 7
    endloop
  endfacet
  facet normal 0 0 1
    outer loop
      vertex -1.56793 -14.9178 7
      vertex -3.11867 -14.6722 7
      vertex 3.25 -18 7
    endloop
  endfacet
  facet normal 1 0 0
    outer loop
      vertex 3.25 -18 7
      vertex 3.25 -18 0
      vertex 3.25 -14.637 0
    endloop
  endfacet
  facet normal 1 0 0
    outer loop
      vertex 3.25 -14.637 7
      vertex 3.25 -18 7
      vertex 3.25 -14.637 0
    endloop
  endfacet
  facet normal -0.258819 0.965926 0
    outer loop
      vertex 3.25 -14.637 7
      vertex 3.25 -14.637 0
      vertex 3.11867 -14.6722 7
    endloop
  endfacet
  facet normal -0.258819 0.965926 0
    outer loop
      vertex 3.11867 -14.6722 7
      vertex 3.25 -14.637 0
      vertex 3.11867 -14.6722 0
    endloop
  endfacet
  facet normal -0.156434 0.987688 0
    outer loop
      vertex 3.11867 -14.6722 7
      vertex 3.11867 -14.6722 0
      vertex 1.56793 -14.9178 7
    endloop
  endfacet
  facet normal -0.156434 0.987688 0
    outer loop
      vertex 1.56793 -14.9178 7
      vertex 3.11867 -14.6722 0
      vertex 1.56793 -14.9178 0
    endloop
  endfacet
  facet normal -0.0523362 0.99863 0
    outer loop
      vertex 1.56793 -14.9178 7
      vertex 1.56793 -14.9178 0
      vertex 0 -15 7
    endloop
  endfacet
  facet normal -0.0523362 0.99863 0
    outer loop
      vertex 0 -15 7
      vertex 1.56793 -14.9178 0
      vertex 0 -15 0
    endloop
  endfacet
  facet normal 0.0523362 0.99863 0
    outer loop
      vertex 0 -15 7
      vertex 0 -15 0
      vertex -1.56793 -14.9178 7
    endloop
  endfacet
  facet normal 0.0523362 0.99863 0
    outer loop
      vertex -1.56793 -14.9178 7
      vertex 0 -15 0
      vertex -1.56793 -14.9178 0
    endloop
  endfacet
  facet normal 0.156434 0.987688 0
    outer loop
      vertex -1.56793 -14.9178 7
      vertex -1.56793 -14.9178 0
      vertex -3.11867 -14.6722 7
    endloop
  endfacet
  facet normal 0.156434 0.987688 0
    outer loop
      vertex -3.11867 -14.6722 7
      vertex -1.56793 -14.9178 0
      vertex -3.11867 -14.6722 0
    endloop
  endfacet
endsolid OpenSCAD_Model
