  0
SECTION
  2
HEADER
  9
$ACADVER
  1
AC1014
  9
$HANDSEED
  5
FFFF
  9
$MEASUREMENT
 70
     1
  0
ENDSEC
  0
SECTION
  2
TABLES
  0
TABLE
  2
VPORT
  5
8
330
0
100
AcDbSymbolTable
 70
     4
  0
VPORT
  5
2E
330
8
100
AcDbSymbolTableRecord
100
AcDbViewportTableRecord
  2
*ACTIVE
 70
     0
 10
0.0
 20
0.0
 11
1.0
 21
1.0
 12
210.0
 22
148.5
 13
0.0
 23
0.0
 14
10.0
 24
10.0
 15
10.0
 25
10.0
 16
0.0
 26
0.0
 36
1.0
 17
0.0
 27
0.0
 37
0.0
 40
341.0
 41
1.24
 42
50.0
 43
0.0
 44
0.0
 50
0.0
 51
0.0
 71
     0
 72
   100
 73
     1
 74
     3
 75
     0
 76
     0
 77
     0
 78
     0
  0
ENDTAB
  0
TABLE
  2
LTYPE
  5
5
330
0
100
AcDbSymbolTable
 70
     1
  0
LTYPE
  5
14
330
5
100
AcDbSymbolTableRecord
100
AcDbLinetypeTableRecord
  2
BYBLOCK
 70
     0
  3

 72
    65
 73
     0
 40
0.0
  0
LTYPE
  5
15
330
5
100
AcDbSymbolTableRecord
100
AcDbLinetypeTableRecord
  2
BYLAYER
 70
     0
  3

 72
    65
 73
     0
 40
0.0
  0
LTYPE
  5
16
330
5
100
AcDbSymbolTableRecord
100
AcDbLinetypeTableRecord
  2
CONTINUOUS
 70
     0
  3
Solid line
 72
    65
 73
     0
 40
0.0
  0
ENDTAB
  0
TABLE
  2
LAYER
  5
2
100
AcDbSymbolTable
 70
1
  0
LAYER
  5
50
100
AcDbSymbolTableRecord
100
AcDbLayerTableRecord
  2
0
 70
0
  6
CONTINUOUS
  0
ENDTAB
  0
TABLE
  2
STYLE
  5
3
330
0
100
AcDbSymbolTable
 70
     1
  0
STYLE
  5
11
330
3
100
AcDbSymbolTableRecord
100
AcDbTextStyleTableRecord
  2
STANDARD
 70
     0
 40
0.0
 41
1.0
 50
0.0
 71
     0
 42
2.5
  3
txt
  4

  0
ENDTAB
  0
TABLE
  2
VIEW
  5
6
330
0
100
AcDbSymbolTable
 70
     0
  0
ENDTAB
  0
TABLE
  2
UCS
  5
7
330
0
100
AcDbSymbolTable
 70
     0
  0
ENDTAB
  0
TABLE
  2
APPID
  5
9
330
0
100
AcDbSymbolTable
 70
     2
  0
APPID
  5
12
330
9
100
AcDbSymbolTableRecord
100
AcDbRegAppTableRecord
  2
ACAD
 70
     0
  0
ENDTAB
  0
TABLE
  2
DIMSTYLE
  5
A
330
0
100
AcDbSymbolTable
 70
     1
  0
DIMSTYLE
105
27
330
A
100
AcDbSymbolTableRecord
100
AcDbDimStyleTableRecord
  2
ISO-25
 70
     0
  3

  4

  5

  6

  7

 40
1.0
 41
2.5
 42
0.625
 43
3.75
 44
1.25
 45
0.0
 46
0.0
 47
0.0
 48
0.0
140
2.5
141
2.5
142
0.0
143
0.03937007874016
144
1.0
145
0.0
146
1.0
147
0.625
 71
     0
 72
     0
 73
     0
 74
     0
 75
     0
 76
     0
 77
     1
 78
     8
170
     0
171
     3
172
     1
173
     0
174
     0
175
     0
176
     0
177
     0
178
     0
270
     2
271
     2
272
     2
273
     2
274
     3
340
11
275
     0
280
     0
281
     0
282
     0
283
     0
284
     8
285
     0
286
     0
287
     3
288
     0
  0
ENDTAB
  0
TABLE
  2
BLOCK_RECORD
  5
1
330
0
100
AcDbSymbolTable
 70
     1
  0
BLOCK_RECORD
  5
1F
330
1
100
AcDbSymbolTableRecord
100
AcDbBlockTableRecord
  2
*MODEL_SPACE
  0
BLOCK_RECORD
  5
1B
330
1
100
AcDbSymbolTableRecord
100
AcDbBlockTableRecord
  2
*PAPER_SPACE
  0
ENDTAB
  0
ENDSEC
  0
SECTION
  2
BLOCKS
  0
BLOCK
  5
20
330
1F
100
AcDbEntity
  8
0
100
AcDbBlockBegin
  2
*MODEL_SPACE
 70
     0
 10
0.0
 20
0.0
 30
0.0
  3
*MODEL_SPACE
  1

  0
ENDBLK
  5
21
330
1F
100
AcDbEntity
  8
0
100
AcDbBlockEnd
  0
BLOCK
  5
1C
330
1B
100
AcDbEntity
 67
     1
  8
0
100
AcDbBlockBegin
  2
*PAPER_SPACE
  1

  0
ENDBLK
  5
1D
330
1B
100
AcDbEntity
 67
     1
  8
0
100
AcDbBlockEnd
  0
ENDSEC
  0
SECTION
  2
ENTITIES
  0
LWPOLYLINE
  5
100
100
AcDbEntity
  8
0
 62
7
100
AcDbPolyline
 90
53
 70
0
 10
6.420556
 20
19.205139
 30
0.0
 10
5.282847
 20
19.178695
 30
0.0
 10
3.986389
 20
18.984667
 30
0.0
 10
3.086806
 20
18.711264
 30
0.0
 10
2.196042
 20
18.173278
 30
0.0
 10
1.658056
 20
17.688209
 30
0.0
 10
1.331736
 20
17.088486
 30
0.0
 10
1.031875
 20
16.471125
 30
0.0
 10
0.811389
 20
15.571542
 30
0.0
 10
0.793750
 20
14.619042
 30
0.0
 10
0.723194
 20
0.163987
 30
0.0
 10
2.972153
 20
0.163987
 30
0.0
 10
2.839861
 20
15.024736
 30
0.0
 10
2.848681
 20
15.386334
 30
0.0
 10
2.901597
 20
15.624459
 30
0.0
 10
3.201458
 20
16.118347
 30
0.0
 10
3.527778
 20
16.550500
 30
0.0
 10
3.907014
 20
16.850361
 30
0.0
 10
4.365625
 20
17.088486
 30
0.0
 10
5.556250
 20
17.256056
 30
0.0
 10
6.394097
 20
17.229612
 30
0.0
 10
7.452431
 20
16.982667
 30
0.0
 10
8.369653
 20
16.550514
 30
0.0
 10
9.181042
 20
15.712667
 30
0.0
 10
10.133542
 20
14.680778
 30
0.0
 10
11.244792
 20
13.269667
 30
0.0
 10
12.329583
 20
11.893834
 30
0.0
 10
13.140972
 20
10.888445
 30
0.0
 10
13.705417
 20
9.971223
 30
0.0
 10
14.005278
 20
9.503778
 30
0.0
 10
14.278681
 20
8.886417
 30
0.0
 10
14.543264
 20
8.075028
 30
0.0
 10
14.869583
 20
7.122528
 30
0.0
 10
15.142986
 20
5.684945
 30
0.0
 10
15.442847
 20
4.168000
 30
0.0
 10
15.363472
 20
0.172806
 30
0.0
 10
17.312569
 20
0.164057
 30
0.0
 10
17.365486
 20
5.094112
 30
0.0
 10
17.065625
 20
6.558140
 30
0.0
 10
16.739306
 20
8.075085
 30
0.0
 10
16.465903
 20
9.098140
 30
0.0
 10
16.227778
 20
9.671390
 30
0.0
 10
15.680972
 20
10.729723
 30
0.0
 10
15.090069
 20
11.646946
 30
0.0
 10
14.490347
 20
12.458334
 30
0.0
 10
13.705417
 20
13.410834
 30
0.0
 10
12.594167
 20
14.786682
 30
0.0
 10
11.729861
 20
15.897932
 30
0.0
 10
10.865556
 20
16.982724
 30
0.0
 10
9.913056
 20
17.794112
 30
0.0
 10
9.048750
 20
18.393835
 30
0.0
 10
7.911042
 20
18.931821
 30
0.0
 10
6.420556
 20
19.205139
 30
0.0
  0
ENDSEC
  0
SECTION
  2
OBJECTS
  0
DICTIONARY
  5
C
330
0
100
AcDbDictionary
  3
ACAD_GROUP
350
D
  3
ACAD_MLINESTYLE
350
17
  0
DICTIONARY
  5
D
330
C
100
AcDbDictionary
  0
DICTIONARY
  5
1A
330
C
100
AcDbDictionary
  0
DICTIONARY
  5
17
330
C
100
AcDbDictionary
  3
STANDARD
350
18
  0
DICTIONARY
  5
19
330
C
100
AcDbDictionary
  0
ENDSEC
  0
EOF
