solid OpenSCAD_Model
  facet normal 0 0 -1
    outer loop
      vertex -17.5 0 0
      vertex -17.2845 2.7376 0
      vertex -17.2845 -2.7376 0
    endloop
  endfacet
  facet normal 0 0 -1
    outer loop
      vertex -17.2845 -2.7376 0
      vertex -17.2845 2.7376 0
      vertex -16.6435 5.4078 0
    endloop
  endfacet
  facet normal 0 0 -1
    outer loop
      vertex -17.2845 -2.7376 0
      vertex -16.6435 5.4078 0
      vertex -15.5926 7.94483 0
    endloop
  endfacet
  facet normal 0 0 -1
    outer loop
      vertex -17.2845 -2.7376 0
      vertex -15.5926 7.94483 0
      vertex -14.1578 10.2862 0
    endloop
  endfacet
  facet normal 0 0 -1
    outer loop
      vertex -17.2845 -2.7376 0
      vertex -14.1578 10.2862 0
      vertex -12.3744 12.3744 0
    endloop
  endfacet
  facet normal 0 0 -1
    outer loop
      vertex -13.3651 6.80986 0
      vertex -12.3744 12.3744 0
      vertex -10.2862 14.1578 0
    endloop
  endfacet
  facet normal 0 0 -1
    outer loop
      vertex -10.6066 10.6066 0
      vertex -10.2862 14.1578 0
      vertex -7.94483 15.5926 0
    endloop
  endfacet
  facet normal 0 0 -1
    outer loop
      vertex -8.81678 12.1353 0
      vertex -7.94483 15.5926 0
      vertex -5.4078 16.6435 0
    endloop
  endfacet
  facet normal 0 0 -1
    outer loop
      vertex -6.80986 13.3651 0
      vertex -5.4078 16.6435 0
      vertex -2.7376 17.2845 0
    endloop
  endfacet
  facet normal 0 0 -1
    outer loop
      vertex -2.34652 14.8153 0
      vertex -2.7376 17.2845 0
      vertex 0 17.5 0
    endloop
  endfacet
  facet normal 0 0 -1
    outer loop
      vertex 0 15 0
      vertex 0 17.5 0
      vertex 2.7376 17.2845 0
    endloop
  endfacet
  facet normal 0 0 -1
    outer loop
      vertex 2.34652 14.8153 0
      vertex 2.7376 17.2845 0
      vertex 5.4078 16.6435 0
    endloop
  endfacet
  facet normal 0 0 -1
    outer loop
      vertex 4.63525 14.2658 0
      vertex 5.4078 16.6435 0
      vertex 7.94483 15.5926 0
    endloop
  endfacet
  facet normal 0 0 -1
    outer loop
      vertex 6.80986 13.3651 0
      vertex 7.94483 15.5926 0
      vertex 10.2862 14.1578 0
    endloop
  endfacet
  facet normal 0 0 -1
    outer loop
      vertex 8.81678 12.1353 0
      vertex 10.2862 14.1578 0
      vertex 12.3744 12.3744 0
    endloop
  endfacet
  facet normal 0 0 -1
    outer loop
      vertex 10.6066 10.6066 0
      vertex 12.3744 12.3744 0
      vertex 14.1578 10.2862 0
    endloop
  endfacet
  facet normal 0 0 -1
    outer loop
      vertex 12.1353 8.81678 0
      vertex 14.1578 10.2862 0
      vertex 15.5926 7.94483 0
    endloop
  endfacet
  facet normal 0 0 -1
    outer loop
      vertex 13.3651 6.80986 0
      vertex 15.5926 7.94483 0
      vertex 16.6435 5.4078 0
    endloop
  endfacet
  facet normal 0 0 -1
    outer loop
      vertex 14.5384 3.5 0
      vertex 16.6435 5.4078 0
      vertex 17.2845 2.7376 0
    endloop
  endfacet
  facet normal 0 0 -1
    outer loop
      vertex 12.5 0 0
      vertex 17.2845 2.7376 0
      vertex 17.5 0 0
    endloop
  endfacet
  facet normal 0 0 -1
    outer loop
      vertex 12.3461 -1.95543 0
      vertex 17.5 0 0
      vertex 17.2845 -2.7376 0
    endloop
  endfacet
  facet normal 0 0 -1
    outer loop
      vertex 14.2658 -4.63525 0
      vertex 17.2845 -2.7376 0
      vertex 16.6435 -5.4078 0
    endloop
  endfacet
  facet normal 0 0 -1
    outer loop
      vertex 13.3651 -6.80986 0
      vertex 16.6435 -5.4078 0
      vertex 15.5926 -7.94483 0
    endloop
  endfacet
  facet normal 0 0 -1
    outer loop
      vertex 12.1353 -8.81678 0
      vertex 15.5926 -7.94483 0
      vertex 14.1578 -10.2862 0
    endloop
  endfacet
  facet normal 0 0 -1
    outer loop
      vertex 10.6066 -10.6066 0
      vertex 14.1578 -10.2862 0
      vertex 12.3744 -12.3744 0
    endloop
  endfacet
  facet normal 0 0 -1
    outer loop
      vertex 8.81678 -12.1353 0
      vertex 12.3744 -12.3744 0
      vertex 10.2862 -14.1578 0
    endloop
  endfacet
  facet normal 0 0 -1
    outer loop
      vertex 6.80986 -13.3651 0
      vertex 10.2862 -14.1578 0
      vertex 7.94483 -15.5926 0
    endloop
  endfacet
  facet normal 0 0 -1
    outer loop
      vertex 4.63525 -14.2658 0
      vertex 7.94483 -15.5926 0
      vertex 5.4078 -16.6435 0
    endloop
  endfacet
  facet normal 0 0 -1
    outer loop
      vertex 0 -15 0
      vertex 5.4078 -16.6435 0
      vertex 2.7376 -17.2845 0
    endloop
  endfacet
  facet normal 0 0 -1
    outer loop
      vertex -2.34652 -14.8153 0
      vertex 2.7376 -17.2845 0
      vertex 0 -17.5 0
    endloop
  endfacet
  facet normal 0 0 -1
    outer loop
      vertex -4.63525 -14.2658 0
      vertex 0 -17.5 0
      vertex -2.7376 -17.2845 0
    endloop
  endfacet
  facet normal 0 0 -1
    outer loop
      vertex -8.81678 -12.1353 0
      vertex -2.7376 -17.2845 0
      vertex -5.4078 -16.6435 0
    endloop
  endfacet
  facet normal 0 0 -1
    outer loop
      vertex -10.6066 -10.6066 0
      vertex -5.4078 -16.6435 0
      vertex -7.94483 -15.5926 0
    endloop
  endfacet
  facet normal 0 0 -1
    outer loop
      vertex -17.2845 -2.7376 0
      vertex -7.94483 -15.5926 0
      vertex -10.2862 -14.1578 0
    endloop
  endfacet
  facet normal 0 0 -1
    outer loop
      vertex -17.2845 -2.7376 0
      vertex -10.2862 -14.1578 0
      vertex -12.3744 -12.3744 0
    endloop
  endfacet
  facet normal 0 0 -1
    outer loop
      vertex -17.2845 -2.7376 0
      vertex -12.3744 -12.3744 0
      vertex -14.1578 -10.2862 0
    endloop
  endfacet
  facet normal 0 0 -1
    outer loop
      vertex -17.2845 -2.7376 0
      vertex -14.1578 -10.2862 0
      vertex -15.5926 -7.94483 0
    endloop
  endfacet
  facet normal 0 0 -1
    outer loop
      vertex -17.2845 -2.7376 0
      vertex -15.5926 -7.94483 0
      vertex -16.6435 -5.4078 0
    endloop
  endfacet
  facet normal 0 0 -1
    outer loop
      vertex -14.2658 -4.63525 0
      vertex -17.2845 -2.7376 0
      vertex -14.5384 -3.5 0
    endloop
  endfacet
  facet normal 0 0 -1
    outer loop
      vertex -13.3651 -6.80986 0
      vertex -17.2845 -2.7376 0
      vertex -14.2658 -4.63525 0
    endloop
  endfacet
  facet normal 0 0 -1
    outer loop
      vertex -12.1353 -8.81678 0
      vertex -17.2845 -2.7376 0
      vertex -13.3651 -6.80986 0
    endloop
  endfacet
  facet normal 0 0 -1
    outer loop
      vertex -8.81678 -12.1353 0
      vertex -5.4078 -16.6435 0
      vertex -10.6066 -10.6066 0
    endloop
  endfacet
  facet normal 0 0 -1
    outer loop
      vertex -17.2845 -2.7376 0
      vertex -12.1353 -8.81678 0
      vertex -7.94483 -15.5926 0
    endloop
  endfacet
  facet normal 0 0 -1
    outer loop
      vertex -12.1353 -8.81678 0
      vertex -10.6066 -10.6066 0
      vertex -7.94483 -15.5926 0
    endloop
  endfacet
  facet normal 0 0 -1
    outer loop
      vertex -6.80986 -13.3651 0
      vertex -2.7376 -17.2845 0
      vertex -8.81678 -12.1353 0
    endloop
  endfacet
  facet normal 0 0 -1
    outer loop
      vertex -4.63525 -14.2658 0
      vertex -2.7376 -17.2845 0
      vertex -6.80986 -13.3651 0
    endloop
  endfacet
  facet normal 0 0 -1
    outer loop
      vertex 2.34652 -14.8153 0
      vertex 5.4078 -16.6435 0
      vertex 0 -15 0
    endloop
  endfacet
  facet normal 0 0 -1
    outer loop
      vertex 4.63525 -14.2658 0
      vertex 5.4078 -16.6435 0
      vertex 2.34652 -14.8153 0
    endloop
  endfacet
  facet normal 0 0 -1
    outer loop
      vertex 0 -15 0
      vertex 2.7376 -17.2845 0
      vertex -2.34652 -14.8153 0
    endloop
  endfacet
  facet normal 0 0 -1
    outer loop
      vertex -2.34652 -14.8153 0
      vertex 0 -17.5 0
      vertex -4.63525 -14.2658 0
    endloop
  endfacet
  facet normal 0 0 -1
    outer loop
      vertex 12.1353 -8.81678 0
      vertex 14.1578 -10.2862 0
      vertex 10.6066 -10.6066 0
    endloop
  endfacet
  facet normal 0 0 -1
    outer loop
      vertex 10.6066 -10.6066 0
      vertex 12.3744 -12.3744 0
      vertex 8.81678 -12.1353 0
    endloop
  endfacet
  facet normal 0 0 -1
    outer loop
      vertex 12.3461 -1.95543 0
      vertex 14.5384 -3.5 0
      vertex 11.9753 -3.5 0
    endloop
  endfacet
  facet normal 0 0 -1
    outer loop
      vertex 14.2658 -4.63525 0
      vertex 16.6435 -5.4078 0
      vertex 13.3651 -6.80986 0
    endloop
  endfacet
  facet normal 0 0 -1
    outer loop
      vertex 14.5384 -3.5 0
      vertex 17.2845 -2.7376 0
      vertex 14.2658 -4.63525 0
    endloop
  endfacet
  facet normal 0 0 -1
    outer loop
      vertex 12.3461 -1.95543 0
      vertex 17.2845 -2.7376 0
      vertex 14.5384 -3.5 0
    endloop
  endfacet
  facet normal 0 0 -1
    outer loop
      vertex -11.9753 -3.5 0
      vertex -17.2845 -2.7376 0
      vertex -12.3461 -1.95543 0
    endloop
  endfacet
  facet normal 0 0 -1
    outer loop
      vertex 12.5 0 0
      vertex 17.5 0 0
      vertex 12.3461 -1.95543 0
    endloop
  endfacet
  facet normal 0 0 -1
    outer loop
      vertex 12.3461 1.95543 0
      vertex 17.2845 2.7376 0
      vertex 12.5 0 0
    endloop
  endfacet
  facet normal 0 0 -1
    outer loop
      vertex 14.5384 3.5 0
      vertex 12.3461 1.95543 0
      vertex 11.9753 3.5 0
    endloop
  endfacet
  facet normal 0 0 -1
    outer loop
      vertex 13.3651 6.80986 0
      vertex 16.6435 5.4078 0
      vertex 14.2658 4.63525 0
    endloop
  endfacet
  facet normal 0 0 -1
    outer loop
      vertex 14.2658 4.63525 0
      vertex 16.6435 5.4078 0
      vertex 14.5384 3.5 0
    endloop
  endfacet
  facet normal 0 0 -1
    outer loop
      vertex 12.3461 1.95543 0
      vertex 14.5384 3.5 0
      vertex 17.2845 2.7376 0
    endloop
  endfacet
  facet normal 0 0 -1
    outer loop
      vertex 12.1353 8.81678 0
      vertex 15.5926 7.94483 0
      vertex 13.3651 6.80986 0
    endloop
  endfacet
  facet normal 0 0 -1
    outer loop
      vertex 10.6066 10.6066 0
      vertex 14.1578 10.2862 0
      vertex 12.1353 8.81678 0
    endloop
  endfacet
  facet normal 0 0 -1
    outer loop
      vertex -12.3461 -1.95543 0
      vertex -17.2845 -2.7376 0
      vertex -12.5 0 0
    endloop
  endfacet
  facet normal 0 0 -1
    outer loop
      vertex 8.81678 12.1353 0
      vertex 12.3744 12.3744 0
      vertex 10.6066 10.6066 0
    endloop
  endfacet
  facet normal 0 0 -1
    outer loop
      vertex 6.80986 13.3651 0
      vertex 10.2862 14.1578 0
      vertex 8.81678 12.1353 0
    endloop
  endfacet
  facet normal 0 0 -1
    outer loop
      vertex 4.63525 14.2658 0
      vertex 7.94483 15.5926 0
      vertex 6.80986 13.3651 0
    endloop
  endfacet
  facet normal 0 0 -1
    outer loop
      vertex -12.5 0 0
      vertex -17.2845 -2.7376 0
      vertex -12.3461 1.95543 0
    endloop
  endfacet
  facet normal 0 0 -1
    outer loop
      vertex 2.34652 14.8153 0
      vertex 5.4078 16.6435 0
      vertex 4.63525 14.2658 0
    endloop
  endfacet
  facet normal 0 0 -1
    outer loop
      vertex 0 15 0
      vertex 2.7376 17.2845 0
      vertex 2.34652 14.8153 0
    endloop
  endfacet
  facet normal 0 0 -1
    outer loop
      vertex -2.34652 14.8153 0
      vertex 0 17.5 0
      vertex 0 15 0
    endloop
  endfacet
  facet normal 0 0 -1
    outer loop
      vertex -4.63525 14.2658 0
      vertex -2.7376 17.2845 0
      vertex -2.34652 14.8153 0
    endloop
  endfacet
  facet normal 0 0 -1
    outer loop
      vertex -6.80986 13.3651 0
      vertex -2.7376 17.2845 0
      vertex -4.63525 14.2658 0
    endloop
  endfacet
  facet normal 0 0 -1
    outer loop
      vertex -8.81678 12.1353 0
      vertex -5.4078 16.6435 0
      vertex -6.80986 13.3651 0
    endloop
  endfacet
  facet normal 0 0 -1
    outer loop
      vertex -11.9753 3.5 0
      vertex -17.2845 -2.7376 0
      vertex -14.5384 3.5 0
    endloop
  endfacet
  facet normal 0 0 -1
    outer loop
      vertex -10.6066 10.6066 0
      vertex -7.94483 15.5926 0
      vertex -8.81678 12.1353 0
    endloop
  endfacet
  facet normal 0 0 -1
    outer loop
      vertex -12.1353 8.81678 0
      vertex -10.2862 14.1578 0
      vertex -10.6066 10.6066 0
    endloop
  endfacet
  facet normal 0 0 -1
    outer loop
      vertex -13.3651 6.80986 0
      vertex -10.2862 14.1578 0
      vertex -12.1353 8.81678 0
    endloop
  endfacet
  facet normal 0 0 -1
    outer loop
      vertex -14.2658 4.63525 0
      vertex -12.3744 12.3744 0
      vertex -13.3651 6.80986 0
    endloop
  endfacet
  facet normal 0 0 -1
    outer loop
      vertex -14.5384 3.5 0
      vertex -17.2845 -2.7376 0
      vertex -14.2658 4.63525 0
    endloop
  endfacet
  facet normal 0 0 -1
    outer loop
      vertex -17.2845 -2.7376 0
      vertex -12.3744 12.3744 0
      vertex -14.2658 4.63525 0
    endloop
  endfacet
  facet normal 0 0 -1
    outer loop
      vertex -12.3461 1.95543 0
      vertex -17.2845 -2.7376 0
      vertex -11.9753 3.5 0
    endloop
  endfacet
  facet normal 0 0 -1
    outer loop
      vertex -14.5384 -3.5 0
      vertex -17.2845 -2.7376 0
      vertex -11.9753 -3.5 0
    endloop
  endfacet
  facet normal 0 0 -1
    outer loop
      vertex 13.3651 -6.80986 0
      vertex 15.5926 -7.94483 0
      vertex 12.1353 -8.81678 0
    endloop
  endfacet
  facet normal 0 0 -1
    outer loop
      vertex 8.81678 -12.1353 0
      vertex 10.2862 -14.1578 0
      vertex 6.80986 -13.3651 0
    endloop
  endfacet
  facet normal 0 0 -1
    outer loop
      vertex 6.80986 -13.3651 0
      vertex 7.94483 -15.5926 0
      vertex 4.63525 -14.2658 0
    endloop
  endfacet
  facet normal -0.996917 0.0784591 0
    outer loop
      vertex -17.5 0 0
      vertex -17.5 0 30
      vertex -17.2845 2.7376 0
    endloop
  endfacet
  facet normal -0.996917 0.0784591 0
    outer loop
      vertex -17.2845 2.7376 0
      vertex -17.5 0 30
      vertex -17.2845 2.7376 30
    endloop
  endfacet
  facet normal -0.996917 -0.0784591 0
    outer loop
      vertex -17.5 0 0
      vertex -17.2845 -2.7376 0
      vertex -17.5 0 30
    endloop
  endfacet
  facet normal -0.996917 -0.0784591 0
    outer loop
      vertex -17.5 0 30
      vertex -17.2845 -2.7376 0
      vertex -17.2845 -2.7376 30
    endloop
  endfacet
  facet normal -0.97237 -0.233445 0
    outer loop
      vertex -17.2845 -2.7376 0
      vertex -16.6435 -5.4078 0
      vertex -17.2845 -2.7376 30
    endloop
  endfacet
  facet normal -0.97237 -0.233445 0
    outer loop
      vertex -17.2845 -2.7376 30
      vertex -16.6435 -5.4078 0
      vertex -16.6435 -5.4078 30
    endloop
  endfacet
  facet normal -0.92388 -0.382683 0
    outer loop
      vertex -16.6435 -5.4078 0
      vertex -15.5926 -7.94483 0
      vertex -16.6435 -5.4078 30
    endloop
  endfacet
  facet normal -0.92388 -0.382683 0
    outer loop
      vertex -16.6435 -5.4078 30
      vertex -15.5926 -7.94483 0
      vertex -15.5926 -7.94483 30
    endloop
  endfacet
  facet normal -0.85264 -0.522499 0
    outer loop
      vertex -15.5926 -7.94483 0
      vertex -14.1578 -10.2862 0
      vertex -15.5926 -7.94483 30
    endloop
  endfacet
  facet normal -0.85264 -0.522499 0
    outer loop
      vertex -15.5926 -7.94483 30
      vertex -14.1578 -10.2862 0
      vertex -14.1578 -10.2862 30
    endloop
  endfacet
  facet normal -0.760406 -0.649448 0
    outer loop
      vertex -14.1578 -10.2862 0
      vertex -12.3744 -12.3744 0
      vertex -14.1578 -10.2862 30
    endloop
  endfacet
  facet normal -0.760406 -0.649448 0
    outer loop
      vertex -14.1578 -10.2862 30
      vertex -12.3744 -12.3744 0
      vertex -12.3744 -12.3744 30
    endloop
  endfacet
  facet normal -0.649448 -0.760406 0
    outer loop
      vertex -12.3744 -12.3744 30
      vertex -12.3744 -12.3744 0
      vertex -10.2862 -14.1578 0
    endloop
  endfacet
  facet normal -0.649448 -0.760406 0
    outer loop
      vertex -10.2862 -14.1578 30
      vertex -12.3744 -12.3744 30
      vertex -10.2862 -14.1578 0
    endloop
  endfacet
  facet normal -0.522499 -0.85264 0
    outer loop
      vertex -10.2862 -14.1578 30
      vertex -10.2862 -14.1578 0
      vertex -7.94483 -15.5926 0
    endloop
  endfacet
  facet normal -0.522499 -0.85264 0
    outer loop
      vertex -7.94483 -15.5926 30
      vertex -10.2862 -14.1578 30
      vertex -7.94483 -15.5926 0
    endloop
  endfacet
  facet normal -0.382683 -0.92388 0
    outer loop
      vertex -7.94483 -15.5926 30
      vertex -7.94483 -15.5926 0
      vertex -5.4078 -16.6435 0
    endloop
  endfacet
  facet normal -0.382683 -0.92388 0
    outer loop
      vertex -5.4078 -16.6435 30
      vertex -7.94483 -15.5926 30
      vertex -5.4078 -16.6435 0
    endloop
  endfacet
  facet normal -0.233445 -0.97237 0
    outer loop
      vertex -5.4078 -16.6435 30
      vertex -5.4078 -16.6435 0
      vertex -2.7376 -17.2845 0
    endloop
  endfacet
  facet normal -0.233445 -0.97237 0
    outer loop
      vertex -2.7376 -17.2845 30
      vertex -5.4078 -16.6435 30
      vertex -2.7376 -17.2845 0
    endloop
  endfacet
  facet normal -0.0784591 -0.996917 0
    outer loop
      vertex -2.7376 -17.2845 30
      vertex -2.7376 -17.2845 0
      vertex 0 -17.5 0
    endloop
  endfacet
  facet normal -0.0784591 -0.996917 0
    outer loop
      vertex 0 -17.5 30
      vertex -2.7376 -17.2845 30
      vertex 0 -17.5 0
    endloop
  endfacet
  facet normal 0.0784591 -0.996917 0
    outer loop
      vertex 0 -17.5 30
      vertex 0 -17.5 0
      vertex 2.7376 -17.2845 0
    endloop
  endfacet
  facet normal 0.0784591 -0.996917 0
    outer loop
      vertex 2.7376 -17.2845 30
      vertex 0 -17.5 30
      vertex 2.7376 -17.2845 0
    endloop
  endfacet
  facet normal 0.233445 -0.97237 0
    outer loop
      vertex 2.7376 -17.2845 30
      vertex 2.7376 -17.2845 0
      vertex 5.4078 -16.6435 0
    endloop
  endfacet
  facet normal 0.233445 -0.97237 0
    outer loop
      vertex 5.4078 -16.6435 30
      vertex 2.7376 -17.2845 30
      vertex 5.4078 -16.6435 0
    endloop
  endfacet
  facet normal 0.382683 -0.92388 0
    outer loop
      vertex 5.4078 -16.6435 30
      vertex 5.4078 -16.6435 0
      vertex 7.94483 -15.5926 0
    endloop
  endfacet
  facet normal 0.382683 -0.92388 0
    outer loop
      vertex 7.94483 -15.5926 30
      vertex 5.4078 -16.6435 30
      vertex 7.94483 -15.5926 0
    endloop
  endfacet
  facet normal 0.522499 -0.85264 0
    outer loop
      vertex 7.94483 -15.5926 30
      vertex 7.94483 -15.5926 0
      vertex 10.2862 -14.1578 0
    endloop
  endfacet
  facet normal 0.522499 -0.85264 0
    outer loop
      vertex 10.2862 -14.1578 30
      vertex 7.94483 -15.5926 30
      vertex 10.2862 -14.1578 0
    endloop
  endfacet
  facet normal 0.649448 -0.760406 0
    outer loop
      vertex 10.2862 -14.1578 30
      vertex 10.2862 -14.1578 0
      vertex 12.3744 -12.3744 0
    endloop
  endfacet
  facet normal 0.649448 -0.760406 0
    outer loop
      vertex 12.3744 -12.3744 30
      vertex 10.2862 -14.1578 30
      vertex 12.3744 -12.3744 0
    endloop
  endfacet
  facet normal 0.760406 -0.649448 0
    outer loop
      vertex 12.3744 -12.3744 30
      vertex 12.3744 -12.3744 0
      vertex 14.1578 -10.2862 0
    endloop
  endfacet
  facet normal 0.760406 -0.649448 0
    outer loop
      vertex 14.1578 -10.2862 30
      vertex 12.3744 -12.3744 30
      vertex 14.1578 -10.2862 0
    endloop
  endfacet
  facet normal 0.85264 -0.522499 0
    outer loop
      vertex 14.1578 -10.2862 30
      vertex 14.1578 -10.2862 0
      vertex 15.5926 -7.94483 0
    endloop
  endfacet
  facet normal 0.85264 -0.522499 0
    outer loop
      vertex 15.5926 -7.94483 30
      vertex 14.1578 -10.2862 30
      vertex 15.5926 -7.94483 0
    endloop
  endfacet
  facet normal 0.92388 -0.382683 0
    outer loop
      vertex 15.5926 -7.94483 30
      vertex 15.5926 -7.94483 0
      vertex 16.6435 -5.4078 0
    endloop
  endfacet
  facet normal 0.92388 -0.382683 0
    outer loop
      vertex 16.6435 -5.4078 30
      vertex 15.5926 -7.94483 30
      vertex 16.6435 -5.4078 0
    endloop
  endfacet
  facet normal 0.97237 -0.233445 0
    outer loop
      vertex 16.6435 -5.4078 30
      vertex 16.6435 -5.4078 0
      vertex 17.2845 -2.7376 0
    endloop
  endfacet
  facet normal 0.97237 -0.233445 0
    outer loop
      vertex 17.2845 -2.7376 30
      vertex 16.6435 -5.4078 30
      vertex 17.2845 -2.7376 0
    endloop
  endfacet
  facet normal 0.996917 -0.0784591 0
    outer loop
      vertex 17.2845 -2.7376 30
      vertex 17.2845 -2.7376 0
      vertex 17.5 0 0
    endloop
  endfacet
  facet normal 0.996917 -0.0784591 0
    outer loop
      vertex 17.5 0 30
      vertex 17.2845 -2.7376 30
      vertex 17.5 0 0
    endloop
  endfacet
  facet normal 0.996917 0.0784591 0
    outer loop
      vertex 17.5 0 0
      vertex 17.2845 2.7376 0
      vertex 17.2845 2.7376 30
    endloop
  endfacet
  facet normal 0.996917 0.0784591 0
    outer loop
      vertex 17.5 0 30
      vertex 17.5 0 0
      vertex 17.2845 2.7376 30
    endloop
  endfacet
  facet normal 0.97237 0.233445 0
    outer loop
      vertex 17.2845 2.7376 0
      vertex 16.6435 5.4078 0
      vertex 16.6435 5.4078 30
    endloop
  endfacet
  facet normal 0.97237 0.233445 0
    outer loop
      vertex 17.2845 2.7376 30
      vertex 17.2845 2.7376 0
      vertex 16.6435 5.4078 30
    endloop
  endfacet
  facet normal 0.92388 0.382683 0
    outer loop
      vertex 16.6435 5.4078 0
      vertex 15.5926 7.94483 0
      vertex 15.5926 7.94483 30
    endloop
  endfacet
  facet normal 0.92388 0.382683 0
    outer loop
      vertex 16.6435 5.4078 30
      vertex 16.6435 5.4078 0
      vertex 15.5926 7.94483 30
    endloop
  endfacet
  facet normal 0.85264 0.522499 0
    outer loop
      vertex 15.5926 7.94483 0
      vertex 14.1578 10.2862 0
      vertex 14.1578 10.2862 30
    endloop
  endfacet
  facet normal 0.85264 0.522499 0
    outer loop
      vertex 15.5926 7.94483 30
      vertex 15.5926 7.94483 0
      vertex 14.1578 10.2862 30
    endloop
  endfacet
  facet normal 0.760406 0.649448 0
    outer loop
      vertex 14.1578 10.2862 0
      vertex 12.3744 12.3744 0
      vertex 12.3744 12.3744 30
    endloop
  endfacet
  facet normal 0.760406 0.649448 0
    outer loop
      vertex 14.1578 10.2862 30
      vertex 14.1578 10.2862 0
      vertex 12.3744 12.3744 30
    endloop
  endfacet
  facet normal 0.649448 0.760406 0
    outer loop
      vertex 10.2862 14.1578 0
      vertex 10.2862 14.1578 30
      vertex 12.3744 12.3744 0
    endloop
  endfacet
  facet normal 0.649448 0.760406 0
    outer loop
      vertex 12.3744 12.3744 0
      vertex 10.2862 14.1578 30
      vertex 12.3744 12.3744 30
    endloop
  endfacet
  facet normal 0.522499 0.85264 0
    outer loop
      vertex 7.94483 15.5926 0
      vertex 7.94483 15.5926 30
      vertex 10.2862 14.1578 0
    endloop
  endfacet
  facet normal 0.522499 0.85264 0
    outer loop
      vertex 10.2862 14.1578 0
      vertex 7.94483 15.5926 30
      vertex 10.2862 14.1578 30
    endloop
  endfacet
  facet normal 0.382683 0.92388 0
    outer loop
      vertex 5.4078 16.6435 0
      vertex 5.4078 16.6435 30
      vertex 7.94483 15.5926 0
    endloop
  endfacet
  facet normal 0.382683 0.92388 0
    outer loop
      vertex 7.94483 15.5926 0
      vertex 5.4078 16.6435 30
      vertex 7.94483 15.5926 30
    endloop
  endfacet
  facet normal 0.233445 0.97237 0
    outer loop
      vertex 2.7376 17.2845 0
      vertex 2.7376 17.2845 30
      vertex 5.4078 16.6435 0
    endloop
  endfacet
  facet normal 0.233445 0.97237 0
    outer loop
      vertex 5.4078 16.6435 0
      vertex 2.7376 17.2845 30
      vertex 5.4078 16.6435 30
    endloop
  endfacet
  facet normal 0.0784591 0.996917 0
    outer loop
      vertex 0 17.5 0
      vertex 0 17.5 30
      vertex 2.7376 17.2845 0
    endloop
  endfacet
  facet normal 0.0784591 0.996917 0
    outer loop
      vertex 2.7376 17.2845 0
      vertex 0 17.5 30
      vertex 2.7376 17.2845 30
    endloop
  endfacet
  facet normal -0.0784591 0.996917 0
    outer loop
      vertex -2.7376 17.2845 0
      vertex -2.7376 17.2845 30
      vertex 0 17.5 0
    endloop
  endfacet
  facet normal -0.0784591 0.996917 0
    outer loop
      vertex 0 17.5 0
      vertex -2.7376 17.2845 30
      vertex 0 17.5 30
    endloop
  endfacet
  facet normal -0.233445 0.97237 0
    outer loop
      vertex -5.4078 16.6435 0
      vertex -5.4078 16.6435 30
      vertex -2.7376 17.2845 0
    endloop
  endfacet
  facet normal -0.233445 0.97237 0
    outer loop
      vertex -2.7376 17.2845 0
      vertex -5.4078 16.6435 30
      vertex -2.7376 17.2845 30
    endloop
  endfacet
  facet normal -0.382683 0.92388 0
    outer loop
      vertex -7.94483 15.5926 0
      vertex -7.94483 15.5926 30
      vertex -5.4078 16.6435 0
    endloop
  endfacet
  facet normal -0.382683 0.92388 0
    outer loop
      vertex -5.4078 16.6435 0
      vertex -7.94483 15.5926 30
      vertex -5.4078 16.6435 30
    endloop
  endfacet
  facet normal -0.522499 0.85264 0
    outer loop
      vertex -10.2862 14.1578 0
      vertex -10.2862 14.1578 30
      vertex -7.94483 15.5926 0
    endloop
  endfacet
  facet normal -0.522499 0.85264 0
    outer loop
      vertex -7.94483 15.5926 0
      vertex -10.2862 14.1578 30
      vertex -7.94483 15.5926 30
    endloop
  endfacet
  facet normal -0.649448 0.760406 0
    outer loop
      vertex -12.3744 12.3744 0
      vertex -12.3744 12.3744 30
      vertex -10.2862 14.1578 0
    endloop
  endfacet
  facet normal -0.649448 0.760406 0
    outer loop
      vertex -10.2862 14.1578 0
      vertex -12.3744 12.3744 30
      vertex -10.2862 14.1578 30
    endloop
  endfacet
  facet normal -0.760406 0.649448 0
    outer loop
      vertex -14.1578 10.2862 0
      vertex -14.1578 10.2862 30
      vertex -12.3744 12.3744 0
    endloop
  endfacet
  facet normal -0.760406 0.649448 0
    outer loop
      vertex -12.3744 12.3744 0
      vertex -14.1578 10.2862 30
      vertex -12.3744 12.3744 30
    endloop
  endfacet
  facet normal -0.85264 0.522499 0
    outer loop
      vertex -15.5926 7.94483 0
      vertex -15.5926 7.94483 30
      vertex -14.1578 10.2862 0
    endloop
  endfacet
  facet normal -0.85264 0.522499 0
    outer loop
      vertex -14.1578 10.2862 0
      vertex -15.5926 7.94483 30
      vertex -14.1578 10.2862 30
    endloop
  endfacet
  facet normal -0.92388 0.382683 0
    outer loop
      vertex -16.6435 5.4078 0
      vertex -16.6435 5.4078 30
      vertex -15.5926 7.94483 0
    endloop
  endfacet
  facet normal -0.92388 0.382683 0
    outer loop
      vertex -15.5926 7.94483 0
      vertex -16.6435 5.4078 30
      vertex -15.5926 7.94483 30
    endloop
  endfacet
  facet normal -0.97237 0.233445 0
    outer loop
      vertex -17.2845 2.7376 0
      vertex -17.2845 2.7376 30
      vertex -16.6435 5.4078 0
    endloop
  endfacet
  facet normal -0.97237 0.233445 0
    outer loop
      vertex -16.6435 5.4078 0
      vertex -17.2845 2.7376 30
      vertex -16.6435 5.4078 30
    endloop
  endfacet
  facet normal 0.97237 0.233445 0
    outer loop
      vertex -14.8153 -2.34652 29.9
      vertex -14.2658 -4.63525 29.9
      vertex -14.2658 -4.63525 0
    endloop
  endfacet
  facet normal 0.97237 0.233445 0
    outer loop
      vertex -14.5384 -3.5 7
      vertex -14.8153 -2.34652 29.9
      vertex -14.2658 -4.63525 0
    endloop
  endfacet
  facet normal 0.97237 0.233445 0
    outer loop
      vertex -14.5384 -3.5 0
      vertex -14.5384 -3.5 7
      vertex -14.2658 -4.63525 0
    endloop
  endfacet
  facet normal 0.97237 0.233445 0
    outer loop
      vertex -14.5384 -3.5 7
      vertex -14.8153 -2.34652 7
      vertex -14.8153 -2.34652 29.9
    endloop
  endfacet
  facet normal 0 -1 0
    outer loop
      vertex -14.5384 -3.5 7
      vertex -14.5384 -3.5 0
      vertex -11.9753 -3.5 0
    endloop
  endfacet
  facet normal 0 -1 0
    outer loop
      vertex -11.9753 -3.5 7
      vertex -14.5384 -3.5 7
      vertex -11.9753 -3.5 0
    endloop
  endfacet
  facet normal 0.97237 0.233446 0
    outer loop
      vertex -12.3461 -1.95543 7
      vertex -11.9753 -3.5 7
      vertex -11.9753 -3.5 0
    endloop
  endfacet
  facet normal 0.97237 0.233446 0
    outer loop
      vertex -12.3461 -1.95543 0
      vertex -12.3461 -1.95543 7
      vertex -11.9753 -3.5 0
    endloop
  endfacet
  facet normal 0.996917 0.0784592 0
    outer loop
      vertex -12.5 0 7
      vertex -12.3461 -1.95543 7
      vertex -12.3461 -1.95543 0
    endloop
  endfacet
  facet normal 0.996917 0.0784592 0
    outer loop
      vertex -12.5 0 0
      vertex -12.5 0 7
      vertex -12.3461 -1.95543 0
    endloop
  endfacet
  facet normal 0.996917 -0.0784592 0
    outer loop
      vertex -12.3461 1.95543 0
      vertex -12.3461 1.95543 7
      vertex -12.5 0 7
    endloop
  endfacet
  facet normal 0.996917 -0.0784592 0
    outer loop
      vertex -12.5 0 0
      vertex -12.3461 1.95543 0
      vertex -12.5 0 7
    endloop
  endfacet
  facet normal 0.97237 -0.233446 0
    outer loop
      vertex -11.9753 3.5 0
      vertex -11.9753 3.5 7
      vertex -12.3461 1.95543 7
    endloop
  endfacet
  facet normal 0.97237 -0.233446 0
    outer loop
      vertex -12.3461 1.95543 0
      vertex -11.9753 3.5 0
      vertex -12.3461 1.95543 7
    endloop
  endfacet
  facet normal 0 1 0
    outer loop
      vertex -14.5384 3.5 0
      vertex -14.5384 3.5 7
      vertex -11.9753 3.5 0
    endloop
  endfacet
  facet normal 0 1 0
    outer loop
      vertex -11.9753 3.5 0
      vertex -14.5384 3.5 7
      vertex -11.9753 3.5 7
    endloop
  endfacet
  facet normal 0.97237 -0.233445 0
    outer loop
      vertex -14.5384 3.5 7
      vertex -14.5384 3.5 0
      vertex -14.2658 4.63525 0
    endloop
  endfacet
  facet normal 0.97237 -0.233445 0
    outer loop
      vertex -14.8153 2.34652 29.9
      vertex -14.5384 3.5 7
      vertex -14.2658 4.63525 29.9
    endloop
  endfacet
  facet normal 0.97237 -0.233445 0
    outer loop
      vertex -14.2658 4.63525 29.9
      vertex -14.5384 3.5 7
      vertex -14.2658 4.63525 0
    endloop
  endfacet
  facet normal 0.97237 -0.233445 0
    outer loop
      vertex -14.8153 2.34652 7
      vertex -14.5384 3.5 7
      vertex -14.8153 2.34652 29.9
    endloop
  endfacet
  facet normal 0.923879 -0.382684 0
    outer loop
      vertex -13.3651 6.80986 0
      vertex -13.3651 6.80986 29.9
      vertex -14.2658 4.63525 29.9
    endloop
  endfacet
  facet normal 0.923879 -0.382684 0
    outer loop
      vertex -14.2658 4.63525 0
      vertex -13.3651 6.80986 0
      vertex -14.2658 4.63525 29.9
    endloop
  endfacet
  facet normal 0.85264 -0.522498 0
    outer loop
      vertex -12.1353 8.81678 0
      vertex -12.1353 8.81678 29.9
      vertex -13.3651 6.80986 29.9
    endloop
  endfacet
  facet normal 0.85264 -0.522498 0
    outer loop
      vertex -13.3651 6.80986 0
      vertex -12.1353 8.81678 0
      vertex -13.3651 6.80986 29.9
    endloop
  endfacet
  facet normal 0.760406 -0.649448 0
    outer loop
      vertex -10.6066 10.6066 0
      vertex -10.6066 10.6066 29.9
      vertex -12.1353 8.81678 29.9
    endloop
  endfacet
  facet normal 0.760406 -0.649448 0
    outer loop
      vertex -12.1353 8.81678 0
      vertex -10.6066 10.6066 0
      vertex -12.1353 8.81678 29.9
    endloop
  endfacet
  facet normal 0.649448 -0.760406 0
    outer loop
      vertex -8.81678 12.1353 0
      vertex -8.81678 12.1353 29.9
      vertex -10.6066 10.6066 29.9
    endloop
  endfacet
  facet normal 0.649448 -0.760406 0
    outer loop
      vertex -10.6066 10.6066 0
      vertex -8.81678 12.1353 0
      vertex -10.6066 10.6066 29.9
    endloop
  endfacet
  facet normal 0.522498 -0.85264 0
    outer loop
      vertex -6.80986 13.3651 0
      vertex -6.80986 13.3651 29.9
      vertex -8.81678 12.1353 29.9
    endloop
  endfacet
  facet normal 0.522498 -0.85264 0
    outer loop
      vertex -8.81678 12.1353 0
      vertex -6.80986 13.3651 0
      vertex -8.81678 12.1353 29.9
    endloop
  endfacet
  facet normal 0.382684 -0.923879 0
    outer loop
      vertex -4.63525 14.2658 0
      vertex -4.63525 14.2658 29.9
      vertex -6.80986 13.3651 29.9
    endloop
  endfacet
  facet normal 0.382684 -0.923879 0
    outer loop
      vertex -6.80986 13.3651 0
      vertex -4.63525 14.2658 0
      vertex -6.80986 13.3651 29.9
    endloop
  endfacet
  facet normal 0.233445 -0.97237 0
    outer loop
      vertex -2.34652 14.8153 0
      vertex -2.34652 14.8153 29.9
      vertex -4.63525 14.2658 29.9
    endloop
  endfacet
  facet normal 0.233445 -0.97237 0
    outer loop
      vertex -4.63525 14.2658 0
      vertex -2.34652 14.8153 0
      vertex -4.63525 14.2658 29.9
    endloop
  endfacet
  facet normal 0.0784591 -0.996917 0
    outer loop
      vertex 0 15 0
      vertex 0 15 29.9
      vertex -2.34652 14.8153 29.9
    endloop
  endfacet
  facet normal 0.0784591 -0.996917 0
    outer loop
      vertex -2.34652 14.8153 0
      vertex 0 15 0
      vertex -2.34652 14.8153 29.9
    endloop
  endfacet
  facet normal -0.0784591 -0.996917 0
    outer loop
      vertex 2.34652 14.8153 0
      vertex 2.34652 14.8153 29.9
      vertex 0 15 29.9
    endloop
  endfacet
  facet normal -0.0784591 -0.996917 0
    outer loop
      vertex 0 15 0
      vertex 2.34652 14.8153 0
      vertex 0 15 29.9
    endloop
  endfacet
  facet normal -0.233445 -0.97237 0
    outer loop
      vertex 4.63525 14.2658 0
      vertex 4.63525 14.2658 29.9
      vertex 2.34652 14.8153 29.9
    endloop
  endfacet
  facet normal -0.233445 -0.97237 0
    outer loop
      vertex 2.34652 14.8153 0
      vertex 4.63525 14.2658 0
      vertex 2.34652 14.8153 29.9
    endloop
  endfacet
  facet normal -0.382684 -0.923879 0
    outer loop
      vertex 6.80986 13.3651 0
      vertex 6.80986 13.3651 29.9
      vertex 4.63525 14.2658 29.9
    endloop
  endfacet
  facet normal -0.382684 -0.923879 0
    outer loop
      vertex 4.63525 14.2658 0
      vertex 6.80986 13.3651 0
      vertex 4.63525 14.2658 29.9
    endloop
  endfacet
  facet normal -0.522498 -0.85264 0
    outer loop
      vertex 8.81678 12.1353 0
      vertex 8.81678 12.1353 29.9
      vertex 6.80986 13.3651 29.9
    endloop
  endfacet
  facet normal -0.522498 -0.85264 0
    outer loop
      vertex 6.80986 13.3651 0
      vertex 8.81678 12.1353 0
      vertex 6.80986 13.3651 29.9
    endloop
  endfacet
  facet normal -0.649448 -0.760406 0
    outer loop
      vertex 10.6066 10.6066 0
      vertex 10.6066 10.6066 29.9
      vertex 8.81678 12.1353 29.9
    endloop
  endfacet
  facet normal -0.649448 -0.760406 0
    outer loop
      vertex 8.81678 12.1353 0
      vertex 10.6066 10.6066 0
      vertex 8.81678 12.1353 29.9
    endloop
  endfacet
  facet normal -0.760406 -0.649448 0
    outer loop
      vertex 12.1353 8.81678 29.9
      vertex 10.6066 10.6066 29.9
      vertex 12.1353 8.81678 0
    endloop
  endfacet
  facet normal -0.760406 -0.649448 0
    outer loop
      vertex 12.1353 8.81678 0
      vertex 10.6066 10.6066 29.9
      vertex 10.6066 10.6066 0
    endloop
  endfacet
  facet normal -0.85264 -0.522498 0
    outer loop
      vertex 13.3651 6.80986 29.9
      vertex 12.1353 8.81678 29.9
      vertex 13.3651 6.80986 0
    endloop
  endfacet
  facet normal -0.85264 -0.522498 0
    outer loop
      vertex 13.3651 6.80986 0
      vertex 12.1353 8.81678 29.9
      vertex 12.1353 8.81678 0
    endloop
  endfacet
  facet normal -0.923879 -0.382684 0
    outer loop
      vertex 14.2658 4.63525 29.9
      vertex 13.3651 6.80986 29.9
      vertex 14.2658 4.63525 0
    endloop
  endfacet
  facet normal -0.923879 -0.382684 0
    outer loop
      vertex 14.2658 4.63525 0
      vertex 13.3651 6.80986 29.9
      vertex 13.3651 6.80986 0
    endloop
  endfacet
  facet normal -0.97237 -0.233445 0
    outer loop
      vertex 14.5384 3.5 7
      vertex 14.8153 2.34652 7
      vertex 14.8153 2.34652 29.9
    endloop
  endfacet
  facet normal -0.97237 -0.233445 0
    outer loop
      vertex 14.5384 3.5 7
      vertex 14.8153 2.34652 29.9
      vertex 14.2658 4.63525 29.9
    endloop
  endfacet
  facet normal -0.97237 -0.233445 0
    outer loop
      vertex 14.5384 3.5 7
      vertex 14.2658 4.63525 29.9
      vertex 14.5384 3.5 0
    endloop
  endfacet
  facet normal -0.97237 -0.233445 0
    outer loop
      vertex 14.2658 4.63525 29.9
      vertex 14.2658 4.63525 0
      vertex 14.5384 3.5 0
    endloop
  endfacet
  facet normal 0 1 0
    outer loop
      vertex 11.9753 3.5 0
      vertex 11.9753 3.5 7
      vertex 14.5384 3.5 0
    endloop
  endfacet
  facet normal 0 1 0
    outer loop
      vertex 14.5384 3.5 0
      vertex 11.9753 3.5 7
      vertex 14.5384 3.5 7
    endloop
  endfacet
  facet normal -0.97237 -0.233446 0
    outer loop
      vertex 12.3461 1.95543 7
      vertex 11.9753 3.5 7
      vertex 12.3461 1.95543 0
    endloop
  endfacet
  facet normal -0.97237 -0.233446 0
    outer loop
      vertex 12.3461 1.95543 0
      vertex 11.9753 3.5 7
      vertex 11.9753 3.5 0
    endloop
  endfacet
  facet normal -0.996917 -0.0784592 0
    outer loop
      vertex 12.5 0 7
      vertex 12.3461 1.95543 7
      vertex 12.5 0 0
    endloop
  endfacet
  facet normal -0.996917 -0.0784592 0
    outer loop
      vertex 12.5 0 0
      vertex 12.3461 1.95543 7
      vertex 12.3461 1.95543 0
    endloop
  endfacet
  facet normal -0.996917 0.0784592 0
    outer loop
      vertex 12.5 0 7
      vertex 12.5 0 0
      vertex 12.3461 -1.95543 7
    endloop
  endfacet
  facet normal -0.996917 0.0784592 0
    outer loop
      vertex 12.3461 -1.95543 7
      vertex 12.5 0 0
      vertex 12.3461 -1.95543 0
    endloop
  endfacet
  facet normal -0.97237 0.233446 0
    outer loop
      vertex 12.3461 -1.95543 7
      vertex 12.3461 -1.95543 0
      vertex 11.9753 -3.5 7
    endloop
  endfacet
  facet normal -0.97237 0.233446 0
    outer loop
      vertex 11.9753 -3.5 7
      vertex 12.3461 -1.95543 0
      vertex 11.9753 -3.5 0
    endloop
  endfacet
  facet normal 0 -1 0
    outer loop
      vertex 11.9753 -3.5 7
      vertex 11.9753 -3.5 0
      vertex 14.5384 -3.5 0
    endloop
  endfacet
  facet normal 0 -1 0
    outer loop
      vertex 14.5384 -3.5 7
      vertex 11.9753 -3.5 7
      vertex 14.5384 -3.5 0
    endloop
  endfacet
  facet normal -0.97237 0.233445 0
    outer loop
      vertex 14.8153 -2.34652 29.9
      vertex 14.8153 -2.34652 7
      vertex 14.2658 -4.63525 29.9
    endloop
  endfacet
  facet normal -0.97237 0.233445 0
    outer loop
      vertex 14.2658 -4.63525 29.9
      vertex 14.8153 -2.34652 7
      vertex 14.5384 -3.5 7
    endloop
  endfacet
  facet normal -0.97237 0.233445 0
    outer loop
      vertex 14.2658 -4.63525 29.9
      vertex 14.5384 -3.5 7
      vertex 14.5384 -3.5 0
    endloop
  endfacet
  facet normal -0.97237 0.233445 0
    outer loop
      vertex 14.2658 -4.63525 29.9
      vertex 14.5384 -3.5 0
      vertex 14.2658 -4.63525 0
    endloop
  endfacet
  facet normal -0.923879 0.382684 0
    outer loop
      vertex 14.2658 -4.63525 29.9
      vertex 14.2658 -4.63525 0
      vertex 13.3651 -6.80986 29.9
    endloop
  endfacet
  facet normal -0.923879 0.382684 0
    outer loop
      vertex 13.3651 -6.80986 29.9
      vertex 14.2658 -4.63525 0
      vertex 13.3651 -6.80986 0
    endloop
  endfacet
  facet normal -0.85264 0.522498 0
    outer loop
      vertex 13.3651 -6.80986 29.9
      vertex 13.3651 -6.80986 0
      vertex 12.1353 -8.81678 29.9
    endloop
  endfacet
  facet normal -0.85264 0.522498 0
    outer loop
      vertex 12.1353 -8.81678 29.9
      vertex 13.3651 -6.80986 0
      vertex 12.1353 -8.81678 0
    endloop
  endfacet
  facet normal -0.760406 0.649448 0
    outer loop
      vertex 12.1353 -8.81678 29.9
      vertex 12.1353 -8.81678 0
      vertex 10.6066 -10.6066 29.9
    endloop
  endfacet
  facet normal -0.760406 0.649448 0
    outer loop
      vertex 10.6066 -10.6066 29.9
      vertex 12.1353 -8.81678 0
      vertex 10.6066 -10.6066 0
    endloop
  endfacet
  facet normal -0.649448 0.760406 0
    outer loop
      vertex 10.6066 -10.6066 29.9
      vertex 10.6066 -10.6066 0
      vertex 8.81678 -12.1353 29.9
    endloop
  endfacet
  facet normal -0.649448 0.760406 0
    outer loop
      vertex 8.81678 -12.1353 29.9
      vertex 10.6066 -10.6066 0
      vertex 8.81678 -12.1353 0
    endloop
  endfacet
  facet normal -0.522498 0.85264 0
    outer loop
      vertex 8.81678 -12.1353 29.9
      vertex 8.81678 -12.1353 0
      vertex 6.80986 -13.3651 29.9
    endloop
  endfacet
  facet normal -0.522498 0.85264 0
    outer loop
      vertex 6.80986 -13.3651 29.9
      vertex 8.81678 -12.1353 0
      vertex 6.80986 -13.3651 0
    endloop
  endfacet
  facet normal -0.382684 0.923879 0
    outer loop
      vertex 6.80986 -13.3651 29.9
      vertex 6.80986 -13.3651 0
      vertex 4.63525 -14.2658 29.9
    endloop
  endfacet
  facet normal -0.382684 0.923879 0
    outer loop
      vertex 4.63525 -14.2658 29.9
      vertex 6.80986 -13.3651 0
      vertex 4.63525 -14.2658 0
    endloop
  endfacet
  facet normal -0.233445 0.97237 0
    outer loop
      vertex 4.63525 -14.2658 29.9
      vertex 4.63525 -14.2658 0
      vertex 2.34652 -14.8153 29.9
    endloop
  endfacet
  facet normal -0.233445 0.97237 0
    outer loop
      vertex 2.34652 -14.8153 29.9
      vertex 4.63525 -14.2658 0
      vertex 2.34652 -14.8153 0
    endloop
  endfacet
  facet normal -0.0784591 0.996917 0
    outer loop
      vertex 2.34652 -14.8153 29.9
      vertex 2.34652 -14.8153 0
      vertex 0 -15 29.9
    endloop
  endfacet
  facet normal -0.0784591 0.996917 0
    outer loop
      vertex 0 -15 29.9
      vertex 2.34652 -14.8153 0
      vertex 0 -15 0
    endloop
  endfacet
  facet normal 0.0784591 0.996917 0
    outer loop
      vertex 0 -15 29.9
      vertex 0 -15 0
      vertex -2.34652 -14.8153 29.9
    endloop
  endfacet
  facet normal 0.0784591 0.996917 0
    outer loop
      vertex -2.34652 -14.8153 29.9
      vertex 0 -15 0
      vertex -2.34652 -14.8153 0
    endloop
  endfacet
  facet normal 0.233445 0.97237 0
    outer loop
      vertex -2.34652 -14.8153 29.9
      vertex -2.34652 -14.8153 0
      vertex -4.63525 -14.2658 29.9
    endloop
  endfacet
  facet normal 0.233445 0.97237 0
    outer loop
      vertex -4.63525 -14.2658 29.9
      vertex -2.34652 -14.8153 0
      vertex -4.63525 -14.2658 0
    endloop
  endfacet
  facet normal 0.382684 0.923879 0
    outer loop
      vertex -4.63525 -14.2658 29.9
      vertex -4.63525 -14.2658 0
      vertex -6.80986 -13.3651 29.9
    endloop
  endfacet
  facet normal 0.382684 0.923879 0
    outer loop
      vertex -6.80986 -13.3651 29.9
      vertex -4.63525 -14.2658 0
      vertex -6.80986 -13.3651 0
    endloop
  endfacet
  facet normal 0.522498 0.85264 0
    outer loop
      vertex -6.80986 -13.3651 29.9
      vertex -6.80986 -13.3651 0
      vertex -8.81678 -12.1353 29.9
    endloop
  endfacet
  facet normal 0.522498 0.85264 0
    outer loop
      vertex -8.81678 -12.1353 29.9
      vertex -6.80986 -13.3651 0
      vertex -8.81678 -12.1353 0
    endloop
  endfacet
  facet normal 0.649448 0.760406 0
    outer loop
      vertex -8.81678 -12.1353 29.9
      vertex -8.81678 -12.1353 0
      vertex -10.6066 -10.6066 29.9
    endloop
  endfacet
  facet normal 0.649448 0.760406 0
    outer loop
      vertex -10.6066 -10.6066 29.9
      vertex -8.81678 -12.1353 0
      vertex -10.6066 -10.6066 0
    endloop
  endfacet
  facet normal 0.760406 0.649448 0
    outer loop
      vertex -12.1353 -8.81678 29.9
      vertex -10.6066 -10.6066 29.9
      vertex -10.6066 -10.6066 0
    endloop
  endfacet
  facet normal 0.760406 0.649448 0
    outer loop
      vertex -12.1353 -8.81678 0
      vertex -12.1353 -8.81678 29.9
      vertex -10.6066 -10.6066 0
    endloop
  endfacet
  facet normal 0.85264 0.522498 0
    outer loop
      vertex -13.3651 -6.80986 29.9
      vertex -12.1353 -8.81678 29.9
      vertex -12.1353 -8.81678 0
    endloop
  endfacet
  facet normal 0.85264 0.522498 0
    outer loop
      vertex -13.3651 -6.80986 0
      vertex -13.3651 -6.80986 29.9
      vertex -12.1353 -8.81678 0
    endloop
  endfacet
  facet normal 0.923879 0.382684 0
    outer loop
      vertex -14.2658 -4.63525 29.9
      vertex -13.3651 -6.80986 29.9
      vertex -13.3651 -6.80986 0
    endloop
  endfacet
  facet normal 0.923879 0.382684 0
    outer loop
      vertex -14.2658 -4.63525 0
      vertex -14.2658 -4.63525 29.9
      vertex -13.3651 -6.80986 0
    endloop
  endfacet
  facet normal 0 0 1
    outer loop
      vertex -17.2845 2.7376 30
      vertex -17.5 0 30
      vertex -17.2845 -2.7376 30
    endloop
  endfacet
  facet normal 0 0 1
    outer loop
      vertex -15.5926 -7.94483 30
      vertex -17.2845 2.7376 30
      vertex -16.6435 -5.4078 30
    endloop
  endfacet
  facet normal 0 0 1
    outer loop
      vertex -16.6435 -5.4078 30
      vertex -17.2845 2.7376 30
      vertex -17.2845 -2.7376 30
    endloop
  endfacet
  facet normal 0 0 1
    outer loop
      vertex -14.1578 -10.2862 30
      vertex -17.2845 2.7376 30
      vertex -15.5926 -7.94483 30
    endloop
  endfacet
  facet normal 0 0 1
    outer loop
      vertex -12.3744 -12.3744 30
      vertex -17.2845 2.7376 30
      vertex -14.1578 -10.2862 30
    endloop
  endfacet
  facet normal 0 0 1
    outer loop
      vertex -10.2862 -14.1578 30
      vertex -17.2845 2.7376 30
      vertex -12.3744 -12.3744 30
    endloop
  endfacet
  facet normal 0 0 1
    outer loop
      vertex -7.94483 -15.5926 30
      vertex -17.2845 2.7376 30
      vertex -10.2862 -14.1578 30
    endloop
  endfacet
  facet normal 0 0 1
    outer loop
      vertex -5.4078 -16.6435 30
      vertex -17.2845 2.7376 30
      vertex -7.94483 -15.5926 30
    endloop
  endfacet
  facet normal 0 0 1
    outer loop
      vertex -2.7376 -17.2845 30
      vertex -17.2845 2.7376 30
      vertex -5.4078 -16.6435 30
    endloop
  endfacet
  facet normal 0 0 1
    outer loop
      vertex 0 -17.5 30
      vertex -17.2845 2.7376 30
      vertex -2.7376 -17.2845 30
    endloop
  endfacet
  facet normal 0 0 1
    outer loop
      vertex 2.7376 -17.2845 30
      vertex -17.2845 2.7376 30
      vertex 0 -17.5 30
    endloop
  endfacet
  facet normal 0 0 1
    outer loop
      vertex 5.4078 -16.6435 30
      vertex -17.2845 2.7376 30
      vertex 2.7376 -17.2845 30
    endloop
  endfacet
  facet normal 0 0 1
    outer loop
      vertex 7.94483 -15.5926 30
      vertex -17.2845 2.7376 30
      vertex 5.4078 -16.6435 30
    endloop
  endfacet
  facet normal 0 0 1
    outer loop
      vertex 10.2862 -14.1578 30
      vertex -17.2845 2.7376 30
      vertex 7.94483 -15.5926 30
    endloop
  endfacet
  facet normal 0 0 1
    outer loop
      vertex 12.3744 -12.3744 30
      vertex -17.2845 2.7376 30
      vertex 10.2862 -14.1578 30
    endloop
  endfacet
  facet normal 0 0 1
    outer loop
      vertex 14.1578 -10.2862 30
      vertex -17.2845 2.7376 30
      vertex 12.3744 -12.3744 30
    endloop
  endfacet
  facet normal 0 0 1
    outer loop
      vertex 15.5926 -7.94483 30
      vertex -17.2845 2.7376 30
      vertex 14.1578 -10.2862 30
    endloop
  endfacet
  facet normal 0 0 1
    outer loop
      vertex 16.6435 -5.4078 30
      vertex -17.2845 2.7376 30
      vertex 15.5926 -7.94483 30
    endloop
  endfacet
  facet normal 0 0 1
    outer loop
      vertex 17.2845 -2.7376 30
      vertex -17.2845 2.7376 30
      vertex 16.6435 -5.4078 30
    endloop
  endfacet
  facet normal 0 0 1
    outer loop
      vertex 17.5 0 30
      vertex -17.2845 2.7376 30
      vertex 17.2845 -2.7376 30
    endloop
  endfacet
  facet normal 0 0 1
    outer loop
      vertex 17.2845 2.7376 30
      vertex -17.2845 2.7376 30
      vertex 17.5 0 30
    endloop
  endfacet
  facet normal 0 0 1
    outer loop
      vertex 16.6435 5.4078 30
      vertex -17.2845 2.7376 30
      vertex 17.2845 2.7376 30
    endloop
  endfacet
  facet normal 0 0 1
    outer loop
      vertex 15.5926 7.94483 30
      vertex -17.2845 2.7376 30
      vertex 16.6435 5.4078 30
    endloop
  endfacet
  facet normal 0 0 1
    outer loop
      vertex 14.1578 10.2862 30
      vertex -17.2845 2.7376 30
      vertex 15.5926 7.94483 30
    endloop
  endfacet
  facet normal 0 0 1
    outer loop
      vertex 12.3744 12.3744 30
      vertex -17.2845 2.7376 30
      vertex 14.1578 10.2862 30
    endloop
  endfacet
  facet normal 0 0 1
    outer loop
      vertex 10.2862 14.1578 30
      vertex -17.2845 2.7376 30
      vertex 12.3744 12.3744 30
    endloop
  endfacet
  facet normal 0 0 1
    outer loop
      vertex 7.94483 15.5926 30
      vertex -17.2845 2.7376 30
      vertex 10.2862 14.1578 30
    endloop
  endfacet
  facet normal 0 0 1
    outer loop
      vertex 5.4078 16.6435 30
      vertex -17.2845 2.7376 30
      vertex 7.94483 15.5926 30
    endloop
  endfacet
  facet normal 0 0 1
    outer loop
      vertex 2.7376 17.2845 30
      vertex -17.2845 2.7376 30
      vertex 5.4078 16.6435 30
    endloop
  endfacet
  facet normal 0 0 1
    outer loop
      vertex 0 17.5 30
      vertex -17.2845 2.7376 30
      vertex 2.7376 17.2845 30
    endloop
  endfacet
  facet normal 0 0 1
    outer loop
      vertex -2.7376 17.2845 30
      vertex -17.2845 2.7376 30
      vertex 0 17.5 30
    endloop
  endfacet
  facet normal 0 0 1
    outer loop
      vertex -5.4078 16.6435 30
      vertex -17.2845 2.7376 30
      vertex -2.7376 17.2845 30
    endloop
  endfacet
  facet normal 0 0 1
    outer loop
      vertex -7.94483 15.5926 30
      vertex -17.2845 2.7376 30
      vertex -5.4078 16.6435 30
    endloop
  endfacet
  facet normal 0 0 1
    outer loop
      vertex -10.2862 14.1578 30
      vertex -17.2845 2.7376 30
      vertex -7.94483 15.5926 30
    endloop
  endfacet
  facet normal 0 0 1
    outer loop
      vertex -12.3744 12.3744 30
      vertex -17.2845 2.7376 30
      vertex -10.2862 14.1578 30
    endloop
  endfacet
  facet normal 0 0 1
    outer loop
      vertex -14.1578 10.2862 30
      vertex -17.2845 2.7376 30
      vertex -12.3744 12.3744 30
    endloop
  endfacet
  facet normal 0 0 1
    outer loop
      vertex -15.5926 7.94483 30
      vertex -17.2845 2.7376 30
      vertex -14.1578 10.2862 30
    endloop
  endfacet
  facet normal 0 0 1
    outer loop
      vertex -16.6435 5.4078 30
      vertex -17.2845 2.7376 30
      vertex -15.5926 7.94483 30
    endloop
  endfacet
  facet normal 0 0 -1
    outer loop
      vertex -14.2658 4.63525 29.9
      vertex -13.3651 6.80986 29.9
      vertex -14.8153 2.34652 29.9
    endloop
  endfacet
  facet normal 0 0 -1
    outer loop
      vertex -14.8153 2.34652 29.9
      vertex -13.3651 6.80986 29.9
      vertex -12.1353 8.81678 29.9
    endloop
  endfacet
  facet normal 0 0 -1
    outer loop
      vertex -14.8153 2.34652 29.9
      vertex -12.1353 8.81678 29.9
      vertex -10.6066 10.6066 29.9
    endloop
  endfacet
  facet normal 0 0 -1
    outer loop
      vertex -14.8153 2.34652 29.9
      vertex -10.6066 10.6066 29.9
      vertex -8.81678 12.1353 29.9
    endloop
  endfacet
  facet normal 0 0 -1
    outer loop
      vertex -14.8153 2.34652 29.9
      vertex -8.81678 12.1353 29.9
      vertex -6.80986 13.3651 29.9
    endloop
  endfacet
  facet normal 0 0 -1
    outer loop
      vertex -14.8153 2.34652 29.9
      vertex -6.80986 13.3651 29.9
      vertex -4.63525 14.2658 29.9
    endloop
  endfacet
  facet normal 0 0 -1
    outer loop
      vertex -14.8153 2.34652 29.9
      vertex -4.63525 14.2658 29.9
      vertex -2.34652 14.8153 29.9
    endloop
  endfacet
  facet normal 0 0 -1
    outer loop
      vertex -14.8153 2.34652 29.9
      vertex -2.34652 14.8153 29.9
      vertex 0 15 29.9
    endloop
  endfacet
  facet normal 0 0 -1
    outer loop
      vertex -14.8153 2.34652 29.9
      vertex 0 15 29.9
      vertex 2.34652 14.8153 29.9
    endloop
  endfacet
  facet normal 0 0 -1
    outer loop
      vertex -14.8153 2.34652 29.9
      vertex 2.34652 14.8153 29.9
      vertex 4.63525 14.2658 29.9
    endloop
  endfacet
  facet normal 0 0 -1
    outer loop
      vertex -14.8153 2.34652 29.9
      vertex 4.63525 14.2658 29.9
      vertex 6.80986 13.3651 29.9
    endloop
  endfacet
  facet normal 0 0 -1
    outer loop
      vertex -14.8153 2.34652 29.9
      vertex 6.80986 13.3651 29.9
      vertex 8.81678 12.1353 29.9
    endloop
  endfacet
  facet normal 0 0 -1
    outer loop
      vertex -14.8153 2.34652 29.9
      vertex 8.81678 12.1353 29.9
      vertex 10.6066 10.6066 29.9
    endloop
  endfacet
  facet normal 0 0 -1
    outer loop
      vertex -14.8153 2.34652 29.9
      vertex 10.6066 10.6066 29.9
      vertex 12.1353 8.81678 29.9
    endloop
  endfacet
  facet normal 0 0 -1
    outer loop
      vertex -14.8153 2.34652 29.9
      vertex 12.1353 8.81678 29.9
      vertex 13.3651 6.80986 29.9
    endloop
  endfacet
  facet normal 0 0 -1
    outer loop
      vertex -14.8153 2.34652 29.9
      vertex 13.3651 6.80986 29.9
      vertex 14.2658 4.63525 29.9
    endloop
  endfacet
  facet normal 0 0 -1
    outer loop
      vertex -14.8153 2.34652 29.9
      vertex 14.2658 4.63525 29.9
      vertex 14.8153 2.34652 29.9
    endloop
  endfacet
  facet normal 0 0 -1
    outer loop
      vertex -14.8153 2.34652 29.9
      vertex 14.8153 2.34652 29.9
      vertex 15 0 29.9
    endloop
  endfacet
  facet normal 0 0 -1
    outer loop
      vertex -14.8153 2.34652 29.9
      vertex 15 0 29.9
      vertex 14.8153 -2.34652 29.9
    endloop
  endfacet
  facet normal 0 0 -1
    outer loop
      vertex -14.8153 2.34652 29.9
      vertex 14.8153 -2.34652 29.9
      vertex 14.2658 -4.63525 29.9
    endloop
  endfacet
  facet normal 0 0 -1
    outer loop
      vertex -14.8153 2.34652 29.9
      vertex 14.2658 -4.63525 29.9
      vertex 13.3651 -6.80986 29.9
    endloop
  endfacet
  facet normal 0 0 -1
    outer loop
      vertex -14.8153 2.34652 29.9
      vertex 13.3651 -6.80986 29.9
      vertex 12.1353 -8.81678 29.9
    endloop
  endfacet
  facet normal 0 0 -1
    outer loop
      vertex -14.8153 2.34652 29.9
      vertex 12.1353 -8.81678 29.9
      vertex 10.6066 -10.6066 29.9
    endloop
  endfacet
  facet normal 0 0 -1
    outer loop
      vertex -14.8153 2.34652 29.9
      vertex 10.6066 -10.6066 29.9
      vertex 8.81678 -12.1353 29.9
    endloop
  endfacet
  facet normal 0 0 -1
    outer loop
      vertex -14.8153 2.34652 29.9
      vertex 8.81678 -12.1353 29.9
      vertex 6.80986 -13.3651 29.9
    endloop
  endfacet
  facet normal 0 0 -1
    outer loop
      vertex -14.8153 2.34652 29.9
      vertex 6.80986 -13.3651 29.9
      vertex 4.63525 -14.2658 29.9
    endloop
  endfacet
  facet normal 0 0 -1
    outer loop
      vertex -14.8153 2.34652 29.9
      vertex 4.63525 -14.2658 29.9
      vertex 2.34652 -14.8153 29.9
    endloop
  endfacet
  facet normal 0 0 -1
    outer loop
      vertex -14.8153 2.34652 29.9
      vertex 2.34652 -14.8153 29.9
      vertex 0 -15 29.9
    endloop
  endfacet
  facet normal 0 0 -1
    outer loop
      vertex -14.8153 2.34652 29.9
      vertex 0 -15 29.9
      vertex -2.34652 -14.8153 29.9
    endloop
  endfacet
  facet normal 0 0 -1
    outer loop
      vertex -14.8153 2.34652 29.9
      vertex -2.34652 -14.8153 29.9
      vertex -4.63525 -14.2658 29.9
    endloop
  endfacet
  facet normal 0 0 -1
    outer loop
      vertex -14.8153 2.34652 29.9
      vertex -4.63525 -14.2658 29.9
      vertex -6.80986 -13.3651 29.9
    endloop
  endfacet
  facet normal 0 0 -1
    outer loop
      vertex -14.8153 2.34652 29.9
      vertex -6.80986 -13.3651 29.9
      vertex -8.81678 -12.1353 29.9
    endloop
  endfacet
  facet normal 0 0 -1
    outer loop
      vertex -14.8153 2.34652 29.9
      vertex -8.81678 -12.1353 29.9
      vertex -10.6066 -10.6066 29.9
    endloop
  endfacet
  facet normal 0 0 -1
    outer loop
      vertex -14.8153 2.34652 29.9
      vertex -10.6066 -10.6066 29.9
      vertex -12.1353 -8.81678 29.9
    endloop
  endfacet
  facet normal 0 0 -1
    outer loop
      vertex -14.8153 2.34652 29.9
      vertex -12.1353 -8.81678 29.9
      vertex -13.3651 -6.80986 29.9
    endloop
  endfacet
  facet normal 0 0 -1
    outer loop
      vertex -14.8153 2.34652 29.9
      vertex -13.3651 -6.80986 29.9
      vertex -14.2658 -4.63525 29.9
    endloop
  endfacet
  facet normal 0 0 -1
    outer loop
      vertex -14.8153 2.34652 29.9
      vertex -14.2658 -4.63525 29.9
      vertex -14.8153 -2.34652 29.9
    endloop
  endfacet
  facet normal 0 0 -1
    outer loop
      vertex -14.8153 2.34652 29.9
      vertex -14.8153 -2.34652 29.9
      vertex -15 0 29.9
    endloop
  endfacet
  facet normal 0.996917 0.0784591 0
    outer loop
      vertex -15 0 29.9
      vertex -14.8153 -2.34652 29.9
      vertex -14.8153 -2.34652 7
    endloop
  endfacet
  facet normal 0.996917 0.0784591 0
    outer loop
      vertex -15 0 7
      vertex -15 0 29.9
      vertex -14.8153 -2.34652 7
    endloop
  endfacet
  facet normal 0 0 1
    outer loop
      vertex -14.8153 2.34652 7
      vertex -15 0 7
      vertex -14.8153 -2.34652 7
    endloop
  endfacet
  facet normal 0 0 1
    outer loop
      vertex -11.9753 -3.5 7
      vertex -14.8153 2.34652 7
      vertex -14.5384 -3.5 7
    endloop
  endfacet
  facet normal 0 0 1
    outer loop
      vertex -14.5384 -3.5 7
      vertex -14.8153 2.34652 7
      vertex -14.8153 -2.34652 7
    endloop
  endfacet
  facet normal 0 0 1
    outer loop
      vertex -12.3461 -1.95543 7
      vertex -14.8153 2.34652 7
      vertex -11.9753 -3.5 7
    endloop
  endfacet
  facet normal 0 0 1
    outer loop
      vertex -12.5 0 7
      vertex -14.8153 2.34652 7
      vertex -12.3461 -1.95543 7
    endloop
  endfacet
  facet normal 0 0 1
    outer loop
      vertex -12.3461 1.95543 7
      vertex -14.8153 2.34652 7
      vertex -12.5 0 7
    endloop
  endfacet
  facet normal 0 0 1
    outer loop
      vertex -11.9753 3.5 7
      vertex -14.8153 2.34652 7
      vertex -12.3461 1.95543 7
    endloop
  endfacet
  facet normal 0 0 1
    outer loop
      vertex -14.5384 3.5 7
      vertex -14.8153 2.34652 7
      vertex -11.9753 3.5 7
    endloop
  endfacet
  facet normal 0.996917 -0.0784591 0
    outer loop
      vertex -14.8153 2.34652 7
      vertex -14.8153 2.34652 29.9
      vertex -15 0 29.9
    endloop
  endfacet
  facet normal 0.996917 -0.0784591 0
    outer loop
      vertex -15 0 7
      vertex -14.8153 2.34652 7
      vertex -15 0 29.9
    endloop
  endfacet
  facet normal -0.996917 -0.0784591 0
    outer loop
      vertex 15 0 29.9
      vertex 14.8153 2.34652 29.9
      vertex 15 0 7
    endloop
  endfacet
  facet normal -0.996917 -0.0784591 0
    outer loop
      vertex 15 0 7
      vertex 14.8153 2.34652 29.9
      vertex 14.8153 2.34652 7
    endloop
  endfacet
  facet normal 0 0 1
    outer loop
      vertex 12.3461 -1.95543 7
      vertex 11.9753 -3.5 7
      vertex 14.5384 -3.5 7
    endloop
  endfacet
  facet normal 0 0 1
    outer loop
      vertex 15 0 7
      vertex 12.3461 -1.95543 7
      vertex 14.8153 -2.34652 7
    endloop
  endfacet
  facet normal 0 0 1
    outer loop
      vertex 14.8153 -2.34652 7
      vertex 12.3461 -1.95543 7
      vertex 14.5384 -3.5 7
    endloop
  endfacet
  facet normal 0 0 1
    outer loop
      vertex 14.8153 2.34652 7
      vertex 12.3461 -1.95543 7
      vertex 15 0 7
    endloop
  endfacet
  facet normal 0 0 1
    outer loop
      vertex 14.5384 3.5 7
      vertex 12.3461 -1.95543 7
      vertex 14.8153 2.34652 7
    endloop
  endfacet
  facet normal 0 0 1
    outer loop
      vertex 12.5 0 7
      vertex 12.3461 -1.95543 7
      vertex 14.5384 3.5 7
    endloop
  endfacet
  facet normal 0 0 1
    outer loop
      vertex 11.9753 3.5 7
      vertex 12.3461 1.95543 7
      vertex 14.5384 3.5 7
    endloop
  endfacet
  facet normal 0 0 1
    outer loop
      vertex 12.3461 1.95543 7
      vertex 12.5 0 7
      vertex 14.5384 3.5 7
    endloop
  endfacet
  facet normal -0.996917 0.0784591 0
    outer loop
      vertex 15 0 29.9
      vertex 15 0 7
      vertex 14.8153 -2.34652 29.9
    endloop
  endfacet
  facet normal -0.996917 0.0784591 0
    outer loop
      vertex 14.8153 -2.34652 29.9
      vertex 15 0 7
      vertex 14.8153 -2.34652 7
    endloop
  endfacet
endsolid OpenSCAD_Model
