  0
SECTION
  2
BLOCKS
  0
ENDSEC
  0
SECTION
  2
ENTITIES
  0
LINE
  8
0
 10
0
 11
0
 20
0
 21
275
  0
LINE
  8
0
 10
0
 11
133.638
 20
275
 21
275
  0
LINE
  8
0
 10
133.638
 11
133.638
 20
275
 21
0
  0
LINE
  8
0
 10
133.638
 11
0
 20
0
 21
0
  0
LINE
  8
0
 10
4.191
 11
4.191
 20
31.912
 21
33.088
  0
LINE
  8
0
 10
4.191
 11
5.309
 20
33.088
 21
33.451
  0
LINE
  8
0
 10
5.309
 11
6
 20
33.451
 21
32.5
  0
LINE
  8
0
 10
6
 11
5.309
 20
32.5
 21
31.549
  0
LINE
  8
0
 10
5.309
 11
4.191
 20
31.549
 21
31.912
  0
LINE
  8
0
 10
4.191
 11
4.191
 20
53.912
 21
55.088
  0
LINE
  8
0
 10
4.191
 11
5.309
 20
55.088
 21
55.451
  0
LINE
  8
0
 10
5.309
 11
6
 20
55.451
 21
54.5
  0
LINE
  8
0
 10
6
 11
5.309
 20
54.5
 21
53.549
  0
LINE
  8
0
 10
5.309
 11
4.191
 20
53.549
 21
53.912
  0
LINE
  8
0
 10
4.191
 11
4.191
 20
75.912
 21
77.088
  0
LINE
  8
0
 10
4.191
 11
5.309
 20
77.088
 21
77.451
  0
LINE
  8
0
 10
5.309
 11
6
 20
77.451
 21
76.5
  0
LINE
  8
0
 10
6
 11
5.309
 20
76.5
 21
75.549
  0
LINE
  8
0
 10
5.309
 11
4.191
 20
75.549
 21
75.912
  0
LINE
  8
0
 10
4.191
 11
4.191
 20
97.912
 21
99.088
  0
LINE
  8
0
 10
4.191
 11
5.309
 20
99.088
 21
99.451
  0
LINE
  8
0
 10
5.309
 11
6
 20
99.451
 21
98.5
  0
LINE
  8
0
 10
6
 11
5.309
 20
98.5
 21
97.549
  0
LINE
  8
0
 10
5.309
 11
4.191
 20
97.549
 21
97.912
  0
LINE
  8
0
 10
4.191
 11
4.191
 20
119.912
 21
121.088
  0
LINE
  8
0
 10
4.191
 11
5.309
 20
121.088
 21
121.451
  0
LINE
  8
0
 10
5.309
 11
6
 20
121.451
 21
120.5
  0
LINE
  8
0
 10
6
 11
5.309
 20
120.5
 21
119.549
  0
LINE
  8
0
 10
5.309
 11
4.191
 20
119.549
 21
119.912
  0
LINE
  8
0
 10
4.191
 11
4.191
 20
141.912
 21
143.088
  0
LINE
  8
0
 10
4.191
 11
5.309
 20
143.088
 21
143.451
  0
LINE
  8
0
 10
5.309
 11
6
 20
143.451
 21
142.5
  0
LINE
  8
0
 10
6
 11
5.309
 20
142.5
 21
141.549
  0
LINE
  8
0
 10
5.309
 11
4.191
 20
141.549
 21
141.912
  0
LINE
  8
0
 10
4.191
 11
4.191
 20
163.912
 21
165.088
  0
LINE
  8
0
 10
4.191
 11
5.309
 20
165.088
 21
165.451
  0
LINE
  8
0
 10
5.309
 11
6
 20
165.451
 21
164.5
  0
LINE
  8
0
 10
6
 11
5.309
 20
164.5
 21
163.549
  0
LINE
  8
0
 10
5.309
 11
4.191
 20
163.549
 21
163.912
  0
LINE
  8
0
 10
4.191
 11
4.191
 20
185.912
 21
187.088
  0
LINE
  8
0
 10
4.191
 11
5.309
 20
187.088
 21
187.451
  0
LINE
  8
0
 10
5.309
 11
6
 20
187.451
 21
186.5
  0
LINE
  8
0
 10
6
 11
5.309
 20
186.5
 21
185.549
  0
LINE
  8
0
 10
5.309
 11
4.191
 20
185.549
 21
185.912
  0
LINE
  8
0
 10
4.191
 11
4.191
 20
207.912
 21
209.088
  0
LINE
  8
0
 10
4.191
 11
5.309
 20
209.088
 21
209.451
  0
LINE
  8
0
 10
5.309
 11
6
 20
209.451
 21
208.5
  0
LINE
  8
0
 10
6
 11
5.309
 20
208.5
 21
207.549
  0
LINE
  8
0
 10
5.309
 11
4.191
 20
207.549
 21
207.912
  0
LINE
  8
0
 10
4.191
 11
4.191
 20
229.912
 21
231.088
  0
LINE
  8
0
 10
4.191
 11
5.309
 20
231.088
 21
231.451
  0
LINE
  8
0
 10
5.309
 11
6
 20
231.451
 21
230.5
  0
LINE
  8
0
 10
6
 11
5.309
 20
230.5
 21
229.549
  0
LINE
  8
0
 10
5.309
 11
4.191
 20
229.549
 21
229.912
  0
LINE
  8
0
 10
20.896
 11
20.896
 20
42.912
 21
44.088
  0
LINE
  8
0
 10
20.896
 11
22.014
 20
44.088
 21
44.451
  0
LINE
  8
0
 10
22.014
 11
22.705
 20
44.451
 21
43.5
  0
LINE
  8
0
 10
22.705
 11
22.014
 20
43.5
 21
42.549
  0
LINE
  8
0
 10
22.014
 11
20.896
 20
42.549
 21
42.912
  0
LINE
  8
0
 10
20.896
 11
20.896
 20
64.912
 21
66.088
  0
LINE
  8
0
 10
20.896
 11
22.014
 20
66.088
 21
66.451
  0
LINE
  8
0
 10
22.014
 11
22.705
 20
66.451
 21
65.5
  0
LINE
  8
0
 10
22.705
 11
22.014
 20
65.5
 21
64.549
  0
LINE
  8
0
 10
22.014
 11
20.896
 20
64.549
 21
64.912
  0
LINE
  8
0
 10
20.896
 11
20.896
 20
86.912
 21
88.088
  0
LINE
  8
0
 10
20.896
 11
22.014
 20
88.088
 21
88.451
  0
LINE
  8
0
 10
22.014
 11
22.705
 20
88.451
 21
87.5
  0
LINE
  8
0
 10
22.705
 11
22.014
 20
87.5
 21
86.549
  0
LINE
  8
0
 10
22.014
 11
20.896
 20
86.549
 21
86.912
  0
LINE
  8
0
 10
20.896
 11
20.896
 20
108.912
 21
110.088
  0
LINE
  8
0
 10
20.896
 11
22.014
 20
110.088
 21
110.451
  0
LINE
  8
0
 10
22.014
 11
22.705
 20
110.451
 21
109.5
  0
LINE
  8
0
 10
22.705
 11
22.014
 20
109.5
 21
108.549
  0
LINE
  8
0
 10
22.014
 11
20.896
 20
108.549
 21
108.912
  0
LINE
  8
0
 10
20.896
 11
20.896
 20
130.912
 21
132.088
  0
LINE
  8
0
 10
20.896
 11
22.014
 20
132.088
 21
132.451
  0
LINE
  8
0
 10
22.014
 11
22.705
 20
132.451
 21
131.5
  0
LINE
  8
0
 10
22.705
 11
22.014
 20
131.5
 21
130.549
  0
LINE
  8
0
 10
22.014
 11
20.896
 20
130.549
 21
130.912
  0
LINE
  8
0
 10
20.896
 11
20.896
 20
152.912
 21
154.088
  0
LINE
  8
0
 10
20.896
 11
22.014
 20
154.088
 21
154.451
  0
LINE
  8
0
 10
22.014
 11
22.705
 20
154.451
 21
153.5
  0
LINE
  8
0
 10
22.705
 11
22.014
 20
153.5
 21
152.549
  0
LINE
  8
0
 10
22.014
 11
20.896
 20
152.549
 21
152.912
  0
LINE
  8
0
 10
20.896
 11
20.896
 20
174.912
 21
176.088
  0
LINE
  8
0
 10
20.896
 11
22.014
 20
176.088
 21
176.451
  0
LINE
  8
0
 10
22.014
 11
22.705
 20
176.451
 21
175.5
  0
LINE
  8
0
 10
22.705
 11
22.014
 20
175.5
 21
174.549
  0
LINE
  8
0
 10
22.014
 11
20.896
 20
174.549
 21
174.912
  0
LINE
  8
0
 10
20.896
 11
20.896
 20
196.912
 21
198.088
  0
LINE
  8
0
 10
20.896
 11
22.014
 20
198.088
 21
198.451
  0
LINE
  8
0
 10
22.014
 11
22.705
 20
198.451
 21
197.5
  0
LINE
  8
0
 10
22.705
 11
22.014
 20
197.5
 21
196.549
  0
LINE
  8
0
 10
22.014
 11
20.896
 20
196.549
 21
196.912
  0
LINE
  8
0
 10
20.896
 11
20.896
 20
218.912
 21
220.088
  0
LINE
  8
0
 10
20.896
 11
22.014
 20
220.088
 21
220.451
  0
LINE
  8
0
 10
22.014
 11
22.705
 20
220.451
 21
219.5
  0
LINE
  8
0
 10
22.705
 11
22.014
 20
219.5
 21
218.549
  0
LINE
  8
0
 10
22.014
 11
20.896
 20
218.549
 21
218.912
  0
LINE
  8
0
 10
37.6
 11
37.6
 20
31.912
 21
33.088
  0
LINE
  8
0
 10
37.6
 11
38.719
 20
33.088
 21
33.451
  0
LINE
  8
0
 10
38.719
 11
39.41
 20
33.451
 21
32.5
  0
LINE
  8
0
 10
39.41
 11
38.719
 20
32.5
 21
31.549
  0
LINE
  8
0
 10
38.719
 11
37.6
 20
31.549
 21
31.912
  0
LINE
  8
0
 10
37.6
 11
37.6
 20
53.912
 21
55.088
  0
LINE
  8
0
 10
37.6
 11
38.719
 20
55.088
 21
55.451
  0
LINE
  8
0
 10
38.719
 11
39.41
 20
55.451
 21
54.5
  0
LINE
  8
0
 10
39.41
 11
38.719
 20
54.5
 21
53.549
  0
LINE
  8
0
 10
38.719
 11
37.6
 20
53.549
 21
53.912
  0
LINE
  8
0
 10
37.6
 11
37.6
 20
75.912
 21
77.088
  0
LINE
  8
0
 10
37.6
 11
38.719
 20
77.088
 21
77.451
  0
LINE
  8
0
 10
38.719
 11
39.41
 20
77.451
 21
76.5
  0
LINE
  8
0
 10
39.41
 11
38.719
 20
76.5
 21
75.549
  0
LINE
  8
0
 10
38.719
 11
37.6
 20
75.549
 21
75.912
  0
LINE
  8
0
 10
37.6
 11
37.6
 20
97.912
 21
99.088
  0
LINE
  8
0
 10
37.6
 11
38.719
 20
99.088
 21
99.451
  0
LINE
  8
0
 10
38.719
 11
39.41
 20
99.451
 21
98.5
  0
LINE
  8
0
 10
39.41
 11
38.719
 20
98.5
 21
97.549
  0
LINE
  8
0
 10
38.719
 11
37.6
 20
97.549
 21
97.912
  0
LINE
  8
0
 10
37.6
 11
37.6
 20
119.912
 21
121.088
  0
LINE
  8
0
 10
37.6
 11
38.719
 20
121.088
 21
121.451
  0
LINE
  8
0
 10
38.719
 11
39.41
 20
121.451
 21
120.5
  0
LINE
  8
0
 10
39.41
 11
38.719
 20
120.5
 21
119.549
  0
LINE
  8
0
 10
38.719
 11
37.6
 20
119.549
 21
119.912
  0
LINE
  8
0
 10
37.6
 11
37.6
 20
141.912
 21
143.088
  0
LINE
  8
0
 10
37.6
 11
38.719
 20
143.088
 21
143.451
  0
LINE
  8
0
 10
38.719
 11
39.41
 20
143.451
 21
142.5
  0
LINE
  8
0
 10
39.41
 11
38.719
 20
142.5
 21
141.549
  0
LINE
  8
0
 10
38.719
 11
37.6
 20
141.549
 21
141.912
  0
LINE
  8
0
 10
37.6
 11
37.6
 20
163.912
 21
165.088
  0
LINE
  8
0
 10
37.6
 11
38.719
 20
165.088
 21
165.451
  0
LINE
  8
0
 10
38.719
 11
39.41
 20
165.451
 21
164.5
  0
LINE
  8
0
 10
39.41
 11
38.719
 20
164.5
 21
163.549
  0
LINE
  8
0
 10
38.719
 11
37.6
 20
163.549
 21
163.912
  0
LINE
  8
0
 10
37.6
 11
37.6
 20
185.912
 21
187.088
  0
LINE
  8
0
 10
37.6
 11
38.719
 20
187.088
 21
187.451
  0
LINE
  8
0
 10
38.719
 11
39.41
 20
187.451
 21
186.5
  0
LINE
  8
0
 10
39.41
 11
38.719
 20
186.5
 21
185.549
  0
LINE
  8
0
 10
38.719
 11
37.6
 20
185.549
 21
185.912
  0
LINE
  8
0
 10
37.6
 11
37.6
 20
207.912
 21
209.088
  0
LINE
  8
0
 10
37.6
 11
38.719
 20
209.088
 21
209.451
  0
LINE
  8
0
 10
38.719
 11
39.41
 20
209.451
 21
208.5
  0
LINE
  8
0
 10
39.41
 11
38.719
 20
208.5
 21
207.549
  0
LINE
  8
0
 10
38.719
 11
37.6
 20
207.549
 21
207.912
  0
LINE
  8
0
 10
37.6
 11
37.6
 20
229.912
 21
231.088
  0
LINE
  8
0
 10
37.6
 11
38.719
 20
231.088
 21
231.451
  0
LINE
  8
0
 10
38.719
 11
39.41
 20
231.451
 21
230.5
  0
LINE
  8
0
 10
39.41
 11
38.719
 20
230.5
 21
229.549
  0
LINE
  8
0
 10
38.719
 11
37.6
 20
229.549
 21
229.912
  0
LINE
  8
0
 10
54.305
 11
54.305
 20
42.912
 21
44.088
  0
LINE
  8
0
 10
54.305
 11
55.423
 20
44.088
 21
44.451
  0
LINE
  8
0
 10
55.423
 11
56.114
 20
44.451
 21
43.5
  0
LINE
  8
0
 10
56.114
 11
55.423
 20
43.5
 21
42.549
  0
LINE
  8
0
 10
55.423
 11
54.305
 20
42.549
 21
42.912
  0
LINE
  8
0
 10
54.305
 11
54.305
 20
64.912
 21
66.088
  0
LINE
  8
0
 10
54.305
 11
55.423
 20
66.088
 21
66.451
  0
LINE
  8
0
 10
55.423
 11
56.114
 20
66.451
 21
65.5
  0
LINE
  8
0
 10
56.114
 11
55.423
 20
65.5
 21
64.549
  0
LINE
  8
0
 10
55.423
 11
54.305
 20
64.549
 21
64.912
  0
LINE
  8
0
 10
54.305
 11
54.305
 20
86.912
 21
88.088
  0
LINE
  8
0
 10
54.305
 11
55.423
 20
88.088
 21
88.451
  0
LINE
  8
0
 10
55.423
 11
56.114
 20
88.451
 21
87.5
  0
LINE
  8
0
 10
56.114
 11
55.423
 20
87.5
 21
86.549
  0
LINE
  8
0
 10
55.423
 11
54.305
 20
86.549
 21
86.912
  0
LINE
  8
0
 10
54.305
 11
54.305
 20
108.912
 21
110.088
  0
LINE
  8
0
 10
54.305
 11
55.423
 20
110.088
 21
110.451
  0
LINE
  8
0
 10
55.423
 11
56.114
 20
110.451
 21
109.5
  0
LINE
  8
0
 10
56.114
 11
55.423
 20
109.5
 21
108.549
  0
LINE
  8
0
 10
55.423
 11
54.305
 20
108.549
 21
108.912
  0
LINE
  8
0
 10
54.305
 11
54.305
 20
130.912
 21
132.088
  0
LINE
  8
0
 10
54.305
 11
55.423
 20
132.088
 21
132.451
  0
LINE
  8
0
 10
55.423
 11
56.114
 20
132.451
 21
131.5
  0
LINE
  8
0
 10
56.114
 11
55.423
 20
131.5
 21
130.549
  0
LINE
  8
0
 10
55.423
 11
54.305
 20
130.549
 21
130.912
  0
LINE
  8
0
 10
54.305
 11
54.305
 20
152.912
 21
154.088
  0
LINE
  8
0
 10
54.305
 11
55.423
 20
154.088
 21
154.451
  0
LINE
  8
0
 10
55.423
 11
56.114
 20
154.451
 21
153.5
  0
LINE
  8
0
 10
56.114
 11
55.423
 20
153.5
 21
152.549
  0
LINE
  8
0
 10
55.423
 11
54.305
 20
152.549
 21
152.912
  0
LINE
  8
0
 10
54.305
 11
54.305
 20
174.912
 21
176.088
  0
LINE
  8
0
 10
54.305
 11
55.423
 20
176.088
 21
176.451
  0
LINE
  8
0
 10
55.423
 11
56.114
 20
176.451
 21
175.5
  0
LINE
  8
0
 10
56.114
 11
55.423
 20
175.5
 21
174.549
  0
LINE
  8
0
 10
55.423
 11
54.305
 20
174.549
 21
174.912
  0
LINE
  8
0
 10
54.305
 11
54.305
 20
196.912
 21
198.088
  0
LINE
  8
0
 10
54.305
 11
55.423
 20
198.088
 21
198.451
  0
LINE
  8
0
 10
55.423
 11
56.114
 20
198.451
 21
197.5
  0
LINE
  8
0
 10
56.114
 11
55.423
 20
197.5
 21
196.549
  0
LINE
  8
0
 10
55.423
 11
54.305
 20
196.549
 21
196.912
  0
LINE
  8
0
 10
54.305
 11
54.305
 20
218.912
 21
220.088
  0
LINE
  8
0
 10
54.305
 11
55.423
 20
220.088
 21
220.451
  0
LINE
  8
0
 10
55.423
 11
56.114
 20
220.451
 21
219.5
  0
LINE
  8
0
 10
56.114
 11
55.423
 20
219.5
 21
218.549
  0
LINE
  8
0
 10
55.423
 11
54.305
 20
218.549
 21
218.912
  0
LINE
  8
0
 10
71.01
 11
71.01
 20
31.912
 21
33.088
  0
LINE
  8
0
 10
71.01
 11
72.128
 20
33.088
 21
33.451
  0
LINE
  8
0
 10
72.128
 11
72.819
 20
33.451
 21
32.5
  0
LINE
  8
0
 10
72.819
 11
72.128
 20
32.5
 21
31.549
  0
LINE
  8
0
 10
72.128
 11
71.01
 20
31.549
 21
31.912
  0
LINE
  8
0
 10
71.01
 11
71.01
 20
53.912
 21
55.088
  0
LINE
  8
0
 10
71.01
 11
72.128
 20
55.088
 21
55.451
  0
LINE
  8
0
 10
72.128
 11
72.819
 20
55.451
 21
54.5
  0
LINE
  8
0
 10
72.819
 11
72.128
 20
54.5
 21
53.549
  0
LINE
  8
0
 10
72.128
 11
71.01
 20
53.549
 21
53.912
  0
LINE
  8
0
 10
71.01
 11
71.01
 20
75.912
 21
77.088
  0
LINE
  8
0
 10
71.01
 11
72.128
 20
77.088
 21
77.451
  0
LINE
  8
0
 10
72.128
 11
72.819
 20
77.451
 21
76.5
  0
LINE
  8
0
 10
72.819
 11
72.128
 20
76.5
 21
75.549
  0
LINE
  8
0
 10
72.128
 11
71.01
 20
75.549
 21
75.912
  0
LINE
  8
0
 10
71.01
 11
71.01
 20
97.912
 21
99.088
  0
LINE
  8
0
 10
71.01
 11
72.128
 20
99.088
 21
99.451
  0
LINE
  8
0
 10
72.128
 11
72.819
 20
99.451
 21
98.5
  0
LINE
  8
0
 10
72.819
 11
72.128
 20
98.5
 21
97.549
  0
LINE
  8
0
 10
72.128
 11
71.01
 20
97.549
 21
97.912
  0
LINE
  8
0
 10
71.01
 11
71.01
 20
119.912
 21
121.088
  0
LINE
  8
0
 10
71.01
 11
72.128
 20
121.088
 21
121.451
  0
LINE
  8
0
 10
72.128
 11
72.819
 20
121.451
 21
120.5
  0
LINE
  8
0
 10
72.819
 11
72.128
 20
120.5
 21
119.549
  0
LINE
  8
0
 10
72.128
 11
71.01
 20
119.549
 21
119.912
  0
LINE
  8
0
 10
71.01
 11
71.01
 20
141.912
 21
143.088
  0
LINE
  8
0
 10
71.01
 11
72.128
 20
143.088
 21
143.451
  0
LINE
  8
0
 10
72.128
 11
72.819
 20
143.451
 21
142.5
  0
LINE
  8
0
 10
72.819
 11
72.128
 20
142.5
 21
141.549
  0
LINE
  8
0
 10
72.128
 11
71.01
 20
141.549
 21
141.912
  0
LINE
  8
0
 10
71.01
 11
71.01
 20
163.912
 21
165.088
  0
LINE
  8
0
 10
71.01
 11
72.128
 20
165.088
 21
165.451
  0
LINE
  8
0
 10
72.128
 11
72.819
 20
165.451
 21
164.5
  0
LINE
  8
0
 10
72.819
 11
72.128
 20
164.5
 21
163.549
  0
LINE
  8
0
 10
72.128
 11
71.01
 20
163.549
 21
163.912
  0
LINE
  8
0
 10
71.01
 11
71.01
 20
185.912
 21
187.088
  0
LINE
  8
0
 10
71.01
 11
72.128
 20
187.088
 21
187.451
  0
LINE
  8
0
 10
72.128
 11
72.819
 20
187.451
 21
186.5
  0
LINE
  8
0
 10
72.819
 11
72.128
 20
186.5
 21
185.549
  0
LINE
  8
0
 10
72.128
 11
71.01
 20
185.549
 21
185.912
  0
LINE
  8
0
 10
71.01
 11
71.01
 20
207.912
 21
209.088
  0
LINE
  8
0
 10
71.01
 11
72.128
 20
209.088
 21
209.451
  0
LINE
  8
0
 10
72.128
 11
72.819
 20
209.451
 21
208.5
  0
LINE
  8
0
 10
72.819
 11
72.128
 20
208.5
 21
207.549
  0
LINE
  8
0
 10
72.128
 11
71.01
 20
207.549
 21
207.912
  0
LINE
  8
0
 10
71.01
 11
71.01
 20
229.912
 21
231.088
  0
LINE
  8
0
 10
71.01
 11
72.128
 20
231.088
 21
231.451
  0
LINE
  8
0
 10
72.128
 11
72.819
 20
231.451
 21
230.5
  0
LINE
  8
0
 10
72.819
 11
72.128
 20
230.5
 21
229.549
  0
LINE
  8
0
 10
72.128
 11
71.01
 20
229.549
 21
229.912
  0
LINE
  8
0
 10
87.715
 11
87.715
 20
42.912
 21
44.088
  0
LINE
  8
0
 10
87.715
 11
88.833
 20
44.088
 21
44.451
  0
LINE
  8
0
 10
88.833
 11
89.524
 20
44.451
 21
43.5
  0
LINE
  8
0
 10
89.524
 11
88.833
 20
43.5
 21
42.549
  0
LINE
  8
0
 10
88.833
 11
87.715
 20
42.549
 21
42.912
  0
LINE
  8
0
 10
87.715
 11
87.715
 20
64.912
 21
66.088
  0
LINE
  8
0
 10
87.715
 11
88.833
 20
66.088
 21
66.451
  0
LINE
  8
0
 10
88.833
 11
89.524
 20
66.451
 21
65.5
  0
LINE
  8
0
 10
89.524
 11
88.833
 20
65.5
 21
64.549
  0
LINE
  8
0
 10
88.833
 11
87.715
 20
64.549
 21
64.912
  0
LINE
  8
0
 10
87.715
 11
87.715
 20
86.912
 21
88.088
  0
LINE
  8
0
 10
87.715
 11
88.833
 20
88.088
 21
88.451
  0
LINE
  8
0
 10
88.833
 11
89.524
 20
88.451
 21
87.5
  0
LINE
  8
0
 10
89.524
 11
88.833
 20
87.5
 21
86.549
  0
LINE
  8
0
 10
88.833
 11
87.715
 20
86.549
 21
86.912
  0
LINE
  8
0
 10
87.715
 11
87.715
 20
108.912
 21
110.088
  0
LINE
  8
0
 10
87.715
 11
88.833
 20
110.088
 21
110.451
  0
LINE
  8
0
 10
88.833
 11
89.524
 20
110.451
 21
109.5
  0
LINE
  8
0
 10
89.524
 11
88.833
 20
109.5
 21
108.549
  0
LINE
  8
0
 10
88.833
 11
87.715
 20
108.549
 21
108.912
  0
LINE
  8
0
 10
87.715
 11
87.715
 20
130.912
 21
132.088
  0
LINE
  8
0
 10
87.715
 11
88.833
 20
132.088
 21
132.451
  0
LINE
  8
0
 10
88.833
 11
89.524
 20
132.451
 21
131.5
  0
LINE
  8
0
 10
89.524
 11
88.833
 20
131.5
 21
130.549
  0
LINE
  8
0
 10
88.833
 11
87.715
 20
130.549
 21
130.912
  0
LINE
  8
0
 10
87.715
 11
87.715
 20
152.912
 21
154.088
  0
LINE
  8
0
 10
87.715
 11
88.833
 20
154.088
 21
154.451
  0
LINE
  8
0
 10
88.833
 11
89.524
 20
154.451
 21
153.5
  0
LINE
  8
0
 10
89.524
 11
88.833
 20
153.5
 21
152.549
  0
LINE
  8
0
 10
88.833
 11
87.715
 20
152.549
 21
152.912
  0
LINE
  8
0
 10
87.715
 11
87.715
 20
174.912
 21
176.088
  0
LINE
  8
0
 10
87.715
 11
88.833
 20
176.088
 21
176.451
  0
LINE
  8
0
 10
88.833
 11
89.524
 20
176.451
 21
175.5
  0
LINE
  8
0
 10
89.524
 11
88.833
 20
175.5
 21
174.549
  0
LINE
  8
0
 10
88.833
 11
87.715
 20
174.549
 21
174.912
  0
LINE
  8
0
 10
87.715
 11
87.715
 20
196.912
 21
198.088
  0
LINE
  8
0
 10
87.715
 11
88.833
 20
198.088
 21
198.451
  0
LINE
  8
0
 10
88.833
 11
89.524
 20
198.451
 21
197.5
  0
LINE
  8
0
 10
89.524
 11
88.833
 20
197.5
 21
196.549
  0
LINE
  8
0
 10
88.833
 11
87.715
 20
196.549
 21
196.912
  0
LINE
  8
0
 10
87.715
 11
87.715
 20
218.912
 21
220.088
  0
LINE
  8
0
 10
87.715
 11
88.833
 20
220.088
 21
220.451
  0
LINE
  8
0
 10
88.833
 11
89.524
 20
220.451
 21
219.5
  0
LINE
  8
0
 10
89.524
 11
88.833
 20
219.5
 21
218.549
  0
LINE
  8
0
 10
88.833
 11
87.715
 20
218.549
 21
218.912
  0
LINE
  8
0
 10
104.42
 11
104.42
 20
31.912
 21
33.088
  0
LINE
  8
0
 10
104.42
 11
105.538
 20
33.088
 21
33.451
  0
LINE
  8
0
 10
105.538
 11
106.229
 20
33.451
 21
32.5
  0
LINE
  8
0
 10
106.229
 11
105.538
 20
32.5
 21
31.549
  0
LINE
  8
0
 10
105.538
 11
104.42
 20
31.549
 21
31.912
  0
LINE
  8
0
 10
104.42
 11
104.42
 20
53.912
 21
55.088
  0
LINE
  8
0
 10
104.42
 11
105.538
 20
55.088
 21
55.451
  0
LINE
  8
0
 10
105.538
 11
106.229
 20
55.451
 21
54.5
  0
LINE
  8
0
 10
106.229
 11
105.538
 20
54.5
 21
53.549
  0
LINE
  8
0
 10
105.538
 11
104.42
 20
53.549
 21
53.912
  0
LINE
  8
0
 10
104.42
 11
104.42
 20
75.912
 21
77.088
  0
LINE
  8
0
 10
104.42
 11
105.538
 20
77.088
 21
77.451
  0
LINE
  8
0
 10
105.538
 11
106.229
 20
77.451
 21
76.5
  0
LINE
  8
0
 10
106.229
 11
105.538
 20
76.5
 21
75.549
  0
LINE
  8
0
 10
105.538
 11
104.42
 20
75.549
 21
75.912
  0
LINE
  8
0
 10
104.42
 11
104.42
 20
97.912
 21
99.088
  0
LINE
  8
0
 10
104.42
 11
105.538
 20
99.088
 21
99.451
  0
LINE
  8
0
 10
105.538
 11
106.229
 20
99.451
 21
98.5
  0
LINE
  8
0
 10
106.229
 11
105.538
 20
98.5
 21
97.549
  0
LINE
  8
0
 10
105.538
 11
104.42
 20
97.549
 21
97.912
  0
LINE
  8
0
 10
104.42
 11
104.42
 20
119.912
 21
121.088
  0
LINE
  8
0
 10
104.42
 11
105.538
 20
121.088
 21
121.451
  0
LINE
  8
0
 10
105.538
 11
106.229
 20
121.451
 21
120.5
  0
LINE
  8
0
 10
106.229
 11
105.538
 20
120.5
 21
119.549
  0
LINE
  8
0
 10
105.538
 11
104.42
 20
119.549
 21
119.912
  0
LINE
  8
0
 10
104.42
 11
104.42
 20
141.912
 21
143.088
  0
LINE
  8
0
 10
104.42
 11
105.538
 20
143.088
 21
143.451
  0
LINE
  8
0
 10
105.538
 11
106.229
 20
143.451
 21
142.5
  0
LINE
  8
0
 10
106.229
 11
105.538
 20
142.5
 21
141.549
  0
LINE
  8
0
 10
105.538
 11
104.42
 20
141.549
 21
141.912
  0
LINE
  8
0
 10
104.42
 11
104.42
 20
163.912
 21
165.088
  0
LINE
  8
0
 10
104.42
 11
105.538
 20
165.088
 21
165.451
  0
LINE
  8
0
 10
105.538
 11
106.229
 20
165.451
 21
164.5
  0
LINE
  8
0
 10
106.229
 11
105.538
 20
164.5
 21
163.549
  0
LINE
  8
0
 10
105.538
 11
104.42
 20
163.549
 21
163.912
  0
LINE
  8
0
 10
104.42
 11
104.42
 20
185.912
 21
187.088
  0
LINE
  8
0
 10
104.42
 11
105.538
 20
187.088
 21
187.451
  0
LINE
  8
0
 10
105.538
 11
106.229
 20
187.451
 21
186.5
  0
LINE
  8
0
 10
106.229
 11
105.538
 20
186.5
 21
185.549
  0
LINE
  8
0
 10
105.538
 11
104.42
 20
185.549
 21
185.912
  0
LINE
  8
0
 10
104.42
 11
104.42
 20
207.912
 21
209.088
  0
LINE
  8
0
 10
104.42
 11
105.538
 20
209.088
 21
209.451
  0
LINE
  8
0
 10
105.538
 11
106.229
 20
209.451
 21
208.5
  0
LINE
  8
0
 10
106.229
 11
105.538
 20
208.5
 21
207.549
  0
LINE
  8
0
 10
105.538
 11
104.42
 20
207.549
 21
207.912
  0
LINE
  8
0
 10
104.42
 11
104.42
 20
229.912
 21
231.088
  0
LINE
  8
0
 10
104.42
 11
105.538
 20
231.088
 21
231.451
  0
LINE
  8
0
 10
105.538
 11
106.229
 20
231.451
 21
230.5
  0
LINE
  8
0
 10
106.229
 11
105.538
 20
230.5
 21
229.549
  0
LINE
  8
0
 10
105.538
 11
104.42
 20
229.549
 21
229.912
  0
LINE
  8
0
 10
121.124
 11
121.124
 20
42.912
 21
44.088
  0
LINE
  8
0
 10
121.124
 11
122.242
 20
44.088
 21
44.451
  0
LINE
  8
0
 10
122.242
 11
122.933
 20
44.451
 21
43.5
  0
LINE
  8
0
 10
122.933
 11
122.242
 20
43.5
 21
42.549
  0
LINE
  8
0
 10
122.242
 11
121.124
 20
42.549
 21
42.912
  0
LINE
  8
0
 10
121.124
 11
121.124
 20
64.912
 21
66.088
  0
LINE
  8
0
 10
121.124
 11
122.242
 20
66.088
 21
66.451
  0
LINE
  8
0
 10
122.242
 11
122.933
 20
66.451
 21
65.5
  0
LINE
  8
0
 10
122.933
 11
122.242
 20
65.5
 21
64.549
  0
LINE
  8
0
 10
122.242
 11
121.124
 20
64.549
 21
64.912
  0
LINE
  8
0
 10
121.124
 11
121.124
 20
86.912
 21
88.088
  0
LINE
  8
0
 10
121.124
 11
122.242
 20
88.088
 21
88.451
  0
LINE
  8
0
 10
122.242
 11
122.933
 20
88.451
 21
87.5
  0
LINE
  8
0
 10
122.933
 11
122.242
 20
87.5
 21
86.549
  0
LINE
  8
0
 10
122.242
 11
121.124
 20
86.549
 21
86.912
  0
LINE
  8
0
 10
121.124
 11
121.124
 20
108.912
 21
110.088
  0
LINE
  8
0
 10
121.124
 11
122.242
 20
110.088
 21
110.451
  0
LINE
  8
0
 10
122.242
 11
122.933
 20
110.451
 21
109.5
  0
LINE
  8
0
 10
122.933
 11
122.242
 20
109.5
 21
108.549
  0
LINE
  8
0
 10
122.242
 11
121.124
 20
108.549
 21
108.912
  0
LINE
  8
0
 10
121.124
 11
121.124
 20
130.912
 21
132.088
  0
LINE
  8
0
 10
121.124
 11
122.242
 20
132.088
 21
132.451
  0
LINE
  8
0
 10
122.242
 11
122.933
 20
132.451
 21
131.5
  0
LINE
  8
0
 10
122.933
 11
122.242
 20
131.5
 21
130.549
  0
LINE
  8
0
 10
122.242
 11
121.124
 20
130.549
 21
130.912
  0
LINE
  8
0
 10
121.124
 11
121.124
 20
152.912
 21
154.088
  0
LINE
  8
0
 10
121.124
 11
122.242
 20
154.088
 21
154.451
  0
LINE
  8
0
 10
122.242
 11
122.933
 20
154.451
 21
153.5
  0
LINE
  8
0
 10
122.933
 11
122.242
 20
153.5
 21
152.549
  0
LINE
  8
0
 10
122.242
 11
121.124
 20
152.549
 21
152.912
  0
LINE
  8
0
 10
121.124
 11
121.124
 20
174.912
 21
176.088
  0
LINE
  8
0
 10
121.124
 11
122.242
 20
176.088
 21
176.451
  0
LINE
  8
0
 10
122.242
 11
122.933
 20
176.451
 21
175.5
  0
LINE
  8
0
 10
122.933
 11
122.242
 20
175.5
 21
174.549
  0
LINE
  8
0
 10
122.242
 11
121.124
 20
174.549
 21
174.912
  0
LINE
  8
0
 10
121.124
 11
121.124
 20
196.912
 21
198.088
  0
LINE
  8
0
 10
121.124
 11
122.242
 20
198.088
 21
198.451
  0
LINE
  8
0
 10
122.242
 11
122.933
 20
198.451
 21
197.5
  0
LINE
  8
0
 10
122.933
 11
122.242
 20
197.5
 21
196.549
  0
LINE
  8
0
 10
122.242
 11
121.124
 20
196.549
 21
196.912
  0
LINE
  8
0
 10
121.124
 11
121.124
 20
218.912
 21
220.088
  0
LINE
  8
0
 10
121.124
 11
122.242
 20
220.088
 21
220.451
  0
LINE
  8
0
 10
122.242
 11
122.933
 20
220.451
 21
219.5
  0
LINE
  8
0
 10
122.933
 11
122.242
 20
219.5
 21
218.549
  0
LINE
  8
0
 10
122.242
 11
121.124
 20
218.549
 21
218.912
  0
ENDSEC
  0
SECTION
  2
OBJECTS
  0
DICTIONARY
  0
ENDSEC
  0
EOF
