  0
SECTION
  2
BLOCKS
  0
ENDSEC
  0
SECTION
  2
ENTITIES
  0
LINE
  8
0
 10
0
 11
0
 20
0
 21
275
  0
LINE
  8
0
 10
0
 11
132.638
 20
275
 21
275
  0
LINE
  8
0
 10
132.638
 11
132.638
 20
275
 21
0
  0
LINE
  8
0
 10
132.638
 11
0
 20
0
 21
0
  0
LINE
  8
0
 10
4.191
 11
4.191
 20
31.912
 21
33.088
  0
LINE
  8
0
 10
4.191
 11
5.309
 20
33.088
 21
33.451
  0
LINE
  8
0
 10
5.309
 11
6
 20
33.451
 21
32.5
  0
LINE
  8
0
 10
6
 11
5.309
 20
32.5
 21
31.549
  0
LINE
  8
0
 10
5.309
 11
4.191
 20
31.549
 21
31.912
  0
LINE
  8
0
 10
4.191
 11
4.191
 20
53.912
 21
55.088
  0
LINE
  8
0
 10
4.191
 11
5.309
 20
55.088
 21
55.451
  0
LINE
  8
0
 10
5.309
 11
6
 20
55.451
 21
54.5
  0
LINE
  8
0
 10
6
 11
5.309
 20
54.5
 21
53.549
  0
LINE
  8
0
 10
5.309
 11
4.191
 20
53.549
 21
53.912
  0
LINE
  8
0
 10
4.191
 11
4.191
 20
75.912
 21
77.088
  0
LINE
  8
0
 10
4.191
 11
5.309
 20
77.088
 21
77.451
  0
LINE
  8
0
 10
5.309
 11
6
 20
77.451
 21
76.5
  0
LINE
  8
0
 10
6
 11
5.309
 20
76.5
 21
75.549
  0
LINE
  8
0
 10
5.309
 11
4.191
 20
75.549
 21
75.912
  0
LINE
  8
0
 10
4.191
 11
4.191
 20
97.912
 21
99.088
  0
LINE
  8
0
 10
4.191
 11
5.309
 20
99.088
 21
99.451
  0
LINE
  8
0
 10
5.309
 11
6
 20
99.451
 21
98.5
  0
LINE
  8
0
 10
6
 11
5.309
 20
98.5
 21
97.549
  0
LINE
  8
0
 10
5.309
 11
4.191
 20
97.549
 21
97.912
  0
LINE
  8
0
 10
4.191
 11
4.191
 20
119.912
 21
121.088
  0
LINE
  8
0
 10
4.191
 11
5.309
 20
121.088
 21
121.451
  0
LINE
  8
0
 10
5.309
 11
6
 20
121.451
 21
120.5
  0
LINE
  8
0
 10
6
 11
5.309
 20
120.5
 21
119.549
  0
LINE
  8
0
 10
5.309
 11
4.191
 20
119.549
 21
119.912
  0
LINE
  8
0
 10
4.191
 11
4.191
 20
141.912
 21
143.088
  0
LINE
  8
0
 10
4.191
 11
5.309
 20
143.088
 21
143.451
  0
LINE
  8
0
 10
5.309
 11
6
 20
143.451
 21
142.5
  0
LINE
  8
0
 10
6
 11
5.309
 20
142.5
 21
141.549
  0
LINE
  8
0
 10
5.309
 11
4.191
 20
141.549
 21
141.912
  0
LINE
  8
0
 10
4.191
 11
4.191
 20
163.912
 21
165.088
  0
LINE
  8
0
 10
4.191
 11
5.309
 20
165.088
 21
165.451
  0
LINE
  8
0
 10
5.309
 11
6
 20
165.451
 21
164.5
  0
LINE
  8
0
 10
6
 11
5.309
 20
164.5
 21
163.549
  0
LINE
  8
0
 10
5.309
 11
4.191
 20
163.549
 21
163.912
  0
LINE
  8
0
 10
4.191
 11
4.191
 20
185.912
 21
187.088
  0
LINE
  8
0
 10
4.191
 11
5.309
 20
187.088
 21
187.451
  0
LINE
  8
0
 10
5.309
 11
6
 20
187.451
 21
186.5
  0
LINE
  8
0
 10
6
 11
5.309
 20
186.5
 21
185.549
  0
LINE
  8
0
 10
5.309
 11
4.191
 20
185.549
 21
185.912
  0
LINE
  8
0
 10
4.191
 11
4.191
 20
207.912
 21
209.088
  0
LINE
  8
0
 10
4.191
 11
5.309
 20
209.088
 21
209.451
  0
LINE
  8
0
 10
5.309
 11
6
 20
209.451
 21
208.5
  0
LINE
  8
0
 10
6
 11
5.309
 20
208.5
 21
207.549
  0
LINE
  8
0
 10
5.309
 11
4.191
 20
207.549
 21
207.912
  0
LINE
  8
0
 10
4.191
 11
4.191
 20
229.912
 21
231.088
  0
LINE
  8
0
 10
4.191
 11
5.309
 20
231.088
 21
231.451
  0
LINE
  8
0
 10
5.309
 11
6
 20
231.451
 21
230.5
  0
LINE
  8
0
 10
6
 11
5.309
 20
230.5
 21
229.549
  0
LINE
  8
0
 10
5.309
 11
4.191
 20
229.549
 21
229.912
  0
LINE
  8
0
 10
20.771
 11
20.771
 20
42.912
 21
44.088
  0
LINE
  8
0
 10
20.771
 11
21.889
 20
44.088
 21
44.451
  0
LINE
  8
0
 10
21.889
 11
22.58
 20
44.451
 21
43.5
  0
LINE
  8
0
 10
22.58
 11
21.889
 20
43.5
 21
42.549
  0
LINE
  8
0
 10
21.889
 11
20.771
 20
42.549
 21
42.912
  0
LINE
  8
0
 10
20.771
 11
20.771
 20
64.912
 21
66.088
  0
LINE
  8
0
 10
20.771
 11
21.889
 20
66.088
 21
66.451
  0
LINE
  8
0
 10
21.889
 11
22.58
 20
66.451
 21
65.5
  0
LINE
  8
0
 10
22.58
 11
21.889
 20
65.5
 21
64.549
  0
LINE
  8
0
 10
21.889
 11
20.771
 20
64.549
 21
64.912
  0
LINE
  8
0
 10
20.771
 11
20.771
 20
86.912
 21
88.088
  0
LINE
  8
0
 10
20.771
 11
21.889
 20
88.088
 21
88.451
  0
LINE
  8
0
 10
21.889
 11
22.58
 20
88.451
 21
87.5
  0
LINE
  8
0
 10
22.58
 11
21.889
 20
87.5
 21
86.549
  0
LINE
  8
0
 10
21.889
 11
20.771
 20
86.549
 21
86.912
  0
LINE
  8
0
 10
20.771
 11
20.771
 20
108.912
 21
110.088
  0
LINE
  8
0
 10
20.771
 11
21.889
 20
110.088
 21
110.451
  0
LINE
  8
0
 10
21.889
 11
22.58
 20
110.451
 21
109.5
  0
LINE
  8
0
 10
22.58
 11
21.889
 20
109.5
 21
108.549
  0
LINE
  8
0
 10
21.889
 11
20.771
 20
108.549
 21
108.912
  0
LINE
  8
0
 10
20.771
 11
20.771
 20
130.912
 21
132.088
  0
LINE
  8
0
 10
20.771
 11
21.889
 20
132.088
 21
132.451
  0
LINE
  8
0
 10
21.889
 11
22.58
 20
132.451
 21
131.5
  0
LINE
  8
0
 10
22.58
 11
21.889
 20
131.5
 21
130.549
  0
LINE
  8
0
 10
21.889
 11
20.771
 20
130.549
 21
130.912
  0
LINE
  8
0
 10
20.771
 11
20.771
 20
152.912
 21
154.088
  0
LINE
  8
0
 10
20.771
 11
21.889
 20
154.088
 21
154.451
  0
LINE
  8
0
 10
21.889
 11
22.58
 20
154.451
 21
153.5
  0
LINE
  8
0
 10
22.58
 11
21.889
 20
153.5
 21
152.549
  0
LINE
  8
0
 10
21.889
 11
20.771
 20
152.549
 21
152.912
  0
LINE
  8
0
 10
20.771
 11
20.771
 20
174.912
 21
176.088
  0
LINE
  8
0
 10
20.771
 11
21.889
 20
176.088
 21
176.451
  0
LINE
  8
0
 10
21.889
 11
22.58
 20
176.451
 21
175.5
  0
LINE
  8
0
 10
22.58
 11
21.889
 20
175.5
 21
174.549
  0
LINE
  8
0
 10
21.889
 11
20.771
 20
174.549
 21
174.912
  0
LINE
  8
0
 10
20.771
 11
20.771
 20
196.912
 21
198.088
  0
LINE
  8
0
 10
20.771
 11
21.889
 20
198.088
 21
198.451
  0
LINE
  8
0
 10
21.889
 11
22.58
 20
198.451
 21
197.5
  0
LINE
  8
0
 10
22.58
 11
21.889
 20
197.5
 21
196.549
  0
LINE
  8
0
 10
21.889
 11
20.771
 20
196.549
 21
196.912
  0
LINE
  8
0
 10
20.771
 11
20.771
 20
218.912
 21
220.088
  0
LINE
  8
0
 10
20.771
 11
21.889
 20
220.088
 21
220.451
  0
LINE
  8
0
 10
21.889
 11
22.58
 20
220.451
 21
219.5
  0
LINE
  8
0
 10
22.58
 11
21.889
 20
219.5
 21
218.549
  0
LINE
  8
0
 10
21.889
 11
20.771
 20
218.549
 21
218.912
  0
LINE
  8
0
 10
37.35
 11
37.35
 20
31.912
 21
33.088
  0
LINE
  8
0
 10
37.35
 11
38.469
 20
33.088
 21
33.451
  0
LINE
  8
0
 10
38.469
 11
39.16
 20
33.451
 21
32.5
  0
LINE
  8
0
 10
39.16
 11
38.469
 20
32.5
 21
31.549
  0
LINE
  8
0
 10
38.469
 11
37.35
 20
31.549
 21
31.912
  0
LINE
  8
0
 10
37.35
 11
37.35
 20
53.912
 21
55.088
  0
LINE
  8
0
 10
37.35
 11
38.469
 20
55.088
 21
55.451
  0
LINE
  8
0
 10
38.469
 11
39.16
 20
55.451
 21
54.5
  0
LINE
  8
0
 10
39.16
 11
38.469
 20
54.5
 21
53.549
  0
LINE
  8
0
 10
38.469
 11
37.35
 20
53.549
 21
53.912
  0
LINE
  8
0
 10
37.35
 11
37.35
 20
75.912
 21
77.088
  0
LINE
  8
0
 10
37.35
 11
38.469
 20
77.088
 21
77.451
  0
LINE
  8
0
 10
38.469
 11
39.16
 20
77.451
 21
76.5
  0
LINE
  8
0
 10
39.16
 11
38.469
 20
76.5
 21
75.549
  0
LINE
  8
0
 10
38.469
 11
37.35
 20
75.549
 21
75.912
  0
LINE
  8
0
 10
37.35
 11
37.35
 20
97.912
 21
99.088
  0
LINE
  8
0
 10
37.35
 11
38.469
 20
99.088
 21
99.451
  0
LINE
  8
0
 10
38.469
 11
39.16
 20
99.451
 21
98.5
  0
LINE
  8
0
 10
39.16
 11
38.469
 20
98.5
 21
97.549
  0
LINE
  8
0
 10
38.469
 11
37.35
 20
97.549
 21
97.912
  0
LINE
  8
0
 10
37.35
 11
37.35
 20
119.912
 21
121.088
  0
LINE
  8
0
 10
37.35
 11
38.469
 20
121.088
 21
121.451
  0
LINE
  8
0
 10
38.469
 11
39.16
 20
121.451
 21
120.5
  0
LINE
  8
0
 10
39.16
 11
38.469
 20
120.5
 21
119.549
  0
LINE
  8
0
 10
38.469
 11
37.35
 20
119.549
 21
119.912
  0
LINE
  8
0
 10
37.35
 11
37.35
 20
141.912
 21
143.088
  0
LINE
  8
0
 10
37.35
 11
38.469
 20
143.088
 21
143.451
  0
LINE
  8
0
 10
38.469
 11
39.16
 20
143.451
 21
142.5
  0
LINE
  8
0
 10
39.16
 11
38.469
 20
142.5
 21
141.549
  0
LINE
  8
0
 10
38.469
 11
37.35
 20
141.549
 21
141.912
  0
LINE
  8
0
 10
37.35
 11
37.35
 20
163.912
 21
165.088
  0
LINE
  8
0
 10
37.35
 11
38.469
 20
165.088
 21
165.451
  0
LINE
  8
0
 10
38.469
 11
39.16
 20
165.451
 21
164.5
  0
LINE
  8
0
 10
39.16
 11
38.469
 20
164.5
 21
163.549
  0
LINE
  8
0
 10
38.469
 11
37.35
 20
163.549
 21
163.912
  0
LINE
  8
0
 10
37.35
 11
37.35
 20
185.912
 21
187.088
  0
LINE
  8
0
 10
37.35
 11
38.469
 20
187.088
 21
187.451
  0
LINE
  8
0
 10
38.469
 11
39.16
 20
187.451
 21
186.5
  0
LINE
  8
0
 10
39.16
 11
38.469
 20
186.5
 21
185.549
  0
LINE
  8
0
 10
38.469
 11
37.35
 20
185.549
 21
185.912
  0
LINE
  8
0
 10
37.35
 11
37.35
 20
207.912
 21
209.088
  0
LINE
  8
0
 10
37.35
 11
38.469
 20
209.088
 21
209.451
  0
LINE
  8
0
 10
38.469
 11
39.16
 20
209.451
 21
208.5
  0
LINE
  8
0
 10
39.16
 11
38.469
 20
208.5
 21
207.549
  0
LINE
  8
0
 10
38.469
 11
37.35
 20
207.549
 21
207.912
  0
LINE
  8
0
 10
37.35
 11
37.35
 20
229.912
 21
231.088
  0
LINE
  8
0
 10
37.35
 11
38.469
 20
231.088
 21
231.451
  0
LINE
  8
0
 10
38.469
 11
39.16
 20
231.451
 21
230.5
  0
LINE
  8
0
 10
39.16
 11
38.469
 20
230.5
 21
229.549
  0
LINE
  8
0
 10
38.469
 11
37.35
 20
229.549
 21
229.912
  0
LINE
  8
0
 10
53.93
 11
53.93
 20
42.912
 21
44.088
  0
LINE
  8
0
 10
53.93
 11
55.048
 20
44.088
 21
44.451
  0
LINE
  8
0
 10
55.048
 11
55.739
 20
44.451
 21
43.5
  0
LINE
  8
0
 10
55.739
 11
55.048
 20
43.5
 21
42.549
  0
LINE
  8
0
 10
55.048
 11
53.93
 20
42.549
 21
42.912
  0
LINE
  8
0
 10
53.93
 11
53.93
 20
64.912
 21
66.088
  0
LINE
  8
0
 10
53.93
 11
55.048
 20
66.088
 21
66.451
  0
LINE
  8
0
 10
55.048
 11
55.739
 20
66.451
 21
65.5
  0
LINE
  8
0
 10
55.739
 11
55.048
 20
65.5
 21
64.549
  0
LINE
  8
0
 10
55.048
 11
53.93
 20
64.549
 21
64.912
  0
LINE
  8
0
 10
53.93
 11
53.93
 20
86.912
 21
88.088
  0
LINE
  8
0
 10
53.93
 11
55.048
 20
88.088
 21
88.451
  0
LINE
  8
0
 10
55.048
 11
55.739
 20
88.451
 21
87.5
  0
LINE
  8
0
 10
55.739
 11
55.048
 20
87.5
 21
86.549
  0
LINE
  8
0
 10
55.048
 11
53.93
 20
86.549
 21
86.912
  0
LINE
  8
0
 10
53.93
 11
53.93
 20
108.912
 21
110.088
  0
LINE
  8
0
 10
53.93
 11
55.048
 20
110.088
 21
110.451
  0
LINE
  8
0
 10
55.048
 11
55.739
 20
110.451
 21
109.5
  0
LINE
  8
0
 10
55.739
 11
55.048
 20
109.5
 21
108.549
  0
LINE
  8
0
 10
55.048
 11
53.93
 20
108.549
 21
108.912
  0
LINE
  8
0
 10
53.93
 11
53.93
 20
130.912
 21
132.088
  0
LINE
  8
0
 10
53.93
 11
55.048
 20
132.088
 21
132.451
  0
LINE
  8
0
 10
55.048
 11
55.739
 20
132.451
 21
131.5
  0
LINE
  8
0
 10
55.739
 11
55.048
 20
131.5
 21
130.549
  0
LINE
  8
0
 10
55.048
 11
53.93
 20
130.549
 21
130.912
  0
LINE
  8
0
 10
53.93
 11
53.93
 20
152.912
 21
154.088
  0
LINE
  8
0
 10
53.93
 11
55.048
 20
154.088
 21
154.451
  0
LINE
  8
0
 10
55.048
 11
55.739
 20
154.451
 21
153.5
  0
LINE
  8
0
 10
55.739
 11
55.048
 20
153.5
 21
152.549
  0
LINE
  8
0
 10
55.048
 11
53.93
 20
152.549
 21
152.912
  0
LINE
  8
0
 10
53.93
 11
53.93
 20
174.912
 21
176.088
  0
LINE
  8
0
 10
53.93
 11
55.048
 20
176.088
 21
176.451
  0
LINE
  8
0
 10
55.048
 11
55.739
 20
176.451
 21
175.5
  0
LINE
  8
0
 10
55.739
 11
55.048
 20
175.5
 21
174.549
  0
LINE
  8
0
 10
55.048
 11
53.93
 20
174.549
 21
174.912
  0
LINE
  8
0
 10
53.93
 11
53.93
 20
196.912
 21
198.088
  0
LINE
  8
0
 10
53.93
 11
55.048
 20
198.088
 21
198.451
  0
LINE
  8
0
 10
55.048
 11
55.739
 20
198.451
 21
197.5
  0
LINE
  8
0
 10
55.739
 11
55.048
 20
197.5
 21
196.549
  0
LINE
  8
0
 10
55.048
 11
53.93
 20
196.549
 21
196.912
  0
LINE
  8
0
 10
53.93
 11
53.93
 20
218.912
 21
220.088
  0
LINE
  8
0
 10
53.93
 11
55.048
 20
220.088
 21
220.451
  0
LINE
  8
0
 10
55.048
 11
55.739
 20
220.451
 21
219.5
  0
LINE
  8
0
 10
55.739
 11
55.048
 20
219.5
 21
218.549
  0
LINE
  8
0
 10
55.048
 11
53.93
 20
218.549
 21
218.912
  0
LINE
  8
0
 10
70.51
 11
70.51
 20
31.912
 21
33.088
  0
LINE
  8
0
 10
70.51
 11
71.628
 20
33.088
 21
33.451
  0
LINE
  8
0
 10
71.628
 11
72.319
 20
33.451
 21
32.5
  0
LINE
  8
0
 10
72.319
 11
71.628
 20
32.5
 21
31.549
  0
LINE
  8
0
 10
71.628
 11
70.51
 20
31.549
 21
31.912
  0
LINE
  8
0
 10
70.51
 11
70.51
 20
53.912
 21
55.088
  0
LINE
  8
0
 10
70.51
 11
71.628
 20
55.088
 21
55.451
  0
LINE
  8
0
 10
71.628
 11
72.319
 20
55.451
 21
54.5
  0
LINE
  8
0
 10
72.319
 11
71.628
 20
54.5
 21
53.549
  0
LINE
  8
0
 10
71.628
 11
70.51
 20
53.549
 21
53.912
  0
LINE
  8
0
 10
70.51
 11
70.51
 20
75.912
 21
77.088
  0
LINE
  8
0
 10
70.51
 11
71.628
 20
77.088
 21
77.451
  0
LINE
  8
0
 10
71.628
 11
72.319
 20
77.451
 21
76.5
  0
LINE
  8
0
 10
72.319
 11
71.628
 20
76.5
 21
75.549
  0
LINE
  8
0
 10
71.628
 11
70.51
 20
75.549
 21
75.912
  0
LINE
  8
0
 10
70.51
 11
70.51
 20
97.912
 21
99.088
  0
LINE
  8
0
 10
70.51
 11
71.628
 20
99.088
 21
99.451
  0
LINE
  8
0
 10
71.628
 11
72.319
 20
99.451
 21
98.5
  0
LINE
  8
0
 10
72.319
 11
71.628
 20
98.5
 21
97.549
  0
LINE
  8
0
 10
71.628
 11
70.51
 20
97.549
 21
97.912
  0
LINE
  8
0
 10
70.51
 11
70.51
 20
119.912
 21
121.088
  0
LINE
  8
0
 10
70.51
 11
71.628
 20
121.088
 21
121.451
  0
LINE
  8
0
 10
71.628
 11
72.319
 20
121.451
 21
120.5
  0
LINE
  8
0
 10
72.319
 11
71.628
 20
120.5
 21
119.549
  0
LINE
  8
0
 10
71.628
 11
70.51
 20
119.549
 21
119.912
  0
LINE
  8
0
 10
70.51
 11
70.51
 20
141.912
 21
143.088
  0
LINE
  8
0
 10
70.51
 11
71.628
 20
143.088
 21
143.451
  0
LINE
  8
0
 10
71.628
 11
72.319
 20
143.451
 21
142.5
  0
LINE
  8
0
 10
72.319
 11
71.628
 20
142.5
 21
141.549
  0
LINE
  8
0
 10
71.628
 11
70.51
 20
141.549
 21
141.912
  0
LINE
  8
0
 10
70.51
 11
70.51
 20
163.912
 21
165.088
  0
LINE
  8
0
 10
70.51
 11
71.628
 20
165.088
 21
165.451
  0
LINE
  8
0
 10
71.628
 11
72.319
 20
165.451
 21
164.5
  0
LINE
  8
0
 10
72.319
 11
71.628
 20
164.5
 21
163.549
  0
LINE
  8
0
 10
71.628
 11
70.51
 20
163.549
 21
163.912
  0
LINE
  8
0
 10
70.51
 11
70.51
 20
185.912
 21
187.088
  0
LINE
  8
0
 10
70.51
 11
71.628
 20
187.088
 21
187.451
  0
LINE
  8
0
 10
71.628
 11
72.319
 20
187.451
 21
186.5
  0
LINE
  8
0
 10
72.319
 11
71.628
 20
186.5
 21
185.549
  0
LINE
  8
0
 10
71.628
 11
70.51
 20
185.549
 21
185.912
  0
LINE
  8
0
 10
70.51
 11
70.51
 20
207.912
 21
209.088
  0
LINE
  8
0
 10
70.51
 11
71.628
 20
209.088
 21
209.451
  0
LINE
  8
0
 10
71.628
 11
72.319
 20
209.451
 21
208.5
  0
LINE
  8
0
 10
72.319
 11
71.628
 20
208.5
 21
207.549
  0
LINE
  8
0
 10
71.628
 11
70.51
 20
207.549
 21
207.912
  0
LINE
  8
0
 10
70.51
 11
70.51
 20
229.912
 21
231.088
  0
LINE
  8
0
 10
70.51
 11
71.628
 20
231.088
 21
231.451
  0
LINE
  8
0
 10
71.628
 11
72.319
 20
231.451
 21
230.5
  0
LINE
  8
0
 10
72.319
 11
71.628
 20
230.5
 21
229.549
  0
LINE
  8
0
 10
71.628
 11
70.51
 20
229.549
 21
229.912
  0
LINE
  8
0
 10
87.09
 11
87.09
 20
42.912
 21
44.088
  0
LINE
  8
0
 10
87.09
 11
88.208
 20
44.088
 21
44.451
  0
LINE
  8
0
 10
88.208
 11
88.899
 20
44.451
 21
43.5
  0
LINE
  8
0
 10
88.899
 11
88.208
 20
43.5
 21
42.549
  0
LINE
  8
0
 10
88.208
 11
87.09
 20
42.549
 21
42.912
  0
LINE
  8
0
 10
87.09
 11
87.09
 20
64.912
 21
66.088
  0
LINE
  8
0
 10
87.09
 11
88.208
 20
66.088
 21
66.451
  0
LINE
  8
0
 10
88.208
 11
88.899
 20
66.451
 21
65.5
  0
LINE
  8
0
 10
88.899
 11
88.208
 20
65.5
 21
64.549
  0
LINE
  8
0
 10
88.208
 11
87.09
 20
64.549
 21
64.912
  0
LINE
  8
0
 10
87.09
 11
87.09
 20
86.912
 21
88.088
  0
LINE
  8
0
 10
87.09
 11
88.208
 20
88.088
 21
88.451
  0
LINE
  8
0
 10
88.208
 11
88.899
 20
88.451
 21
87.5
  0
LINE
  8
0
 10
88.899
 11
88.208
 20
87.5
 21
86.549
  0
LINE
  8
0
 10
88.208
 11
87.09
 20
86.549
 21
86.912
  0
LINE
  8
0
 10
87.09
 11
87.09
 20
108.912
 21
110.088
  0
LINE
  8
0
 10
87.09
 11
88.208
 20
110.088
 21
110.451
  0
LINE
  8
0
 10
88.208
 11
88.899
 20
110.451
 21
109.5
  0
LINE
  8
0
 10
88.899
 11
88.208
 20
109.5
 21
108.549
  0
LINE
  8
0
 10
88.208
 11
87.09
 20
108.549
 21
108.912
  0
LINE
  8
0
 10
87.09
 11
87.09
 20
130.912
 21
132.088
  0
LINE
  8
0
 10
87.09
 11
88.208
 20
132.088
 21
132.451
  0
LINE
  8
0
 10
88.208
 11
88.899
 20
132.451
 21
131.5
  0
LINE
  8
0
 10
88.899
 11
88.208
 20
131.5
 21
130.549
  0
LINE
  8
0
 10
88.208
 11
87.09
 20
130.549
 21
130.912
  0
LINE
  8
0
 10
87.09
 11
87.09
 20
152.912
 21
154.088
  0
LINE
  8
0
 10
87.09
 11
88.208
 20
154.088
 21
154.451
  0
LINE
  8
0
 10
88.208
 11
88.899
 20
154.451
 21
153.5
  0
LINE
  8
0
 10
88.899
 11
88.208
 20
153.5
 21
152.549
  0
LINE
  8
0
 10
88.208
 11
87.09
 20
152.549
 21
152.912
  0
LINE
  8
0
 10
87.09
 11
87.09
 20
174.912
 21
176.088
  0
LINE
  8
0
 10
87.09
 11
88.208
 20
176.088
 21
176.451
  0
LINE
  8
0
 10
88.208
 11
88.899
 20
176.451
 21
175.5
  0
LINE
  8
0
 10
88.899
 11
88.208
 20
175.5
 21
174.549
  0
LINE
  8
0
 10
88.208
 11
87.09
 20
174.549
 21
174.912
  0
LINE
  8
0
 10
87.09
 11
87.09
 20
196.912
 21
198.088
  0
LINE
  8
0
 10
87.09
 11
88.208
 20
198.088
 21
198.451
  0
LINE
  8
0
 10
88.208
 11
88.899
 20
198.451
 21
197.5
  0
LINE
  8
0
 10
88.899
 11
88.208
 20
197.5
 21
196.549
  0
LINE
  8
0
 10
88.208
 11
87.09
 20
196.549
 21
196.912
  0
LINE
  8
0
 10
87.09
 11
87.09
 20
218.912
 21
220.088
  0
LINE
  8
0
 10
87.09
 11
88.208
 20
220.088
 21
220.451
  0
LINE
  8
0
 10
88.208
 11
88.899
 20
220.451
 21
219.5
  0
LINE
  8
0
 10
88.899
 11
88.208
 20
219.5
 21
218.549
  0
LINE
  8
0
 10
88.208
 11
87.09
 20
218.549
 21
218.912
  0
LINE
  8
0
 10
103.67
 11
103.67
 20
31.912
 21
33.088
  0
LINE
  8
0
 10
103.67
 11
104.788
 20
33.088
 21
33.451
  0
LINE
  8
0
 10
104.788
 11
105.479
 20
33.451
 21
32.5
  0
LINE
  8
0
 10
105.479
 11
104.788
 20
32.5
 21
31.549
  0
LINE
  8
0
 10
104.788
 11
103.67
 20
31.549
 21
31.912
  0
LINE
  8
0
 10
103.67
 11
103.67
 20
53.912
 21
55.088
  0
LINE
  8
0
 10
103.67
 11
104.788
 20
55.088
 21
55.451
  0
LINE
  8
0
 10
104.788
 11
105.479
 20
55.451
 21
54.5
  0
LINE
  8
0
 10
105.479
 11
104.788
 20
54.5
 21
53.549
  0
LINE
  8
0
 10
104.788
 11
103.67
 20
53.549
 21
53.912
  0
LINE
  8
0
 10
103.67
 11
103.67
 20
75.912
 21
77.088
  0
LINE
  8
0
 10
103.67
 11
104.788
 20
77.088
 21
77.451
  0
LINE
  8
0
 10
104.788
 11
105.479
 20
77.451
 21
76.5
  0
LINE
  8
0
 10
105.479
 11
104.788
 20
76.5
 21
75.549
  0
LINE
  8
0
 10
104.788
 11
103.67
 20
75.549
 21
75.912
  0
LINE
  8
0
 10
103.67
 11
103.67
 20
97.912
 21
99.088
  0
LINE
  8
0
 10
103.67
 11
104.788
 20
99.088
 21
99.451
  0
LINE
  8
0
 10
104.788
 11
105.479
 20
99.451
 21
98.5
  0
LINE
  8
0
 10
105.479
 11
104.788
 20
98.5
 21
97.549
  0
LINE
  8
0
 10
104.788
 11
103.67
 20
97.549
 21
97.912
  0
LINE
  8
0
 10
103.67
 11
103.67
 20
119.912
 21
121.088
  0
LINE
  8
0
 10
103.67
 11
104.788
 20
121.088
 21
121.451
  0
LINE
  8
0
 10
104.788
 11
105.479
 20
121.451
 21
120.5
  0
LINE
  8
0
 10
105.479
 11
104.788
 20
120.5
 21
119.549
  0
LINE
  8
0
 10
104.788
 11
103.67
 20
119.549
 21
119.912
  0
LINE
  8
0
 10
103.67
 11
103.67
 20
141.912
 21
143.088
  0
LINE
  8
0
 10
103.67
 11
104.788
 20
143.088
 21
143.451
  0
LINE
  8
0
 10
104.788
 11
105.479
 20
143.451
 21
142.5
  0
LINE
  8
0
 10
105.479
 11
104.788
 20
142.5
 21
141.549
  0
LINE
  8
0
 10
104.788
 11
103.67
 20
141.549
 21
141.912
  0
LINE
  8
0
 10
103.67
 11
103.67
 20
163.912
 21
165.088
  0
LINE
  8
0
 10
103.67
 11
104.788
 20
165.088
 21
165.451
  0
LINE
  8
0
 10
104.788
 11
105.479
 20
165.451
 21
164.5
  0
LINE
  8
0
 10
105.479
 11
104.788
 20
164.5
 21
163.549
  0
LINE
  8
0
 10
104.788
 11
103.67
 20
163.549
 21
163.912
  0
LINE
  8
0
 10
103.67
 11
103.67
 20
185.912
 21
187.088
  0
LINE
  8
0
 10
103.67
 11
104.788
 20
187.088
 21
187.451
  0
LINE
  8
0
 10
104.788
 11
105.479
 20
187.451
 21
186.5
  0
LINE
  8
0
 10
105.479
 11
104.788
 20
186.5
 21
185.549
  0
LINE
  8
0
 10
104.788
 11
103.67
 20
185.549
 21
185.912
  0
LINE
  8
0
 10
103.67
 11
103.67
 20
207.912
 21
209.088
  0
LINE
  8
0
 10
103.67
 11
104.788
 20
209.088
 21
209.451
  0
LINE
  8
0
 10
104.788
 11
105.479
 20
209.451
 21
208.5
  0
LINE
  8
0
 10
105.479
 11
104.788
 20
208.5
 21
207.549
  0
LINE
  8
0
 10
104.788
 11
103.67
 20
207.549
 21
207.912
  0
LINE
  8
0
 10
103.67
 11
103.67
 20
229.912
 21
231.088
  0
LINE
  8
0
 10
103.67
 11
104.788
 20
231.088
 21
231.451
  0
LINE
  8
0
 10
104.788
 11
105.479
 20
231.451
 21
230.5
  0
LINE
  8
0
 10
105.479
 11
104.788
 20
230.5
 21
229.549
  0
LINE
  8
0
 10
104.788
 11
103.67
 20
229.549
 21
229.912
  0
LINE
  8
0
 10
120.249
 11
120.249
 20
42.912
 21
44.088
  0
LINE
  8
0
 10
120.249
 11
121.367
 20
44.088
 21
44.451
  0
LINE
  8
0
 10
121.367
 11
122.058
 20
44.451
 21
43.5
  0
LINE
  8
0
 10
122.058
 11
121.367
 20
43.5
 21
42.549
  0
LINE
  8
0
 10
121.367
 11
120.249
 20
42.549
 21
42.912
  0
LINE
  8
0
 10
120.249
 11
120.249
 20
64.912
 21
66.088
  0
LINE
  8
0
 10
120.249
 11
121.367
 20
66.088
 21
66.451
  0
LINE
  8
0
 10
121.367
 11
122.058
 20
66.451
 21
65.5
  0
LINE
  8
0
 10
122.058
 11
121.367
 20
65.5
 21
64.549
  0
LINE
  8
0
 10
121.367
 11
120.249
 20
64.549
 21
64.912
  0
LINE
  8
0
 10
120.249
 11
120.249
 20
86.912
 21
88.088
  0
LINE
  8
0
 10
120.249
 11
121.367
 20
88.088
 21
88.451
  0
LINE
  8
0
 10
121.367
 11
122.058
 20
88.451
 21
87.5
  0
LINE
  8
0
 10
122.058
 11
121.367
 20
87.5
 21
86.549
  0
LINE
  8
0
 10
121.367
 11
120.249
 20
86.549
 21
86.912
  0
LINE
  8
0
 10
120.249
 11
120.249
 20
108.912
 21
110.088
  0
LINE
  8
0
 10
120.249
 11
121.367
 20
110.088
 21
110.451
  0
LINE
  8
0
 10
121.367
 11
122.058
 20
110.451
 21
109.5
  0
LINE
  8
0
 10
122.058
 11
121.367
 20
109.5
 21
108.549
  0
LINE
  8
0
 10
121.367
 11
120.249
 20
108.549
 21
108.912
  0
LINE
  8
0
 10
120.249
 11
120.249
 20
130.912
 21
132.088
  0
LINE
  8
0
 10
120.249
 11
121.367
 20
132.088
 21
132.451
  0
LINE
  8
0
 10
121.367
 11
122.058
 20
132.451
 21
131.5
  0
LINE
  8
0
 10
122.058
 11
121.367
 20
131.5
 21
130.549
  0
LINE
  8
0
 10
121.367
 11
120.249
 20
130.549
 21
130.912
  0
LINE
  8
0
 10
120.249
 11
120.249
 20
152.912
 21
154.088
  0
LINE
  8
0
 10
120.249
 11
121.367
 20
154.088
 21
154.451
  0
LINE
  8
0
 10
121.367
 11
122.058
 20
154.451
 21
153.5
  0
LINE
  8
0
 10
122.058
 11
121.367
 20
153.5
 21
152.549
  0
LINE
  8
0
 10
121.367
 11
120.249
 20
152.549
 21
152.912
  0
LINE
  8
0
 10
120.249
 11
120.249
 20
174.912
 21
176.088
  0
LINE
  8
0
 10
120.249
 11
121.367
 20
176.088
 21
176.451
  0
LINE
  8
0
 10
121.367
 11
122.058
 20
176.451
 21
175.5
  0
LINE
  8
0
 10
122.058
 11
121.367
 20
175.5
 21
174.549
  0
LINE
  8
0
 10
121.367
 11
120.249
 20
174.549
 21
174.912
  0
LINE
  8
0
 10
120.249
 11
120.249
 20
196.912
 21
198.088
  0
LINE
  8
0
 10
120.249
 11
121.367
 20
198.088
 21
198.451
  0
LINE
  8
0
 10
121.367
 11
122.058
 20
198.451
 21
197.5
  0
LINE
  8
0
 10
122.058
 11
121.367
 20
197.5
 21
196.549
  0
LINE
  8
0
 10
121.367
 11
120.249
 20
196.549
 21
196.912
  0
LINE
  8
0
 10
120.249
 11
120.249
 20
218.912
 21
220.088
  0
LINE
  8
0
 10
120.249
 11
121.367
 20
220.088
 21
220.451
  0
LINE
  8
0
 10
121.367
 11
122.058
 20
220.451
 21
219.5
  0
LINE
  8
0
 10
122.058
 11
121.367
 20
219.5
 21
218.549
  0
LINE
  8
0
 10
121.367
 11
120.249
 20
218.549
 21
218.912
  0
ENDSEC
  0
SECTION
  2
OBJECTS
  0
DICTIONARY
  0
ENDSEC
  0
EOF
